<svg width="26" height="29" viewBox="0 0 26 29" fill="none" xmlns="http://www.w3.org/2000/svg">
<path d="M12.9996 10.492C10.7868 10.492 8.97344 12.2621 8.97344 14.4459C8.97344 16.63 10.7868 18.4001 12.9996 18.4001C15.2124 18.4001 17.0258 16.63 17.0258 14.4461C17.0258 12.2621 15.2124 10.492 12.9996 10.492ZM12.9996 17.1807C11.4545 17.1807 10.2049 15.9469 10.2049 14.4459C10.2049 12.9449 11.4545 11.7112 12.9996 11.7112C14.5447 11.7112 15.7944 12.9449 15.7944 14.4459C15.7944 15.9471 14.5448 17.1807 12.9996 17.1807Z" fill="#F38328" stroke="#F38328" stroke-width="0.6"/>
<path d="M13 19.0813C16.1816 19.0813 18.8642 21.818 18.9504 25.0911C17.2268 26.1821 15.1861 26.8114 12.9686 26.8114C10.7516 26.8114 8.7409 26.1825 7.01823 25.0911C7.10537 21.82 9.8165 19.0813 13 19.0813ZM24.0681 15.9637C24.0681 19.2949 22.531 22.2775 20.129 24.2484C19.6403 20.6987 16.5829 17.8625 13 17.8625C9.41652 17.8625 6.36003 20.6994 5.87109 24.2751C3.46813 22.2771 1.93164 19.2941 1.93164 15.9637C1.93164 9.97281 6.87597 5.11589 12.9999 5.11589C19.1238 5.11589 24.0681 9.9727 24.0681 15.9637ZM13 3.89629C6.2084 3.89629 0.7 9.2894 0.7 15.9636C0.7 22.6378 6.20829 28.0309 13 28.0309C19.7917 28.0309 25.3 22.6378 25.3 15.9636C25.3 9.2894 19.7917 3.89629 13 3.89629Z" fill="#F38328" stroke="#F38328" stroke-width="0.6"/>
</svg>
