<svg width="27" height="26" viewBox="0 0 27 26" fill="none" xmlns="http://www.w3.org/2000/svg">
<path d="M1.41488 2.9001L1.41518 2.9001L3.43325 2.9H3.43325C4.437 2.9 5.33215 3.52256 5.62014 4.43686C5.62014 4.43688 5.62015 4.43689 5.62015 4.43691L6.12394 6.03357H24.5944C24.7551 6.03357 24.9085 6.10463 25.007 6.22892M1.41488 2.9001L24.9287 6.29106M1.41488 2.9001C1.13671 2.90095 0.900967 3.11433 0.900003 3.39032L1.41488 2.9001ZM25.007 6.22892L24.9287 6.29106M25.007 6.22892C25.007 6.2289 25.007 6.22888 25.007 6.22886L24.9287 6.29106M25.007 6.22892C25.1059 6.35344 25.1373 6.51631 25.0897 6.66725M24.9287 6.29106C25.0074 6.39011 25.0317 6.51855 24.9943 6.63719M25.0897 6.66725L25.0897 6.66721L24.9943 6.63719M25.0897 6.66725L22.746 14.1153L22.746 14.1153C22.6794 14.3268 22.4755 14.466 22.2507 14.466H8.08353C7.85871 14.466 7.65511 14.3269 7.58846 14.1155M25.0897 6.66725L24.9943 6.63719M24.9943 6.63719L7.58846 14.1155M7.58846 14.1155L7.68878 14.1001C7.74598 14.2586 7.90434 14.366 8.08353 14.366H22.2507C22.4354 14.366 22.5981 14.2519 22.6506 14.0853L7.58846 14.1155ZM7.58846 14.1155C7.58846 14.1155 7.58846 14.1155 7.58846 14.1155C7.58844 14.1154 7.58843 14.1154 7.58841 14.1153L7.68324 14.0855M7.58846 14.1155L7.58841 14.1155L4.62951 4.72004L4.62951 4.72004C4.47369 4.22521 3.99142 3.88424 3.43304 3.88424H1.41518H1.41487V3.88424C1.27964 3.88381 1.14914 3.83268 1.05222 3.74107L1.05205 3.7409C0.955055 3.64879 0.899532 3.52281 0.900003 3.39034L7.68324 14.0855M7.68324 14.0855L7.68374 14.0853L7.68374 14.0853L7.67912 14.0706L7.58379 14.0853V14.0855H7.68324ZM8.46753 13.4819L6.43292 7.01781H23.9012L21.8665 13.4819H8.46753Z" fill="#F38328" stroke="#F38328" stroke-width="0.2"/>
<path d="M8.18362 13.4825V13.4913C8.41758 13.5359 8.59985 13.7319 8.5988 13.9756M8.18362 13.4825L8.08362 14.3658L8.08393 14.4658C8.08407 14.4658 8.08422 14.4658 8.08436 14.4658C8.36232 14.4647 8.5978 14.2514 8.5988 13.9756M8.18362 13.4825L8.08434 13.4818V13.4818C8.08432 13.4818 8.0843 13.4818 8.08428 13.4818V13.4818L8.08421 13.4818L8.08402 13.4818L8.08344 13.4818L8.0815 13.4818L8.0746 13.4818L8.04909 13.4823C8.02706 13.4828 7.99519 13.484 7.95485 13.4865C7.8742 13.4915 7.75952 13.5018 7.62185 13.523C7.34697 13.5653 6.97799 13.6513 6.60468 13.8269C6.23116 14.0026 5.84626 14.2721 5.55466 14.6778C5.26232 15.0845 5.06772 15.6226 5.06772 16.3278C5.06772 17.7349 5.85357 18.4724 6.60468 18.8256L8.18362 13.4825ZM8.5988 13.9756L8.4988 13.9752L8.5988 13.9755C8.5988 13.9756 8.5988 13.9756 8.5988 13.9756ZM25.5817 18.1866H25.5814H8.08422L25.5813 18.1866L25.5817 18.2866V18.1866Z" fill="#F38328" stroke="#F38328" stroke-width="0.2"/>
<path d="M10.5842 19.7552C9.38922 19.7552 8.39878 20.6761 8.39878 21.8159C8.39878 22.9557 9.38922 23.8766 10.5842 23.8766C11.7793 23.8766 12.7664 22.9555 12.7664 21.8159C12.7664 20.6763 11.7793 19.7552 10.5842 19.7552ZM10.5842 20.7401C11.23 20.7401 11.7329 21.2222 11.7329 21.8159C11.7329 22.4099 11.2298 22.8918 10.5842 22.8918C9.93797 22.8918 9.4323 22.4094 9.4323 21.8159C9.4323 21.2223 9.93801 20.7401 10.5842 20.7401Z" fill="#F38328" stroke="#F38328" stroke-width="0.2"/>
<path d="M20.5837 19.7552C19.3886 19.7552 18.4015 20.6763 18.4015 21.8159C18.4015 22.9555 19.3886 23.8766 20.5837 23.8766C21.7788 23.8766 22.7659 22.9555 22.7659 21.8159C22.7659 20.6763 21.7788 19.7552 20.5837 19.7552ZM20.5837 20.7401C21.2295 20.7401 21.7324 21.2222 21.7324 21.8159C21.7324 22.4099 21.2294 22.8918 20.5837 22.8918C19.9375 22.8918 19.4318 22.4094 19.4318 21.8159C19.4318 21.2223 19.9376 20.7401 20.5837 20.7401Z" fill="#F38328" stroke="#F38328" stroke-width="0.2"/>
</svg>
