<svg width="77" height="85" viewBox="0 0 77 85" fill="none" xmlns="http://www.w3.org/2000/svg">
<path d="M37.8694 6.22275H39.8883V8.25851C39.8883 9.02945 40.5081 9.65373 41.2721 9.65373C42.036 9.65373 42.6558 9.02945 42.6558 8.25851V6.22275H44.6761C45.44 6.22275 46.0598 5.59847 46.0598 4.82753C46.0598 4.05659 45.44 3.43231 44.6761 3.43231H42.6558L42.6564 1.39522C42.6564 0.624282 42.0366 0 41.2727 0C40.5088 0 39.889 0.624282 39.889 1.39522V3.43164H37.87C37.1061 3.43164 36.4863 4.05592 36.4863 4.82687C36.485 5.59846 37.1048 6.22275 37.8694 6.22275ZM59.8532 76.7432H57.8343V74.7074C57.8343 73.9371 57.2145 73.3122 56.4505 73.3122C55.6866 73.3122 55.0668 73.9371 55.0668 74.7074V76.7432H53.0465C52.2826 76.7432 51.6628 77.3681 51.6628 78.1384C51.6628 78.9087 52.2826 79.5336 53.0465 79.5336H55.0668V81.5694C55.0668 82.3397 55.6866 82.9646 56.4505 82.9646C57.2145 82.9646 57.8343 82.3397 57.8343 81.5694V79.5336H59.8532C60.6171 79.5336 61.2369 78.9087 61.2369 78.1384C61.2376 77.3681 60.6171 76.7432 59.8532 76.7432ZM8.9113 15.9646C10.2274 15.9646 11.2945 14.8886 11.2945 13.5615C11.2945 12.2344 10.2275 11.1585 8.9113 11.1585C7.59514 11.1585 6.52806 12.2344 6.52806 13.5615C6.52806 14.8886 7.59514 15.9646 8.9113 15.9646ZM7.83523 65.5012C6.51908 65.5012 5.45198 66.5771 5.45198 67.9042C5.45198 69.2313 6.51906 70.3073 7.83523 70.3073C9.15139 70.3073 10.2185 69.2313 10.2185 67.9042C10.2185 66.5771 9.15139 65.5012 7.83523 65.5012ZM65.9244 20.7043C67.2405 20.7043 68.3076 19.6283 68.3076 18.3012C68.3076 16.9741 67.2406 15.8982 65.9244 15.8982C64.6082 15.8982 63.5411 16.9741 63.5411 18.3012C63.5411 19.6283 64.6082 20.7043 65.9244 20.7043ZM74.6168 51.5944C73.3006 51.5944 72.2335 52.6704 72.2335 53.9975C72.2335 55.3246 73.3006 56.4006 74.6168 56.4006C75.9329 56.4006 77 55.3246 77 53.9975C77 52.6704 75.9329 51.5944 74.6168 51.5944ZM69.1777 36.831C70.1547 38.8045 70.407 41.0057 69.887 43.0291C69.3998 44.924 68.2947 46.4589 66.7475 47.4075C66.9612 50.4199 65.5575 53.1488 63.0572 54.4057C62.5166 54.6776 61.9483 54.8684 61.3582 54.9761C60.6322 57.2546 59.1185 59.0936 57.0989 60.1092C55.9384 60.6932 54.6879 60.9729 53.4297 60.9729C52.5376 60.9729 51.643 60.8237 50.7709 60.5511L45.0283 65.7679C43.9451 66.7738 43.2673 68.4682 43.3125 70.0737L43.6523 82.2161C43.6729 82.9527 43.4038 83.6509 42.8935 84.1791C42.3837 84.708 41.7003 84.9994 40.9691 84.9994L29.1797 85C28.448 85 27.7651 84.7086 27.2553 84.1797C26.7456 83.6508 26.476 82.9532 26.4965 82.2168L26.8364 70.075C26.8499 69.598 26.7347 68.9854 26.5023 68.3007C26.0358 66.9178 25.1534 65.6225 23.9519 64.555L16.8982 58.2843C13.8404 57.1901 11.4064 54.9681 10.3393 52.1498C4.76006 52.7137 0 48.8071 0 43.9795C0 40.1637 2.9393 36.8781 7.14709 35.9903C7.88786 35.8339 8.62928 36.3154 8.78503 37.0708C8.80498 37.1669 8.81399 37.2622 8.81399 37.357C8.81463 38.004 8.36735 38.5848 7.71409 38.723C4.80115 39.3376 2.76752 41.4992 2.76752 43.9802C2.76752 47.4301 6.67611 50.1802 11.0164 49.2204C11.7661 49.0517 12.4992 49.53 12.6646 50.2815C13.4221 53.7331 17.0172 56.2387 21.2135 56.2387C23.6939 56.2387 26.0681 55.3367 27.7279 53.763C28.1057 53.4042 28.6534 53.288 29.1386 53.4652C29.9 53.7377 30.7071 53.876 31.5392 53.876C32.8734 53.876 34.1399 53.5041 35.1683 52.8688C33.9577 49.6377 34.6374 46.0789 36.9634 43.9491C37.531 43.4319 38.405 43.4747 38.9186 44.0439C39.4322 44.6143 39.391 45.4975 38.8246 46.0153C37.1976 47.5053 36.8674 50.1737 38.0208 52.506C38.6991 53.8779 39.7875 54.9312 41.0861 55.4718C42.3167 55.9831 43.591 55.9669 44.6703 55.4237C44.9927 55.2609 45.3036 55.0402 45.5945 54.7657C45.8835 54.4932 46.2728 54.3575 46.6732 54.3971C47.0677 54.4361 47.4281 54.6444 47.6604 54.9688C49.7277 57.854 53.1792 58.9662 55.8617 57.6146C57.4301 56.8261 58.5126 55.3317 58.9097 53.4056C59.041 52.767 59.5945 52.3056 60.2413 52.2946C60.8018 52.2855 61.3335 52.1563 61.8206 51.911C63.485 51.0745 64.3159 49.0511 63.8879 46.8771C63.7592 46.2191 64.1112 45.5617 64.7284 45.3106C64.861 45.2567 64.9376 45.2282 65.0116 45.1905C66.0935 44.6461 66.8722 43.6318 67.2062 42.3313C67.5582 40.96 67.378 39.4506 66.701 38.0793C65.5457 35.7477 63.2366 34.4051 61.0741 34.8229C60.5689 34.9209 60.0772 34.721 59.7644 34.3498C59.2508 38.4796 56.3559 41.9145 52.3618 42.9327C51.6139 43.1235 50.868 42.6692 50.6807 41.9223C50.4935 41.1747 50.942 40.4161 51.6828 40.2273C54.8641 39.4161 57.0864 36.4595 57.0864 33.037C57.0864 28.9512 53.9084 25.6268 50.0024 25.6268C49.4309 25.6268 48.8382 25.7086 48.239 25.8695C47.8651 25.9688 47.468 25.9078 47.1423 25.6995C46.816 25.4912 46.5908 25.155 46.5213 24.7722C45.684 20.1647 41.8172 16.8207 37.3257 16.8207C34.7064 16.8207 32.1854 17.9894 30.4085 20.0278C30.0114 20.4827 29.3704 20.6255 28.8227 20.3893C28.0246 20.0434 27.1809 19.8682 26.3152 19.8682C23.4357 19.8682 20.918 21.7975 20.0506 24.669C19.862 25.292 19.2648 25.7002 18.6276 25.6541C18.4088 25.6379 18.2762 25.6268 18.141 25.6268C14.2351 25.6268 11.0584 28.9514 11.0584 33.0371C11.0584 36.4597 13.28 39.4156 16.4607 40.2273C17.2021 40.4162 17.6507 41.1748 17.4634 41.9217C17.305 42.5551 16.7419 42.9756 16.1228 42.9756C16.0108 42.9756 15.8969 42.9619 15.783 42.9327C12.8122 42.1754 10.4502 40.0806 9.22027 37.3589C8.62366 36.0383 8.28964 34.5729 8.28964 33.0369C8.28964 27.541 12.5083 23.0464 17.7684 22.8427C19.2454 19.354 22.5613 17.0768 26.3146 17.0768C27.2292 17.0768 28.1257 17.2124 28.9913 17.4818C31.2388 15.2772 34.2262 14.0294 37.3252 14.0294C42.6953 14.0294 47.3722 17.6856 48.9175 22.9011C49.2817 22.8569 49.6434 22.8349 50.0013 22.8349C55.251 22.8349 59.5425 27.1127 59.8257 32.4769C60.0168 32.2796 60.2666 32.1355 60.5562 32.0797C63.9229 31.4308 67.4728 33.3844 69.1777 36.831ZM41.6086 59.737L42.6345 58.6221C42.2934 58.6097 41.951 58.5786 41.6086 58.5157V59.737ZM27.4264 57.4085L28.5418 58.3449V56.6816C28.1846 56.9431 27.8145 57.1885 27.4264 57.4085ZM48.0889 59.2326C47.6422 58.9237 47.2162 58.5733 46.8101 58.1871L42.366 63.0165C41.7939 63.6395 40.9179 63.8407 40.1315 63.5305C39.3477 63.2197 38.8405 62.4701 38.8405 61.6207V57.4259C37.9562 56.8743 37.1703 56.1559 36.5177 55.3039C35.0851 56.1651 33.37 56.6654 31.5395 56.6654C31.4623 56.6654 31.387 56.6524 31.3098 56.6511V59.9237C31.3098 60.7284 30.8599 61.441 30.1378 61.7817C29.4163 62.1224 28.5861 62.014 27.9727 61.5001L24.5147 58.5935C23.6652 58.8193 22.7848 58.9536 21.8901 59.0004L25.7819 62.4598C27.3452 63.8492 28.5004 65.5573 29.1227 67.3995C29.4651 68.4086 29.6266 69.3366 29.6028 70.153L29.2656 82.209H40.8838L40.5465 70.153C40.4783 67.7389 41.481 65.2678 43.1647 63.7051L48.0889 59.2326ZM22.6863 32.0936C22.6863 30.8814 23.6639 29.8957 24.8661 29.8957C25.6525 29.8957 26.3804 30.3383 26.7672 31.0515C26.9564 31.4006 27.2853 31.6518 27.6702 31.742C28.0505 31.8302 28.4586 31.7517 28.7823 31.5213C29.46 31.0372 30.2548 30.7815 31.0805 30.7815C33.2797 30.7815 35.0695 32.5855 35.0695 34.8031C35.0695 35.574 35.6893 36.1983 36.4532 36.1983C37.2172 36.1983 37.8369 35.574 37.8369 34.8031C37.8369 31.047 34.8057 27.9904 31.0798 27.9904C30.1299 27.9904 29.2057 28.189 28.3504 28.5719C27.4365 27.6458 26.1886 27.1052 24.8654 27.1052C22.1372 27.1052 19.9182 29.3435 19.9182 32.0943C19.9182 32.8652 20.538 33.4895 21.3019 33.4895C22.0665 33.4889 22.6863 32.8646 22.6863 32.0936Z" fill="#F38328"/>
</svg>
