<svg width="20" height="19" viewBox="0 0 20 19" fill="none" xmlns="http://www.w3.org/2000/svg">
<path d="M17.8002 2.67498H15.9502V2.32498C15.9502 1.86054 15.7024 1.43137 15.3002 1.19912L15.3002 1.19911C14.898 0.966965 14.4024 0.966965 14.0002 1.19911L14.0002 1.19912C13.598 1.4314 13.3502 1.86058 13.3502 2.32498V2.67498H6.6502V2.32498C6.6502 1.86054 6.40238 1.43137 6.0002 1.19912L6.00019 1.19911C5.59801 0.966965 5.10239 0.966965 4.7002 1.19911L4.70018 1.19912C4.29801 1.4314 4.0502 1.86058 4.0502 2.32498V2.67498H2.2002C1.77589 2.67498 1.36893 2.84356 1.06878 3.14352L1.06874 3.14356C0.768748 3.44369 0.600195 3.85068 0.600195 4.27498V16.575C0.600195 16.9993 0.768769 17.4062 1.06873 17.7064L1.06877 17.7064C1.3689 18.0064 1.77589 18.175 2.2002 18.175H17.8002C18.2245 18.175 18.6315 18.0064 18.9316 17.7064L18.9317 17.7064C19.2316 17.4063 19.4002 16.9993 19.4002 16.575V4.27498C19.4002 3.85068 19.2316 3.44372 18.9317 3.14356L18.9316 3.14352C18.6315 2.84354 18.2245 2.67498 17.8002 2.67498ZM15.95 4.12498V3.47498H17.8C18.0122 3.47498 18.2158 3.55928 18.3657 3.70926C18.5157 3.85926 18.6 4.06285 18.6 4.27497V6.42497H1.40001V4.27497C1.40001 4.06281 1.4843 3.85922 1.63428 3.70927C1.78428 3.5593 1.98788 3.47498 2.19999 3.47498H2.20002H4.05002V4.12498C4.05002 4.58942 4.29784 5.0186 4.70002 5.25085L4.70003 5.25086C5.10221 5.483 5.59783 5.483 6.00001 5.25086L6.00004 5.25085C6.40221 5.01857 6.65002 4.58939 6.65002 4.12498V3.47498H13.35V4.12498C13.35 4.58942 13.5978 5.0186 14 5.25085L14 5.25086C14.4022 5.483 14.8978 5.483 15.3 5.25086L15.3 5.25085C15.7022 5.01857 15.95 4.58939 15.95 4.12498ZM14.15 2.32498C14.15 2.14629 14.2453 1.98123 14.4 1.89196C14.5547 1.80267 14.7453 1.80267 14.9 1.89196C15.0547 1.98123 15.15 2.14629 15.15 2.32498V4.12498C15.15 4.30368 15.0547 4.46873 14.9 4.55801C14.7453 4.6473 14.5547 4.6473 14.4 4.55801C14.2453 4.46873 14.15 4.30367 14.15 4.12498V2.32498ZM4.85002 2.32498C4.85002 2.14629 4.94534 1.98123 5.10001 1.89196C5.25471 1.80267 5.44535 1.80267 5.60003 1.89196C5.7547 1.98123 5.85002 2.14629 5.85002 2.32498V4.12498C5.85002 4.30368 5.75471 4.46873 5.60003 4.55801C5.44534 4.6473 5.2547 4.6473 5.10001 4.55801C4.94534 4.46873 4.85002 4.30367 4.85002 4.12498V2.32498ZM17.8 17.375H2.20002C1.98787 17.375 1.78428 17.2907 1.63433 17.1407C1.48436 16.9907 1.40004 16.7871 1.40004 16.575V7.22517H18.6V16.575C18.6 16.7872 18.5157 16.9907 18.3658 17.1407C18.2158 17.2907 18.0122 17.375 17.8001 17.375H17.8Z" fill="#F38328" stroke="#F38328" stroke-width="0.2"/>
</svg>
