<svg width="27" height="26" viewBox="0 0 27 26" fill="none" xmlns="http://www.w3.org/2000/svg">
<path d="M1.41488 2.9001L1.41518 2.9001L3.43325 2.9H3.43325C4.437 2.9 5.33215 3.52256 5.62014 4.43686C5.62014 4.43688 5.62015 4.43689 5.62015 4.43691L6.12394 6.03357H24.5944C24.7551 6.03357 24.9085 6.10463 25.007 6.22892M1.41488 2.9001L24.9287 6.29106M1.41488 2.9001C1.13671 2.90095 0.900967 3.11433 0.900003 3.39032L1.41488 2.9001ZM25.007 6.22892L24.9287 6.29106M25.007 6.22892C25.007 6.2289 25.007 6.22888 25.007 6.22886L24.9287 6.29106M25.007 6.22892C25.1059 6.35343 25.1373 6.51629 25.0897 6.66721L24.9943 6.63719M24.9287 6.29106C25.0074 6.39011 25.0317 6.51855 24.9943 6.63719M24.9943 6.63719L25.0897 6.66725M24.9943 6.63719L25.0897 6.66725M25.0897 6.66725L22.746 14.1153L22.746 14.1153C22.6794 14.3268 22.4755 14.466 22.2507 14.466H8.08353C7.8587 14.466 7.65511 14.3269 7.58846 14.1155M25.0897 6.66725L22.6506 14.0853C22.5981 14.2519 22.4354 14.366 22.2507 14.366H8.08353C7.90434 14.366 7.74598 14.2586 7.68878 14.1001L7.58846 14.1155M7.58846 14.1155L7.58841 14.1155L4.62951 4.72004L4.62951 4.72004C4.47369 4.22521 3.99142 3.88424 3.43304 3.88424H1.41518H1.41487V3.88424C1.27964 3.88381 1.14914 3.83268 1.05222 3.74107L1.05205 3.7409C0.955055 3.64879 0.899532 3.52281 0.900003 3.39034L7.58846 14.1155ZM7.68374 14.0853L7.68324 14.0855L7.68374 14.0853ZM7.68379 14.0853C7.68381 14.0853 7.68383 14.0854 7.68384 14.0855L7.68379 14.0853ZM8.46753 13.4819L6.43292 7.01781H23.9012L21.8665 13.4819H8.46753Z" fill="#525252" stroke="#525252" stroke-width="0.2"/>
<path d="M8.18387 13.4825V13.4913C8.41782 13.5359 8.6001 13.7319 8.59905 13.9756M8.18387 13.4825L8.08387 14.3658L8.08417 14.4658C8.08432 14.4658 8.08446 14.4658 8.0846 14.4658C8.36256 14.4647 8.59804 14.2514 8.59905 13.9756M8.18387 13.4825L8.08458 13.4818V13.4818C8.08456 13.4818 8.08454 13.4818 8.08453 13.4818V13.4818L8.08445 13.4818L8.08426 13.4818L8.08368 13.4818L8.08175 13.4818L8.07484 13.4818L8.04934 13.4823C8.02731 13.4828 7.99544 13.484 7.9551 13.4865C7.87445 13.4915 7.75977 13.5018 7.6221 13.523C7.34721 13.5653 6.97823 13.6513 6.60493 13.8269C6.23141 14.0026 5.8465 14.2721 5.55491 14.6778C5.26256 15.0845 5.06797 15.6226 5.06797 16.3278C5.06797 17.7349 5.85381 18.4724 6.60493 18.8256M8.18387 13.4825L8.08426 19.1708M8.59905 13.9756L8.49905 13.9752L8.59905 13.9755C8.59905 13.9756 8.59905 13.9756 8.59905 13.9756ZM8.08426 19.1708L8.08387 19.1708L8.08368 19.1708L8.08175 19.1708L8.07484 19.1707L8.04934 19.1703C8.02731 19.1697 7.99544 19.1685 7.9551 19.166C7.87445 19.161 7.75977 19.1507 7.6221 19.1295C7.34721 19.0873 6.97823 19.0012 6.60493 18.8256M8.08426 19.1708H25.5816C25.5816 19.1708 25.5816 19.1708 25.5817 19.1708L8.08426 19.1708ZM6.60493 18.8256L6.64715 18.7359L6.60494 18.8256C6.60493 18.8256 6.60493 18.8256 6.60493 18.8256ZM26.1003 18.6769C26.1003 18.6768 26.1003 18.6768 26.1003 18.6768L26.0003 18.6772L26.1003 18.6769Z" fill="#525252" stroke="#525252" stroke-width="0.2"/>
<path d="M10.5844 19.7552C9.38946 19.7552 8.39902 20.6761 8.39902 21.8159C8.39902 22.9557 9.38946 23.8766 10.5844 23.8766C11.7795 23.8766 12.7666 22.9555 12.7666 21.8159C12.7666 20.6763 11.7795 19.7552 10.5844 19.7552ZM10.5844 20.7401C11.2302 20.7401 11.7331 21.2222 11.7331 21.8159C11.7331 22.4099 11.2301 22.8918 10.5844 22.8918C9.93822 22.8918 9.43255 22.4094 9.43255 21.8159C9.43255 21.2223 9.93825 20.7401 10.5844 20.7401Z" fill="#525252" stroke="#525252" stroke-width="0.2"/>
<path d="M20.5837 19.7552C19.3886 19.7552 18.4015 20.6763 18.4015 21.8159C18.4015 22.9555 19.3886 23.8766 20.5837 23.8766C21.7788 23.8766 22.7659 22.9555 22.7659 21.8159C22.7659 20.6763 21.7788 19.7552 20.5837 19.7552ZM20.5837 20.7401C21.2295 20.7401 21.7324 21.2222 21.7324 21.8159C21.7324 22.4099 21.2294 22.8918 20.5837 22.8918C19.9375 22.8918 19.4318 22.4094 19.4318 21.8159C19.4318 21.2223 19.9376 20.7401 20.5837 20.7401Z" fill="#525252" stroke="#525252" stroke-width="0.2"/>
</svg>
