<svg width="21" height="21" viewBox="0 0 21 21" fill="none" xmlns="http://www.w3.org/2000/svg">
<path d="M10.5 0.456543C4.704 0.456543 0 4.89817 0 10.3709C0 15.8436 4.704 20.2852 10.5 20.2852C16.296 20.2852 21 15.8436 21 10.3709C21 4.89817 16.296 0.456543 10.5 0.456543ZM10.5 18.3024C5.8695 18.3024 2.1 14.7431 2.1 10.3709C2.1 5.99867 5.8695 2.43941 10.5 2.43941C15.1305 2.43941 18.9 5.99867 18.9 10.3709C18.9 14.7431 15.1305 18.3024 10.5 18.3024ZM15.3195 5.98875L8.4 12.5223L5.6805 9.96441L4.2 11.3623L8.4 15.3281L16.8 7.39659L15.3195 5.98875Z" fill="#525252"/>
</svg>
