<svg width="78" height="74" viewBox="0 0 78 74" fill="none" xmlns="http://www.w3.org/2000/svg">
<mask id="path-1-outside-1_2_754" maskUnits="userSpaceOnUse" x="0" y="0" width="78" height="74" fill="black">
<rect fill="white" width="78" height="74"/>
<path d="M76.9327 18.2651C76.8033 17.9441 76.507 17.7298 76.1652 17.7069C70.9144 17.3555 62.4953 8.58069 62.4111 8.48897L62.373 8.45058C55.8379 2.35859 47.3352 -0.072045 37.7837 1.43413C32.0998 2.32826 27.6844 4.33088 25.9904 5.17958C25.4052 4.83569 24.82 4.49925 24.2275 4.1783C23.893 4.00235 23.4902 3.97196 23.118 4.13991C22.4799 4.42248 22.1984 5.17959 22.4799 5.81411L22.4952 5.85249C22.6394 6.15054 22.7915 6.50989 22.9283 6.84631C23.0725 7.1902 23.2092 7.5341 23.346 7.87799C23.6195 8.57378 23.8702 9.27648 24.1061 9.98773C24.5847 11.4091 25.0029 12.854 25.3676 14.3064C26.0896 17.2186 26.5756 20.1921 26.758 23.1805C26.811 23.9296 26.8263 24.6788 26.8417 25.4198C26.8343 26.1689 26.8417 26.9181 26.7961 27.6591C26.7733 28.4082 26.6975 29.1498 26.6291 29.891L26.485 30.9994C26.4468 31.3737 26.3784 31.7331 26.31 32.0999C25.8468 34.9049 24.9727 37.6261 23.7721 40.1864C23.4758 39.9188 23.2023 39.6207 22.959 39.2923C22.7385 38.9868 22.526 38.6882 22.3436 38.4056C21.0519 36.3876 16.5988 32.0999 11.7737 32.4822C8.42268 32.7499 5.74799 35.1497 3.80267 39.6058C-2.14728 53.2877 2.1993 63.3621 9.15991 67.2903L9.1827 67.3057C11.6449 68.8497 14.3805 69.5989 17.2221 69.5989C22.2375 69.5989 27.5641 67.2525 32.23 62.7808C35.8625 69.7899 41.7742 73 47.307 73C47.421 73 47.5424 73 47.6563 72.9925H47.7019C55.6581 73.1834 64.5037 66.74 66.3193 51.9265C66.9119 47.096 65.8178 43.656 63.0748 41.7073C59.1232 38.9023 53.1129 40.3088 50.9773 41.3789C50.681 41.5319 50.3466 41.6844 49.9745 41.8374C49.5112 42.0283 49.0246 42.1658 48.5305 42.2346C48.5152 42.0358 48.5003 41.8449 48.4849 41.646C48.4394 41.1416 48.3864 40.6447 48.318 40.1478C48.1886 39.1539 48.037 38.1681 47.8467 37.1897C47.4746 35.2255 46.988 33.2917 46.3955 31.3808C45.2103 27.5666 43.5687 23.8903 41.5094 20.4509C40.4609 18.7389 39.3133 17.0951 38.0672 15.5287C37.8621 15.284 37.6569 15.0393 37.4518 14.7951C47.7863 20.3369 56.7978 23.1344 64.3289 23.1344C65.1648 23.1344 65.9853 23.096 66.7836 23.0273C73.7746 22.4232 76.6396 19.2972 76.7609 19.1672C77.002 18.9528 77.063 18.586 76.9337 18.2645L76.9327 18.2651ZM10.1233 65.7926C10.1079 65.7851 10.093 65.7697 10.0702 65.7622L10.0321 65.7468C2.53181 61.5124 0.69301 51.3074 5.45767 40.3622C7.1141 36.5559 9.28739 34.5224 11.9243 34.3085C15.6857 34.003 19.6526 37.5417 20.8452 39.4141C21.0503 39.7276 21.2783 40.056 21.5216 40.3925C22.7524 42.0586 24.6293 43.1825 26.6658 43.4725C27.0914 43.5339 27.5017 43.5797 27.8891 43.6101C28.5273 43.6559 29.3404 43.8319 30.1763 44.0995C29.0441 46.0638 28.664 48.6933 29.0669 51.9648C29.4925 55.473 30.3205 58.4999 31.4299 61.0991C24.652 67.8554 16.3392 69.7055 10.123 65.792L10.1233 65.7926ZM50.6784 43.5419C51.0887 43.3739 51.4613 43.198 51.7953 43.0295C53.8391 42.0053 58.9457 41.004 62.0614 43.2129C64.2192 44.7495 65.0631 47.6158 64.5617 51.7355C63.1252 63.4455 56.5298 71.2264 48.0951 71.2264C47.9812 71.2264 47.8672 71.2264 47.7532 71.219H47.7304H47.6547C39.0528 71.4253 32.2967 63.5984 30.8461 51.7281C30.3447 47.6082 31.1806 44.7419 33.3464 43.2054C36.4621 40.9891 41.5687 41.9904 43.6126 43.022C43.9391 43.1825 44.3043 43.3505 44.6918 43.5189C45.6035 43.9012 46.5762 44.1076 47.5567 44.123C47.6176 44.1305 47.6781 44.1385 47.739 44.1385C47.7693 44.1385 47.8 44.131 47.8302 44.123C48.8018 44.1225 49.7744 43.9236 50.6787 43.5419H50.6784ZM39.6902 21.6433C41.704 24.8919 43.3376 28.3847 44.5308 32.0309C45.1313 33.8576 45.6248 35.7151 46.0128 37.5956C46.2105 38.5356 46.3775 39.4836 46.5143 40.4315C46.5826 40.9055 46.6436 41.3795 46.6966 41.8529C46.712 41.983 46.7268 42.1126 46.7348 42.2501C46.2715 42.1739 45.8231 42.0438 45.39 41.8604C45.0327 41.7074 44.7062 41.5623 44.4173 41.4093C42.2823 40.3393 36.2714 38.9253 32.3199 41.7378C31.9626 41.9899 31.6361 42.2731 31.3318 42.5786C30.154 42.1504 28.9688 41.8679 28.019 41.8065C27.6845 41.7836 27.3045 41.7378 26.9249 41.6845C26.3625 41.6082 25.8155 41.4397 25.2988 41.203C26.6816 38.4513 27.6999 35.5087 28.2623 32.4819C28.3381 32.0922 28.4145 31.7099 28.4675 31.3201L28.6424 30.1509C28.7261 29.3714 28.8247 28.584 28.8629 27.797C28.9313 27.0095 28.9387 26.2226 28.9615 25.435C28.9541 24.6475 28.9615 23.8606 28.9159 23.0811C28.7866 19.9396 28.3381 16.8286 27.6544 13.7715C27.3125 12.2429 26.9022 10.7292 26.431 9.23095C26.317 8.87159 26.2031 8.51224 26.0817 8.15342C28.3234 9.53703 30.4509 11.1115 32.4043 12.8847C33.088 13.5421 33.7946 14.1766 34.4333 14.8798C35.1022 15.5527 35.7097 16.2864 36.3405 17.0044C37.5474 18.4861 38.6648 20.0302 39.6905 21.643L39.6902 21.6433ZM66.4235 21.2919C60.4434 21.7504 49.8728 20.2602 33.4822 10.5144C33.3836 10.4531 33.2771 10.4227 33.1785 10.4073C31.4992 8.90902 29.6982 7.54097 27.8138 6.31036C29.8576 5.37786 33.6041 3.91004 38.1182 3.20738C47.2066 1.79347 54.9498 3.99486 61.1348 9.75785C61.6441 10.2932 68.3917 17.2638 74.0072 19.0829C72.6163 19.9312 70.1696 21.0087 66.4231 21.2919L66.4235 21.2919Z"/>
</mask>
<path d="M76.9327 18.2651C76.8033 17.9441 76.507 17.7298 76.1652 17.7069C70.9144 17.3555 62.4953 8.58069 62.4111 8.48897L62.373 8.45058C55.8379 2.35859 47.3352 -0.072045 37.7837 1.43413C32.0998 2.32826 27.6844 4.33088 25.9904 5.17958C25.4052 4.83569 24.82 4.49925 24.2275 4.1783C23.893 4.00235 23.4902 3.97196 23.118 4.13991C22.4799 4.42248 22.1984 5.17959 22.4799 5.81411L22.4952 5.85249C22.6394 6.15054 22.7915 6.50989 22.9283 6.84631C23.0725 7.1902 23.2092 7.5341 23.346 7.87799C23.6195 8.57378 23.8702 9.27648 24.1061 9.98773C24.5847 11.4091 25.0029 12.854 25.3676 14.3064C26.0896 17.2186 26.5756 20.1921 26.758 23.1805C26.811 23.9296 26.8263 24.6788 26.8417 25.4198C26.8343 26.1689 26.8417 26.9181 26.7961 27.6591C26.7733 28.4082 26.6975 29.1498 26.6291 29.891L26.485 30.9994C26.4468 31.3737 26.3784 31.7331 26.31 32.0999C25.8468 34.9049 24.9727 37.6261 23.7721 40.1864C23.4758 39.9188 23.2023 39.6207 22.959 39.2923C22.7385 38.9868 22.526 38.6882 22.3436 38.4056C21.0519 36.3876 16.5988 32.0999 11.7737 32.4822C8.42268 32.7499 5.74799 35.1497 3.80267 39.6058C-2.14728 53.2877 2.1993 63.3621 9.15991 67.2903L9.1827 67.3057C11.6449 68.8497 14.3805 69.5989 17.2221 69.5989C22.2375 69.5989 27.5641 67.2525 32.23 62.7808C35.8625 69.7899 41.7742 73 47.307 73C47.421 73 47.5424 73 47.6563 72.9925H47.7019C55.6581 73.1834 64.5037 66.74 66.3193 51.9265C66.9119 47.096 65.8178 43.656 63.0748 41.7073C59.1232 38.9023 53.1129 40.3088 50.9773 41.3789C50.681 41.5319 50.3466 41.6844 49.9745 41.8374C49.5112 42.0283 49.0246 42.1658 48.5305 42.2346C48.5152 42.0358 48.5003 41.8449 48.4849 41.646C48.4394 41.1416 48.3864 40.6447 48.318 40.1478C48.1886 39.1539 48.037 38.1681 47.8467 37.1897C47.4746 35.2255 46.988 33.2917 46.3955 31.3808C45.2103 27.5666 43.5687 23.8903 41.5094 20.4509C40.4609 18.7389 39.3133 17.0951 38.0672 15.5287C37.8621 15.284 37.6569 15.0393 37.4518 14.7951C47.7863 20.3369 56.7978 23.1344 64.3289 23.1344C65.1648 23.1344 65.9853 23.096 66.7836 23.0273C73.7746 22.4232 76.6396 19.2972 76.7609 19.1672C77.002 18.9528 77.063 18.586 76.9337 18.2645L76.9327 18.2651ZM10.1233 65.7926C10.1079 65.7851 10.093 65.7697 10.0702 65.7622L10.0321 65.7468C2.53181 61.5124 0.69301 51.3074 5.45767 40.3622C7.1141 36.5559 9.28739 34.5224 11.9243 34.3085C15.6857 34.003 19.6526 37.5417 20.8452 39.4141C21.0503 39.7276 21.2783 40.056 21.5216 40.3925C22.7524 42.0586 24.6293 43.1825 26.6658 43.4725C27.0914 43.5339 27.5017 43.5797 27.8891 43.6101C28.5273 43.6559 29.3404 43.8319 30.1763 44.0995C29.0441 46.0638 28.664 48.6933 29.0669 51.9648C29.4925 55.473 30.3205 58.4999 31.4299 61.0991C24.652 67.8554 16.3392 69.7055 10.123 65.792L10.1233 65.7926ZM50.6784 43.5419C51.0887 43.3739 51.4613 43.198 51.7953 43.0295C53.8391 42.0053 58.9457 41.004 62.0614 43.2129C64.2192 44.7495 65.0631 47.6158 64.5617 51.7355C63.1252 63.4455 56.5298 71.2264 48.0951 71.2264C47.9812 71.2264 47.8672 71.2264 47.7532 71.219H47.7304H47.6547C39.0528 71.4253 32.2967 63.5984 30.8461 51.7281C30.3447 47.6082 31.1806 44.7419 33.3464 43.2054C36.4621 40.9891 41.5687 41.9904 43.6126 43.022C43.9391 43.1825 44.3043 43.3505 44.6918 43.5189C45.6035 43.9012 46.5762 44.1076 47.5567 44.123C47.6176 44.1305 47.6781 44.1385 47.739 44.1385C47.7693 44.1385 47.8 44.131 47.8302 44.123C48.8018 44.1225 49.7744 43.9236 50.6787 43.5419H50.6784ZM39.6902 21.6433C41.704 24.8919 43.3376 28.3847 44.5308 32.0309C45.1313 33.8576 45.6248 35.7151 46.0128 37.5956C46.2105 38.5356 46.3775 39.4836 46.5143 40.4315C46.5826 40.9055 46.6436 41.3795 46.6966 41.8529C46.712 41.983 46.7268 42.1126 46.7348 42.2501C46.2715 42.1739 45.8231 42.0438 45.39 41.8604C45.0327 41.7074 44.7062 41.5623 44.4173 41.4093C42.2823 40.3393 36.2714 38.9253 32.3199 41.7378C31.9626 41.9899 31.6361 42.2731 31.3318 42.5786C30.154 42.1504 28.9688 41.8679 28.019 41.8065C27.6845 41.7836 27.3045 41.7378 26.9249 41.6845C26.3625 41.6082 25.8155 41.4397 25.2988 41.203C26.6816 38.4513 27.6999 35.5087 28.2623 32.4819C28.3381 32.0922 28.4145 31.7099 28.4675 31.3201L28.6424 30.1509C28.7261 29.3714 28.8247 28.584 28.8629 27.797C28.9313 27.0095 28.9387 26.2226 28.9615 25.435C28.9541 24.6475 28.9615 23.8606 28.9159 23.0811C28.7866 19.9396 28.3381 16.8286 27.6544 13.7715C27.3125 12.2429 26.9022 10.7292 26.431 9.23095C26.317 8.87159 26.2031 8.51224 26.0817 8.15342C28.3234 9.53703 30.4509 11.1115 32.4043 12.8847C33.088 13.5421 33.7946 14.1766 34.4333 14.8798C35.1022 15.5527 35.7097 16.2864 36.3405 17.0044C37.5474 18.4861 38.6648 20.0302 39.6905 21.643L39.6902 21.6433ZM66.4235 21.2919C60.4434 21.7504 49.8728 20.2602 33.4822 10.5144C33.3836 10.4531 33.2771 10.4227 33.1785 10.4073C31.4992 8.90902 29.6982 7.54097 27.8138 6.31036C29.8576 5.37786 33.6041 3.91004 38.1182 3.20738C47.2066 1.79347 54.9498 3.99486 61.1348 9.75785C61.6441 10.2932 68.3917 17.2638 74.0072 19.0829C72.6163 19.9312 70.1696 21.0087 66.4231 21.2919L66.4235 21.2919Z" fill="#F38328"/>
<path d="M76.9327 18.2651C76.8033 17.9441 76.507 17.7298 76.1652 17.7069C70.9144 17.3555 62.4953 8.58069 62.4111 8.48897L62.373 8.45058C55.8379 2.35859 47.3352 -0.072045 37.7837 1.43413C32.0998 2.32826 27.6844 4.33088 25.9904 5.17958C25.4052 4.83569 24.82 4.49925 24.2275 4.1783C23.893 4.00235 23.4902 3.97196 23.118 4.13991C22.4799 4.42248 22.1984 5.17959 22.4799 5.81411L22.4952 5.85249C22.6394 6.15054 22.7915 6.50989 22.9283 6.84631C23.0725 7.1902 23.2092 7.5341 23.346 7.87799C23.6195 8.57378 23.8702 9.27648 24.1061 9.98773C24.5847 11.4091 25.0029 12.854 25.3676 14.3064C26.0896 17.2186 26.5756 20.1921 26.758 23.1805C26.811 23.9296 26.8263 24.6788 26.8417 25.4198C26.8343 26.1689 26.8417 26.9181 26.7961 27.6591C26.7733 28.4082 26.6975 29.1498 26.6291 29.891L26.485 30.9994C26.4468 31.3737 26.3784 31.7331 26.31 32.0999C25.8468 34.9049 24.9727 37.6261 23.7721 40.1864C23.4758 39.9188 23.2023 39.6207 22.959 39.2923C22.7385 38.9868 22.526 38.6882 22.3436 38.4056C21.0519 36.3876 16.5988 32.0999 11.7737 32.4822C8.42268 32.7499 5.74799 35.1497 3.80267 39.6058C-2.14728 53.2877 2.1993 63.3621 9.15991 67.2903L9.1827 67.3057C11.6449 68.8497 14.3805 69.5989 17.2221 69.5989C22.2375 69.5989 27.5641 67.2525 32.23 62.7808C35.8625 69.7899 41.7742 73 47.307 73C47.421 73 47.5424 73 47.6563 72.9925H47.7019C55.6581 73.1834 64.5037 66.74 66.3193 51.9265C66.9119 47.096 65.8178 43.656 63.0748 41.7073C59.1232 38.9023 53.1129 40.3088 50.9773 41.3789C50.681 41.5319 50.3466 41.6844 49.9745 41.8374C49.5112 42.0283 49.0246 42.1658 48.5305 42.2346C48.5152 42.0358 48.5003 41.8449 48.4849 41.646C48.4394 41.1416 48.3864 40.6447 48.318 40.1478C48.1886 39.1539 48.037 38.1681 47.8467 37.1897C47.4746 35.2255 46.988 33.2917 46.3955 31.3808C45.2103 27.5666 43.5687 23.8903 41.5094 20.4509C40.4609 18.7389 39.3133 17.0951 38.0672 15.5287C37.8621 15.284 37.6569 15.0393 37.4518 14.7951C47.7863 20.3369 56.7978 23.1344 64.3289 23.1344C65.1648 23.1344 65.9853 23.096 66.7836 23.0273C73.7746 22.4232 76.6396 19.2972 76.7609 19.1672C77.002 18.9528 77.063 18.586 76.9337 18.2645L76.9327 18.2651ZM10.1233 65.7926C10.1079 65.7851 10.093 65.7697 10.0702 65.7622L10.0321 65.7468C2.53181 61.5124 0.69301 51.3074 5.45767 40.3622C7.1141 36.5559 9.28739 34.5224 11.9243 34.3085C15.6857 34.003 19.6526 37.5417 20.8452 39.4141C21.0503 39.7276 21.2783 40.056 21.5216 40.3925C22.7524 42.0586 24.6293 43.1825 26.6658 43.4725C27.0914 43.5339 27.5017 43.5797 27.8891 43.6101C28.5273 43.6559 29.3404 43.8319 30.1763 44.0995C29.0441 46.0638 28.664 48.6933 29.0669 51.9648C29.4925 55.473 30.3205 58.4999 31.4299 61.0991C24.652 67.8554 16.3392 69.7055 10.123 65.792L10.1233 65.7926ZM50.6784 43.5419C51.0887 43.3739 51.4613 43.198 51.7953 43.0295C53.8391 42.0053 58.9457 41.004 62.0614 43.2129C64.2192 44.7495 65.0631 47.6158 64.5617 51.7355C63.1252 63.4455 56.5298 71.2264 48.0951 71.2264C47.9812 71.2264 47.8672 71.2264 47.7532 71.219H47.7304H47.6547C39.0528 71.4253 32.2967 63.5984 30.8461 51.7281C30.3447 47.6082 31.1806 44.7419 33.3464 43.2054C36.4621 40.9891 41.5687 41.9904 43.6126 43.022C43.9391 43.1825 44.3043 43.3505 44.6918 43.5189C45.6035 43.9012 46.5762 44.1076 47.5567 44.123C47.6176 44.1305 47.6781 44.1385 47.739 44.1385C47.7693 44.1385 47.8 44.131 47.8302 44.123C48.8018 44.1225 49.7744 43.9236 50.6787 43.5419H50.6784ZM39.6902 21.6433C41.704 24.8919 43.3376 28.3847 44.5308 32.0309C45.1313 33.8576 45.6248 35.7151 46.0128 37.5956C46.2105 38.5356 46.3775 39.4836 46.5143 40.4315C46.5826 40.9055 46.6436 41.3795 46.6966 41.8529C46.712 41.983 46.7268 42.1126 46.7348 42.2501C46.2715 42.1739 45.8231 42.0438 45.39 41.8604C45.0327 41.7074 44.7062 41.5623 44.4173 41.4093C42.2823 40.3393 36.2714 38.9253 32.3199 41.7378C31.9626 41.9899 31.6361 42.2731 31.3318 42.5786C30.154 42.1504 28.9688 41.8679 28.019 41.8065C27.6845 41.7836 27.3045 41.7378 26.9249 41.6845C26.3625 41.6082 25.8155 41.4397 25.2988 41.203C26.6816 38.4513 27.6999 35.5087 28.2623 32.4819C28.3381 32.0922 28.4145 31.7099 28.4675 31.3201L28.6424 30.1509C28.7261 29.3714 28.8247 28.584 28.8629 27.797C28.9313 27.0095 28.9387 26.2226 28.9615 25.435C28.9541 24.6475 28.9615 23.8606 28.9159 23.0811C28.7866 19.9396 28.3381 16.8286 27.6544 13.7715C27.3125 12.2429 26.9022 10.7292 26.431 9.23095C26.317 8.87159 26.2031 8.51224 26.0817 8.15342C28.3234 9.53703 30.4509 11.1115 32.4043 12.8847C33.088 13.5421 33.7946 14.1766 34.4333 14.8798C35.1022 15.5527 35.7097 16.2864 36.3405 17.0044C37.5474 18.4861 38.6648 20.0302 39.6905 21.643L39.6902 21.6433ZM66.4235 21.2919C60.4434 21.7504 49.8728 20.2602 33.4822 10.5144C33.3836 10.4531 33.2771 10.4227 33.1785 10.4073C31.4992 8.90902 29.6982 7.54097 27.8138 6.31036C29.8576 5.37786 33.6041 3.91004 38.1182 3.20738C47.2066 1.79347 54.9498 3.99486 61.1348 9.75785C61.6441 10.2932 68.3917 17.2638 74.0072 19.0829C72.6163 19.9312 70.1696 21.0087 66.4231 21.2919L66.4235 21.2919Z" stroke="#F38328" mask="url(#path-1-outside-1_2_754)"/>
<path d="M8.34697 57.9687C8.8292 57.7046 9.4093 57.8323 9.75135 58.2278L9.7768 58.2139L9.89572 58.4374C10.634 59.8254 11.6349 61.1181 12.8787 62.2866L12.879 62.2869C13.3445 62.7259 13.3628 63.4476 12.9378 63.9137L12.9341 63.9178L12.934 63.9178C12.7114 64.1512 12.4025 64.2778 12.0995 64.2778C11.8214 64.2778 11.5417 64.1684 11.3225 63.9673L11.3202 63.9652L11.3202 63.9652C9.89658 62.6255 8.73916 61.137 7.88192 59.5211C7.57976 58.9618 7.79634 58.2698 8.34697 57.9687ZM8.34697 57.9687C8.347 57.9687 8.34703 57.9687 8.34706 57.9686L8.46698 58.188L8.34686 57.9688C8.34689 57.9687 8.34693 57.9687 8.34697 57.9687Z" fill="#F38328" stroke="#F38328" stroke-width="0.5"/>
<path d="M8.54263 54.556L8.54251 54.556C7.86617 50.9441 8.64242 47.354 9.60294 44.6463C10.0825 43.2944 10.6061 42.1677 11.0124 41.3752C11.2155 40.979 11.3891 40.6667 11.513 40.4519C11.5749 40.3444 11.6244 40.2614 11.6589 40.2045C11.6761 40.1761 11.6896 40.1542 11.6989 40.1391C11.7069 40.1263 11.7113 40.1194 11.7125 40.1175C11.7128 40.117 11.7129 40.1168 11.7128 40.117L11.7149 40.1137C12.0536 39.579 11.8999 38.8675 11.3742 38.5246L11.3742 38.5246L11.3725 38.5235C10.842 38.1835 10.1314 38.3265 9.78863 38.8663C9.6719 39.0451 8.42141 41.0267 7.38642 43.978C6.3488 46.9368 5.52096 50.8897 6.28816 54.9843L6.28855 54.9863C6.39497 55.5297 6.86861 55.9219 7.41538 55.9219C7.48792 55.9219 7.5641 55.912 7.61965 55.9037L7.6197 55.904L7.63228 55.9014C8.25066 55.7754 8.65917 55.181 8.54263 54.556Z" fill="#F38328" stroke="#F38328" stroke-width="0.5"/>
<path d="M47.8196 68.564C48.0721 68.0169 47.8666 67.3809 47.3588 67.0863L47.3566 67.0792L47.2551 67.0329C45.9514 66.4371 44.7382 65.6915 43.6686 64.8266C43.1731 64.4258 42.4526 64.5046 42.0546 65.0024C41.6572 65.4993 41.7347 66.2217 42.2293 66.6218L42.23 66.6224C43.4545 67.6066 44.8248 68.45 46.3018 69.1311L46.3018 69.1312L46.306 69.133C46.4518 69.1971 46.6081 69.2384 46.7786 69.2384C47.2143 69.2384 47.6332 68.9859 47.8196 68.564Z" fill="#F38328" stroke="#F38328" stroke-width="0.5"/>
<path d="M36.7313 47.4517L36.731 47.4557C36.7309 47.4581 36.7307 47.4607 36.7306 47.4635C36.7043 48.0278 36.3288 56.0729 40.996 62.1085L40.7982 62.2614L40.9954 62.1077C41.3832 62.6053 41.2967 63.3265 40.8023 63.7176C40.5945 63.8857 40.3404 63.9632 40.0991 63.9632C39.7624 63.9632 39.4207 63.8179 39.1943 63.5217C39.1941 63.5215 39.1939 63.5212 39.1937 63.521L39.3925 63.3693L36.7313 47.4517ZM36.7313 47.4517C36.7801 46.8155 36.3028 46.2687 35.6727 46.2204M36.7313 47.4517L35.6727 46.2204M35.6727 46.2204C35.0366 46.171 34.4947 46.6537 34.4469 47.2841L34.6962 47.303L35.6727 46.2204Z" fill="#F38328" stroke="#F38328" stroke-width="0.5"/>
</svg>
