<svg width="32" height="32" viewBox="0 0 32 32" fill="none" xmlns="http://www.w3.org/2000/svg">
<path d="M25.1771 23.4105L25.3539 23.5873L25.1771 23.764L24.0238 24.9175L23.847 25.0943L23.6702 24.9175L15.9998 17.2471L8.32898 24.9175L8.15218 25.0943L7.97541 24.9175L6.82223 23.764L6.64549 23.5872L6.82225 23.4105L14.4931 15.7401L6.82225 8.06963L6.64549 7.89287L6.82223 7.71609L7.97541 6.56264L8.15218 6.38582L8.32898 6.56261L15.9998 14.2331L23.6702 6.56261L23.847 6.38583L24.0238 6.56263L25.1771 7.71608L25.3539 7.89286L25.1771 8.06962L17.5067 15.7401L25.1771 23.4105Z" fill="#FF0000" stroke="#FF0000" stroke-width="0.5"/>
</svg>
