<svg width="120" height="192" viewBox="0 0 120 192" fill="none" xmlns="http://www.w3.org/2000/svg">
<path fill-rule="evenodd" clip-rule="evenodd" d="M29.2956 160.074C22.6253 152.32 17.1775 143.591 13.141 134.188C-3.53405 145.348 -3.07781 154.373 14.5097 161.263C19.7531 174.34 24.6817 173.944 29.2956 160.074Z" fill="#F38328"/>
<g opacity="0.5">
<path fill-rule="evenodd" clip-rule="evenodd" d="M24.8315 155.71C25.2401 155.431 23.5455 150.525 19.613 148.434C18.3948 147.844 17.1188 147.383 15.8055 147.058C14.4414 146.689 13.0484 146.436 11.6416 146.302C14.0618 147.088 16.3529 148.228 18.4408 149.684C22.7645 152.709 24.4807 155.952 24.8315 155.71Z" fill="white"/>
</g>
<g opacity="0.5">
<path fill-rule="evenodd" clip-rule="evenodd" d="M12.387 134.699C9.45208 136.806 6.7067 139.166 4.18219 141.752C2.82961 142.957 1.84432 144.52 1.3398 146.261C1.00915 147.671 1.04094 149.142 1.4322 150.537L2.41186 147.912C3.35233 146.136 4.49021 144.472 5.80384 142.952C7.99353 140.429 10.6322 138.336 13.5855 136.778C13.6443 136.348 13.5584 135.91 13.3414 135.533C13.1245 135.157 12.7887 134.864 12.387 134.699Z" fill="white"/>
</g>
<path d="M21.779 171.746C21.8631 171.75 21.9479 171.75 22.0326 171.746C25.0598 171.654 27.6563 168.039 30.2124 160.376C30.2656 160.216 30.276 160.044 30.2424 159.879C30.2089 159.713 30.1327 159.559 30.0214 159.432C23.4244 151.748 18.0328 143.103 14.0314 133.795C13.9278 133.56 13.7357 133.377 13.4972 133.284C13.2587 133.192 12.9933 133.198 12.7592 133.301C12.7083 133.324 12.6592 133.351 12.6126 133.382C3.61021 139.402 -0.498099 144.782 0.0480082 149.835C0.558681 154.543 5.05052 158.528 13.7709 162.008C16.4423 168.539 18.9936 171.649 21.779 171.746ZM28.2045 160.291C25.4031 168.484 23.1061 169.78 21.975 169.815C20.8682 169.853 18.5538 168.735 15.4071 160.901C15.358 160.779 15.2843 160.667 15.1906 160.574C15.0969 160.481 14.9852 160.409 14.8624 160.361C6.73886 157.176 2.3964 153.564 1.9691 149.625C1.5293 145.584 5.14917 140.879 12.7335 135.634C16.6808 144.555 21.8913 152.859 28.2045 160.291Z" fill="#000072"/>
<path d="M24.4835 152.621C23.8195 151.574 23.07 150.585 22.2428 149.662C21.4066 148.714 20.4469 147.882 19.3893 147.19C18.3116 146.475 17.1017 145.984 15.8313 145.745C14.5662 145.529 13.2671 145.635 12.0537 146.053C11.9637 146.083 11.888 146.145 11.8409 146.228C11.7938 146.31 11.7787 146.407 11.7985 146.5C11.8183 146.593 11.8716 146.675 11.9482 146.731C12.0247 146.787 12.1192 146.812 12.2135 146.803C13.3351 146.692 14.4675 146.772 15.5624 147.039C16.6363 147.312 17.6497 147.784 18.55 148.431C19.4652 149.1 20.3004 149.873 21.0387 150.734C21.7905 151.613 22.4902 152.536 23.1342 153.498V153.507C23.2518 153.686 23.4356 153.811 23.6452 153.855C23.8548 153.898 24.073 153.856 24.2518 153.739C24.4306 153.621 24.5554 153.437 24.5988 153.227C24.6421 153.017 24.6004 152.799 24.4828 152.619L24.4835 152.621Z" fill="#000072"/>
<g opacity="0.25">
<path fill-rule="evenodd" clip-rule="evenodd" d="M14.5104 161.262C13.0875 159.562 11.7194 159.87 8.9611 158.538C5.9442 157.241 3.50685 154.881 2.11044 151.905C1.61848 150.596 1.41811 149.195 1.52335 147.8C2.55149 150.08 4.16705 152.045 6.20416 153.493C8.89962 155.361 12.1529 156.248 15.422 156.006C16.4285 155.98 17.4256 156.206 18.3232 156.663C19.2208 157.12 19.9907 157.794 20.5634 158.623C20.6801 158.959 20.8172 159.287 20.9741 159.606C22.3567 162.383 24.6981 162.513 27.9984 159.996C27.4099 166.323 24.7537 170.672 22.2754 170.756C19.5761 170.848 16.7073 165.896 16.1189 164.879C15.1802 163.251 15.5047 162.441 14.5104 161.262Z" fill="#000072"/>
</g>
<path fill-rule="evenodd" clip-rule="evenodd" d="M73.0678 176.069C143.825 120.347 111.233 50.7647 59.8827 64.0901C-40.132 44.3267 26.7251 212.559 73.0678 176.069Z" fill="#F38328"/>
<g opacity="0.5">
<path fill-rule="evenodd" clip-rule="evenodd" d="M94.2783 68.5805C85.0014 62.7138 73.0642 60.6638 59.8861 64.0811C23.877 56.9682 9.49484 74.2238 8.01562 97.5165C8.98556 97.3681 9.98142 97.2071 11.0032 97.0336C11.4319 91.9568 12.9809 87.0386 15.5384 82.6343C18.0959 78.23 21.598 74.4495 25.7919 71.5656C25.9732 71.4404 26.1546 71.32 26.3387 71.1996C25.8253 71.734 25.5932 72.2239 25.7495 72.5732C26.1129 73.3846 28.4432 73.1257 30.9528 71.9929C33.4624 70.86 35.1994 69.2867 34.836 68.4733C34.5775 67.9013 33.336 67.8616 31.7414 68.2917C39.0456 65.1656 47.2059 64.6716 54.8328 66.8937C56.3238 66.1823 57.9427 65.7792 59.5927 65.7085C61.2428 65.6379 62.8901 65.9011 64.4363 66.4825C74.3934 64.4936 84.701 65.2169 94.2839 68.577" fill="white"/>
</g>
<path d="M58.978 182.231C58.1964 182.232 57.4153 182.191 56.6379 182.111C50.4447 181.247 44.6263 178.631 39.8663 174.569C28.4154 165.523 17.9804 149.171 11.9537 130.819C5.59081 111.444 5.24202 93.1484 10.997 80.6225C16.2079 69.2802 28.9178 57.0493 59.8555 63.0921C81.055 57.6812 100.629 66.0933 109.763 84.5645C115.865 96.9018 116.412 112.134 111.303 127.454C105.467 144.96 92.4496 162.032 73.6666 176.825C69.5341 180.261 64.3482 182.169 58.978 182.231ZM44.7472 63.4435C29.1533 63.4435 18.2194 69.5335 12.7527 81.4325C7.19856 93.5193 7.57514 111.299 13.7887 130.215C19.7014 148.217 29.896 164.23 41.062 173.05C48.8673 179.217 60.6552 184.613 72.4722 175.303C90.96 160.744 103.759 143.987 109.471 126.839C114.411 112.007 113.908 97.2978 108.034 85.4204C99.2898 67.7459 80.4867 59.7346 60.1272 65.0182C59.9873 65.0545 59.841 65.059 59.6992 65.0314C54.7789 64.019 49.7722 63.4873 44.7493 63.4435H44.7472Z" fill="#000072"/>
<path fill-rule="evenodd" clip-rule="evenodd" d="M43.4867 51.6027C53.4375 52.9833 57.3186 57.6406 55.5483 63.3256C56.9582 63.5367 58.4041 63.7883 59.8859 64.0806C61.086 63.7693 62.275 63.5033 63.4529 63.2825C60.9711 55.3665 70.965 52.563 75.7778 45.7833C79.9042 38.312 77.2015 28.9056 69.7415 24.773C67.0254 23.2686 63.9196 22.6192 60.8294 22.9095C52.1744 -20.2135 4.60675 11.2081 33.1871 24.6296C44.6942 30.0322 50.3748 32.6875 55.5344 44.3221C53.2621 39.9175 49.3437 36.5909 44.6331 35.0673C43.0511 34.6951 41.3952 34.7913 39.8669 35.3444C38.3386 35.8974 37.0037 36.8834 36.0246 38.1823C35.0456 39.4813 34.4646 41.0372 34.3523 42.6608C34.2401 44.2844 34.6014 45.9057 35.3923 47.3274C37.0035 50.2368 40.1982 51.1476 43.4867 51.6027Z" fill="#78C44A"/>
<g opacity="0.5">
<path fill-rule="evenodd" clip-rule="evenodd" d="M44.909 35.1652L44.627 35.0727C43.045 34.7004 41.3891 34.7967 39.8608 35.3497C38.3325 35.9028 36.9976 36.8887 36.0185 38.1877C35.0395 39.4866 34.4585 41.0426 34.3462 42.6662C34.2339 44.2898 34.5953 45.9111 35.3862 47.3328C36.0314 48.4849 36.9908 49.4293 38.1522 50.0556C38.7886 49.9638 39.4142 49.8085 40.0198 49.5922C38.8783 48.5309 38.0921 47.1423 37.7688 45.6164C37.4456 44.0905 37.601 42.5018 38.2138 41.0678C38.8267 39.6337 39.867 38.4244 41.1925 37.6052C42.5179 36.786 44.0638 36.397 45.6184 36.4915C45.4131 36.0329 45.1726 35.5909 44.8993 35.1694" fill="white"/>
</g>
<g opacity="0.5">
<path fill-rule="evenodd" clip-rule="evenodd" d="M76.1344 45.0881C79.8766 37.4115 76.6965 28.154 69.0378 24.4076C66.489 23.1619 63.647 22.6431 60.8233 22.908C53.0673 -15.7518 14.038 5.50769 26.6395 19.9903C26.9952 20.001 27.3535 20.001 27.7143 19.9903C24.9616 3.44102 48.9437 -2.86821 59.4823 23.8363C59.8957 23.9934 60.3215 24.1154 60.7552 24.2009C69.857 25.8194 75.926 34.5217 74.3092 43.6373C74.0898 44.8763 73.7316 46.0866 73.2413 47.2452C74.2411 46.5767 75.2057 45.8567 76.131 45.0881" fill="white"/>
</g>
<path d="M59.884 65.0494C59.821 65.0496 59.7582 65.0436 59.6964 65.0313C58.2338 64.7425 56.7894 64.4906 55.4033 64.2847C55.2652 64.2643 55.1332 64.2142 55.0164 64.1378C54.8995 64.0614 54.8007 63.9605 54.7266 63.842C54.6525 63.7236 54.605 63.5904 54.5874 63.4518C54.5697 63.3132 54.5824 63.1724 54.6244 63.0391C54.9507 62.1567 55.0731 61.2117 54.9823 60.2752C54.8916 59.3386 54.5901 58.4348 54.1005 57.6317C52.4768 55.0654 48.7603 53.3174 43.3528 52.5638C40.0511 52.1053 36.4222 51.1819 34.5428 47.8042C33.6604 46.2187 33.2573 44.4104 33.3824 42.5996C33.5076 40.7887 34.1556 39.0533 35.2477 37.6047C36.3398 36.156 37.8288 35.0565 39.5335 34.44C41.2382 33.8235 43.0851 33.7166 44.8494 34.1323L44.9251 34.1538C46.6588 34.7134 48.3073 35.5095 49.8241 36.5197C45.8443 31.6488 40.8501 29.3031 32.8225 25.5344L32.7732 25.5114C25.5869 22.1352 22.1818 17.0778 23.4331 11.6335C24.9331 5.10782 32.7433 -0.108237 40.8168 0.0017066C45.6928 0.0712912 57.3695 2.35854 61.5966 21.8847C70.6484 21.5159 78.2856 28.5648 78.6538 37.6324C78.7756 40.6385 78.0713 43.6204 76.6174 46.2532C76.6 46.2838 76.5812 46.313 76.5611 46.3423C74.731 48.7007 72.5887 50.7985 70.1933 52.5777C66.1496 55.8761 62.948 58.4716 64.3744 62.9953C64.4125 63.1163 64.4263 63.2437 64.4152 63.3702C64.4041 63.4966 64.3683 63.6196 64.3097 63.7322C64.2511 63.8448 64.1709 63.9447 64.0738 64.0262C63.9767 64.1077 63.8645 64.1693 63.7436 64.2074C63.7069 64.2191 63.6695 64.2284 63.6317 64.2353C62.479 64.4531 61.3 64.7168 60.1292 65.0209C60.049 65.0408 59.9666 65.0504 59.884 65.0494ZM56.7449 62.536C57.7628 62.7009 58.8036 62.8839 59.8541 63.0927C60.658 62.8881 61.4632 62.7016 62.2616 62.536C61.234 57.3805 65.1644 54.1796 68.9733 51.0775C71.2144 49.4133 73.2254 47.4591 74.954 45.2658C78.7955 38.2482 76.2297 29.4402 69.2227 25.5921C66.6877 24.2006 63.7947 23.6012 60.9164 23.8713C60.6781 23.895 60.4395 23.8292 60.2469 23.6866C60.0543 23.544 59.9215 23.3348 59.8743 23.0996C56.0869 4.18513 45.2621 1.98974 40.7862 1.93407C33.6827 1.84292 26.5965 6.47377 25.3069 12.0649C24.2647 16.6067 27.2023 20.763 33.5854 23.7551L33.6347 23.7781C45.2683 29.2405 51.1074 31.9828 56.4045 43.9312C56.4683 44.0464 56.508 44.1734 56.5211 44.3045C56.5342 44.4356 56.5203 44.568 56.4804 44.6936C56.4405 44.8192 56.3754 44.9352 56.2891 45.0347C56.2027 45.1341 56.097 45.2148 55.9784 45.2718C55.8598 45.3288 55.7308 45.361 55.5993 45.3662C55.4679 45.3715 55.3367 45.3498 55.214 45.3024C55.0912 45.2551 54.9794 45.1831 54.8854 45.0909C54.7914 44.9986 54.7173 44.8881 54.6675 44.7662C52.5287 40.5924 48.8237 37.4391 44.3658 35.9985C42.9671 35.6739 41.5044 35.7633 40.1554 36.2556C38.8064 36.748 37.6293 37.6222 36.7672 38.7721C35.905 39.9219 35.3949 41.2978 35.2989 42.7325C35.2029 44.1672 35.5251 45.5989 36.2263 46.8537C37.6937 49.4924 40.7848 50.246 43.6154 50.6468C49.6045 51.4713 53.7934 53.5345 55.7298 56.5956C56.8348 58.363 57.2005 60.495 56.7477 62.5304L56.7449 62.536Z" fill="#000072"/>
<path fill-rule="evenodd" clip-rule="evenodd" d="M3.78347 106.747C3.88841 108.476 4.42523 110.15 5.34467 111.618C22.3365 102.196 41.5075 97.4261 60.9262 97.788C80.3449 98.1498 99.3255 103.631 115.956 113.679C116.699 112.191 117.11 110.559 117.159 108.896C100.255 98.2102 80.7537 92.3613 60.7678 91.9834C40.7818 91.6055 21.0738 96.7129 3.7793 106.752" fill="white"/>
<g opacity="0.5">
<path fill-rule="evenodd" clip-rule="evenodd" d="M99.3453 93.2877C69.4547 81.036 37.8847 81.3887 7.98913 97.7717C6.5943 98.7957 5.47845 100.154 4.74388 101.722C4.00931 103.29 3.67953 105.017 3.78477 106.746C3.89002 108.475 4.42691 110.15 5.34624 111.617C6.26557 113.084 7.53791 114.296 9.04661 115.143C13.9866 113 19.0608 111.182 24.2369 109.701C11.3749 112.519 2.59824 105.317 11.3137 99.947C35.1555 85.2611 66.9333 85.5993 101.329 95.8241C100.687 94.9617 100.029 94.1174 99.353 93.2912" fill="white"/>
</g>
<path d="M110.773 118.482C110.632 118.481 110.494 118.447 110.369 118.383C95.269 110.567 78.5915 106.293 61.5986 105.885C44.6058 105.477 27.743 108.946 12.2865 116.029C12.1574 116.089 12.0157 116.116 11.8738 116.109C11.7318 116.101 11.5937 116.06 11.4715 115.987C9.87501 115.026 8.53977 113.686 7.58414 112.085C6.6285 110.485 6.08199 108.672 5.99305 106.809C5.86898 104.94 6.20294 103.07 6.96584 101.36C7.72874 99.6495 8.89746 98.1521 10.3702 96.9979C10.4027 96.9724 10.4368 96.9492 10.4724 96.9283C25.8568 87.8145 43.5096 83.2648 61.3757 83.8088C78.1897 84.401 95.1329 89.5732 111.709 99.1814C111.768 99.2177 111.823 99.2607 111.873 99.3095C113.084 100.48 114.053 101.878 114.725 103.424C115.397 104.969 115.759 106.632 115.789 108.318C115.819 110.003 115.518 111.679 114.901 113.247C114.285 114.816 113.366 116.248 112.198 117.461C111.924 117.746 111.637 118.017 111.338 118.275C111.179 118.408 110.979 118.481 110.773 118.482ZM58.9022 103.92C76.8839 103.938 94.6078 108.204 110.634 116.371C112.705 114.375 113.899 111.637 113.954 108.759C114.01 105.882 112.922 103.1 110.93 101.025C110.86 100.956 110.791 100.886 110.721 100.817C77.0717 81.3559 42.7351 80.5842 11.4041 98.59C10.1975 99.5492 9.24157 100.788 8.61841 102.198C7.99526 103.609 7.72354 105.151 7.82661 106.69C7.89742 108.159 8.31029 109.59 9.03222 110.87C9.75415 112.15 10.7651 113.243 11.9842 114.062C26.7312 107.392 42.7251 103.936 58.9064 103.923L58.9022 103.92Z" fill="#000072"/>
<path fill-rule="evenodd" clip-rule="evenodd" d="M96.7991 183.752C91.7883 178.493 91.2727 166.994 90.3097 160.11C85.016 165.9 79.2486 171.237 73.0678 176.065C71.5097 177.305 69.8147 178.362 68.0159 179.216C67.959 187.122 69.8016 191.06 73.5437 191.03L94.2027 190.719C95.0658 190.856 95.9495 190.689 96.7041 190.248C97.4587 189.807 98.0377 189.118 98.3431 188.298C98.6486 187.478 98.6615 186.578 98.3799 185.749C98.0982 184.921 97.5393 184.215 96.7977 183.752H96.7991Z" fill="#F38328"/>
<g opacity="0.5">
<path fill-rule="evenodd" clip-rule="evenodd" d="M96.8011 183.752C91.9535 178.665 91.3122 167.742 90.409 160.801C89.4884 161.346 88.6341 161.996 87.8633 162.739C87.3811 170.032 89.0069 177.31 92.5462 183.702C95.5982 187.14 95.6334 189.487 92.6518 190.742L94.2095 190.719C95.0729 190.856 95.9572 190.69 96.7124 190.249C97.4675 189.808 98.0471 189.119 98.3526 188.298C98.6582 187.478 98.671 186.577 98.3888 185.748C98.1067 184.92 97.5469 184.214 96.8046 183.752" fill="white"/>
</g>
<path d="M73.5117 191.999C72.831 192.015 72.1543 191.891 71.5229 191.636C70.8915 191.381 70.3187 190.999 69.8398 190.515C67.9214 188.594 67.0092 184.898 67.0501 179.213C67.0511 179.03 67.1038 178.851 67.2022 178.698C67.3006 178.544 67.4406 178.421 67.606 178.344C69.3372 177.52 70.969 176.502 72.4695 175.308C78.6068 170.511 84.335 165.211 89.5948 159.463C89.7182 159.327 89.8776 159.229 90.0546 159.18C90.2315 159.132 90.4185 159.135 90.5938 159.189C90.7691 159.243 90.9254 159.346 91.0444 159.486C91.1634 159.626 91.2402 159.796 91.2658 159.978C91.4207 161.083 91.5624 162.3 91.7139 163.587C92.465 170.008 93.4926 178.786 97.423 183.007C98.3149 183.607 98.9781 184.491 99.3048 185.516C99.6315 186.54 99.6024 187.646 99.2223 188.652C98.8422 189.658 98.1334 190.506 97.2112 191.057C96.289 191.609 95.2077 191.832 94.1429 191.69L73.5597 192L73.5117 191.999ZM68.9803 179.822C69.0067 184.553 69.7529 187.685 71.2036 189.143C71.5081 189.449 71.8724 189.688 72.2736 189.847C72.6748 190.006 73.1043 190.08 73.5354 190.065L94.1895 189.756C94.2445 189.755 94.2996 189.759 94.3541 189.767C94.9961 189.865 95.652 189.738 96.2118 189.409C96.7717 189.079 97.2012 188.567 97.4282 187.958C97.6552 187.348 97.6659 186.679 97.4585 186.063C97.251 185.447 96.8381 184.921 96.2891 184.574C96.2224 184.531 96.161 184.481 96.1064 184.424C91.6597 179.767 90.6328 170.925 89.8011 163.809C89.7405 163.287 89.6807 162.78 89.6219 162.286C84.6742 167.524 79.3421 172.383 73.6701 176.824C72.2125 177.98 70.6417 178.985 68.9817 179.824L68.9803 179.822Z" fill="#000072"/>
<path fill-rule="evenodd" clip-rule="evenodd" d="M29.643 162.687C28.8196 169.589 27.906 179.105 23.4809 183.752C22.7392 184.215 22.1801 184.92 21.8984 185.749C21.6168 186.577 21.6298 187.478 21.9353 188.298C22.2408 189.118 22.8201 189.807 23.5748 190.248C24.3296 190.689 25.2134 190.855 26.0766 190.718L46.737 191.03C50.3128 191.058 52.1545 187.462 52.262 180.245C44.2552 177.843 36.4353 171.41 29.643 162.687Z" fill="#F38328"/>
<g opacity="0.5">
<path fill-rule="evenodd" clip-rule="evenodd" d="M29.4719 164.147C28.6812 170.878 27.6029 179.429 23.4793 183.754C22.737 184.217 22.1772 184.922 21.8951 185.751C21.6129 186.58 21.6257 187.481 21.9313 188.301C22.2368 189.121 22.8163 189.81 23.5715 190.252C24.3267 190.693 25.211 190.859 26.0744 190.721L26.8782 190.732C24.8165 189.853 24.6607 188.066 26.4106 185.371C28.5712 182.731 30.1694 179.677 31.1068 176.396C32.0442 173.115 32.301 169.676 31.8613 166.291C31.1816 165.457 30.3759 164.733 29.4733 164.147" fill="white"/>
</g>
<path d="M46.7784 191.998H46.727L26.1354 191.687C25.0703 191.83 23.988 191.608 23.065 191.057C22.1419 190.506 21.4324 189.658 21.052 188.651C20.6717 187.644 20.6429 186.538 20.9703 185.513C21.2978 184.488 21.9622 183.604 22.8553 183.005C26.7857 178.784 27.8133 170.005 28.5644 163.585L28.6832 162.575C28.7057 162.385 28.784 162.206 28.9084 162.06C29.0328 161.915 29.1975 161.809 29.3817 161.758C29.5658 161.706 29.7612 161.711 29.9429 161.77C30.1245 161.83 30.2844 161.943 30.4021 162.094C37.4515 171.14 45.1053 177.102 52.5334 179.319C52.7348 179.38 52.9111 179.505 53.0353 179.675C53.1596 179.845 53.2251 180.051 53.2219 180.262C53.1093 188.05 50.9423 191.998 46.7784 191.998ZM26.0777 189.747H26.0923L46.7534 190.058H46.7833C49.5722 190.058 51.0861 186.997 51.282 180.943C44.2007 178.619 37.0131 173.168 30.3375 165.084C29.5142 171.945 28.3615 180.031 24.1837 184.412C24.1293 184.47 24.0679 184.52 24.001 184.563C23.452 184.91 23.0391 185.436 22.8317 186.052C22.6242 186.668 22.6349 187.337 22.8619 187.946C23.089 188.556 23.5185 189.068 24.0783 189.398C24.6381 189.727 25.2941 189.854 25.936 189.756C25.983 189.749 26.0303 189.746 26.0777 189.747Z" fill="#000072"/>
<path d="M32.7617 113.726C33.593 112.269 34.8278 111.085 36.3169 110.316C37.8309 109.508 39.52 109.084 41.2359 109.082C42.9517 109.08 44.6417 109.501 46.1573 110.307C47.6496 111.072 48.8886 112.254 49.7243 113.71L49.8049 113.857C49.8772 113.986 49.8999 114.137 49.8689 114.282C49.8379 114.426 49.7552 114.555 49.6365 114.642C49.5177 114.73 49.371 114.772 49.224 114.759C49.0769 114.746 48.9396 114.68 48.8378 114.573C46.8791 112.55 44.1983 111.388 41.3849 111.345C38.5715 111.301 35.856 112.379 33.8358 114.34C33.7622 114.412 33.6894 114.484 33.6176 114.558C33.5185 114.658 33.3868 114.719 33.2466 114.73C33.1063 114.741 32.9668 114.701 32.8536 114.617C32.7404 114.533 32.661 114.412 32.6298 114.274C32.5986 114.137 32.6178 113.993 32.6839 113.869L32.7617 113.726Z" fill="#000072"/>
<path d="M72.4278 114.371C73.2591 112.914 74.494 111.73 75.9831 110.961C77.497 110.153 79.1862 109.729 80.902 109.727C82.6179 109.725 84.3079 110.146 85.8234 110.952C87.3156 111.718 88.5545 112.9 89.3905 114.356L89.4711 114.503C89.5432 114.631 89.566 114.782 89.535 114.927C89.5041 115.071 89.4216 115.199 89.303 115.287C89.1844 115.375 89.0378 115.417 88.8908 115.404C88.7439 115.391 88.6065 115.325 88.5046 115.219C86.5461 113.195 83.8652 112.034 81.0518 111.99C78.2384 111.947 75.5229 113.024 73.5026 114.986C73.4283 115.055 73.3561 115.13 73.2845 115.203C73.1856 115.304 73.0539 115.365 72.9136 115.376C72.7733 115.387 72.6337 115.347 72.5204 115.263C72.4071 115.179 72.3277 115.058 72.2967 114.92C72.2656 114.783 72.285 114.639 72.3514 114.514L72.4278 114.371Z" fill="#000072"/>
<path fill-rule="evenodd" clip-rule="evenodd" d="M68.6973 143.396C68.2519 141.466 67.168 139.743 65.6216 138.508C64.0751 137.272 62.157 136.597 60.1787 136.591C58.2005 136.585 56.2784 137.249 54.7246 138.475C53.1708 139.702 52.0767 141.418 51.62 143.346C57.2818 142.492 63.0406 142.509 68.6973 143.396Z" fill="white"/>
<path d="M60.1559 135.791L60.1837 135.791C62.3451 135.79 64.4426 136.526 66.1321 137.876C67.8215 139.226 69.0028 141.111 69.4821 143.222C69.5111 143.35 69.5083 143.484 69.474 143.611C69.4397 143.738 69.3749 143.854 69.2853 143.95C69.1957 144.046 69.0839 144.119 68.9598 144.162C68.8357 144.205 68.703 144.217 68.5733 144.196C62.9977 143.32 57.3211 143.303 51.7405 144.147C51.5294 144.179 51.3143 144.125 51.1425 143.998C50.9707 143.871 50.8562 143.681 50.8241 143.47C50.8081 143.366 50.813 143.26 50.8387 143.158C51.3315 141.056 52.5209 139.183 54.213 137.845C55.9051 136.507 58 135.783 60.1559 135.791ZM67.5561 142.422C66.9715 140.941 65.9555 139.67 64.6402 138.775C63.3249 137.88 61.7711 137.401 60.1809 137.402L60.1573 137.402C58.5709 137.397 57.0195 137.868 55.7035 138.755C54.3875 139.642 53.3674 140.904 52.7751 142.378C57.6815 141.75 62.6486 141.765 67.5512 142.422L67.5561 142.422Z" fill="#000072"/>
<path d="M53.6233 68.6952C53.4654 68.6953 53.311 68.6488 53.1792 68.5616C53.0475 68.4743 52.9443 68.3502 52.8825 68.2046C52.8207 68.0591 52.8031 67.8985 52.8318 67.743C52.8605 67.5874 52.9342 67.4438 53.0439 67.33C54.503 65.813 57.4906 64.3072 62.1457 62.7269C62.246 62.693 62.3521 62.6793 62.4578 62.6864C62.5635 62.6936 62.6667 62.7215 62.7616 62.7686C62.8565 62.8157 62.9412 62.881 63.0109 62.9609C63.0806 63.0408 63.1339 63.1337 63.1677 63.2342C63.2016 63.3347 63.2153 63.4409 63.2082 63.5468C63.2011 63.6526 63.1732 63.756 63.1261 63.8511C63.0791 63.9461 63.0138 64.0309 62.9341 64.1007C62.8543 64.1705 62.7616 64.2239 62.6612 64.2578C58.3069 65.7323 55.4604 67.1442 54.2007 68.4531C54.1257 68.5302 54.0359 68.5914 53.9367 68.6331C53.8375 68.6747 53.7309 68.6958 53.6233 68.6952Z" fill="#000072"/>
<path d="M67.1208 69.3731C67.014 69.3732 66.9083 69.3519 66.8099 69.3106C66.7115 69.2692 66.6223 69.2086 66.5476 69.1323C63.8941 66.8067 60.7003 65.185 57.2589 64.4159C57.0507 64.3677 56.8702 64.2387 56.7571 64.0572C56.6439 63.8758 56.6074 63.6567 56.6554 63.4483C56.7035 63.2398 56.8323 63.0591 57.0135 62.9457C57.1947 62.8324 57.4134 62.7958 57.6216 62.844C57.6473 62.8502 57.6723 62.8572 57.6966 62.8655C61.4085 63.7068 64.848 65.474 67.6954 68.003C67.8063 68.1162 67.8814 68.2597 67.9112 68.4155C67.941 68.5712 67.9243 68.7324 67.8631 68.8787C67.8019 69.025 67.699 69.1499 67.5671 69.2379C67.4353 69.3258 67.2805 69.3729 67.1221 69.3731H67.1208Z" fill="#000072"/>
<path d="M59.7513 67.8114H59.7068C59.601 67.8062 59.4972 67.7802 59.4015 67.7348C59.3057 67.6893 59.2199 67.6254 59.1489 67.5466C59.0779 67.4679 59.0231 67.3759 58.9877 67.2759C58.9523 67.1759 58.9369 67.0698 58.9425 66.9639L59.0815 64.36C59.1006 64.1524 59.1992 63.9602 59.3567 63.8239C59.5142 63.6875 59.7182 63.6175 59.9261 63.6286C60.134 63.6397 60.3295 63.7309 60.4717 63.8833C60.6138 64.0356 60.6916 64.2371 60.6886 64.4456L60.5496 67.0495C60.5383 67.2543 60.4494 67.4472 60.3011 67.5888C60.1528 67.7303 59.9562 67.81 59.7513 67.8114Z" fill="#000072"/>
<path d="M59.8836 65.0472C59.6404 65.0468 59.4064 64.9547 59.2281 64.789C59.0498 64.6234 58.9405 64.3965 58.922 64.1537C57.8062 49.0622 53.2212 38.3295 45.2992 32.2568C45.0959 32.1009 44.9629 31.8705 44.9293 31.6163C44.8956 31.3621 44.9642 31.1049 45.1199 30.9013C45.2756 30.6978 45.5057 30.5645 45.7595 30.5308C46.0134 30.4972 46.2701 30.5659 46.4734 30.7218C54.8519 37.1438 59.6883 48.3448 60.8486 64.0104C60.8581 64.1369 60.8426 64.264 60.803 64.3846C60.7634 64.5051 60.7005 64.6166 60.6178 64.7128C60.5352 64.8089 60.4344 64.8878 60.3213 64.945C60.2082 65.0021 60.085 65.0364 59.9586 65.0458L59.8836 65.0472Z" fill="#000072"/>
<path d="M37.8166 13.6114C41.6195 16.5118 45.0215 19.9047 47.9335 23.7011C50.8383 27.5116 53.246 31.6776 55.0982 36.0983C56.9419 40.5174 58.3243 45.1157 59.2232 49.8197C60.1215 54.5161 60.6649 59.2736 60.849 64.0518C60.8599 64.3082 60.7688 64.5584 60.5956 64.7474C60.4223 64.9364 60.1812 65.0488 59.9253 65.0598C59.6693 65.0708 59.4195 64.9795 59.2308 64.806C59.042 64.6325 58.9298 64.391 58.9189 64.1346V64.111C58.8224 59.4225 58.3728 54.748 57.5737 50.1273C56.7788 45.5128 55.5094 40.9932 53.7857 36.6404C52.0534 32.2898 49.7742 28.1783 47.0032 24.4053C44.2133 20.6354 40.9366 17.2526 37.2587 14.3455C37.2096 14.3088 37.1683 14.2628 37.1372 14.21C37.106 14.1571 37.0858 14.0987 37.0775 14.0379C37.0692 13.9771 37.0731 13.9153 37.0889 13.8561C37.1048 13.7969 37.1323 13.7414 37.1698 13.6929C37.2073 13.6445 37.254 13.604 37.3073 13.5738C37.3606 13.5437 37.4194 13.5244 37.4802 13.5173C37.541 13.5102 37.6027 13.5152 37.6615 13.5322C37.7203 13.5492 37.7752 13.5778 37.8229 13.6162L37.8166 13.6114Z" fill="#000072"/>
<path d="M66.9722 31.389C66.1335 42.685 64.0668 53.8556 60.8087 64.7026C60.7334 64.9478 60.5638 65.153 60.3375 65.273C60.1111 65.3929 59.8463 65.418 59.6015 65.3425C59.3567 65.267 59.1519 65.0972 59.0321 64.8705C58.9123 64.6437 58.8873 64.3786 58.9627 64.1334L58.9703 64.1056C62.5081 53.4602 64.8754 42.4598 66.0301 31.3C66.0419 31.1748 66.1028 31.0595 66.1995 30.9794C66.2962 30.8993 66.4207 30.8609 66.5457 30.8727C66.6706 30.8845 66.7857 30.9455 66.8657 31.0424C66.9457 31.1392 66.984 31.2639 66.9722 31.389Z" fill="#000072"/>
<path d="M42.0342 41.594C44.4126 42.4592 46.6791 43.6062 48.7855 45.0106C50.9055 46.4331 52.812 48.1513 54.4473 50.1132C56.081 52.0867 57.4474 54.2675 58.5112 56.5992C59.5693 58.9283 60.3858 61.36 60.9478 63.8562C60.9798 63.9811 60.9865 64.1112 60.9676 64.2388C60.9486 64.3663 60.9043 64.4888 60.8374 64.599C60.7705 64.7092 60.6822 64.8049 60.5778 64.8804C60.4734 64.956 60.355 65.0098 60.2295 65.0388C60.104 65.0678 59.974 65.0714 59.8471 65.0493C59.7202 65.0273 59.599 64.98 59.4906 64.9103C59.3822 64.8407 59.2889 64.75 59.216 64.6436C59.1431 64.5373 59.0922 64.4174 59.0663 64.2911V64.25C58.624 61.8556 57.9377 59.513 57.0181 57.2588C56.0961 55.0088 54.8813 52.8906 53.4052 50.9593C51.917 49.0244 50.1604 47.3122 48.1887 45.8748C46.198 44.4328 44.0422 43.2344 41.7674 42.3051C41.7208 42.2868 41.6783 42.2595 41.6422 42.2248C41.6062 42.1901 41.5773 42.1486 41.5573 42.1027C41.5372 42.0567 41.5264 42.0073 41.5255 41.9572C41.5245 41.9072 41.5334 41.8574 41.5516 41.8107C41.5699 41.7641 41.5971 41.7215 41.6318 41.6854C41.6665 41.6493 41.7079 41.6204 41.7538 41.6003C41.7996 41.5802 41.849 41.5694 41.899 41.5684C41.949 41.5675 41.9987 41.5764 42.0453 41.5946H42.0356L42.0342 41.594Z" fill="#000072"/>
<g opacity="0.25">
<path d="M39.4317 172.971C41.0662 174.236 42.7922 175.379 44.5954 176.389C48.2097 178.199 52.0914 179.414 56.0915 179.987L56.4451 180.005C61.6727 179.148 66.7233 177.432 71.3936 174.929L71.5235 174.828C81.7198 166.993 90.6733 157.658 98.0799 147.14C103.48 137.389 107.705 127.03 110.664 116.281C112.521 114.857 114.02 113.017 115.041 110.909C115.863 108.431 115.811 105.745 114.895 103.3C114.257 101.898 113.435 100.588 112.452 99.403C112.252 99.1942 112.046 98.9855 111.827 98.7892C111.827 98.737 111.812 98.6842 111.805 98.625C111.661 98.4601 111.517 98.2952 111.364 98.1296C111.387 97.3442 111.381 96.5648 111.348 95.7915C109.744 86.6906 105.296 78.3348 98.6454 71.9282C99.0428 72.2167 99.4331 72.5097 99.8161 72.807C93.2215 67.8981 85.6199 64.5183 77.5612 62.9121C90.2572 65.9363 100.061 78.0976 100.804 98.0064C100.383 105.233 89.35 107.205 67.7063 103.925C77.7363 106.195 85.4949 108.059 90.9819 109.518C86.8288 108.725 82.6276 108.211 78.4061 107.979C92.4706 111.789 98.9222 116.661 97.7609 122.597C85.3881 169.938 50.9479 188.729 20.2568 147.97C25.7582 158.46 32.7006 167.592 40.246 173.621C39.9662 173.408 39.6948 173.191 39.4317 172.971Z" fill="#000072"/>
</g>
<path fill-rule="evenodd" clip-rule="evenodd" d="M90.3145 160.11C97.2544 152.592 103.006 144.055 107.37 134.795C123.654 146.538 122.882 155.545 105.055 161.816C99.3546 174.706 94.4411 174.138 90.3145 160.11Z" fill="#F38328"/>
<g opacity="0.5">
<path fill-rule="evenodd" clip-rule="evenodd" d="M94.9273 155.903C94.5306 155.608 96.3947 150.764 100.399 148.812C101.638 148.265 102.931 147.848 104.256 147.568C105.632 147.247 107.034 147.042 108.445 146.958C105.998 147.659 103.668 148.718 101.529 150.101C97.0992 152.974 95.2684 156.156 94.9273 155.903Z" fill="white"/>
</g>
<g opacity="0.5">
<path fill-rule="evenodd" clip-rule="evenodd" d="M108.099 135.333C110.96 137.542 113.622 139.997 116.055 142.671C117.365 143.923 118.294 145.521 118.737 147.279C119.018 148.7 118.935 150.17 118.495 151.55L117.61 148.89C116.731 147.082 115.652 145.379 114.392 143.814C112.291 141.215 109.726 139.029 106.828 137.368C106.784 136.935 106.885 136.501 107.115 136.132C107.345 135.763 107.691 135.481 108.098 135.331L108.099 135.333Z" fill="white"/>
</g>
<path d="M97.4252 172.041H97.1709C94.1451 171.843 91.673 168.141 89.3893 160.39C89.3413 160.228 89.3368 160.056 89.376 159.892C89.4153 159.728 89.497 159.576 89.613 159.454C96.4792 152.003 102.174 143.551 106.503 134.386C106.559 134.272 106.636 134.169 106.73 134.085C106.825 134.001 106.935 133.936 107.055 133.894C107.175 133.853 107.301 133.835 107.428 133.842C107.554 133.85 107.678 133.882 107.792 133.938C107.843 133.962 107.891 133.99 107.936 134.023C116.719 140.355 120.638 145.88 119.916 150.911C119.24 155.601 114.613 159.427 105.77 162.601C102.874 169.022 100.206 172.041 97.4252 172.041ZM91.4014 160.364C93.9158 168.652 96.167 170.03 97.2967 170.106C98.4014 170.184 100.755 169.146 104.175 161.425C104.228 161.304 104.306 161.195 104.402 161.106C104.499 161.016 104.613 160.947 104.738 160.904C112.971 158.004 117.441 154.546 118.004 150.625C118.583 146.599 115.129 141.768 107.73 136.259C103.47 145.039 97.969 153.158 91.3965 160.366L91.4014 160.364Z" fill="#000072"/>
<path d="M95.3844 152.827C96.0849 151.804 96.8693 150.84 97.7294 149.947C98.5983 149.029 99.5863 148.231 100.667 147.576C101.769 146.898 102.996 146.449 104.274 146.253C105.546 146.08 106.841 146.229 108.041 146.687C108.129 146.721 108.202 146.786 108.245 146.869C108.289 146.953 108.3 147.05 108.277 147.142C108.254 147.233 108.199 147.313 108.121 147.367C108.043 147.42 107.948 147.443 107.855 147.431C106.738 147.281 105.605 147.321 104.502 147.55C103.418 147.785 102.388 148.223 101.466 148.839C100.527 149.476 99.6639 150.219 98.8952 151.054C98.1137 151.907 97.3829 152.805 96.7066 153.744V153.752C96.5829 153.927 96.3947 154.046 96.1834 154.083C95.9721 154.119 95.7551 154.07 95.58 153.946C95.405 153.822 95.2862 153.633 95.2499 153.422C95.2137 153.21 95.2628 152.993 95.3865 152.817L95.3844 152.827Z" fill="#000072"/>
<g opacity="0.25">
<path fill-rule="evenodd" clip-rule="evenodd" d="M105.053 161.814C106.535 160.165 107.893 160.52 110.696 159.286C113.758 158.095 116.277 155.821 117.778 152.895C118.312 151.602 118.557 150.208 118.497 148.811C117.391 151.053 115.709 152.961 113.624 154.338C110.864 156.111 107.58 156.882 104.321 156.525C103.315 156.464 102.31 156.655 101.396 157.08C100.482 157.505 99.6883 158.151 99.0863 158.961C98.9581 159.292 98.8096 159.616 98.6416 159.929C97.1617 162.658 94.8163 162.706 91.6055 160.072C91.9723 166.418 94.4757 170.858 96.9505 171.031C99.6463 171.217 102.687 166.369 103.312 165.372C104.309 163.78 104.021 162.964 105.053 161.814Z" fill="#000072"/>
</g>
<g opacity="0.25">
<path fill-rule="evenodd" clip-rule="evenodd" d="M68.0301 180.738C74.7827 175.907 81.2028 170.626 87.2467 164.931C78.3353 180.433 79.4777 188.821 90.6741 190.094C73.5058 193.778 65.9578 190.659 68.0301 180.738Z" fill="#000072"/>
</g>
<g opacity="0.25">
<path fill-rule="evenodd" clip-rule="evenodd" d="M41.8803 190.955C34.4229 191.661 29.7509 191.133 27.8643 189.37C40.4247 187.573 42.6395 181.334 34.5086 170.652C41.5107 176.651 46.9294 179.682 50.7646 179.747C52.9523 188.808 49.992 192.547 41.8838 190.962" fill="#000072"/>
</g>
<path d="M80.1297 81.3965C82.4854 80.6374 84.928 80.1814 87.3986 80.0396C88.6319 79.9471 89.8686 79.9241 91.1081 79.9533C91.7258 79.9784 92.3463 79.9881 92.9639 80.0278L94.8163 80.1927L95.279 80.2358L95.7389 80.2999L96.6609 80.4321C97.2751 80.5239 97.8893 80.6067 98.4952 80.7417L100.32 81.1161C100.924 81.2552 101.52 81.4327 102.12 81.5893C103.325 81.8864 104.491 82.3199 105.663 82.7242C106.255 82.9155 106.816 83.1827 107.391 83.4152C107.967 83.6476 108.532 83.9022 109.099 84.1486C109.329 84.2488 109.511 84.4347 109.607 84.667C109.702 84.8994 109.704 85.1598 109.611 85.3931C109.518 85.6265 109.338 85.8144 109.109 85.917C108.88 86.0197 108.62 86.0291 108.384 85.9432L108.326 85.9216C107.765 85.7128 107.204 85.511 106.647 85.2953C106.091 85.0796 105.54 84.8465 104.966 84.6816C103.828 84.3288 102.71 83.9085 101.552 83.6211C99.2588 82.9664 96.9264 82.4569 94.5689 82.0958C92.2034 81.7393 89.8184 81.5283 87.4271 81.464C85.02 81.3784 82.6098 81.4661 80.2152 81.7263H80.202C80.1626 81.7267 80.1242 81.7136 80.0932 81.6891C80.0623 81.6647 80.0406 81.6304 80.0317 81.5919C80.0229 81.5534 80.0275 81.5131 80.0447 81.4775C80.0618 81.442 80.0906 81.4134 80.1263 81.3965H80.1297Z" fill="#000072"/>
<path d="M81.886 127.024C81.9749 123.004 79.9418 119.698 77.345 119.641C74.7482 119.585 72.5711 122.798 72.4822 126.818C72.3933 130.838 74.4264 134.144 77.0232 134.201C79.62 134.257 81.7972 131.044 81.886 127.024Z" fill="#000072"/>
<path d="M77.0611 121.352C77.8615 121.724 78.1332 123.092 77.6691 124.406C77.205 125.721 76.1871 126.483 75.3818 126.11C74.5766 125.737 74.3077 124.37 74.7725 123.057C75.2373 121.744 76.2635 120.978 77.0611 121.352Z" fill="white"/>
<path d="M79.3149 129.989C79.4978 130.231 79.5968 130.526 79.5968 130.83C79.5968 131.133 79.4978 131.428 79.3149 131.67C78.9481 132.289 78.3484 132.537 77.9781 132.227C77.7953 131.985 77.6963 131.69 77.6963 131.386C77.6963 131.083 77.7953 130.788 77.9781 130.546C78.3533 129.928 78.9446 129.679 79.3149 129.989Z" fill="#B199C5"/>
<path d="M43.9017 134.204C46.4985 134.147 48.5309 130.842 48.4412 126.821C48.3515 122.801 46.1737 119.588 43.5769 119.645C40.9801 119.703 38.9477 123.008 39.0374 127.029C39.1271 131.049 41.3049 134.262 43.9017 134.204Z" fill="#000072"/>
<path d="M43.8621 121.352C43.0624 121.724 42.79 123.092 43.2528 124.406C43.7155 125.721 44.7348 126.483 45.5456 126.11C46.3564 125.737 46.6176 124.37 46.1549 123.057C45.6922 121.744 44.6625 120.978 43.8621 121.352Z" fill="white"/>
<path d="M41.6119 129.991C41.429 130.233 41.3301 130.528 41.3301 130.831C41.3301 131.135 41.429 131.43 41.6119 131.671C41.9788 132.29 42.5784 132.538 42.9487 132.228C43.1316 131.986 43.2305 131.691 43.2305 131.388C43.2305 131.084 43.1316 130.789 42.9487 130.548C42.5819 129.93 41.9871 129.681 41.6119 129.991Z" fill="#B199C5"/>
</svg>
