<svg width="28" height="28" viewBox="0 0 28 28" fill="none" xmlns="http://www.w3.org/2000/svg">
<path d="M24.4438 14.3289C24.2535 14.5233 19.717 19.0901 14.0038 19.0901C8.29063 19.0901 3.75423 14.5233 3.56383 14.3289C3.37195 14.133 3.37195 13.8197 3.56383 13.6236C3.75414 13.4292 8.29063 8.86237 14.0038 8.86237C19.717 8.86237 24.2534 13.4288 24.4438 13.6236C24.6357 13.8197 24.6357 14.1328 24.4438 14.3289ZM14.0038 9.87048C9.61063 9.87048 5.83303 12.9227 4.65943 13.9765C5.83115 15.0307 9.60223 18.0821 14.0038 18.0821C18.397 18.0821 22.1746 15.0299 23.3482 13.9761C22.1765 12.9219 18.4054 9.87048 14.0038 9.87048Z" fill="#525252"/>
<path d="M10.9268 14.0001C10.9268 12.3056 12.3053 10.9269 13.9999 10.9269C15.6944 10.9269 17.0731 12.3056 17.0731 14.0001C17.0731 15.6945 15.6944 17.0732 13.9999 17.0732C12.3055 17.0732 10.9268 15.6945 10.9268 14.0001ZM16.2204 14.0001C16.2204 12.7757 15.2241 11.7796 13.9999 11.7796C12.7755 11.7796 11.7794 12.7757 11.7794 14.0001C11.7794 15.2244 12.7755 16.2205 13.9999 16.2205C15.2243 16.2205 16.2204 15.2244 16.2204 14.0001Z" fill="#525252"/>
</svg>
