<svg width="48" height="48" viewBox="0 0 48 48" fill="none" xmlns="http://www.w3.org/2000/svg">
<path d="M48 24.145C47.9994 19.5303 46.6846 15.0124 44.2114 11.1262C41.7382 7.23999 38.2101 4.14817 34.0448 2.21678C29.8794 0.28539 25.2513 -0.404697 20.7084 0.228216C16.1654 0.86113 11.8977 2.79054 8.41068 5.78803C4.92362 8.78552 2.36318 12.7256 1.03245 17.1417C-0.29827 21.5579 -0.343547 26.2653 0.901988 30.7065C2.14752 35.1478 4.63171 39.1369 8.06045 42.2018C11.4892 45.2666 15.7189 47.2787 20.2489 48V31.1248H14.1582V24.145H20.2489V18.8252C20.2489 12.772 23.8329 9.42698 29.3156 9.42698C31.1154 9.45232 32.911 9.61016 34.688 9.89922V15.8415H31.6622C28.6791 15.8415 27.7511 17.7054 27.7511 19.6158V24.145H34.4071L33.3404 31.1248H27.7511V48C33.3959 47.0998 38.5363 44.2028 42.2481 39.83C45.9598 35.4573 47.9994 29.8956 48 24.145Z" fill="white"/>
</svg>
