<svg width="124" height="124" viewBox="0 0 124 124" fill="none" xmlns="http://www.w3.org/2000/svg">
<circle cx="62" cy="62" r="62" fill="#F38328"/>
<path d="M90.7047 85.023L91.4118 85.7301L90.7048 86.4372L87.117 90.0254L86.4099 90.7326L85.7027 90.0255L61.9982 66.321L38.2925 90.0255L37.5853 90.7326L36.8783 90.0254L33.2909 86.4371L32.5839 85.73L33.291 85.023L56.9966 61.3185L33.291 37.614L32.5839 36.907L33.2909 36.1999L36.8783 32.6117L37.5853 31.9044L38.2925 32.6116L61.9982 56.3161L85.7027 32.6116L86.4099 31.9044L87.117 32.6116L90.7048 36.1999L91.4118 36.907L90.7047 37.614L67.0002 61.3185L90.7047 85.023Z" fill="white" stroke="white" stroke-width="2"/>
</svg>
