<svg width="47" height="28" viewBox="0 0 47 28" fill="none" xmlns="http://www.w3.org/2000/svg">
<path d="M0 3C0 1.34315 1.34315 0 3 0H44C45.6569 0 47 1.34315 47 3V25C47 26.6569 45.6569 28 44 28H3C1.34315 28 0 26.6569 0 25V3Z" fill="#006C35"/>
<path d="M33.5528 22.516H32.6142C32.5099 22.6529 32.3469 22.8158 32.2557 22.8158C32.1449 22.8158 31.845 22.5095 31.845 22.3987C31.845 22.3139 31.9884 22.151 32.1188 22.0467V21.7925H15.1064C12.8642 21.7925 11.7496 21.7729 11 21.0233H32.1188V20.7691C31.995 20.6714 31.845 20.5019 31.845 20.4172C31.845 20.3064 32.1449 20 32.2557 20C32.3665 20 32.6663 20.3064 32.6663 20.4172C32.6663 20.5019 32.5164 20.6714 32.3926 20.7691V21.0233H35.2606C36.0297 21.0233 36.3426 21.0885 36.3426 21.7925C36.3426 22.5421 36.1405 22.679 35.8211 22.679C35.7103 22.679 35.5278 22.6724 35.3909 22.516H34.2763C34.2469 22.5638 34.1967 22.6047 34.1323 22.6335C34.0679 22.6623 33.9921 22.6777 33.9146 22.6777C33.837 22.6777 33.7612 22.6623 33.6968 22.6335C33.6324 22.6047 33.5823 22.5638 33.5528 22.516ZM34.2763 22.2814H35.2606C35.2084 22.138 35.2084 21.988 35.2606 21.7925H32.3926V22.0467C32.4643 22.0988 32.562 22.2097 32.6142 22.2814H33.5528C33.5823 22.2335 33.6324 22.1926 33.6968 22.1638C33.7612 22.1351 33.837 22.1197 33.9146 22.1197C33.9921 22.1197 34.0679 22.1351 34.1323 22.1638C34.1967 22.1926 34.2469 22.2335 34.2763 22.2814Z" fill="white"/>
<path d="M36.7515 15.0324C36.8248 15.1088 36.8688 15.1788 36.7442 15.3061C36.6269 15.3953 36.5463 15.4462 36.4217 15.5353C36.3704 15.6117 36.3337 15.7326 36.5023 15.7708C36.8248 15.8472 37.4186 15.5162 37.4186 15.5098C37.5432 15.4334 37.4992 15.2934 37.4919 15.2934C37.4186 15.2297 37.2647 15.2679 37.162 15.2552C37.1107 15.2552 37.0814 15.1725 37.1547 15.0515C37.2207 14.9751 37.25 14.9306 37.294 14.8414C37.338 14.7523 37.294 14.6887 37.1181 14.6377C36.9348 14.6123 36.8615 14.625 36.6636 14.6377C36.5536 14.6568 36.517 14.7014 36.495 14.8096C36.5023 14.9751 36.6269 14.9624 36.7515 15.0324ZM35.3588 11.0984C35.2562 11.2193 35.1829 11.3148 35.3808 11.4103C35.586 11.4994 35.8939 11.7477 35.762 12.0278C35.6887 12.2442 35.762 12.4161 35.9892 12.1042C36.2238 11.7795 36.0405 11.3912 35.8133 11.1429C35.6154 10.9265 35.4834 10.9711 35.3588 11.0984ZM41.5309 6.65509C41.8094 6.86516 41.9633 6.8015 41.7874 6.44502C41.5822 6.08854 41.3843 5.71296 41.201 5.37558C41.0031 5.0191 40.9518 5.10185 40.7245 5.35648C40.468 5.60475 40.446 5.79572 40.5413 5.94213C41.0251 9.27141 41.2523 11.0093 41.3036 12.015C41.4062 13.4792 40.9738 14.3003 39.2512 15.2425C38.6941 15.5544 38.0637 15.9109 39.4051 15.6372C40.6586 15.3762 42 14.6887 42 12.0596C42 10.0799 41.4722 7.96007 41.5309 6.65509ZM39.4784 5.98032C39.3245 6.19039 39.3538 6.23495 39.5297 6.46412C39.7056 6.71875 39.8596 7.17708 39.8596 7.53356C39.8596 7.89005 40.0135 7.84549 40.0868 7.51447C40.1674 7.19618 40.1381 6.57234 39.9109 6.1331C39.6836 5.6684 39.603 5.83391 39.4784 5.98032ZM40.9518 12.9126C40.9005 12.6198 40.7978 12.327 40.3434 11.7668C39.8889 11.2193 39.4784 10.7164 39.0752 10.2326C38.9506 8.97859 38.7674 7.63542 38.7674 6.92882C38.9726 7.09433 39.1265 6.92882 39.0239 6.65509C38.9213 6.38137 38.716 5.64931 38.5694 5.33738C38.4375 5.03819 38.2909 5.10185 38.0856 5.37558C37.9097 5.64931 37.7851 5.77662 37.9097 5.98032C37.961 7.19618 38.159 8.37384 38.3935 9.43692C37.983 8.97859 37.6019 8.53935 37.25 8.13831C37.228 7.67998 37.1767 7.22164 37.1474 6.75694C37.3746 6.90336 37.4772 6.86516 37.3526 6.59144C37.25 6.29861 36.9715 5.6875 36.8468 5.42014C36.7149 5.14641 36.6416 5.14641 36.4657 5.35648C36.1871 5.71296 36.1065 5.96123 36.341 6.29861C36.363 6.59144 36.4144 6.90336 36.4363 7.17708C36.2091 6.92882 36.0112 6.67419 35.8279 6.44502C36.0552 6.54688 36.2384 6.38137 35.9819 6.19039C35.7546 6.00579 35.2708 5.6875 35.0729 5.45833C34.8457 5.22917 34.6404 5.22917 34.6404 5.43924C34.6404 5.64931 34.6624 5.83391 34.6404 6.02488C34.5891 6.19039 34.5891 6.36227 34.8897 6.65509C35.4761 7.24074 36.0332 7.84549 36.5683 8.41204C36.7662 10.5064 36.8981 11.8495 36.8468 12.6834C36.8175 13.1863 36.6196 13.4792 36.2897 13.5619C35.9599 13.6701 35.63 13.4792 35.3221 13.1036C34.765 12.4352 34.5671 12.5625 34.1346 13.1481C33.7241 13.6892 33.4456 14.1539 33.2184 14.5486C33.0204 14.9242 32.6613 15.2616 32.3314 14.7587C32.0309 14.2558 31.9796 13.6892 32.0015 13.2946C32.0015 12.8935 31.9282 12.5816 31.7523 13.2118C31.2978 14.7587 31.5764 15.0961 32.0822 15.4271C32.7126 15.8918 32.9178 15.93 33.2477 15.5353C33.9074 14.7778 34.0833 14.1094 34.4645 13.7338C34.765 13.441 34.765 13.6701 34.919 13.8166C35.3002 14.2112 35.63 14.3576 36.1578 14.4213C36.6929 14.5041 37.6532 14.1285 37.5799 12.6644C37.5285 11.7859 37.4552 10.5891 37.3526 9.31597C37.8584 9.90162 38.3129 10.4236 38.6721 10.8438C38.848 11.6777 38.9506 12.4352 38.8993 13.0399C38.848 13.7338 39.0239 13.7338 39.1998 13.0208C39.2512 12.728 39.2512 12.1169 39.1779 11.3848C39.8596 12.1424 40.2627 12.6453 40.5413 13.0017C40.8492 13.441 41.0251 13.8166 40.9518 12.9126ZM34.0027 11.2639C34.0027 11.1175 34.0833 11.0729 34.3839 10.8628C34.6404 10.6973 35.3515 10.2772 35.5787 10.0862C35.8059 9.90162 35.9819 9.72975 36.0332 9.96528C36.0552 10.1944 36.1065 10.2772 35.8279 10.4045C35.5494 10.5064 34.8164 10.8819 34.5891 11.0284C34.3326 11.2002 34.0027 11.4103 34.0027 11.2639ZM34.0833 8.68576C34.032 8.87674 33.7241 8.87674 33.7535 8.66667C33.7755 8.4566 33.7535 8.49479 33.7535 8.32928C33.7241 8.16377 33.9807 8.05556 34.1053 8.20197C34.2593 8.34838 34.5158 8.81308 34.5891 8.97859C34.6917 9.1441 34.7431 9.1059 34.7431 8.87674C34.7137 8.60301 34.6624 8.34838 34.6917 8.16377C34.7137 8.05556 34.7944 7.92824 34.941 7.82639C35.1242 7.72454 35.2195 7.69907 35.3002 7.89005C35.3515 8.05556 35.4981 8.07465 35.4248 8.22743C35.3221 8.43113 35.0949 8.01736 34.941 8.31019C34.8677 8.52025 34.941 9.1059 34.919 9.31597C34.919 9.50058 34.8164 9.77431 34.6404 9.46238C34.5158 9.25231 34.3326 8.89583 34.0833 8.68576ZM32.3314 6.98611C32.6906 7.13252 33.0718 7.22164 32.7932 6.86516C32.5073 6.52778 32.2801 5.96123 32.1335 5.54109C31.9502 5.12731 31.9062 5.14641 31.6204 5.50289C31.1952 6.04398 31.5764 6.57234 31.6717 7.19618C32.0309 9.43692 32.3827 11.7222 32.4853 12.327C32.588 13.0017 32.7126 13.441 32.5073 14.173C32.434 14.4022 32.5366 14.4659 32.7126 14.1921C33.4236 13.0845 32.9398 12.1169 32.8665 11.4931C32.7419 10.5255 32.3314 7.9728 32.2581 6.94792M30.5868 6.88426C30.7847 7.03067 31.0193 7.03067 30.8873 6.71875C30.7627 6.40046 30.6601 6.02488 30.5355 5.6684C30.4109 5.31192 30.3302 5.22917 30.1763 5.39468C30.0004 5.58565 29.8758 5.64931 29.7512 5.77662C29.6192 5.87847 29.5972 6.10764 29.7512 6.31771C30.3083 9.48148 30.3302 10.8819 30.4109 12.0596C30.4842 13.2309 30.6894 13.772 29.8025 14.5677C28.8349 15.4271 28.2558 15.6372 27.8233 15.7199C27.3395 15.8345 27.1416 16 27.662 16C29.3627 16 29.5312 15.6053 30.2276 14.9688C30.7921 14.4531 31.0633 13.7975 31.0193 12.2442C30.968 9.51968 30.5062 8.34838 30.5868 6.88426ZM24.2242 14.886C24.4807 14.7587 24.6053 14.6568 24.8032 14.5932C25.0085 14.5041 25.1624 14.5295 25.0085 14.886C24.8546 15.2998 24.9352 15.4271 25.265 15.3252C25.5656 15.2425 25.7415 15.1343 25.9981 15.0515C26.2253 14.9688 26.4819 14.9688 26.1227 15.1979C25.8441 15.3889 25.441 15.6372 25.2137 15.6817C24.7079 15.7836 24.4514 15.6181 24.554 15.2807C24.6566 14.9688 24.7299 14.8414 24.4294 14.9497C24.0702 15.0706 24.0995 14.9497 24.2242 14.886ZM28.3071 7.76273C28.4024 8.01736 28.5343 8.13831 28.6076 7.82639C28.659 7.55266 28.7616 7.46991 28.8129 7.76273C28.8862 8.05556 29.0914 8.01736 29.1427 7.74363C29.216 7.46991 29.3187 7.3235 29.37 7.61632C29.4213 7.92824 29.392 8.03646 29.3407 8.13831C29.3187 8.22743 29.1134 8.32928 28.9595 8.20197C28.7836 8.07465 28.7323 8.07465 28.6076 8.18287C28.3291 8.39294 28.2265 8.24653 28.1752 7.9537C28.1532 7.69907 28.2558 7.59722 28.3071 7.76273ZM30.0004 13.0399C29.7731 12.0978 28.7323 10.5891 27.1856 8.62211C27.1416 8.10012 27.1123 7.61632 27.1123 7.17708C27.3395 7.38715 27.4934 7.25984 27.4201 6.98611C27.2662 6.50868 27.039 6.10764 26.7604 5.56655C26.6578 5.33738 26.3792 5.27373 26.2546 5.60475C26.0714 6.00579 26.0494 6.08854 26.2766 6.36227C26.2546 6.65509 26.3792 7.15799 26.4306 7.61632C26.152 7.27894 25.7928 6.86516 25.5143 6.50868C25.9468 6.65509 26.2033 6.54688 25.8221 6.21586C25.441 5.85938 24.9059 5.50289 24.576 5.24826C24.2461 5 24.0995 5.16551 24.1508 5.39468C24.1728 5.63021 24.2022 5.79572 24.1728 5.98032C24.1508 6.1713 24.2242 6.29861 24.554 6.40046C25.2137 7.11343 25.8735 7.84549 26.4819 8.60301C26.5552 9.22685 26.7091 9.92072 26.7824 10.4873C26.9877 11.8241 27.2882 13.5619 27.039 14.3194C26.8337 14.886 27.039 15.1343 27.3688 14.2749C27.6694 13.4155 27.64 12.6007 27.4421 11.3212C27.3615 10.8247 27.3395 10.1944 27.2662 9.6088C28.3291 10.9647 29.2894 12.2633 29.7218 13.1672C29.9491 13.651 30.1543 13.7529 30.0004 13.0399ZM28.1019 5.39468C27.9992 5.56655 27.9259 5.6875 28.1238 5.81481C28.3291 5.94213 28.637 6.27951 28.505 6.65509C28.4317 6.94792 28.505 7.17708 28.7323 6.75694C28.9595 6.31771 28.7836 5.79572 28.5563 5.45833C28.3511 5.16551 28.2265 5.22917 28.1019 5.39468ZM20.603 9.96528C20.5517 10.2581 20.625 10.4427 20.7496 10.5891C20.8816 10.7355 21.1308 10.7164 21.2114 10.5509C21.2847 10.36 21.336 10.3409 21.49 10.4873C21.6659 10.6337 22.245 10.5064 21.9664 9.77431C21.8418 9.48148 21.7905 9.54514 21.7905 9.87616C21.7905 10.4045 21.5853 10.4045 21.358 9.90162C21.2847 9.71065 21.1821 9.71065 21.1601 9.96528C21.1601 10.4427 20.9035 10.5064 20.7496 10.0226C20.6983 9.81887 20.6543 9.64699 20.603 9.96528ZM24.0995 10.7164C24.6273 10.6146 24.3268 10.57 23.9676 10.3791C23.5938 10.1944 23.4398 10.1944 23.4618 10.4045C23.4911 10.5255 23.4911 10.6528 23.5424 10.8183C23.7184 10.7801 23.8943 10.761 24.0995 10.7164ZM23.0586 9.69155C23.4618 9.20775 24.1215 9.35417 24.8839 9.7934C25.6462 10.2326 25.3383 10.9265 24.6053 11.283C24.4294 11.3657 24.2022 11.4485 23.9163 11.5312C23.9969 11.6777 23.8943 11.7222 23.6671 11.5949C23.0073 11.7859 22.1424 12.0596 21.5413 12.327C22.2743 12.3715 25.3164 12.327 25.9248 12.2633C26.5332 12.2251 26.4306 12.3079 26.2546 12.7471C26.0714 13.1672 25.8735 13.1227 25.3677 13.1863C24.554 13.3137 23.3592 13.6065 22.5015 13.8993C21.6366 14.1921 21.9444 14.7141 22.8314 14.9878C23.5131 15.1343 23.4398 15.1979 23.3152 15.5353C23.2126 15.8472 23.2126 15.93 22.3769 15.8281C20.3245 15.5544 19.5841 14.6123 19.2542 13.8802C17.9934 15.3634 16.7473 16.1846 15.5818 15.93C15.0027 15.8281 14.7242 15.3889 14.6728 14.8414C13.8592 15.1534 12.9209 15.4271 11.7041 15.7199C11.4255 15.8027 11.1983 15.7008 11.5795 15.5544C12.3858 15.217 13.6539 14.6568 14.6948 14.0457C14.7975 13.6701 15.0247 13.1481 15.2519 12.7662C15.3765 12.537 15.4572 12.6198 15.4572 12.8108C15.4572 12.9572 15.4059 13.3328 15.4279 13.6065C15.6111 13.4792 15.8603 13.3582 15.985 13.25C16.696 12.728 17.4803 12.3906 16.9525 11.5567C16.7253 11.1748 16.5421 10.9074 16.4688 10.7355C16.0143 10.5891 16.1389 10.3791 16.3441 10.0226C16.5421 9.67245 16.6227 9.58333 17.0258 9.98438C17.6123 10.5509 17.6856 10.7992 17.2824 10.761C17.9128 12.0978 17.7589 12.7917 16.7766 13.5874C16.3148 13.9821 15.8383 14.3003 15.2812 14.5486C15.2299 14.9051 15.4059 15.2616 16.2122 15.1534C17.2824 15.0324 18.4699 13.8802 18.9757 13.0017C18.7485 12.2633 18.2427 10.9456 17.9421 10.2772C17.7882 9.93981 17.9421 9.7934 18.0667 9.51968C18.2207 9.25231 18.294 9.08044 18.4699 9.46238C18.6458 9.81887 19.2029 10.7164 19.4595 11.7859C19.738 12.8553 19.6867 13.772 20.3465 14.2749C20.6543 14.5041 21.0282 14.6568 21.4387 14.7396C21.1308 14.0266 21.7685 13.4792 22.6042 13.2309C22.0984 12.8299 21.3067 12.8935 20.4198 12.8553C19.7674 12.8299 19.8407 12.7662 20.0166 12.2888C20.1925 11.805 20.3978 11.7413 20.8816 11.5758C21.5413 11.3657 22.1937 11.1557 22.8827 10.9902C22.4502 10.4682 22.7288 10.0862 23.0586 9.69155ZM19.8627 5.39468C19.6867 5.54109 19.6867 5.56655 19.8407 5.75116C19.9946 5.89757 20.2218 6.36227 20.1412 6.8397C20.1192 7.04977 20.1705 7.25984 20.2951 6.88426C20.3978 6.50868 20.3684 5.98032 20.2438 5.6684C20.1192 5.35648 19.9653 5.27373 19.8627 5.39468ZM16.4174 6.21586C16.0143 7.15799 16.0363 8.05556 16.8719 8.83218C17.3557 9.27141 17.7076 9.06134 17.9128 8.57755C18.14 8.11921 18.294 7.66088 18.4479 7.34259C18.5945 7.03067 18.7265 7.09433 18.6971 7.38715C18.6238 7.9728 18.5725 8.91493 19.2836 9.27141C19.9946 9.62789 21.0795 9.02315 21.4606 8.39294C22.6042 9.64699 23.6157 9.06134 23.7404 7.84549C23.7697 7.46991 23.5644 6.65509 23.4398 6.42593C23.3152 6.1713 23.3885 6.1713 23.5644 6.29861C23.7404 6.44502 24.0482 6.52778 23.8943 6.10764C23.7184 5.71296 23.5131 5.4838 23.2346 5.29282C22.9853 5.10185 22.934 5.21007 22.8314 5.35648C22.7288 5.50289 22.7508 5.54109 22.6042 5.64931C22.4502 5.77662 22.4722 5.83391 22.6042 6.06944C23.0293 6.98611 23.4398 8.32928 22.7508 8.4566C22.1204 8.55845 21.7172 7.42535 21.6879 6.92882C21.6659 6.25405 21.5633 5.6875 21.4093 5.33738C21.2994 5.10822 21.2334 5 21.1748 5C21.0721 5 20.9255 5.36285 20.8302 5.50289C20.7276 5.64931 20.8302 5.6875 20.9035 5.98032C21.2847 7.45081 21.2334 8.11921 20.4198 8.49479C19.6134 8.89583 19.1809 8.52025 19.1809 8.05556C19.1589 7.59722 19.1589 7.03067 19.2323 6.61053C19.2836 6.19039 19.4082 6.1331 19.2323 5.92303C19.0563 5.6875 18.9024 5.77662 18.6752 6.04398C18.1694 6.62963 17.6636 7.61632 17.4803 8.07465C17.3044 8.55845 16.9525 8.39294 16.696 7.9919C16.4174 7.51447 16.4468 6.65509 16.5421 6.31771C16.6447 5.98032 16.5934 5.83391 16.4174 6.21586ZM15.3765 5.85938C15.4279 5.73206 15.3032 5.60475 15.2006 5.79572C15.1273 5.94213 15.098 6.04398 15.2519 6.1331C15.3032 6.04398 15.3546 5.94213 15.3765 5.85938ZM14.7681 5.6684C15.076 5.0191 16.0876 5.10185 15.809 5.94213C15.787 6.06944 15.7064 6.23495 15.6111 6.40046C15.7577 6.57234 15.6844 6.78241 15.3765 6.73785C15.0467 7.17708 14.4163 7.66088 13.3241 8.05556C12.8183 8.24653 12.745 8.10012 13.1262 7.90914C13.8592 7.51447 14.5409 7.03067 14.9734 6.52778C14.6435 6.29861 14.6435 5.96123 14.7681 5.6684ZM14.5922 7.9919C14.2917 8.31019 14.0644 8.76852 14.4896 9.04225C14.7242 9.20775 15.2006 9.02315 15.3765 8.70486C15.5598 8.37384 15.4792 8.32928 15.1786 8.60301C14.7461 8.99769 14.3137 8.6412 14.7681 8.10012C15.076 7.72454 14.9001 7.63542 14.5922 7.9919ZM13.9105 12.6007C13.9618 12.7471 13.9325 13.0845 13.8592 13.2309C13.7566 13.4155 13.8592 13.5046 14.0131 13.2691C14.1597 13.0208 14.2623 12.728 14.189 12.4352C14.1597 12.2251 14.1597 12.1615 13.9325 12.0787C13.6833 11.9959 13.6026 12.1169 13.5293 12.2888C13.4267 12.4988 13.5513 12.728 13.9105 12.6007ZM10.0035 11.2193C9.549 11.3212 9.47569 11.1748 9.49768 10.9456C9.52701 10.7164 9.549 10.6528 9.85687 10.761C9.98148 10.7992 10.1354 10.9456 10.2894 11.1366C10.1867 11.1557 10.0841 11.2002 10.0035 11.2193ZM10.3846 10.2772C9.93017 9.90162 9.549 9.87616 9.16782 10.3409C8.81597 10.7801 8.83796 10.8819 8.86728 11.283C8.88927 11.6777 8.79398 11.8241 9.16782 11.9323C9.52701 12.0341 9.68094 11.9959 9.90818 11.9323C10.0841 11.8877 10.3333 11.8241 10.5899 11.7413C10.6412 11.9514 10.6119 12.1806 10.4653 12.3524C9.52701 13.2691 8.08295 13.9439 7.44522 13.3328C7.09336 13.0017 6.93943 12.4734 7.04205 11.8495C7.14468 11.3212 6.93943 11.5567 6.86613 11.7413C6.63889 12.3524 6.55826 13.2309 6.86613 13.6701C7.29861 14.2749 7.98032 14.5486 9.07253 14.1539C10.1574 13.7529 11.2203 13.0399 11.1763 12.0596C11.1763 11.8686 11.147 11.7031 11.147 11.5758C11.2496 11.5312 11.4255 11.4294 11.5502 11.3848C11.5795 11.7222 11.5282 12.1424 11.5502 12.4734C11.6015 13.5428 11.0957 13.8547 10.6412 14.1539C10.0035 14.5677 9.14583 14.8414 8.41281 14.9497C6.66088 15.1534 6.25772 14.2367 6.27971 13.0017C6.27971 12.8108 6.38233 12.6834 6.38233 12.4097C6.36034 11.8877 6.27971 11.9705 6.08179 12.4988C5.89853 13.0017 5.6713 14.173 6.25772 15.1343C6.86613 16.1019 8.9186 15.8281 10.5166 15.1979C12.0853 14.5677 12.2612 13.3773 12.1879 12.1806C12.1879 11.8686 12.1586 11.5312 12.1366 11.1748C12.1879 11.1557 12.2099 11.1175 12.2392 11.092C12.4664 11.7031 13.5293 11.5312 13.8592 11.1748C14.0351 11.0093 14.0351 10.9902 14.189 11.1748C14.4163 11.4485 15.2006 11.5312 15.4059 11.1557C15.5818 10.761 15.5598 10.3791 15.5085 10.0862C15.4572 9.7934 15.3765 9.81887 15.1493 9.96528C14.9001 10.1308 15.098 10.1499 15.1273 10.36C15.2299 11.1557 14.3943 11.092 14.2917 10.2772C14.2404 9.77431 14.1377 9.96528 14.0644 10.1944C13.7052 11.1748 12.6644 11.3657 12.767 10.2326C12.7963 9.90162 12.5397 10.0035 12.4151 10.1308C12.2905 10.2135 12.1879 10.3218 12.0633 10.3791C11.9826 9.46238 11.9093 8.41204 11.7774 7.15799C12.0853 7.46991 12.3638 7.11343 12.1586 6.75694C12.012 6.48322 11.7774 5.87847 11.6308 5.54109C11.4988 5.21007 11.4255 5.31192 11.0957 5.58565C10.7951 5.87847 10.8465 5.94213 10.9931 6.23495C10.9417 6.59144 11.0224 6.94792 11.125 7.67998C11.1983 8.20197 11.4035 9.29051 11.4988 10.6719C11.3522 10.7355 11.125 10.8628 10.9711 10.9265C10.8465 10.6973 10.6632 10.5064 10.3846 10.2772ZM4.93827 12.9381C4.96026 13.1481 4.96026 13.2946 4.96026 13.3773C4.96026 13.5237 4.86497 13.6701 4.81366 13.8547C4.50579 14.7587 4.96026 15.1979 5.21682 14.8605C5.44406 14.5295 5.56867 14.5677 5.54668 14.8414C5.52469 15.7454 4.4838 15.8027 4.40316 15.0515C4.27855 13.8547 4.60841 13.6701 4.71103 13.2691C4.78434 13.0017 4.88696 12.7917 4.93827 12.9381ZM4.40316 11.614C5.14352 10.8819 6.08179 10.5064 6.55826 10.3791C6.86613 10.2963 7.02006 10.1944 7.02006 10.4427C7.04205 10.6719 7.02006 10.6973 6.7635 10.761C6.17708 10.8819 4.96026 11.3848 4.5571 11.6395C4.35918 11.7668 4.10262 11.9132 4.40316 11.614ZM8.53742 5.31192C8.46412 5.4838 8.51543 5.6875 8.64005 5.81481C8.76466 5.96123 8.9919 5.96123 9.14583 5.85938C9.27045 5.73206 9.27045 5.71296 9.40239 5.87847C9.47569 6.00579 9.72492 5.96123 9.80556 5.83391C9.85687 5.73206 9.93017 5.63021 9.85687 5.4838C9.77623 5.33738 9.77623 5.37558 9.72492 5.54109C9.68094 5.81481 9.37307 5.75116 9.35108 5.42014C9.35108 5.10185 9.27045 5.27373 9.16782 5.4838C8.9919 5.79572 8.74267 5.73206 8.74267 5.45833C8.74267 5.22917 8.66204 5.03819 8.53742 5.31192ZM7.44522 9.71065C7.52585 10.4682 7.77508 11.8686 7.77508 12.3524C7.8044 12.8553 7.8777 12.7089 8.03164 12.4352C8.18557 12.1615 8.15625 11.8686 8.13426 11.4676C8.08295 11.0538 8.05363 10.36 7.951 9.41782C8.15625 9.29051 8.33218 9.08044 8.41281 8.95949C8.61073 8.6412 8.66204 8.66667 8.74267 8.91493C8.88927 9.41782 9.49768 9.75521 10.3113 9.27141C11.0737 8.83218 10.7438 7.90914 10.414 6.90336C10.6925 6.94792 10.7951 6.75694 10.6119 6.50868C10.5386 6.36227 10.3846 6.23495 10.26 6.10764C10.1354 5.98032 10.0035 5.87847 9.87886 6.00579C9.77623 6.1331 9.65162 6.23495 9.57832 6.31771C9.49768 6.40046 9.49768 6.48322 9.60031 6.69329C9.90818 7.27894 10.1061 7.90914 10.1574 8.26562C10.238 8.60301 10.0841 8.68576 9.80556 8.68576C9.52701 8.68576 9.14583 8.62211 8.9919 8.11921C8.83796 7.61632 8.76466 7.38715 8.79398 7.04977C8.81597 6.71875 8.86728 6.48322 8.58873 6.1522C8.28086 5.81481 8.25887 5.87847 8.18557 6.04398C8.13426 6.23495 8.03164 6.50868 8.13426 6.8206C8.25887 7.27894 8.33218 7.67998 8.41281 7.9537C8.46412 8.13831 8.22955 8.53935 7.90702 8.74942C7.82639 8.11921 7.70177 7.27894 7.65046 6.61053C8.08295 6.48322 7.85571 6.00579 7.49653 5.4838C7.2473 5.08275 7.14468 5.24826 6.96875 5.50289C6.78549 5.75116 6.91744 5.85938 7.04205 6.06944C6.93943 6.23495 7.11535 6.48322 7.19599 6.94792C7.21798 7.24074 7.29861 8.07465 7.37191 8.81308C7.02006 8.81308 6.81481 8.62211 6.6902 8.37384C6.41165 7.84549 6.48495 7.36806 6.60957 7.04977C6.74151 6.73785 6.86613 6.25405 6.63889 6.1331C6.43364 6.00579 6.15509 6.1522 5.97917 6.38137C5.6713 6.75694 5.39275 7.3044 5.37076 7.87095C5.34144 8.10012 5.26813 8.53935 5.14352 8.70486C5.04089 8.87674 4.86497 8.89583 4.68171 8.6412C4.38117 8.24653 4.27855 7.24074 4.30787 6.71875C4.30787 6.46412 4.22724 6.42593 4.12461 6.71875C4.03665 6.98611 4 7.25984 4 7.52083C4 8.25926 4.24923 8.93403 4.45448 9.27141C4.73302 9.72975 5.09221 9.62789 5.34144 9.25231C5.72261 8.68576 5.56867 8.18287 5.92785 7.34259C6.1331 6.8206 6.2064 7.22164 6.1331 7.53356C5.94985 8.37384 6.00116 9.72975 7.44522 9.71065ZM5.26813 6.42593C5.52469 5.83391 5.54668 5.31192 5.24614 5.50289C4.98958 5.6684 4.83565 5.50289 5.04089 5.31192C5.29012 5.03819 5.61998 4.95544 5.70062 5.42014C5.72261 5.77662 5.42207 6.21586 5.26813 6.42593Z" fill="white"/>
</svg>
