<svg width="157" height="156" viewBox="0 0 157 156" fill="none" xmlns="http://www.w3.org/2000/svg">
<ellipse cx="78.5" cy="78" rx="78.5" ry="78" fill="white"/>
<path fill-rule="evenodd" clip-rule="evenodd" d="M63.5352 90.1813C60.2243 86.3459 57.5203 82.0279 55.5168 77.377C47.2401 82.8973 47.4666 87.3615 56.1962 90.7696C58.7987 97.2383 61.245 97.0422 63.5352 90.1813Z" fill="#F38328"/>
<g opacity="0.5">
<path fill-rule="evenodd" clip-rule="evenodd" d="M61.3193 88.0225C61.5221 87.8848 60.681 85.4579 58.7291 84.4235C58.1244 84.132 57.4911 83.9039 56.8392 83.743C56.1621 83.5602 55.4707 83.4351 54.7725 83.3689C55.9737 83.7579 57.1109 84.3217 58.1473 85.0421C60.2933 86.5383 61.1451 88.1423 61.3193 88.0225Z" fill="white"/>
</g>
<g opacity="0.5">
<path fill-rule="evenodd" clip-rule="evenodd" d="M55.1426 77.6292C53.6858 78.6713 52.3232 79.8386 51.0701 81.1176C50.3988 81.7137 49.9097 82.4868 49.6593 83.3481C49.4952 84.0457 49.511 84.7734 49.7052 85.4632L50.1914 84.1649C50.6582 83.2864 51.223 82.4633 51.875 81.7114C52.9619 80.4635 54.2716 79.428 55.7375 78.6576C55.7666 78.4446 55.724 78.228 55.6163 78.0418C55.5086 77.8556 55.342 77.7105 55.1426 77.6292Z" fill="white"/>
</g>
<path d="M59.8042 95.9549C59.8459 95.9566 59.888 95.9566 59.9301 95.9549C61.4326 95.9095 62.7214 94.1214 63.9901 90.3306C64.0165 90.2514 64.0217 90.1665 64.005 90.0847C63.9884 90.0028 63.9505 89.9267 63.8953 89.8639C60.6209 86.0627 57.9447 81.7865 55.9586 77.1821C55.9072 77.0662 55.8119 76.9755 55.6935 76.9297C55.5751 76.884 55.4434 76.887 55.3272 76.938C55.3019 76.9494 55.2776 76.9627 55.2544 76.978C50.7861 79.956 48.7469 82.617 49.018 85.1163C49.2714 87.4455 51.501 89.4164 55.8293 91.1378C57.1553 94.3685 58.4216 95.9067 59.8042 95.9549ZM62.9935 90.2886C61.603 94.3413 60.4629 94.9825 59.9014 94.9998C59.3521 95.0187 58.2033 94.4656 56.6415 90.5905C56.6171 90.5299 56.5805 90.4748 56.534 90.4289C56.4875 90.3829 56.4321 90.3469 56.3711 90.3231C52.339 88.7477 50.1836 86.9612 49.9715 85.0127C49.7532 83.0136 51.5499 80.6864 55.3144 78.0918C57.2737 82.5046 59.8599 86.6124 62.9935 90.2886Z" fill="#000072"/>
<path d="M61.1461 86.4947C60.8165 85.9771 60.4445 85.4875 60.0339 85.0312C59.6189 84.562 59.1425 84.1506 58.6176 83.8082C58.0827 83.4547 57.4822 83.2117 56.8516 83.0937C56.2237 82.9866 55.5788 83.039 54.9766 83.2461C54.9319 83.2609 54.8943 83.2916 54.8709 83.3324C54.8476 83.3731 54.8401 83.421 54.8499 83.4669C54.8597 83.5129 54.8862 83.5535 54.9242 83.5812C54.9622 83.6089 55.0091 83.6216 55.0559 83.6169C55.6126 83.5618 56.1746 83.6014 56.7181 83.7339C57.2512 83.8689 57.7541 84.1024 58.201 84.4223C58.6553 84.7533 59.0698 85.1354 59.4363 85.5613C59.8095 85.9963 60.1568 86.4528 60.4764 86.9284V86.9333C60.5348 87.0218 60.626 87.0837 60.73 87.1051C60.834 87.1266 60.9424 87.1059 61.0311 87.0477C61.1199 86.9895 61.1818 86.8984 61.2033 86.7946C61.2248 86.6907 61.2041 86.5826 61.1458 86.4941L61.1461 86.4947Z" fill="#000072"/>
<g opacity="0.25">
<path fill-rule="evenodd" clip-rule="evenodd" d="M56.196 90.7688C55.4897 89.9279 54.8107 90.0804 53.4416 89.4216C51.9442 88.78 50.7344 87.6127 50.0413 86.1407C49.7971 85.493 49.6976 84.7999 49.7499 84.1099C50.2602 85.2378 51.0621 86.2098 52.0732 86.9261C53.4111 87.8503 55.0259 88.2889 56.6485 88.1691C57.1481 88.1564 57.643 88.2682 58.0885 88.4942C58.534 88.7202 58.9162 89.0533 59.2004 89.4636C59.2583 89.6296 59.3264 89.7919 59.4042 89.9496C60.0905 91.3237 61.2527 91.388 62.8908 90.1427C62.5987 93.2722 61.2803 95.4235 60.0502 95.4651C58.7104 95.5106 57.2864 93.0612 56.9944 92.558C56.5284 91.7529 56.6895 91.3522 56.196 90.7688Z" fill="#000072"/>
</g>
<path fill-rule="evenodd" clip-rule="evenodd" d="M85.2613 98.0934C120.382 70.5299 104.205 36.111 78.7169 42.7025C29.0745 32.9264 62.2591 116.143 85.2613 98.0934Z" fill="#F38328"/>
<g opacity="0.5">
<path fill-rule="evenodd" clip-rule="evenodd" d="M95.7892 44.9236C91.1847 42.0216 85.2596 41.0076 78.7186 42.698C60.8455 39.1795 53.7069 47.7151 52.9727 59.2369C53.4541 59.1635 53.9484 59.0839 54.4556 58.9981C54.6683 56.4868 55.4372 54.054 56.7066 51.8754C57.976 49.6968 59.7143 47.8267 61.7959 46.4002C61.8859 46.3383 61.9759 46.2787 62.0673 46.2192C61.8125 46.4835 61.6973 46.7258 61.7749 46.8986C61.9553 47.3 63.1119 47.1719 64.3576 46.6116C65.6032 46.0512 66.4653 45.2729 66.285 44.8706C66.1567 44.5876 65.5404 44.568 64.749 44.7807C68.3744 43.2344 72.4248 42.99 76.2104 44.0892C76.9505 43.7373 77.754 43.5379 78.573 43.503C79.392 43.468 80.2097 43.5982 80.9771 43.8858C85.9193 42.902 91.0355 43.2598 95.792 44.9219" fill="white"/>
</g>
<path d="M78.2678 101.142C77.8798 101.142 77.4922 101.122 77.1063 101.082C74.0323 100.655 71.1443 99.3604 68.7817 97.3515C63.098 92.8769 57.9186 84.7881 54.9272 75.7101C51.769 66.1264 51.5959 57.0763 54.4524 50.8803C57.0388 45.2698 63.3474 39.2197 78.7033 42.2088C89.2257 39.5322 98.9412 43.6933 103.475 52.8302C106.504 58.9329 106.775 66.4675 104.239 74.0459C101.342 82.7053 94.8815 91.15 85.5585 98.4674C83.5073 100.167 80.9333 101.111 78.2678 101.142ZM71.2043 42.3826C63.4643 42.3826 58.0372 45.3951 55.3238 51.2809C52.567 57.2598 52.7539 66.0545 55.838 75.4113C58.7728 84.3162 63.8329 92.2373 69.3752 96.6001C73.2494 99.6505 79.1003 102.319 84.9657 97.7147C94.1421 90.5129 100.495 82.2238 103.33 73.7416C105.782 66.4045 105.532 59.1288 102.617 53.2536C98.2766 44.5108 88.9436 40.548 78.8382 43.1615C78.7687 43.1795 78.6962 43.1817 78.6257 43.1681C76.1836 42.6673 73.6985 42.4043 71.2054 42.3826H71.2043Z" fill="#000072"/>
<path fill-rule="evenodd" clip-rule="evenodd" d="M70.5785 36.5258C75.5176 37.2087 77.444 39.5124 76.5653 42.3246C77.2652 42.429 77.9828 42.5535 78.7183 42.698C79.314 42.5441 79.9042 42.4125 80.4888 42.3032C79.257 38.3876 84.2174 37.0008 86.6063 33.6472C88.6544 29.9515 87.3129 25.2986 83.6101 23.2543C82.262 22.5102 80.7204 22.1889 79.1866 22.3326C74.8907 1.00158 51.2804 16.5444 65.4663 23.1834C71.1779 25.8558 73.9975 27.1693 76.5584 32.9244C75.4306 30.7456 73.4857 29.1001 71.1476 28.3465C70.3623 28.1623 69.5405 28.21 68.7819 28.4835C68.0233 28.7571 67.3607 29.2448 66.8747 29.8873C66.3888 30.5299 66.1004 31.2995 66.0447 32.1026C65.989 32.9058 66.1683 33.7077 66.5609 34.411C67.3606 35.8501 68.9463 36.3007 70.5785 36.5258Z" fill="#78C44A"/>
<g opacity="0.5">
<path fill-rule="evenodd" clip-rule="evenodd" d="M71.285 28.3949L71.145 28.3491C70.3598 28.165 69.5379 28.2126 68.7793 28.4862C68.0208 28.7597 67.3582 29.2474 66.8722 29.89C66.3863 30.5325 66.0979 31.3021 66.0422 32.1053C65.9864 32.9084 66.1658 33.7104 66.5584 34.4136C66.8786 34.9835 67.3548 35.4507 67.9313 35.7605C68.2471 35.7151 68.5577 35.6383 68.8583 35.5312C68.2917 35.0063 67.9015 34.3194 67.741 33.5646C67.5805 32.8098 67.6577 32.024 67.9619 31.3146C68.2661 30.6053 68.7824 30.007 69.4403 29.6018C70.0982 29.1966 70.8655 29.0042 71.6371 29.0509C71.5352 28.8241 71.4159 28.6054 71.2802 28.3969" fill="white"/>
</g>
<g opacity="0.5">
<path fill-rule="evenodd" clip-rule="evenodd" d="M86.7838 33.3033C88.6412 29.5061 87.0628 24.9268 83.2614 23.0736C81.9963 22.4574 80.5857 22.2008 79.1841 22.3318C75.3344 3.20858 55.9622 13.7247 62.2169 20.8886C62.3935 20.8939 62.5713 20.8939 62.7504 20.8886C61.3841 12.7024 73.2877 9.5815 78.5185 22.791C78.7237 22.8687 78.935 22.929 79.1503 22.9713C83.668 23.772 86.6804 28.0766 85.8779 32.5856C85.769 33.1985 85.5912 33.7972 85.3478 34.3703C85.8441 34.0396 86.3228 33.6835 86.7821 33.3033" fill="white"/>
</g>
<path d="M78.7177 43.177C78.6865 43.1771 78.6553 43.1741 78.6246 43.168C77.8987 43.0252 77.1817 42.9006 76.4937 42.7987C76.4252 42.7886 76.3597 42.7639 76.3017 42.7261C76.2437 42.6883 76.1946 42.6383 76.1579 42.5798C76.1211 42.5212 76.0975 42.4553 76.0888 42.3867C76.08 42.3181 76.0863 42.2485 76.1071 42.1826C76.2691 41.7461 76.3298 41.2787 76.2848 40.8154C76.2397 40.3521 76.0901 39.905 75.8471 39.5078C75.0412 38.2383 73.1965 37.3737 70.5124 37.0009C68.8737 36.7741 67.0725 36.3173 66.1396 34.6466C65.7016 33.8623 65.5015 32.9678 65.5636 32.0721C65.6258 31.1763 65.9474 30.3179 66.4895 29.6013C67.0315 28.8847 67.7706 28.3409 68.6167 28.0359C69.4629 27.7309 70.3796 27.6781 71.2553 27.8837L71.2929 27.8943C72.1534 28.1712 72.9716 28.565 73.7245 29.0646C71.7491 26.6552 69.2703 25.4949 65.2857 23.6307L65.2612 23.6193C61.6943 21.9493 60.0042 19.4476 60.6253 16.7545C61.3698 13.5266 65.2464 10.9465 69.2537 11.0008C71.6739 11.0353 77.4697 12.1667 79.5678 21.8254C84.0607 21.6429 87.8514 25.1297 88.0341 29.615C88.0946 31.102 87.745 32.577 87.0234 33.8794C87.0147 33.8945 87.0054 33.909 86.9954 33.9234C86.0871 35.09 85.0237 36.1277 83.8348 37.0078C81.8277 38.6393 80.2386 39.9232 80.9466 42.1609C80.9654 42.2208 80.9723 42.2838 80.9668 42.3463C80.9613 42.4089 80.9435 42.4697 80.9144 42.5254C80.8853 42.5811 80.8456 42.6305 80.7973 42.6709C80.7491 42.7112 80.6934 42.7416 80.6334 42.7605C80.6152 42.7663 80.5967 42.7708 80.5779 42.7743C80.0058 42.882 79.4206 43.0124 78.8395 43.1629C78.7996 43.1727 78.7587 43.1775 78.7177 43.177ZM77.1596 41.9337C77.6649 42.0153 78.1815 42.1058 78.7029 42.2091C79.1019 42.1079 79.5016 42.0156 79.8978 41.9337C79.3878 39.3835 81.3387 37.8002 83.2292 36.2657C84.3416 35.4425 85.3398 34.4758 86.1978 33.3909C88.1045 29.9196 86.8309 25.5627 83.353 23.6593C82.0947 22.9709 80.6588 22.6745 79.2302 22.8081C79.1119 22.8198 78.9934 22.7872 78.8979 22.7167C78.8023 22.6461 78.7364 22.5427 78.7129 22.4263C76.8331 13.0702 71.4601 11.9842 69.2385 11.9567C65.7127 11.9116 62.1954 14.2023 61.5554 16.968C61.0381 19.2146 62.4961 21.2705 65.6644 22.7506L65.6889 22.7619C71.4632 25.4639 74.3614 26.8204 76.9907 32.7307C77.0224 32.7877 77.0421 32.8506 77.0486 32.9154C77.055 32.9803 77.0482 33.0458 77.0284 33.1079C77.0086 33.17 76.9762 33.2274 76.9334 33.2766C76.8905 33.3258 76.8381 33.3657 76.7792 33.3939C76.7203 33.4221 76.6563 33.438 76.591 33.4406C76.5258 33.4432 76.4607 33.4325 76.3998 33.4091C76.3388 33.3856 76.2833 33.35 76.2367 33.3044C76.19 33.2588 76.1532 33.2041 76.1285 33.1438C75.0669 31.0792 73.2279 29.5194 71.0153 28.8068C70.321 28.6463 69.595 28.6905 68.9254 28.934C68.2559 29.1776 67.6716 29.61 67.2437 30.1788C66.8157 30.7475 66.5626 31.4281 66.5149 32.1378C66.4672 32.8475 66.6271 33.5557 66.9752 34.1764C67.7036 35.4816 69.2378 35.8544 70.6428 36.0527C73.6155 36.4605 75.6947 37.4811 76.6558 38.9952C77.2043 39.8695 77.3858 40.9241 77.161 41.931L77.1596 41.9337Z" fill="#000072"/>
<path fill-rule="evenodd" clip-rule="evenodd" d="M50.8722 63.8028C50.9243 64.6581 51.1907 65.4866 51.6471 66.2123C60.081 61.5519 69.5966 59.1924 79.2351 59.3714C88.8736 59.5504 98.2946 62.2616 106.549 67.2318C106.918 66.4959 107.122 65.6886 107.146 64.8661C98.7561 59.5802 89.0765 56.6871 79.1564 56.5001C69.2364 56.3132 59.4542 58.8396 50.8701 63.8056" fill="white"/>
<g opacity="0.5">
<path fill-rule="evenodd" clip-rule="evenodd" d="M98.3044 57.1454C83.4681 51.085 67.7983 51.2595 52.9596 59.3634C52.2673 59.8699 51.7134 60.5418 51.3488 61.3174C50.9842 62.093 50.8205 62.9476 50.8728 63.8027C50.925 64.6579 51.1915 65.4863 51.6478 66.212C52.1041 66.9376 52.7357 67.5373 53.4845 67.9561C55.9365 66.8962 58.455 65.997 61.0242 65.2641C54.6401 66.6581 50.2838 63.0956 54.6098 60.4394C66.4437 53.175 82.2166 53.3423 99.289 58.4C98.9705 57.9734 98.6436 57.5558 98.3082 57.1471" fill="white"/>
</g>
<path d="M103.976 69.608C103.906 69.6075 103.838 69.5908 103.776 69.5591C96.2808 65.6926 88.0029 63.5785 79.5685 63.3767C71.1341 63.175 62.7642 64.8909 55.0924 68.3946C55.0283 68.4241 54.958 68.4376 54.8875 68.434C54.817 68.4303 54.7485 68.4096 54.6878 68.3736C53.8954 67.8986 53.2327 67.2357 52.7583 66.4438C52.284 65.652 52.0127 64.7555 51.9686 63.8339C51.907 62.9095 52.0728 61.9841 52.4514 61.1382C52.8301 60.2923 53.4102 59.5517 54.1412 58.9807C54.1573 58.9681 54.1743 58.9566 54.1919 58.9463C61.828 54.4381 70.59 52.1876 79.4578 52.4567C87.8035 52.7496 96.2132 55.308 104.441 60.0608C104.47 60.0787 104.497 60.1 104.522 60.1241C105.123 60.7031 105.604 61.3946 105.938 62.1592C106.272 62.9238 106.451 63.7464 106.466 64.5802C106.481 65.414 106.331 66.2425 106.025 67.0186C105.719 67.7946 105.263 68.5029 104.683 69.103C104.548 69.2437 104.405 69.3779 104.256 69.5057C104.178 69.5713 104.079 69.6074 103.976 69.608ZM78.2301 62.4048C87.1554 62.4139 95.9526 64.524 103.907 68.5636C104.935 67.5763 105.528 66.222 105.555 64.7986C105.583 63.3751 105.043 61.9991 104.054 60.9729C104.02 60.9385 103.985 60.9041 103.951 60.8697C87.2486 51.2433 70.2055 50.8616 54.6544 59.7682C54.0555 60.2427 53.581 60.8553 53.2717 61.5532C52.9624 62.2511 52.8275 63.0136 52.8787 63.7751C52.9138 64.5014 53.1188 65.2095 53.4771 65.8427C53.8354 66.4759 54.3372 67.0166 54.9423 67.4216C62.262 64.122 70.2006 62.4125 78.2322 62.4062L78.2301 62.4048Z" fill="#000072"/>
<path fill-rule="evenodd" clip-rule="evenodd" d="M97.0401 101.894C94.553 99.2921 94.2971 93.6038 93.8191 90.199C91.1916 93.0629 88.3289 95.7027 85.261 98.0909C84.4877 98.7044 83.6464 99.2274 82.7536 99.6494C82.7253 103.56 83.6399 105.508 85.4973 105.494L95.7514 105.34C96.1798 105.407 96.6184 105.325 96.993 105.107C97.3675 104.889 97.6549 104.548 97.8065 104.142C97.9581 103.737 97.9645 103.291 97.8247 102.881C97.6849 102.472 97.4075 102.123 97.0394 101.894H97.0401Z" fill="#F38328"/>
<g opacity="0.5">
<path fill-rule="evenodd" clip-rule="evenodd" d="M97.041 101.894C94.6349 99.3772 94.3166 93.9742 93.8683 90.5408C93.4113 90.8104 92.9873 91.1321 92.6047 91.4994C92.3653 95.1071 93.1723 98.7072 94.9291 101.869C96.4439 103.57 96.4614 104.73 94.9815 105.351L95.7546 105.34C96.1832 105.408 96.6221 105.326 96.9969 105.108C97.3718 104.889 97.6594 104.548 97.8111 104.143C97.9627 103.737 97.9691 103.291 97.829 102.881C97.689 102.471 97.4112 102.122 97.0427 101.894" fill="white"/>
</g>
<path d="M85.4813 105.973C85.1434 105.981 84.8075 105.92 84.4941 105.794C84.1807 105.667 83.8965 105.479 83.6587 105.239C82.7066 104.289 82.2537 102.46 82.2741 99.6483C82.2746 99.5579 82.3007 99.4695 82.3496 99.3934C82.3984 99.3173 82.4679 99.2566 82.55 99.2184C83.4093 98.8112 84.2192 98.3073 84.964 97.7167C88.0103 95.3438 90.8534 92.7222 93.4642 89.8788C93.5254 89.8116 93.6045 89.7631 93.6924 89.7391C93.7802 89.7151 93.873 89.7166 93.96 89.7434C94.047 89.7701 94.1246 89.8211 94.1837 89.8902C94.2427 89.9594 94.2808 90.0439 94.2935 90.1339C94.3704 90.6805 94.4408 91.2825 94.516 91.9189C94.8888 95.0949 95.3988 99.437 97.3497 101.525C97.7924 101.822 98.1216 102.259 98.2837 102.766C98.4459 103.273 98.4314 103.82 98.2428 104.317C98.0541 104.815 97.7023 105.234 97.2446 105.507C96.7869 105.78 96.2501 105.89 95.7216 105.82L85.5051 105.974L85.4813 105.973ZM83.2321 99.9495C83.2452 102.29 83.6156 103.839 84.3357 104.56C84.4868 104.711 84.6676 104.83 84.8667 104.909C85.0659 104.987 85.2791 105.024 85.493 105.016L95.7447 104.863C95.7721 104.863 95.7994 104.865 95.8265 104.869C96.1451 104.917 96.4707 104.855 96.7485 104.692C97.0264 104.529 97.2396 104.275 97.3523 103.974C97.4649 103.673 97.4702 103.342 97.3673 103.037C97.2643 102.732 97.0594 102.472 96.7869 102.3C96.7538 102.279 96.7233 102.254 96.6962 102.226C94.4891 99.9223 93.9794 95.5485 93.5666 92.0287C93.5365 91.7708 93.5068 91.5197 93.4776 91.2756C91.0218 93.8664 88.3752 96.2702 85.5599 98.4667C84.8364 99.0385 84.0567 99.5356 83.2328 99.9505L83.2321 99.9495Z" fill="#000072"/>
<path fill-rule="evenodd" clip-rule="evenodd" d="M63.708 91.4739C63.2994 94.888 62.8459 99.595 60.6494 101.894C60.2813 102.123 60.0038 102.472 59.864 102.881C59.7242 103.291 59.7307 103.737 59.8823 104.142C60.034 104.548 60.3215 104.889 60.6961 105.107C61.0707 105.325 61.5094 105.407 61.9378 105.34L72.1926 105.494C73.9675 105.508 74.8816 103.729 74.935 100.159C70.9608 98.9706 67.0794 95.7888 63.708 91.4739Z" fill="#F38328"/>
<g opacity="0.5">
<path fill-rule="evenodd" clip-rule="evenodd" d="M63.6221 92.1965C63.2297 95.5257 62.6944 99.7556 60.6477 101.895C60.2792 102.124 60.0014 102.473 59.8613 102.883C59.7213 103.293 59.7276 103.738 59.8793 104.144C60.031 104.55 60.3186 104.891 60.6934 105.109C61.0683 105.327 61.5072 105.409 61.9357 105.341L62.3347 105.347C61.3114 104.912 61.2341 104.028 62.1026 102.695C63.1751 101.389 63.9683 99.8783 64.4336 98.2552C64.8989 96.6321 65.0263 94.9311 64.8081 93.257C64.4707 92.8441 64.0708 92.4863 63.6228 92.1965" fill="white"/>
</g>
<path d="M72.2122 105.972H72.1867L61.966 105.819C61.4373 105.89 60.9002 105.78 60.442 105.507C59.9838 105.234 59.6317 104.815 59.4429 104.317C59.2541 103.819 59.2398 103.272 59.4023 102.765C59.5648 102.258 59.8946 101.821 60.3379 101.524C62.2888 99.4361 62.7988 95.0936 63.1716 91.918L63.2306 91.4185C63.2418 91.3245 63.2807 91.2358 63.3424 91.1638C63.4041 91.0918 63.4859 91.0398 63.5773 91.0143C63.6687 90.9887 63.7656 90.9909 63.8558 91.0205C63.946 91.05 64.0254 91.1057 64.0838 91.1804C67.5828 95.655 71.3817 98.6041 75.0687 99.7011C75.1687 99.7311 75.2561 99.7929 75.3178 99.877C75.3795 99.9611 75.412 100.063 75.4104 100.167C75.3545 104.02 74.2789 105.972 72.2122 105.972ZM61.9374 104.859H61.9446L72.1998 105.013H72.2146C73.5989 105.013 74.3503 103.499 74.4476 100.504C70.9327 99.3548 67.3651 96.6584 64.0517 92.6597C63.6431 96.0532 63.0709 100.053 60.9973 102.22C60.9703 102.249 60.9398 102.274 60.9066 102.295C60.6341 102.466 60.4291 102.727 60.3262 103.031C60.2232 103.336 60.2285 103.667 60.3412 103.969C60.4539 104.27 60.6671 104.523 60.9449 104.686C61.2228 104.849 61.5484 104.912 61.867 104.863C61.8903 104.86 61.9139 104.859 61.9374 104.859Z" fill="#000072"/>
<path d="M65.2553 67.2554C65.6679 66.5348 66.2808 65.949 67.02 65.5688C67.7714 65.1687 68.6098 64.9591 69.4615 64.9583C70.3131 64.9574 71.152 65.1654 71.9042 65.5639C72.645 65.9426 73.2599 66.5273 73.6747 67.2474L73.7147 67.3204C73.7506 67.3842 73.7619 67.4588 73.7465 67.5303C73.7311 67.6019 73.6901 67.6653 73.6311 67.7087C73.5722 67.7522 73.4994 67.7727 73.4264 67.7663C73.3534 67.76 73.2852 67.7272 73.2347 67.6743C72.2625 66.6735 70.9319 66.0992 69.5354 66.0776C68.139 66.056 66.7912 66.589 65.7885 67.5593C65.7519 67.5946 65.7158 67.6305 65.6802 67.667C65.631 67.7165 65.5656 67.7466 65.496 67.7519C65.4264 67.7573 65.3571 67.7375 65.3009 67.6961C65.2448 67.6547 65.2053 67.5946 65.1899 67.5266C65.1744 67.4587 65.1839 67.3874 65.2167 67.3259L65.2553 67.2554Z" fill="#000072"/>
<path d="M84.9434 67.5743C85.356 66.8537 85.9689 66.2679 86.708 65.8877C87.4594 65.4876 88.2979 65.2779 89.1495 65.2771C90.0012 65.2763 90.84 65.4843 91.5923 65.8829C92.3329 66.2618 92.9479 66.8466 93.3628 67.5667L93.4028 67.6394C93.4386 67.7031 93.4499 67.7777 93.4345 67.8492C93.4192 67.9206 93.3782 67.984 93.3194 68.0275C93.2605 68.071 93.1878 68.0915 93.1148 68.0852C93.0418 68.079 92.9737 68.0464 92.9231 67.9935C91.951 66.9927 90.6203 66.4183 89.2239 66.3967C87.8275 66.3751 86.4796 66.908 85.4769 67.8782C85.44 67.9126 85.4041 67.9495 85.3686 67.986C85.3195 68.0355 85.2541 68.0658 85.1845 68.0713C85.1148 68.0767 85.0455 68.0569 84.9893 68.0155C84.9331 67.9742 84.8937 67.914 84.8783 67.846C84.8628 67.778 84.8725 67.7067 84.9054 67.6452L84.9434 67.5743Z" fill="#000072"/>
<path fill-rule="evenodd" clip-rule="evenodd" d="M74.6152 78.5698C74.8363 79.5247 75.3743 80.3769 76.1419 80.9881C76.9094 81.5993 77.8615 81.9334 78.8434 81.9364C79.8253 81.9393 80.7794 81.6107 81.5506 81.0041C82.3218 80.3975 82.8649 79.5485 83.0916 78.595C80.2813 79.0174 77.4229 79.0089 74.6152 78.5698Z" fill="white"/>
<path d="M78.8548 82.3324H78.841C77.7681 82.3326 76.727 81.9688 75.8885 81.3009C75.0499 80.633 74.4636 79.7005 74.2257 78.6563C74.2113 78.5929 74.2127 78.5269 74.2297 78.4641C74.2467 78.4014 74.2789 78.3437 74.3234 78.2962C74.3678 78.2486 74.4233 78.2127 74.4849 78.1915C74.5465 78.1703 74.6124 78.1644 74.6768 78.1744C77.4442 78.608 80.2618 78.6162 83.0317 78.1989C83.1365 78.1832 83.2433 78.2096 83.3286 78.2724C83.4138 78.3352 83.4707 78.4292 83.4866 78.5338C83.4946 78.5853 83.4921 78.6378 83.4794 78.6883C83.2348 79.7281 82.6444 80.6544 81.8045 81.3163C80.9646 81.9781 79.9248 82.3363 78.8548 82.3324ZM75.1816 79.0522C75.4718 79.7848 75.9761 80.4134 76.629 80.8562C77.2818 81.2991 78.053 81.5357 78.8424 81.5353H78.8541C79.6414 81.5379 80.4115 81.3047 81.0647 80.8659C81.7179 80.4272 82.2242 79.8029 82.5182 79.0739C80.0829 79.3845 77.6175 79.3772 75.1841 79.0522H75.1816Z" fill="#000072"/>
<path d="M75.6105 44.9805C75.5321 44.9806 75.4554 44.9576 75.39 44.9144C75.3247 44.8713 75.2734 44.8099 75.2428 44.7378C75.2121 44.6658 75.2033 44.5864 75.2176 44.5095C75.2318 44.4325 75.2685 44.3615 75.3229 44.3052C76.0471 43.5548 77.53 42.81 79.8406 42.0283C79.8904 42.0115 79.943 42.0047 79.9955 42.0082C80.0479 42.0118 80.0992 42.0256 80.1463 42.0489C80.1934 42.0722 80.2354 42.1045 80.27 42.144C80.3046 42.1835 80.331 42.2295 80.3479 42.2792C80.3647 42.3289 80.3715 42.3815 80.3679 42.4338C80.3644 42.4862 80.3506 42.5373 80.3272 42.5843C80.3039 42.6313 80.2715 42.6733 80.2319 42.7078C80.1923 42.7424 80.1463 42.7688 80.0964 42.7855C77.9352 43.5149 76.5223 44.2133 75.8971 44.8607C75.8598 44.8989 75.8153 44.9292 75.766 44.9498C75.7168 44.9703 75.6639 44.9808 75.6105 44.9805Z" fill="#000072"/>
<path d="M82.3102 45.3156C82.2572 45.3156 82.2048 45.3051 82.1559 45.2847C82.1071 45.2642 82.0628 45.2342 82.0257 45.1965C80.7086 44.0461 79.1234 43.2439 77.4152 42.8635C77.3119 42.8397 77.2223 42.7758 77.1662 42.6861C77.11 42.5963 77.0919 42.488 77.1157 42.3849C77.1396 42.2818 77.2035 42.1923 77.2935 42.1363C77.3834 42.0802 77.492 42.0621 77.5953 42.0859C77.608 42.089 77.6204 42.0925 77.6325 42.0966C79.4749 42.5127 81.1821 43.3869 82.5954 44.6379C82.6505 44.6939 82.6877 44.7648 82.7025 44.8419C82.7174 44.919 82.7091 44.9987 82.6787 45.071C82.6483 45.1434 82.5972 45.2052 82.5318 45.2487C82.4663 45.2922 82.3895 45.3155 82.3109 45.3156H82.3102Z" fill="#000072"/>
<path d="M78.652 44.5435H78.6299C78.5774 44.5409 78.5259 44.5281 78.4784 44.5056C78.4308 44.4831 78.3882 44.4515 78.353 44.4125C78.3177 44.3736 78.2905 44.3281 78.273 44.2786C78.2554 44.2291 78.2478 44.1767 78.2506 44.1243L78.3195 42.8362C78.329 42.7335 78.378 42.6385 78.4561 42.571C78.5343 42.5036 78.6356 42.469 78.7388 42.4744C78.842 42.4799 78.939 42.5251 79.0096 42.6004C79.0801 42.6758 79.1187 42.7755 79.1172 42.8786L79.0482 44.1666C79.0426 44.2679 78.9985 44.3633 78.9249 44.4334C78.8513 44.5034 78.7537 44.5428 78.652 44.5435Z" fill="#000072"/>
<path d="M78.7178 43.176C78.5971 43.1758 78.4809 43.1302 78.3924 43.0483C78.3039 42.9663 78.2497 42.8541 78.2405 42.734C77.6866 35.2689 75.4109 29.9599 71.4788 26.9561C71.3779 26.8789 71.3119 26.7649 71.2952 26.6392C71.2785 26.5135 71.3125 26.3862 71.3898 26.2856C71.4671 26.1849 71.5813 26.1189 71.7073 26.1023C71.8333 26.0856 71.9607 26.1196 72.0616 26.1968C76.2203 29.3734 78.6209 34.914 79.1968 42.6631C79.2015 42.7257 79.1938 42.7886 79.1741 42.8482C79.1545 42.9078 79.1232 42.963 79.0822 43.0105C79.0412 43.0581 78.9912 43.0971 78.935 43.1254C78.8789 43.1537 78.8177 43.1706 78.755 43.1753L78.7178 43.176Z" fill="#000072"/>
<path d="M67.7645 17.7331C69.6521 19.1679 71.3406 20.8461 72.786 22.7241C74.2278 24.609 75.4229 26.6697 76.3422 28.8564C77.2574 31.0423 77.9435 33.3169 78.3896 35.6438C78.8355 37.9668 79.1053 40.3202 79.1966 42.6837C79.2021 42.8105 79.1568 42.9343 79.0708 43.0278C78.9848 43.1213 78.8652 43.1769 78.7381 43.1823C78.6111 43.1878 78.4871 43.1426 78.3934 43.0568C78.2997 42.971 78.244 42.8515 78.2386 42.7247V42.713C78.1907 40.3938 77.9676 38.0815 77.5709 35.7959C77.1764 33.5133 76.5463 31.2777 75.6908 29.1245C74.8309 26.9725 73.6996 24.9387 72.3242 23.0724C70.9395 21.2076 69.3131 19.5343 67.4876 18.0963C67.4632 18.0781 67.4427 18.0554 67.4272 18.0292C67.4118 18.0031 67.4017 17.9742 67.3976 17.9441C67.3935 17.9141 67.3954 17.8835 67.4033 17.8542C67.4112 17.8249 67.4248 17.7975 67.4434 17.7735C67.462 17.7495 67.4852 17.7295 67.5117 17.7146C67.5382 17.6996 67.5673 17.6901 67.5975 17.6866C67.6277 17.6831 67.6583 17.6856 67.6875 17.694C67.7167 17.7024 67.7439 17.7165 67.7676 17.7355L67.7645 17.7331Z" fill="#000072"/>
<path d="M82.236 26.5272C81.8197 32.1148 80.7939 37.6404 79.1768 43.0059C79.1394 43.1272 79.0552 43.2287 78.9429 43.288C78.8305 43.3474 78.6991 43.3598 78.5776 43.3224C78.4561 43.2851 78.3544 43.2011 78.2949 43.0889C78.2355 42.9768 78.2231 42.8456 78.2605 42.7244L78.2643 42.7106C80.0203 37.4448 81.1953 32.0034 81.7684 26.4831C81.7743 26.4212 81.8045 26.3642 81.8525 26.3246C81.9005 26.2849 81.9623 26.2659 82.0243 26.2718C82.0863 26.2776 82.1435 26.3078 82.1832 26.3557C82.2229 26.4036 82.2419 26.4653 82.236 26.5272Z" fill="#000072"/>
<path d="M69.858 31.5747C71.0385 32.0027 72.1635 32.57 73.209 33.2647C74.2613 33.9684 75.2076 34.8183 76.0193 35.7888C76.8302 36.765 77.5084 37.8437 78.0364 38.9971C78.5616 40.1492 78.9668 41.352 79.2458 42.5868C79.2617 42.6486 79.265 42.7129 79.2556 42.776C79.2462 42.8391 79.2242 42.8997 79.191 42.9542C79.1578 43.0087 79.114 43.0561 79.0622 43.0934C79.0104 43.1308 78.9516 43.1574 78.8893 43.1718C78.827 43.1861 78.7625 43.1879 78.6995 43.177C78.6365 43.1661 78.5763 43.1427 78.5225 43.1082C78.4687 43.0738 78.4224 43.0289 78.3862 42.9763C78.3501 42.9237 78.3248 42.8644 78.3119 42.8019V42.7816C78.0924 41.5972 77.7517 40.4384 77.2953 39.3234C76.8377 38.2104 76.2347 37.1626 75.502 36.2073C74.7633 35.2502 73.8915 34.4032 72.9128 33.6922C71.9247 32.9789 70.8547 32.3861 69.7256 31.9264C69.7025 31.9174 69.6813 31.9039 69.6635 31.8867C69.6456 31.8695 69.6312 31.849 69.6213 31.8263C69.6113 31.8036 69.606 31.7792 69.6055 31.7544C69.605 31.7296 69.6094 31.705 69.6185 31.6819C69.6276 31.6588 69.6411 31.6377 69.6583 31.6199C69.6755 31.602 69.6961 31.5877 69.7188 31.5778C69.7416 31.5679 69.7661 31.5625 69.7909 31.562C69.8157 31.5616 69.8404 31.566 69.8635 31.575H69.8587L69.858 31.5747Z" fill="#000072"/>
<g opacity="0.25">
<path d="M68.5663 96.5606C69.3776 97.1867 70.2343 97.7519 71.1293 98.2516C72.9233 99.1468 74.85 99.7476 76.8354 100.031L77.0109 100.04C79.6056 99.616 82.1125 98.7676 84.4306 97.5291L84.4951 97.4792C89.556 93.6039 94.0001 88.9863 97.6764 83.7834C100.357 78.9601 102.454 73.8359 103.923 68.5186C104.844 67.8143 105.588 66.9044 106.095 65.8617C106.503 64.6356 106.477 63.307 106.022 62.0975C105.706 61.4042 105.298 60.756 104.81 60.17C104.711 60.0667 104.608 59.9635 104.5 59.8664C104.5 59.8406 104.492 59.8144 104.489 59.7852C104.417 59.7036 104.346 59.622 104.27 59.5401C104.281 59.1516 104.278 58.7661 104.262 58.3836C103.466 53.8818 101.258 49.7485 97.9571 46.5795C98.1544 46.7222 98.348 46.8671 98.5382 47.0142C95.2649 44.586 91.4919 42.9141 87.4919 42.1196C93.7936 43.6155 98.6599 49.6312 99.0286 59.4792C98.8194 63.0536 93.3433 64.0295 82.6004 62.407C87.5788 63.5298 91.4298 64.4519 94.1533 65.1733C92.0919 64.7812 90.0066 64.5268 87.9113 64.412C94.8922 66.2966 98.0945 68.7069 97.5181 71.643C91.3768 95.0605 74.2824 104.355 59.0488 84.1937C61.7794 89.3829 65.2253 93.9002 68.9705 96.882C68.8316 96.7767 68.6969 96.6695 68.5663 96.5606Z" fill="#000072"/>
</g>
<path fill-rule="evenodd" clip-rule="evenodd" d="M93.8213 90.1996C97.2659 86.4805 100.121 82.2577 102.287 77.6775C110.369 83.486 109.986 87.9413 101.138 91.0433C98.3084 97.4195 95.8695 97.1383 93.8213 90.1996Z" fill="#F38328"/>
<g opacity="0.5">
<path fill-rule="evenodd" clip-rule="evenodd" d="M96.1109 88.1183C95.914 87.9724 96.8393 85.5764 98.827 84.6106C99.442 84.34 100.083 84.1338 100.741 83.9955C101.424 83.8364 102.12 83.7354 102.821 83.6936C101.606 84.0405 100.449 84.5644 99.3878 85.2484C97.1889 86.6696 96.2802 88.2433 96.1109 88.1183Z" fill="white"/>
</g>
<g opacity="0.5">
<path fill-rule="evenodd" clip-rule="evenodd" d="M102.649 77.9429C104.069 79.0355 105.391 80.2502 106.598 81.5729C107.248 82.1924 107.71 82.9825 107.93 83.8522C108.069 84.5552 108.028 85.2821 107.81 85.9649L107.37 84.649C106.934 83.7548 106.398 82.9126 105.773 82.1384C104.73 80.8526 103.457 79.7714 102.019 78.9497C101.997 78.7358 102.047 78.5207 102.161 78.3382C102.275 78.1558 102.447 78.0164 102.649 77.9419L102.649 77.9429Z" fill="white"/>
</g>
<path d="M97.3511 96.1012H97.2249C95.723 96.0031 94.496 94.1719 93.3625 90.3379C93.3387 90.2577 93.3364 90.1727 93.3559 90.0914C93.3754 90.0101 93.4159 89.9353 93.4735 89.8746C96.8815 86.1893 99.7084 82.0082 101.857 77.4746C101.884 77.4181 101.923 77.3676 101.97 77.3259C102.017 77.2842 102.072 77.2521 102.131 77.2315C102.19 77.2109 102.253 77.2022 102.316 77.2059C102.379 77.2096 102.44 77.2256 102.497 77.253C102.522 77.2649 102.546 77.279 102.568 77.2953C106.928 80.4276 108.873 83.1605 108.514 85.6488C108.179 87.9687 105.882 89.8615 101.493 91.4314C100.056 94.6077 98.7313 96.1012 97.3511 96.1012ZM94.3612 90.3248C95.6092 94.4246 96.7266 95.1061 97.2873 95.1436C97.8356 95.1822 99.0037 94.669 100.701 90.8497C100.728 90.7899 100.766 90.7362 100.814 90.6918C100.862 90.6475 100.919 90.6134 100.981 90.5919C105.067 89.1576 107.286 87.4469 107.565 85.5073C107.853 83.5161 106.138 81.1263 102.466 78.4012C100.351 82.7442 97.621 86.7603 94.3588 90.3258L94.3612 90.3248Z" fill="#000072"/>
<path d="M96.3382 86.5963C96.6859 86.09 97.0752 85.6135 97.5021 85.1717C97.9334 84.7173 98.4238 84.3228 98.9602 83.9986C99.5073 83.6635 100.116 83.4412 100.751 83.3446C101.382 83.2587 102.025 83.3324 102.62 83.5591C102.664 83.5758 102.7 83.6078 102.722 83.6493C102.743 83.6907 102.749 83.7386 102.737 83.784C102.726 83.8293 102.698 83.8689 102.66 83.8952C102.621 83.9216 102.574 83.9329 102.528 83.927C101.974 83.8527 101.411 83.8726 100.864 83.9859C100.326 84.1024 99.8146 84.3188 99.3567 84.6237C98.8905 84.9385 98.4623 85.3062 98.0808 85.7193C97.6928 86.1412 97.3301 86.5855 96.9944 87.05V87.0538C96.933 87.1405 96.8396 87.1993 96.7347 87.2173C96.6299 87.2353 96.5221 87.2109 96.4353 87.1496C96.3484 87.0883 96.2894 86.9951 96.2714 86.8904C96.2534 86.7857 96.2778 86.6782 96.3392 86.5915L96.3382 86.5963Z" fill="#000072"/>
<g opacity="0.25">
<path fill-rule="evenodd" clip-rule="evenodd" d="M101.138 91.042C101.873 90.2262 102.547 90.4018 103.939 89.7915C105.458 89.2025 106.709 88.0778 107.453 86.6303C107.718 85.9908 107.84 85.3013 107.81 84.6099C107.262 85.7193 106.427 86.6631 105.392 87.3442C104.022 88.2209 102.392 88.6027 100.774 88.426C100.275 88.3957 99.776 88.49 99.3224 88.7003C98.8688 88.9106 98.4748 89.2304 98.176 89.6308C98.1124 89.7947 98.0387 89.9546 97.9553 90.1095C97.2207 91.4595 96.0566 91.4831 94.4629 90.1804C94.645 93.3196 95.8875 95.5156 97.1159 95.6013C98.454 95.6935 99.9634 93.2951 100.273 92.8019C100.768 92.0144 100.625 91.611 101.138 91.042Z" fill="#000072"/>
</g>
<g opacity="0.25">
<path fill-rule="evenodd" clip-rule="evenodd" d="M82.7609 100.403C86.1126 98.0133 89.2992 95.4011 92.2991 92.584C87.8759 100.252 88.443 104.401 94.0003 105.031C85.4788 106.853 81.7323 105.31 82.7609 100.403Z" fill="#000072"/>
</g>
<g opacity="0.25">
<path fill-rule="evenodd" clip-rule="evenodd" d="M69.7821 105.457C66.0806 105.806 63.7616 105.545 62.8252 104.673C69.0596 103.784 70.1589 100.698 66.1231 95.4141C69.5986 98.3813 72.2882 99.8809 74.1918 99.9128C75.2777 104.395 73.8083 106.244 69.7838 105.46" fill="#000072"/>
</g>
<path d="M88.7666 51.2632C89.9359 50.8877 91.1483 50.6622 92.3746 50.592C92.9867 50.5463 93.6006 50.5349 94.2158 50.5494C94.5224 50.5617 94.8303 50.5666 95.1369 50.5862L96.0563 50.6678L96.286 50.6891L96.5143 50.7208L96.9719 50.7862C97.2768 50.8316 97.5816 50.8726 97.8824 50.9393L98.788 51.1245C99.088 51.1934 99.3839 51.2811 99.6815 51.3586C100.279 51.5055 100.858 51.72 101.44 51.92C101.734 52.0146 102.012 52.1468 102.298 52.2618C102.583 52.3767 102.864 52.5027 103.146 52.6246C103.26 52.6741 103.35 52.7661 103.398 52.881C103.445 52.9959 103.446 53.1247 103.4 53.2402C103.353 53.3556 103.264 53.4485 103.15 53.4993C103.037 53.5501 102.908 53.5548 102.791 53.5123L102.762 53.5016C102.483 53.3983 102.205 53.2985 101.929 53.1918C101.652 53.0851 101.379 52.9698 101.094 52.8882C100.529 52.7137 99.9743 52.5058 99.3997 52.3636C98.2614 52.0398 97.1037 51.7878 95.9335 51.6092C94.7594 51.4328 93.5756 51.3284 92.3887 51.2966C91.1939 51.2543 89.9976 51.2976 88.8091 51.4264H88.8025C88.7829 51.4266 88.7639 51.4201 88.7485 51.408C88.7332 51.3959 88.7224 51.3789 88.718 51.3599C88.7136 51.3409 88.7159 51.3209 88.7244 51.3033C88.7329 51.2857 88.7472 51.2716 88.7649 51.2632H88.7666Z" fill="#000072"/>
<path d="M89.6376 73.8339C89.6814 71.8452 88.672 70.2101 87.3831 70.1818C86.0942 70.1535 85.0138 71.7427 84.97 73.7314C84.9262 75.7201 85.9355 77.3552 87.2244 77.3835C88.5133 77.4118 89.5938 75.8226 89.6376 73.8339Z" fill="#000072"/>
<path d="M87.2431 71.0276C87.6403 71.2117 87.7752 71.8881 87.5448 72.5383C87.3144 73.1885 86.8092 73.5654 86.4095 73.3809C86.0098 73.1964 85.8764 72.5204 86.1071 71.8709C86.3378 71.2214 86.8472 70.8427 87.2431 71.0276Z" fill="white"/>
<path d="M88.362 75.3004C88.4528 75.42 88.5019 75.566 88.5019 75.716C88.5019 75.8661 88.4528 76.012 88.362 76.1317C88.1799 76.4377 87.8823 76.5605 87.6985 76.407C87.6077 76.2874 87.5586 76.1415 87.5586 75.9914C87.5586 75.8413 87.6077 75.6954 87.6985 75.5758C87.8847 75.2701 88.1782 75.1469 88.362 75.3004Z" fill="#B199C5"/>
<path d="M70.783 77.3848C72.072 77.3563 73.081 75.721 73.0367 73.7323C72.9925 71.7436 71.9118 70.1546 70.6229 70.1831C69.3339 70.2115 68.3249 71.8468 68.3692 73.8355C68.4134 75.8242 69.4941 77.4132 70.783 77.3848Z" fill="#000072"/>
<path d="M70.7639 71.0276C70.367 71.2117 70.2318 71.8881 70.4615 72.5383C70.6912 73.1885 71.1971 73.5654 71.5995 73.3809C72.002 73.1964 72.1317 72.5204 71.902 71.8709C71.6723 71.2214 71.1612 70.8427 70.7639 71.0276Z" fill="white"/>
<path d="M69.6477 75.3007C69.5569 75.4203 69.5078 75.5662 69.5078 75.7163C69.5078 75.8663 69.5569 76.0123 69.6477 76.1319C69.8298 76.4379 70.1274 76.5608 70.3112 76.4073C70.402 76.2877 70.4511 76.1417 70.4511 75.9916C70.4511 75.8416 70.402 75.6956 70.3112 75.576C70.1291 75.2704 69.8339 75.1471 69.6477 75.3007Z" fill="#B199C5"/>
<path d="M46.9407 121.741V114.508L43.8094 120.482C43.7106 120.671 43.5617 120.829 43.379 120.94C43.1963 121.051 42.9867 121.109 42.7731 121.109C42.5594 121.109 42.3498 121.051 42.1671 120.94C41.9844 120.829 41.8356 120.671 41.7368 120.482L38.6072 114.508V121.741C38.6072 122.174 38.4349 122.589 38.1284 122.895C37.8218 123.201 37.406 123.373 36.9725 123.373H36V109.983H37.8047C38.1035 109.984 38.3965 110.066 38.6518 110.221C38.9072 110.376 39.1151 110.598 39.2531 110.862L42.7676 117.602L46.3141 110.856C46.4528 110.592 46.6611 110.371 46.9164 110.218C47.1717 110.064 47.4643 109.982 47.7625 109.983H49.5524V123.372H48.5788C48.1453 123.373 47.7291 123.202 47.4218 122.897C47.1145 122.592 46.9412 122.177 46.94 121.745L46.9407 121.741Z" fill="#F38328"/>
<path d="M58.1136 113.314V114.191C58.1173 114.549 58.0003 114.899 57.7815 115.183C57.5627 115.467 57.2546 115.67 56.9066 115.759C56.6129 115.83 56.327 115.929 56.0534 116.057C55.479 116.311 55.0158 116.763 54.7495 117.331V121.678C54.7495 122.111 54.5773 122.526 54.2707 122.832C53.9642 123.138 53.5484 123.31 53.1149 123.31H52.2158V113.428H52.9055C53.3391 113.428 53.7549 113.599 54.0614 113.905C54.368 114.211 54.5402 114.626 54.5402 115.059V115.541C54.71 115.212 54.9196 114.905 55.1644 114.626C55.396 114.363 55.6556 114.127 55.9386 113.92C56.1971 113.729 56.4799 113.574 56.7794 113.458C57.0419 113.354 57.3212 113.299 57.6036 113.296H57.914C57.981 113.295 58.0478 113.302 58.1136 113.314Z" fill="#F38328"/>
<path d="M58.3164 122.11C58.3163 121.86 58.3905 121.615 58.5297 121.407C58.6688 121.2 58.8665 121.037 59.0979 120.942C59.3293 120.846 59.5839 120.821 59.8296 120.87C60.0752 120.918 60.3009 121.039 60.478 121.216C60.6552 121.392 60.7758 121.617 60.8247 121.863C60.8736 122.108 60.8485 122.362 60.7527 122.593C60.6569 122.824 60.4946 123.021 60.2863 123.16C60.0781 123.299 59.8332 123.373 59.5827 123.373C59.4165 123.373 59.2518 123.341 59.0982 123.277C58.9445 123.214 58.8049 123.121 58.6873 123.003C58.5697 122.886 58.4764 122.747 58.4128 122.593C58.3492 122.44 58.3164 122.276 58.3164 122.11Z" fill="#F38328"/>
<path d="M62.2363 116.584C62.2384 115.756 62.3884 114.935 62.6795 114.16C62.9701 113.37 63.4092 112.644 63.973 112.019C64.5574 111.377 65.264 110.858 66.0515 110.492C66.9279 110.09 67.8841 109.89 68.8487 109.907C69.9705 109.878 71.0785 110.159 72.0507 110.718C72.9105 111.215 73.6091 111.948 74.063 112.83L73.115 113.484C72.8536 113.655 72.5394 113.727 72.2294 113.687C71.9194 113.647 71.6341 113.497 71.4252 113.265L71.4162 113.256C71.1798 113.01 70.906 112.803 70.6051 112.642C70.3186 112.494 70.0137 112.384 69.6984 112.316C69.3944 112.248 69.084 112.213 68.7725 112.213C68.1785 112.198 67.5905 112.334 67.0634 112.608C66.5915 112.86 66.1791 113.211 65.8539 113.635C65.5281 114.066 65.2817 114.552 65.1263 115.069C64.9658 115.585 64.8833 116.122 64.8814 116.663C64.8794 117.243 64.9752 117.82 65.1649 118.369C65.3424 118.895 65.6147 119.384 65.9684 119.813C66.3126 120.226 66.7367 120.565 67.2154 120.811C67.7089 121.065 68.2572 121.195 68.8125 121.189C69.131 121.188 69.4483 121.149 69.7581 121.076C70.085 121.001 70.3998 120.881 70.6934 120.718C70.9859 120.527 71.2626 120.313 71.521 120.078C71.7297 119.846 72.0108 119.691 72.3189 119.637C72.627 119.584 72.9441 119.636 73.2188 119.785L74.2534 120.378C74.0408 120.879 73.7292 121.331 73.3374 121.709C72.9379 122.094 72.4861 122.421 71.9952 122.68C71.49 122.946 70.9535 123.148 70.3982 123.282C69.8542 123.417 69.2961 123.487 68.7356 123.489C67.8243 123.5 66.9236 123.293 66.1088 122.885C65.3311 122.496 64.6353 121.961 64.0589 121.311C63.4836 120.661 63.0291 119.914 62.7171 119.104C62.4004 118.301 62.2374 117.446 62.2363 116.584Z" fill="#F38328"/>
<path d="M84.7865 117.331V123.355H84.243C83.8141 123.355 83.4024 123.187 83.0966 122.886C82.7909 122.586 82.6155 122.178 82.6084 121.75C82.1897 122.301 81.646 122.746 81.022 123.046C80.3913 123.348 79.7002 123.503 79.0008 123.499C78.5427 123.502 78.0879 123.423 77.6586 123.263C77.2599 123.116 76.8942 122.892 76.5822 122.603C76.2825 122.324 76.0416 121.987 75.8736 121.613C75.7005 121.221 75.6135 120.797 75.6184 120.369C75.6139 119.919 75.7205 119.475 75.9287 119.077C76.1382 118.679 76.4356 118.334 76.7985 118.069C77.2011 117.775 77.6519 117.554 78.1307 117.415C78.6829 117.253 79.256 117.173 79.8315 117.179C80.2655 117.178 80.6987 117.216 81.1261 117.291C81.5116 117.356 81.8885 117.464 82.25 117.612V117.048C82.2678 116.771 82.2274 116.494 82.1314 116.234C82.0354 115.974 81.886 115.737 81.6927 115.538C81.2305 115.156 80.6379 114.967 80.0391 115.011C79.5102 115.012 78.9857 115.108 78.4911 115.295C78.4314 115.317 78.3728 115.34 78.3131 115.363C77.9269 115.529 77.492 115.539 77.0979 115.394C76.7039 115.248 76.3808 114.958 76.1953 114.581L76.166 114.521C77.3815 113.697 78.8174 113.259 80.2864 113.261C81.4837 113.186 82.6659 113.56 83.6022 114.308C84.0092 114.695 84.3262 115.166 84.5308 115.688C84.7354 116.211 84.8227 116.772 84.7865 117.331ZM82.2528 118.972C81.9341 118.853 81.6061 118.761 81.272 118.696C80.9361 118.629 80.5945 118.594 80.2519 118.593C79.6832 118.569 79.1213 118.724 78.6459 119.036C78.4556 119.156 78.2987 119.321 78.1896 119.517C78.0806 119.714 78.0231 119.934 78.0224 120.159C78.0183 120.362 78.0603 120.563 78.1453 120.748C78.2302 120.933 78.3558 121.096 78.5128 121.226C78.8483 121.512 79.2785 121.664 79.7198 121.651C80.1367 121.653 80.5503 121.576 80.9385 121.425C81.2837 121.301 81.5927 121.094 81.8376 120.822C81.9585 120.743 82.0591 120.638 82.1311 120.513C82.203 120.388 82.2442 120.248 82.2514 120.105L82.2528 118.972Z" fill="#F38328"/>
<path d="M93.159 113.314V114.191C93.1626 114.549 93.0456 114.899 92.8268 115.183C92.608 115.467 92.3 115.67 91.9519 115.759C91.6582 115.83 91.3723 115.929 91.0988 116.057C90.5229 116.31 90.0583 116.762 89.7911 117.331V121.678C89.7916 122.111 89.6199 122.526 89.3138 122.832C89.0076 123.139 88.592 123.311 88.1585 123.312H87.2598V113.427H87.9495C88.383 113.427 88.7988 113.599 89.1054 113.905C89.4119 114.211 89.5841 114.626 89.5841 115.059V115.541C89.754 115.212 89.9636 114.905 90.2083 114.626C90.44 114.364 90.6996 114.127 90.9825 113.92C91.2412 113.729 91.524 113.574 91.8237 113.458C92.0853 113.354 92.3636 113.299 92.6451 113.295H92.9555C93.0238 113.294 93.092 113.301 93.159 113.314Z" fill="#F38328"/>
<path d="M100.754 113.314V114.191C100.758 114.549 100.642 114.898 100.423 115.183C100.205 115.467 99.897 115.67 99.5492 115.76C99.2554 115.83 98.9694 115.93 98.6957 116.057C98.1214 116.311 97.6584 116.763 97.3921 117.331V121.678C97.3921 122.111 97.2199 122.526 96.9133 122.832C96.6068 123.138 96.191 123.31 95.7575 123.31H94.8584V113.428H95.5481C95.9817 113.428 96.3974 113.6 96.704 113.906C97.0105 114.212 97.1828 114.627 97.1828 115.059V115.541C97.3526 115.212 97.5624 114.905 97.8073 114.627C98.0389 114.364 98.2985 114.127 98.5815 113.92C98.84 113.729 99.1227 113.574 99.4223 113.458C99.6839 113.355 99.9623 113.299 100.244 113.295H100.554C100.621 113.295 100.689 113.301 100.754 113.314Z" fill="#F38328"/>
<path d="M111.956 118.388C111.959 119.052 111.837 119.71 111.597 120.33C111.365 120.934 111.019 121.488 110.577 121.961C110.12 122.445 109.566 122.828 108.953 123.086C107.557 123.639 106.003 123.639 104.607 123.086C103.991 122.827 103.435 122.445 102.973 121.963C102.525 121.492 102.175 120.938 101.943 120.332C101.466 119.075 101.466 117.688 101.943 116.431C102.175 115.825 102.525 115.271 102.973 114.8C103.435 114.318 103.991 113.936 104.607 113.677C105.295 113.392 106.035 113.25 106.78 113.262C107.522 113.25 108.259 113.391 108.943 113.677C109.549 113.934 110.097 114.31 110.553 114.783C111.009 115.256 111.365 115.817 111.599 116.431C111.839 117.055 111.961 117.719 111.956 118.388ZM109.37 118.369C109.373 117.964 109.306 117.562 109.171 117.18C109.049 116.834 108.863 116.515 108.623 116.238C108.395 115.978 108.115 115.769 107.801 115.625C107.481 115.478 107.132 115.404 106.78 115.407C106.427 115.404 106.078 115.481 105.76 115.634C105.447 115.784 105.168 115.995 104.939 116.256C104.698 116.533 104.512 116.853 104.39 117.199C104.126 117.972 104.126 118.811 104.39 119.584C104.513 119.927 104.699 120.244 104.939 120.518C105.166 120.779 105.446 120.987 105.76 121.131C106.082 121.274 106.43 121.348 106.782 121.348C107.134 121.348 107.482 121.274 107.804 121.131C108.118 120.987 108.398 120.778 108.625 120.518C108.865 120.241 109.051 119.922 109.173 119.576C109.307 119.188 109.373 118.779 109.367 118.369H109.37Z" fill="#F38328"/>
<path d="M121 122.724C120.242 123.099 119.409 123.299 118.562 123.309C118.103 123.329 117.646 123.242 117.226 123.055C116.807 122.869 116.436 122.588 116.144 122.234C115.513 121.394 115.198 120.359 115.257 119.311V115.339H113.079V115.058C113.079 114.626 113.251 114.211 113.558 113.905C113.864 113.599 114.28 113.427 114.714 113.427H115.257V110.983C115.257 110.769 115.3 110.557 115.382 110.359C115.464 110.161 115.584 109.981 115.736 109.829C115.888 109.678 116.068 109.558 116.266 109.476C116.465 109.394 116.677 109.352 116.892 109.352H117.791V113.425H120.209V113.718C120.209 114.151 120.037 114.566 119.731 114.872C119.424 115.178 119.008 115.35 118.575 115.35H117.79V119.403C117.79 120.585 118.231 121.176 119.112 121.176C119.479 121.081 119.869 121.134 120.196 121.325C120.523 121.515 120.762 121.827 120.86 122.192L121 122.724Z" fill="#F38328"/>
<path d="M42.0948 127.585V133.109H41.7016C41.6132 133.109 41.5256 133.092 41.4438 133.058C41.3621 133.024 41.2877 132.975 41.2251 132.913C41.1625 132.85 41.1127 132.776 41.0788 132.695C41.0448 132.613 41.0272 132.526 41.0271 132.437V130.747H38.5141V132.433C38.5138 132.611 38.4431 132.781 38.3173 132.907C38.1916 133.033 38.0211 133.104 37.843 133.105H37.4385V127.58H37.8396C38.0181 127.58 38.1895 127.65 38.316 127.776C38.4425 127.902 38.5137 128.073 38.5141 128.251V129.814H41.024V128.253C41.0239 128.165 41.0412 128.077 41.075 127.996C41.1088 127.914 41.1583 127.84 41.2208 127.777C41.2833 127.715 41.3575 127.665 41.4391 127.632C41.5208 127.598 41.6084 127.58 41.6968 127.58L42.0948 127.585Z" fill="#65A141"/>
<path d="M47.3302 131.029V131.223C47.3291 131.274 47.3225 131.325 47.3105 131.375H44.5171C44.5169 131.196 44.5877 131.025 44.7139 130.899C44.8401 130.773 45.0113 130.702 45.1899 130.701H46.259C46.2451 130.422 46.1235 130.159 45.9197 129.967C45.7222 129.784 45.461 129.686 45.1917 129.692C45.0567 129.691 44.9229 129.716 44.7975 129.766C44.6763 129.814 44.5654 129.884 44.4706 129.973C44.3746 130.064 44.2965 130.172 44.2402 130.291C44.1437 130.532 44.1032 130.792 44.1216 131.05C44.1096 131.311 44.1595 131.57 44.2671 131.808C44.3857 132.049 44.5921 132.235 44.8441 132.329C44.9689 132.375 45.101 132.398 45.2341 132.398C45.44 132.398 45.6426 132.346 45.8224 132.246C45.992 132.161 46.1259 132.019 46.2 131.845L47.0991 132.095C46.9393 132.415 46.6886 132.682 46.3783 132.861C46.02 133.068 45.6111 133.172 45.1972 133.16C44.8928 133.165 44.5907 133.108 44.3088 132.993C44.0569 132.891 43.8284 132.738 43.6375 132.545C43.4465 132.352 43.297 132.122 43.198 131.869C43.0966 131.614 43.0449 131.342 43.0459 131.068C43.0441 130.787 43.0943 130.509 43.1939 130.246C43.2895 129.994 43.4352 129.765 43.6222 129.57C43.8158 129.371 44.048 129.213 44.3047 129.107C44.5896 128.989 44.8955 128.93 45.2037 128.935C45.51 128.93 45.8139 128.988 46.0962 129.107C46.348 129.214 46.5759 129.37 46.7667 129.566C46.9513 129.758 47.0945 129.986 47.1874 130.235C47.2833 130.489 47.3317 130.758 47.3302 131.029Z" fill="#65A141"/>
<path d="M51.7996 130.616V133.101H51.5764C51.3995 133.101 51.2297 133.032 51.1037 132.908C50.9777 132.784 50.9056 132.615 50.9029 132.439C50.7301 132.666 50.5055 132.85 50.2477 132.974C49.9877 133.099 49.7026 133.162 49.4142 133.161C49.2259 133.162 49.0389 133.129 48.8624 133.064C48.6981 133.003 48.5474 132.91 48.4189 132.791C48.2949 132.676 48.1953 132.537 48.1261 132.383C48.0546 132.222 48.0186 132.047 48.0206 131.87C48.0189 131.685 48.063 131.502 48.1489 131.338C48.2354 131.173 48.3582 131.031 48.5079 130.921C48.674 130.801 48.8599 130.71 49.0572 130.653C49.2848 130.586 49.5211 130.553 49.7583 130.556C49.9373 130.556 50.1159 130.571 50.2922 130.602C50.4509 130.629 50.6062 130.674 50.7553 130.735V130.501C50.763 130.387 50.7465 130.273 50.707 130.166C50.6674 130.058 50.6056 129.961 50.5257 129.879C50.335 129.721 50.0903 129.643 49.8432 129.661C49.6249 129.661 49.4083 129.701 49.2041 129.778L49.1307 129.806C48.9709 129.874 48.791 129.878 48.6283 129.818C48.4656 129.757 48.3326 129.636 48.2568 129.48L48.2447 129.455C48.7457 129.115 49.3378 128.933 49.9439 128.934C50.4378 128.903 50.9254 129.057 51.3119 129.366C51.48 129.526 51.6109 129.721 51.6951 129.937C51.7794 130.153 51.815 130.385 51.7996 130.616ZM50.755 131.292C50.6221 131.244 50.4854 131.206 50.3463 131.179C50.2078 131.151 50.0669 131.137 49.9256 131.137C49.6909 131.127 49.459 131.191 49.2628 131.32C49.1843 131.369 49.1195 131.437 49.0745 131.518C49.0294 131.599 49.0056 131.69 49.0052 131.783C49.0036 131.867 49.021 131.95 49.0562 132.026C49.0913 132.102 49.1432 132.169 49.2079 132.223C49.3463 132.341 49.5239 132.404 49.7063 132.399C49.8782 132.4 50.0489 132.369 50.2091 132.307C50.3513 132.255 50.4786 132.17 50.5795 132.058C50.6296 132.026 50.6714 131.982 50.7014 131.931C50.7313 131.879 50.7487 131.822 50.7519 131.762L50.755 131.292Z" fill="#65A141"/>
<path d="M55.1469 132.707C55.0087 132.829 54.8472 132.923 54.672 132.982C54.4909 133.042 54.3011 133.072 54.1102 133.071C53.9191 133.072 53.7296 133.035 53.5529 132.962C53.3826 132.892 53.2287 132.787 53.1008 132.655C52.9707 132.518 52.8688 132.357 52.8008 132.181C52.7266 131.989 52.6895 131.784 52.6915 131.578V127.471H53.0625C53.2412 127.471 53.4125 127.542 53.5388 127.668C53.6651 127.794 53.7361 127.965 53.7361 128.143V131.657C53.734 131.724 53.7454 131.791 53.7696 131.853C53.7937 131.915 53.8301 131.972 53.8766 132.019C53.9231 132.067 53.9788 132.105 54.0403 132.131C54.1018 132.157 54.1679 132.171 54.2347 132.171C54.3653 132.122 54.5085 132.12 54.6403 132.165C54.7722 132.209 54.8847 132.298 54.9589 132.415L55.1469 132.707Z" fill="#65A141"/>
<path d="M58.0918 132.841C57.7794 132.997 57.4358 133.08 57.0866 133.086C56.8971 133.094 56.7084 133.058 56.5352 132.981C56.3621 132.904 56.2092 132.788 56.0885 132.642C55.828 132.296 55.6983 131.869 55.7223 131.437V129.796H54.8232V129.68C54.8232 129.502 54.8943 129.33 55.0207 129.204C55.1471 129.078 55.3186 129.007 55.4974 129.007H55.7216V128C55.7215 127.911 55.7388 127.824 55.7725 127.742C55.8062 127.661 55.8557 127.587 55.9182 127.524C55.9806 127.462 56.0548 127.412 56.1364 127.378C56.2181 127.344 56.3057 127.327 56.3941 127.327H56.7662V129.007H57.7663V129.128C57.7663 129.216 57.7488 129.304 57.7149 129.385C57.681 129.467 57.6313 129.541 57.5687 129.604C57.5061 129.666 57.4317 129.716 57.3499 129.75C57.268 129.783 57.1803 129.801 57.0917 129.801H56.7648V131.473C56.7648 131.963 56.9466 132.207 57.31 132.207C57.4614 132.168 57.6223 132.19 57.7575 132.269C57.8927 132.347 57.9914 132.476 58.0318 132.627L58.0918 132.841Z" fill="#65A141"/>
<path d="M62.6175 130.541V132.412C62.6175 132.59 62.5466 132.761 62.4203 132.887C62.2939 133.013 62.1226 133.084 61.944 133.084H61.5729V130.8C61.5923 130.549 61.5295 130.299 61.394 130.088C61.3341 130.012 61.2569 129.951 61.1687 129.911C61.0805 129.871 60.9841 129.853 60.8874 129.858C60.7856 129.86 60.6852 129.881 60.5915 129.92C60.4846 129.964 60.3849 130.023 60.2956 130.096C60.1989 130.175 60.1124 130.265 60.038 130.364C59.9599 130.468 59.9014 130.584 59.8655 130.709V132.417C59.8655 132.505 59.8481 132.593 59.8142 132.674C59.7803 132.756 59.7307 132.83 59.6681 132.893C59.6055 132.955 59.5311 133.005 59.4493 133.039C59.3675 133.072 59.2799 133.09 59.1913 133.09H58.8213V127.408H59.1913C59.2798 127.408 59.3674 127.426 59.4491 127.459C59.5309 127.493 59.6052 127.542 59.6678 127.605C59.7304 127.667 59.7801 127.741 59.814 127.823C59.8479 127.904 59.8654 127.992 59.8655 128.08V129.712C59.9904 129.455 60.1894 129.241 60.437 129.097C60.6846 128.954 60.9696 128.887 61.2553 128.906C62.5858 128.897 62.6175 130.337 62.6175 130.541Z" fill="#65A141"/>
<path d="M67.3091 129.005L65.8314 133.346C65.7406 133.791 65.5694 134.216 65.3262 134.601C65.2313 134.737 65.1016 134.846 64.9505 134.915C64.7994 134.984 64.6325 135.012 64.4671 134.995C64.1179 134.99 63.7743 134.906 63.4619 134.75L63.5208 134.532C63.5612 134.381 63.6597 134.252 63.7947 134.174C63.9297 134.095 64.0903 134.073 64.2416 134.112C64.6051 134.112 64.7868 133.868 64.7868 133.378L64.7754 133.076L63.1611 128.998H63.7577C63.8977 128.998 64.0343 129.041 64.1484 129.122C64.2624 129.203 64.3484 129.317 64.3944 129.45L65.3441 132.172L66.1794 129.472C66.222 129.335 66.3075 129.215 66.4234 129.13C66.5393 129.044 66.6796 128.998 66.8236 128.998L67.3091 129.005Z" fill="#65A141"/>
<path d="M73.5445 127.567L73.4855 127.785C73.445 127.936 73.3465 128.065 73.2116 128.143C73.0766 128.222 72.916 128.244 72.7648 128.205C72.4006 128.205 72.2185 128.449 72.2185 128.939V129.227H73.2166V129.347C73.2166 129.436 73.1992 129.523 73.1653 129.605C73.1315 129.687 73.0818 129.761 73.0192 129.824C72.9566 129.886 72.8823 129.936 72.8004 129.969C72.7186 130.003 72.6309 130.021 72.5423 130.021H72.2154V132.413C72.2153 132.592 72.1443 132.762 72.0181 132.889C71.8918 133.015 71.7205 133.085 71.5419 133.086H71.1708V130.015H70.3535V129.899C70.3533 129.721 70.4241 129.55 70.5502 129.423C70.6763 129.297 70.8474 129.226 71.026 129.226H71.1715V128.977C71.1476 128.545 71.2773 128.118 71.5378 127.772C71.6584 127.627 71.8112 127.511 71.9842 127.434C72.1573 127.357 72.3458 127.321 72.5351 127.329C72.8852 127.331 73.2303 127.412 73.5445 127.567Z" fill="#65A141"/>
<path d="M77.7748 131.051C77.7758 131.325 77.7256 131.597 77.6269 131.853C77.5311 132.102 77.3882 132.33 77.2058 132.526C77.0172 132.725 76.789 132.883 76.5358 132.989C75.9599 133.217 75.3184 133.217 74.7425 132.989C74.4882 132.882 74.2587 132.725 74.0683 132.526C73.8835 132.332 73.739 132.103 73.6431 131.853C73.4458 131.334 73.4458 130.761 73.6431 130.243C73.739 129.993 73.8835 129.764 74.0683 129.57C74.2586 129.371 74.4882 129.213 74.7425 129.107C75.0271 128.988 75.3332 128.93 75.6415 128.935C75.9477 128.93 76.2516 128.989 76.534 129.107C76.7866 129.214 77.0145 129.372 77.2041 129.57C77.3887 129.764 77.5332 129.993 77.6293 130.243C77.7281 130.501 77.7774 130.775 77.7748 131.051ZM76.7058 131.044C76.7076 130.877 76.6799 130.711 76.624 130.554C76.5744 130.411 76.4978 130.279 76.3985 130.165C76.3046 130.058 76.1891 129.971 76.0595 129.912C75.9274 129.852 75.7837 129.821 75.6384 129.822C75.4929 129.821 75.3489 129.853 75.2177 129.916C75.0883 129.978 74.9729 130.065 74.8784 130.173C74.7794 130.287 74.7029 130.419 74.6528 130.562C74.5435 130.881 74.5435 131.227 74.6528 131.546C74.7032 131.688 74.7797 131.818 74.8784 131.932C74.9722 132.039 75.0879 132.125 75.2177 132.185C75.3501 132.244 75.4936 132.274 75.6386 132.274C75.7837 132.274 75.9271 132.244 76.0595 132.185C76.1891 132.125 76.3047 132.039 76.3985 131.932C76.4975 131.818 76.574 131.686 76.624 131.543C76.6809 131.383 76.709 131.214 76.7072 131.044H76.7058Z" fill="#65A141"/>
<path d="M81.0752 128.959V129.321C81.0769 129.469 81.0288 129.613 80.9387 129.731C80.8486 129.848 80.7217 129.932 80.5782 129.969C80.457 129.998 80.339 130.04 80.2261 130.093C79.9891 130.198 79.7981 130.384 79.6881 130.618V132.413C79.6881 132.592 79.6171 132.763 79.4907 132.889C79.3642 133.015 79.1927 133.086 79.0139 133.086H78.6436V129.007H78.9281C79.0165 129.007 79.1041 129.024 79.1859 129.058C79.2676 129.092 79.3419 129.141 79.4045 129.204C79.4671 129.266 79.5168 129.34 79.5507 129.422C79.5847 129.503 79.6022 129.59 79.6023 129.679V129.878C79.6724 129.743 79.759 129.616 79.8599 129.502C79.9555 129.393 80.0627 129.296 80.1796 129.21C80.2863 129.132 80.4031 129.068 80.5268 129.02C80.6348 128.978 80.7497 128.955 80.8658 128.953H80.9941C81.0213 128.953 81.0484 128.955 81.0752 128.959Z" fill="#65A141"/>
<path d="M88.2495 129.005L86.7718 133.346C86.6808 133.791 86.5096 134.216 86.2665 134.601C86.1716 134.737 86.0419 134.846 85.8909 134.915C85.7398 134.984 85.5729 135.012 85.4075 134.995C85.0582 134.99 84.7146 134.906 84.4022 134.75L84.4612 134.532C84.5016 134.381 84.6 134.252 84.7351 134.174C84.8701 134.095 85.0307 134.073 85.182 134.112C85.5454 134.112 85.7272 133.868 85.7272 133.378L85.7165 133.076L84.1025 128.998H84.6992C84.8391 128.998 84.9756 129.041 85.0896 129.122C85.2037 129.203 85.2897 129.318 85.3358 129.45L86.2848 132.172L87.1208 129.472C87.1633 129.335 87.2489 129.215 87.3648 129.13C87.4807 129.044 87.621 128.998 87.765 128.998L88.2495 129.005Z" fill="#65A141"/>
<path d="M92.9191 131.051C92.9202 131.325 92.8701 131.597 92.7712 131.853C92.6753 132.102 92.5321 132.331 92.3494 132.526C92.1609 132.725 91.9326 132.883 91.6793 132.989C91.1035 133.217 90.462 133.217 89.8861 132.989C89.6319 132.882 89.4024 132.725 89.2119 132.526C89.0271 132.332 88.8826 132.103 88.7866 131.853C88.6878 131.597 88.6376 131.325 88.6387 131.051C88.6372 130.775 88.6874 130.501 88.7866 130.243C88.8826 129.993 89.0271 129.764 89.2119 129.57C89.4022 129.371 89.6317 129.213 89.8861 129.107C90.1707 128.988 90.4768 128.93 90.7851 128.935C91.0913 128.93 91.3952 128.988 91.6776 129.107C91.9305 129.214 92.1588 129.372 92.3487 129.57C92.5331 129.764 92.6775 129.993 92.7736 130.243C92.8723 130.501 92.9217 130.775 92.9191 131.051ZM91.8518 131.044C91.8532 130.877 91.8256 130.711 91.77 130.554C91.7201 130.411 91.6436 130.279 91.5445 130.165C91.4504 130.058 91.3348 129.971 91.2052 129.912C91.0732 129.852 90.9295 129.821 90.7844 129.822C90.6388 129.821 90.4947 129.853 90.3634 129.916C90.2341 129.978 90.1188 130.065 90.0244 130.173C89.9252 130.287 89.8485 130.419 89.7985 130.562C89.6895 130.881 89.6895 131.227 89.7985 131.546C89.849 131.688 89.9256 131.818 90.0244 131.932C90.1182 132.039 90.2337 132.125 90.3634 132.185C90.496 132.244 90.6396 132.274 90.7848 132.274C90.93 132.274 91.0736 132.244 91.2062 132.185C91.3358 132.125 91.4514 132.039 91.5452 131.932C91.6442 131.818 91.7207 131.686 91.7707 131.543C91.8267 131.383 91.8541 131.214 91.8518 131.044Z" fill="#65A141"/>
<path d="M97.5266 128.898V133.044H97.1562C97.0678 133.044 96.9802 133.027 96.8984 132.993C96.8167 132.96 96.7424 132.91 96.6798 132.848C96.6171 132.786 96.5675 132.711 96.5335 132.63C96.4996 132.548 96.4821 132.461 96.482 132.373V132.276C96.3573 132.533 96.1584 132.747 95.9108 132.891C95.6632 133.034 95.3783 133.101 95.0926 133.082C93.7645 133.082 93.7324 131.643 93.7324 131.44V128.898H94.1035C94.2821 128.898 94.4534 128.968 94.5797 129.095C94.706 129.221 94.777 129.392 94.777 129.57V131.185C94.7577 131.436 94.8205 131.686 94.956 131.897C95.0159 131.973 95.0932 132.034 95.1814 132.074C95.2696 132.114 95.3662 132.132 95.4629 132.127C95.5646 132.126 95.665 132.104 95.7585 132.064C95.8653 132.021 95.965 131.962 96.0544 131.889C96.1511 131.811 96.2376 131.72 96.312 131.621C96.3898 131.518 96.4483 131.402 96.4844 131.278V129.57C96.4843 129.482 96.5016 129.394 96.5353 129.313C96.569 129.231 96.6185 129.157 96.681 129.094C96.7434 129.032 96.8176 128.982 96.8993 128.948C96.9809 128.915 97.0685 128.897 97.1569 128.897L97.5266 128.898Z" fill="#65A141"/>
<path d="M101.029 128.96V129.322C101.03 129.47 100.982 129.614 100.892 129.731C100.802 129.849 100.674 129.932 100.531 129.969C100.41 129.998 100.292 130.039 100.179 130.092C99.9417 130.197 99.7506 130.383 99.6407 130.617V132.412C99.6409 132.5 99.6236 132.588 99.5899 132.669C99.5561 132.751 99.5066 132.825 99.4442 132.888C99.3817 132.95 99.3076 133 99.2259 133.034C99.1442 133.067 99.0567 133.085 98.9683 133.085H98.5938V129.006H98.8783C98.9667 129.006 99.0543 129.023 99.1361 129.057C99.2178 129.091 99.2921 129.14 99.3547 129.203C99.4173 129.265 99.467 129.339 99.5009 129.42C99.5349 129.502 99.5524 129.589 99.5525 129.678V129.877C99.6225 129.742 99.709 129.615 99.8101 129.501C99.9056 129.392 100.013 129.294 100.13 129.209C100.236 129.131 100.352 129.067 100.475 129.019C100.583 128.977 100.698 128.954 100.814 128.952H100.942C100.971 128.952 101 128.954 101.029 128.96Z" fill="#65A141"/>
<path d="M108.267 133.082H107.512C107.401 133.082 107.292 133.055 107.194 133.003C107.097 132.951 107.013 132.876 106.952 132.784L105.971 131.316L105.409 131.866V132.407C105.409 132.586 105.338 132.757 105.212 132.883C105.086 133.009 104.914 133.08 104.735 133.08H104.366V127.401H104.737C104.915 127.401 105.086 127.471 105.213 127.597C105.339 127.723 105.411 127.894 105.411 128.072V130.847L106.847 129.236C106.91 129.165 106.988 129.109 107.074 129.07C107.161 129.031 107.255 129.011 107.35 129.011H108.163L106.642 130.74L108.267 133.082Z" fill="#65A141"/>
<path d="M108.988 128.144C108.988 128.04 109.019 127.94 109.076 127.854C109.134 127.768 109.215 127.701 109.311 127.662C109.406 127.622 109.511 127.612 109.612 127.632C109.714 127.652 109.807 127.702 109.88 127.774C109.953 127.847 110.003 127.94 110.023 128.041C110.043 128.143 110.033 128.247 109.993 128.343C109.954 128.438 109.887 128.52 109.801 128.577C109.715 128.634 109.614 128.665 109.511 128.665C109.442 128.665 109.374 128.651 109.311 128.625C109.247 128.599 109.19 128.561 109.141 128.512C109.093 128.464 109.054 128.406 109.028 128.343C109.002 128.28 108.988 128.212 108.988 128.144ZM108.988 129.004H110.033V132.408C110.033 132.497 110.016 132.584 109.982 132.666C109.948 132.747 109.899 132.821 109.836 132.884C109.774 132.946 109.7 132.996 109.618 133.03C109.536 133.064 109.449 133.081 109.36 133.081H108.988V129.004Z" fill="#65A141"/>
<path d="M115.189 127.403V133.101H114.813C114.661 133.101 114.513 133.049 114.394 132.954C114.275 132.859 114.192 132.727 114.158 132.579C114.03 132.738 113.87 132.869 113.688 132.962C113.439 133.093 113.163 133.161 112.882 133.161C112.613 133.163 112.347 133.108 112.102 132.998C111.867 132.892 111.658 132.738 111.487 132.546C111.312 132.349 111.176 132.121 111.085 131.873C110.988 131.608 110.939 131.328 110.941 131.045C110.939 130.764 110.986 130.484 111.079 130.219C111.164 129.975 111.292 129.748 111.457 129.549C111.615 129.36 111.812 129.206 112.034 129.098C112.264 128.988 112.515 128.932 112.77 128.935C113.057 128.93 113.341 129.006 113.587 129.153C113.822 129.292 114.016 129.488 114.152 129.724V128.078C114.152 127.9 114.223 127.729 114.349 127.602C114.475 127.476 114.647 127.406 114.825 127.406L115.189 127.403ZM114.142 131.589V130.616C114.101 130.502 114.042 130.396 113.967 130.3C113.893 130.207 113.806 130.125 113.709 130.056C113.615 129.988 113.513 129.934 113.405 129.892C113.305 129.852 113.198 129.831 113.09 129.83C112.94 129.829 112.792 129.863 112.658 129.931C112.526 129.997 112.41 130.091 112.318 130.206C112.223 130.326 112.149 130.462 112.1 130.607C112.047 130.757 112.019 130.915 112.019 131.074C112.015 131.236 112.043 131.397 112.1 131.549C112.154 131.689 112.233 131.818 112.334 131.93C112.433 132.039 112.554 132.127 112.689 132.187C112.832 132.251 112.988 132.282 113.144 132.28C113.248 132.279 113.351 132.262 113.449 132.23C113.552 132.197 113.649 132.148 113.737 132.086C113.826 132.024 113.906 131.951 113.975 131.868C114.045 131.788 114.1 131.695 114.138 131.596L114.142 131.589Z" fill="#65A141"/>
<path d="M119.562 131.87C119.569 132.052 119.532 132.233 119.455 132.397C119.377 132.562 119.261 132.705 119.117 132.816C118.765 133.063 118.34 133.184 117.91 133.16C117.568 133.161 117.228 133.105 116.904 132.997C116.595 132.899 116.309 132.74 116.062 132.53L116.109 132.449C116.198 132.304 116.338 132.197 116.502 132.15C116.666 132.103 116.842 132.119 116.994 132.194C117.057 132.224 117.12 132.25 117.181 132.276C117.405 132.365 117.645 132.412 117.886 132.414C118.058 132.422 118.228 132.381 118.377 132.296C118.433 132.261 118.48 132.212 118.512 132.153C118.543 132.094 118.558 132.028 118.556 131.962C118.557 131.893 118.538 131.826 118.5 131.769C118.462 131.712 118.408 131.668 118.344 131.643C118.122 131.547 117.893 131.469 117.659 131.409C117.393 131.336 117.167 131.266 116.981 131.199C116.819 131.145 116.667 131.068 116.528 130.97C116.422 130.893 116.336 130.791 116.279 130.674C116.223 130.548 116.195 130.411 116.197 130.273C116.194 130.079 116.236 129.888 116.318 129.713C116.398 129.547 116.514 129.402 116.658 129.288C116.81 129.168 116.983 129.076 117.168 129.019C117.374 128.955 117.588 128.924 117.803 128.926C118.096 128.924 118.387 128.969 118.666 129.059C118.937 129.15 119.188 129.295 119.401 129.486L119.335 129.585C119.249 129.717 119.119 129.814 118.968 129.859C118.817 129.904 118.655 129.893 118.511 129.83C118.466 129.809 118.42 129.79 118.377 129.774C118.191 129.703 117.994 129.666 117.795 129.665C117.64 129.66 117.486 129.697 117.351 129.774C117.291 129.81 117.244 129.862 117.212 129.924C117.18 129.985 117.166 130.054 117.172 130.124C117.169 130.186 117.184 130.248 117.214 130.302C117.249 130.355 117.296 130.398 117.352 130.427C117.43 130.47 117.512 130.505 117.597 130.532C117.699 130.567 117.825 130.599 117.976 130.638C118.221 130.698 118.461 130.77 118.698 130.855C118.872 130.914 119.037 130.996 119.188 131.1C119.307 131.184 119.403 131.296 119.469 131.426C119.534 131.565 119.566 131.717 119.562 131.87Z" fill="#65A141"/>
</svg>
