<svg width="21" height="27" viewBox="0 0 21 27" fill="none" xmlns="http://www.w3.org/2000/svg">
<mask id="path-1-outside-1_2_6623" maskUnits="userSpaceOnUse" x="0" y="0" width="21" height="27" fill="black">
<rect fill="white" width="21" height="27"/>
<path fill-rule="evenodd" clip-rule="evenodd" d="M7.22912 1.00001C7.11252 0.99942 7.0006 1.04551 6.91818 1.12813C6.83576 1.21055 6.78947 1.32247 6.79005 1.43907V2.32772H3.167C1.97695 2.32772 1 3.29277 1 4.47852V24.23C1 25.4158 1.97695 26.3816 3.167 26.3816H18.2395C19.4296 26.3816 20.4065 25.4158 20.4065 24.23L20.4063 4.47852C20.4063 3.29277 19.4294 2.32772 18.2393 2.32772H14.6155V1.43907C14.6158 1.32247 14.5698 1.21056 14.4873 1.12813C14.4049 1.04552 14.2928 0.999421 14.1762 1.00001H7.22912ZM7.66584 1.87501H13.7403V3.65841L7.66584 3.65821V1.87501ZM3.16699 3.20296H6.79004V4.09416V4.09396C6.78945 4.21056 6.83574 4.32267 6.91816 4.4051C7.00058 4.48752 7.1125 4.53361 7.2291 4.53322H14.1761C14.2927 4.53361 14.4048 4.48752 14.4872 4.4051C14.5697 4.32268 14.6158 4.21057 14.6154 4.09396V3.20276H18.2392C18.964 3.20276 19.5312 3.76661 19.5312 4.47856V24.2301C19.5312 24.942 18.964 25.5059 18.2392 25.5059H3.16671C2.44211 25.5059 1.87471 24.942 1.87471 24.2301V4.47856C1.87471 3.76666 2.44211 3.20276 3.16671 3.20276L3.16699 3.20296ZM8.47849 7.58911V7.58891C8.36208 7.59262 8.25193 7.64243 8.17243 7.72739L6.23198 9.80044L5.25268 8.81859C5.08276 8.64808 4.80717 8.64691 4.63568 8.81585C4.55307 8.89769 4.50639 9.00882 4.50599 9.12503C4.5054 9.24144 4.5513 9.35296 4.63314 9.43538L5.93119 10.7367C6.01498 10.8211 6.12924 10.8676 6.24799 10.8658C6.36674 10.8641 6.47982 10.8141 6.56088 10.7274L8.81168 8.32461C8.97633 8.14883 8.96793 7.87305 8.79293 7.70761C8.70797 7.62772 8.59488 7.58495 8.47847 7.58886L8.47849 7.58911ZM11.6666 8.78971V8.78951C11.5504 8.78912 11.4389 8.83482 11.3564 8.91666C11.274 8.99869 11.2275 9.11002 11.2273 9.22623C11.2269 9.34283 11.273 9.45475 11.3555 9.53717C11.4379 9.61979 11.55 9.66588 11.6666 9.6653H16.4629C16.5789 9.66491 16.69 9.61842 16.7717 9.536C16.8533 9.45358 16.899 9.34225 16.8986 9.22624C16.8982 8.98561 16.7035 8.7905 16.4629 8.78952L11.6666 8.78971ZM8.47849 13.0534C8.36208 13.0571 8.25193 13.1069 8.17243 13.1918L6.23183 15.2649L5.25253 14.283H5.25273C5.08281 14.1125 4.80722 14.1114 4.63573 14.2803C4.55311 14.3621 4.50643 14.4733 4.50604 14.5897C4.50545 14.7059 4.55135 14.8174 4.63319 14.8998L5.93124 16.2012C6.01503 16.2856 6.12928 16.332 6.24803 16.3303C6.36678 16.3285 6.47987 16.2785 6.56092 16.1918L8.81172 13.7891C8.97637 13.6133 8.96797 13.3375 8.79297 13.1721C8.70801 13.0922 8.59493 13.0494 8.47852 13.0533L8.47849 13.0534ZM11.6666 14.254C11.55 14.2536 11.4379 14.2997 11.3555 14.3821C11.273 14.4645 11.2269 14.5766 11.2273 14.6932C11.2275 14.8094 11.274 14.9208 11.3564 15.0026C11.4388 15.0844 11.5504 15.1303 11.6666 15.1299H16.4629C16.7035 15.129 16.8982 14.9338 16.8986 14.6932C16.899 14.5772 16.8533 14.4657 16.7717 14.3833C16.69 14.301 16.5789 14.2544 16.4629 14.254L11.6666 14.254ZM8.47849 18.5178C8.36208 18.5215 8.25193 18.5713 8.17243 18.6563L6.23198 20.7293L5.25268 19.7475C5.08198 19.5778 4.80639 19.5778 4.63568 19.7475C4.46537 19.9174 4.4642 20.193 4.63314 20.3645L5.93119 21.6694V21.6692C6.01498 21.7536 6.12924 21.8 6.24799 21.7983C6.36674 21.7965 6.47982 21.7465 6.56088 21.6598L8.81168 19.2571C8.89176 19.1725 8.93492 19.0594 8.9314 18.943C8.92769 18.8264 8.87789 18.7162 8.79293 18.6368C8.70797 18.5567 8.59488 18.5141 8.47847 18.5178H8.47849ZM11.6666 19.7217V19.7219C11.5506 19.7213 11.439 19.767 11.3566 19.8489C11.2744 19.9305 11.2277 20.0416 11.2273 20.1576C11.2269 20.2742 11.273 20.3862 11.3555 20.4688C11.4379 20.5512 11.55 20.5973 11.6666 20.5969H16.4629C16.5789 20.5963 16.69 20.5498 16.7717 20.4674C16.8533 20.3852 16.899 20.2737 16.8986 20.1577C16.8977 19.9174 16.7031 19.7229 16.4629 19.7219L11.6666 19.7217Z"/>
</mask>
<path fill-rule="evenodd" clip-rule="evenodd" d="M7.22912 1.00001C7.11252 0.99942 7.0006 1.04551 6.91818 1.12813C6.83576 1.21055 6.78947 1.32247 6.79005 1.43907V2.32772H3.167C1.97695 2.32772 1 3.29277 1 4.47852V24.23C1 25.4158 1.97695 26.3816 3.167 26.3816H18.2395C19.4296 26.3816 20.4065 25.4158 20.4065 24.23L20.4063 4.47852C20.4063 3.29277 19.4294 2.32772 18.2393 2.32772H14.6155V1.43907C14.6158 1.32247 14.5698 1.21056 14.4873 1.12813C14.4049 1.04552 14.2928 0.999421 14.1762 1.00001H7.22912ZM7.66584 1.87501H13.7403V3.65841L7.66584 3.65821V1.87501ZM3.16699 3.20296H6.79004V4.09416V4.09396C6.78945 4.21056 6.83574 4.32267 6.91816 4.4051C7.00058 4.48752 7.1125 4.53361 7.2291 4.53322H14.1761C14.2927 4.53361 14.4048 4.48752 14.4872 4.4051C14.5697 4.32268 14.6158 4.21057 14.6154 4.09396V3.20276H18.2392C18.964 3.20276 19.5312 3.76661 19.5312 4.47856V24.2301C19.5312 24.942 18.964 25.5059 18.2392 25.5059H3.16671C2.44211 25.5059 1.87471 24.942 1.87471 24.2301V4.47856C1.87471 3.76666 2.44211 3.20276 3.16671 3.20276L3.16699 3.20296ZM8.47849 7.58911V7.58891C8.36208 7.59262 8.25193 7.64243 8.17243 7.72739L6.23198 9.80044L5.25268 8.81859C5.08276 8.64808 4.80717 8.64691 4.63568 8.81585C4.55307 8.89769 4.50639 9.00882 4.50599 9.12503C4.5054 9.24144 4.5513 9.35296 4.63314 9.43538L5.93119 10.7367C6.01498 10.8211 6.12924 10.8676 6.24799 10.8658C6.36674 10.8641 6.47982 10.8141 6.56088 10.7274L8.81168 8.32461C8.97633 8.14883 8.96793 7.87305 8.79293 7.70761C8.70797 7.62772 8.59488 7.58495 8.47847 7.58886L8.47849 7.58911ZM11.6666 8.78971V8.78951C11.5504 8.78912 11.4389 8.83482 11.3564 8.91666C11.274 8.99869 11.2275 9.11002 11.2273 9.22623C11.2269 9.34283 11.273 9.45475 11.3555 9.53717C11.4379 9.61979 11.55 9.66588 11.6666 9.6653H16.4629C16.5789 9.66491 16.69 9.61842 16.7717 9.536C16.8533 9.45358 16.899 9.34225 16.8986 9.22624C16.8982 8.98561 16.7035 8.7905 16.4629 8.78952L11.6666 8.78971ZM8.47849 13.0534C8.36208 13.0571 8.25193 13.1069 8.17243 13.1918L6.23183 15.2649L5.25253 14.283H5.25273C5.08281 14.1125 4.80722 14.1114 4.63573 14.2803C4.55311 14.3621 4.50643 14.4733 4.50604 14.5897C4.50545 14.7059 4.55135 14.8174 4.63319 14.8998L5.93124 16.2012C6.01503 16.2856 6.12928 16.332 6.24803 16.3303C6.36678 16.3285 6.47987 16.2785 6.56092 16.1918L8.81172 13.7891C8.97637 13.6133 8.96797 13.3375 8.79297 13.1721C8.70801 13.0922 8.59493 13.0494 8.47852 13.0533L8.47849 13.0534ZM11.6666 14.254C11.55 14.2536 11.4379 14.2997 11.3555 14.3821C11.273 14.4645 11.2269 14.5766 11.2273 14.6932C11.2275 14.8094 11.274 14.9208 11.3564 15.0026C11.4388 15.0844 11.5504 15.1303 11.6666 15.1299H16.4629C16.7035 15.129 16.8982 14.9338 16.8986 14.6932C16.899 14.5772 16.8533 14.4657 16.7717 14.3833C16.69 14.301 16.5789 14.2544 16.4629 14.254L11.6666 14.254ZM8.47849 18.5178C8.36208 18.5215 8.25193 18.5713 8.17243 18.6563L6.23198 20.7293L5.25268 19.7475C5.08198 19.5778 4.80639 19.5778 4.63568 19.7475C4.46537 19.9174 4.4642 20.193 4.63314 20.3645L5.93119 21.6694V21.6692C6.01498 21.7536 6.12924 21.8 6.24799 21.7983C6.36674 21.7965 6.47982 21.7465 6.56088 21.6598L8.81168 19.2571C8.89176 19.1725 8.93492 19.0594 8.9314 18.943C8.92769 18.8264 8.87789 18.7162 8.79293 18.6368C8.70797 18.5567 8.59488 18.5141 8.47847 18.5178H8.47849ZM11.6666 19.7217V19.7219C11.5506 19.7213 11.439 19.767 11.3566 19.8489C11.2744 19.9305 11.2277 20.0416 11.2273 20.1576C11.2269 20.2742 11.273 20.3862 11.3555 20.4688C11.4379 20.5512 11.55 20.5973 11.6666 20.5969H16.4629C16.5789 20.5963 16.69 20.5498 16.7717 20.4674C16.8533 20.3852 16.899 20.2737 16.8986 20.1577C16.8977 19.9174 16.7031 19.7229 16.4629 19.7219L11.6666 19.7217Z" fill="#525252"/>
<path fill-rule="evenodd" clip-rule="evenodd" d="M7.22912 1.00001C7.11252 0.99942 7.0006 1.04551 6.91818 1.12813C6.83576 1.21055 6.78947 1.32247 6.79005 1.43907V2.32772H3.167C1.97695 2.32772 1 3.29277 1 4.47852V24.23C1 25.4158 1.97695 26.3816 3.167 26.3816H18.2395C19.4296 26.3816 20.4065 25.4158 20.4065 24.23L20.4063 4.47852C20.4063 3.29277 19.4294 2.32772 18.2393 2.32772H14.6155V1.43907C14.6158 1.32247 14.5698 1.21056 14.4873 1.12813C14.4049 1.04552 14.2928 0.999421 14.1762 1.00001H7.22912ZM7.66584 1.87501H13.7403V3.65841L7.66584 3.65821V1.87501ZM3.16699 3.20296H6.79004V4.09416V4.09396C6.78945 4.21056 6.83574 4.32267 6.91816 4.4051C7.00058 4.48752 7.1125 4.53361 7.2291 4.53322H14.1761C14.2927 4.53361 14.4048 4.48752 14.4872 4.4051C14.5697 4.32268 14.6158 4.21057 14.6154 4.09396V3.20276H18.2392C18.964 3.20276 19.5312 3.76661 19.5312 4.47856V24.2301C19.5312 24.942 18.964 25.5059 18.2392 25.5059H3.16671C2.44211 25.5059 1.87471 24.942 1.87471 24.2301V4.47856C1.87471 3.76666 2.44211 3.20276 3.16671 3.20276L3.16699 3.20296ZM8.47849 7.58911V7.58891C8.36208 7.59262 8.25193 7.64243 8.17243 7.72739L6.23198 9.80044L5.25268 8.81859C5.08276 8.64808 4.80717 8.64691 4.63568 8.81585C4.55307 8.89769 4.50639 9.00882 4.50599 9.12503C4.5054 9.24144 4.5513 9.35296 4.63314 9.43538L5.93119 10.7367C6.01498 10.8211 6.12924 10.8676 6.24799 10.8658C6.36674 10.8641 6.47982 10.8141 6.56088 10.7274L8.81168 8.32461C8.97633 8.14883 8.96793 7.87305 8.79293 7.70761C8.70797 7.62772 8.59488 7.58495 8.47847 7.58886L8.47849 7.58911ZM11.6666 8.78971V8.78951C11.5504 8.78912 11.4389 8.83482 11.3564 8.91666C11.274 8.99869 11.2275 9.11002 11.2273 9.22623C11.2269 9.34283 11.273 9.45475 11.3555 9.53717C11.4379 9.61979 11.55 9.66588 11.6666 9.6653H16.4629C16.5789 9.66491 16.69 9.61842 16.7717 9.536C16.8533 9.45358 16.899 9.34225 16.8986 9.22624C16.8982 8.98561 16.7035 8.7905 16.4629 8.78952L11.6666 8.78971ZM8.47849 13.0534C8.36208 13.0571 8.25193 13.1069 8.17243 13.1918L6.23183 15.2649L5.25253 14.283H5.25273C5.08281 14.1125 4.80722 14.1114 4.63573 14.2803C4.55311 14.3621 4.50643 14.4733 4.50604 14.5897C4.50545 14.7059 4.55135 14.8174 4.63319 14.8998L5.93124 16.2012C6.01503 16.2856 6.12928 16.332 6.24803 16.3303C6.36678 16.3285 6.47987 16.2785 6.56092 16.1918L8.81172 13.7891C8.97637 13.6133 8.96797 13.3375 8.79297 13.1721C8.70801 13.0922 8.59493 13.0494 8.47852 13.0533L8.47849 13.0534ZM11.6666 14.254C11.55 14.2536 11.4379 14.2997 11.3555 14.3821C11.273 14.4645 11.2269 14.5766 11.2273 14.6932C11.2275 14.8094 11.274 14.9208 11.3564 15.0026C11.4388 15.0844 11.5504 15.1303 11.6666 15.1299H16.4629C16.7035 15.129 16.8982 14.9338 16.8986 14.6932C16.899 14.5772 16.8533 14.4657 16.7717 14.3833C16.69 14.301 16.5789 14.2544 16.4629 14.254L11.6666 14.254ZM8.47849 18.5178C8.36208 18.5215 8.25193 18.5713 8.17243 18.6563L6.23198 20.7293L5.25268 19.7475C5.08198 19.5778 4.80639 19.5778 4.63568 19.7475C4.46537 19.9174 4.4642 20.193 4.63314 20.3645L5.93119 21.6694V21.6692C6.01498 21.7536 6.12924 21.8 6.24799 21.7983C6.36674 21.7965 6.47982 21.7465 6.56088 21.6598L8.81168 19.2571C8.89176 19.1725 8.93492 19.0594 8.9314 18.943C8.92769 18.8264 8.87789 18.7162 8.79293 18.6368C8.70797 18.5567 8.59488 18.5141 8.47847 18.5178H8.47849ZM11.6666 19.7217V19.7219C11.5506 19.7213 11.439 19.767 11.3566 19.8489C11.2744 19.9305 11.2277 20.0416 11.2273 20.1576C11.2269 20.2742 11.273 20.3862 11.3555 20.4688C11.4379 20.5512 11.55 20.5973 11.6666 20.5969H16.4629C16.5789 20.5963 16.69 20.5498 16.7717 20.4674C16.8533 20.3852 16.899 20.2737 16.8986 20.1577C16.8977 19.9174 16.7031 19.7229 16.4629 19.7219L11.6666 19.7217Z" stroke="#525252" stroke-width="0.4" mask="url(#path-1-outside-1_2_6623)"/>
</svg>
