<svg width="26" height="29" viewBox="0 0 26 29" fill="none" xmlns="http://www.w3.org/2000/svg">
<path d="M13.0001 10.642C10.8674 10.642 9.12393 12.3477 9.12393 14.4459C9.12393 16.5444 10.8674 18.2501 13.0001 18.2501C15.1329 18.2501 16.8763 16.5444 16.8763 14.4461C16.8763 12.3477 15.1329 10.642 13.0001 10.642ZM13.0001 17.3307C11.3749 17.3307 10.0554 16.0325 10.0554 14.4459C10.0554 12.8593 11.3749 11.5612 13.0001 11.5612C14.6253 11.5612 15.9449 12.8593 15.9449 14.4459C15.9449 16.0327 14.6253 17.3307 13.0001 17.3307Z" fill="#525252" stroke="#525252" stroke-width="0.3"/>
<path d="M20.0119 24.5342C19.6528 20.9314 16.5922 18.0125 13 18.0125C9.4075 18.0125 6.34746 20.9319 5.98815 24.5632C3.43139 22.5399 1.78164 19.439 1.78164 15.9637C1.78164 9.88721 6.79591 4.96589 12.9999 4.96589C19.2039 4.96589 24.2181 9.8871 24.2181 15.9637C24.2181 19.4393 22.5681 22.5401 20.0119 24.5342ZM13 4.04629C6.28846 4.04629 0.85 9.375 0.85 15.9636C0.85 22.5522 6.28835 27.8809 13 27.8809C19.7116 27.8809 25.15 22.5522 25.15 15.9636C25.15 9.375 19.7117 4.04629 13 4.04629ZM12.9686 26.9614C10.6915 26.9614 8.62814 26.3064 6.86659 25.1723C6.9106 21.7869 9.70312 18.9313 13 18.9313C16.2959 18.9313 19.0585 21.7858 19.102 25.1723C17.34 26.3062 15.2458 26.9614 12.9686 26.9614Z" fill="#525252" stroke="#525252" stroke-width="0.3"/>
</svg>
