<svg width="26" height="26" viewBox="0 0 26 26" fill="none" xmlns="http://www.w3.org/2000/svg">
<path d="M13 25C6.37231 25 1 19.6277 1 13C1 6.37231 6.37282 1 13 1C19.6277 1 25 6.37282 25 13C25 19.6277 19.6277 25 13 25ZM13 2.19985C12.0502 2.19985 10.8251 3.96994 10.0768 6.99985H15.9232C15.1749 3.96994 13.9498 2.19985 13 2.19985ZM9.81941 8.2001C9.59039 9.44202 9.44313 10.8501 9.41199 12.4002H16.5879C16.5568 10.8501 16.4095 9.44222 16.1805 8.2001H9.81941ZM2.22998 12.4H8.21173C8.24126 10.9132 8.37505 9.49628 8.60166 8.2001H3.33942C2.70159 9.47822 2.31325 10.8975 2.23009 12.4H2.22998ZM12.9998 23.8004C13.9496 23.8004 15.1747 22.0303 15.923 19.0004H10.0766C10.8249 22.0303 12.0499 23.8004 12.9998 23.8004ZM16.1804 17.8001C16.4094 16.5582 16.5567 15.1501 16.5878 13.6L9.41187 13.6002C9.44301 15.1503 9.59027 16.5582 9.81929 17.8003L16.1804 17.8001ZM8.21193 13.6002H2.23019C2.31336 15.1027 2.70169 16.522 3.33952 17.8001H8.60228C8.37547 16.5039 8.24167 15.087 8.21214 13.6002H8.21193ZM17.7881 12.4H23.7698C23.6866 10.8975 23.2985 9.47822 22.6607 8.1999H17.3979C17.6245 9.49628 17.7583 10.9132 17.7879 12.4H17.7881ZM17.7881 13.6002C17.7585 15.087 17.6247 16.5039 17.3981 17.8001H22.6609C23.2987 16.5218 23.6869 15.1025 23.77 13.6L17.7881 13.6002ZM21.9742 19.0003H17.1529C16.7101 20.9112 16.0662 22.4948 15.289 23.5509C18.0621 22.9497 20.4422 21.2838 21.9743 19.0003H21.9742ZM10.7111 23.5509C9.93389 22.4948 9.28999 20.9112 8.84724 19.0003H4.02595C5.55797 21.2838 7.93797 22.9497 10.7112 23.5509H10.7111ZM4.02584 6.99995H8.84713C9.28991 5.08904 9.93378 3.50538 10.711 2.44928C7.93786 3.05054 5.55782 4.71618 4.02574 6.99995H4.02584ZM15.2889 2.44928C16.0661 3.50558 16.71 5.08904 17.1528 6.99995H21.9741C20.442 4.71618 18.062 3.05054 15.2888 2.44928H15.2889Z" fill="#525252"/>
</svg>
