<svg width="82" height="61" viewBox="0 0 82 61" fill="none" xmlns="http://www.w3.org/2000/svg">
<path d="M80.9584 0.076279C80.3869 -0.118303 79.7549 0.0674958 79.3777 0.541113C79.3777 0.589759 75.059 5.70367 61.8156 9.84921C54.3241 12.0226 48.4697 17.9129 46.3161 25.4434C45.3519 29.1919 45.7089 32.6693 47.2224 35.1293H47.2218C44.8585 38.2142 43.2117 41.7918 42.4022 45.5995C41.7924 44.5753 41.0992 43.603 40.33 42.6936C42.1616 39.885 42.5952 35.7872 41.4676 31.3611C39.7807 24.7751 34.1421 16.5325 23.3857 13.1708C7.71203 8.22113 2.64101 2.14845 2.59453 2.0905C2.21666 1.61688 1.58664 1.42839 1.01312 1.61823C0.439592 1.80809 0.0435629 2.33642 0.0207045 2.94246C0.0207045 3.98834 -0.779409 28.5996 7.56812 39.1779C12.4939 45.4153 19.1349 49.1739 25.6896 49.484H26.5765C30.9555 49.5083 35.1788 47.8524 38.384 44.8538C43.0495 50.6657 43.9654 59.5663 43.9747 59.6825V59.6832C44.0439 60.4284 44.6659 60.9986 45.4109 61H45.546C45.9279 60.9655 46.2809 60.7798 46.527 60.4838C46.7731 60.1879 46.8914 59.8055 46.8572 59.4211C46.484 56.1957 45.7101 53.0296 44.5529 49.9974C44.6026 49.8758 44.6383 49.7488 44.6591 49.6191C44.6591 49.5224 45.4014 42.1999 49.199 37.3281C51.9361 39.8232 55.4997 41.2041 59.1951 41.2021H59.9663C65.6242 40.9406 71.2924 37.7151 75.5141 32.3689C82.6567 23.3221 82.0012 2.34277 81.9723 1.46066C81.9656 0.828282 81.5582 0.270878 80.9597 0.0756218L80.9584 0.076279ZM25.852 46.5787C20.0682 46.3078 14.2853 42.9561 9.86112 37.3773C3.8656 29.784 3.00772 13.327 2.92097 6.31518C5.94799 8.74615 11.953 12.5918 22.5658 15.9139C32.2049 18.9163 37.2072 26.2199 38.7013 32.0507C39.5498 35.3437 39.3474 38.4144 38.2481 40.5258C36.6896 39.1941 34.8701 38.2043 32.9082 37.6198C29.313 31.808 29.5053 29.4062 29.9585 28.4766H29.9592C30.1501 28.1286 30.1918 27.7172 30.0728 27.3375C29.9538 26.9584 29.6855 26.6443 29.3305 26.4693C28.9755 26.2943 28.564 26.2727 28.1929 26.4105C27.8217 26.5483 27.5225 26.8328 27.3658 27.1983C26.3055 29.3582 26.8071 32.3899 28.8793 36.3997C19.7701 33.1452 17.4665 27.6828 15.7413 23.6045C15.4616 22.9458 15.2013 22.3161 14.9216 21.7445C14.769 21.3789 14.4745 21.0918 14.1061 20.9499C13.7376 20.808 13.3281 20.8236 12.9711 20.9932C12.6141 21.1621 12.3418 21.4708 12.2174 21.8472C12.0923 22.2228 12.1259 22.6336 12.3095 22.9842C12.5697 23.5268 12.8205 24.1173 13.0807 24.7376C15.124 29.5805 18.2089 36.8935 31.617 40.2353C33.3732 40.6818 35.0031 41.5304 36.3787 42.7148C33.5333 45.3781 29.737 46.772 25.8528 46.5795L25.852 46.5787ZM73.2282 30.5103C69.5268 35.1984 64.6399 38.0164 59.8104 38.2591V38.2584C56.6589 38.4267 53.5681 37.345 51.2027 35.2465C52.3033 34.3323 53.5896 33.6716 54.9714 33.3095C66.471 30.4036 69.112 24.156 70.8663 20.011C71.0882 19.4786 71.2999 18.984 71.5124 18.5192C71.856 17.7942 71.5494 16.9267 70.8279 16.5815C70.1065 16.2369 69.2438 16.5443 68.9003 17.2693C68.669 17.7632 68.4471 18.2963 68.2064 18.8577C66.7124 22.4318 64.8902 26.7423 57.6609 29.4544C59.2611 26.2093 59.5885 23.769 58.7017 21.9285C58.3507 21.2062 57.4834 20.9069 56.7646 21.2603C56.0459 21.613 55.748 22.4845 56.0996 23.2068C56.4661 23.9527 56.6106 25.9188 53.6609 30.6839V30.6846C52.0836 31.1643 50.6138 31.9473 49.3328 32.9898C48.5004 30.8204 48.4157 28.4326 49.0914 26.2092C50.9869 19.6474 56.1056 14.5248 62.6444 12.6494C71.3192 9.95704 76.3412 6.8375 79.0307 4.74588C78.9634 10.8765 78.1539 24.2629 73.2281 30.5102L73.2282 30.5103Z" fill="#F38328"/>
</svg>
