<svg width="18" height="25" viewBox="0 0 18 25" fill="none" xmlns="http://www.w3.org/2000/svg">
<path d="M9.0587 24.27H9.12639L9.12495 24.2653C9.26907 24.2463 9.39936 24.1659 9.48142 24.0428C9.53555 23.9639 11.416 21.1315 13.2737 17.8324L13.2737 17.8324C14.545 15.5731 15.5036 13.6391 16.1445 12.0418C16.785 10.4457 17.1101 9.18135 17.1101 8.26286C17.1101 5.37172 15.5758 2.70015 13.0852 1.25426L13.0601 1.2975L13.0852 1.25425C10.5944 -0.191457 7.52579 -0.191457 5.03496 1.25425C2.57893 2.67983 1.05304 5.29763 1.01114 8.14257L1.01006 8.14148V8.26266C1.01006 9.18087 1.3352 10.4452 1.97565 12.0413C2.61658 13.6387 3.57518 15.5728 4.84637 17.8322C6.68937 21.1099 8.55805 23.9259 8.6335 24.0396L8.63571 24.0429L8.63582 24.0431C8.73031 24.1849 8.88879 24.27 9.0587 24.27ZM2.02685 8.26279C2.02685 4.3642 5.18155 1.19296 9.0586 1.1929H9.0587C12.9358 1.19296 16.0904 4.36436 16.0904 8.26228C16.0904 9.06821 15.7732 10.2542 15.1498 11.7817C14.527 13.3077 13.601 15.1693 12.3887 17.3244C11.0609 19.684 9.72009 21.8028 9.05864 22.8262C8.39719 21.8029 7.05634 19.6841 5.72864 17.3249C4.51626 15.1696 3.59027 13.3078 2.96752 11.7819C2.34413 10.2543 2.02685 9.06846 2.02685 8.26279Z" fill="#525252" stroke="#525252" stroke-width="0.1"/>
<path d="M7.03666 6.59422L7.03667 6.59421C7.57287 6.05491 8.30022 5.75217 9.05845 5.75217C9.81646 5.75295 10.5432 6.05606 11.0793 6.59499L11.0793 6.595C11.6155 7.13395 11.9171 7.86474 11.9179 8.6273C11.9179 9.38975 11.6164 10.121 11.0802 10.6603C10.544 11.1994 9.81662 11.5021 9.05845 11.5021C8.30028 11.5021 7.57287 11.1993 7.03667 10.6603C6.50041 10.121 6.19901 9.38977 6.19901 8.62724C6.19901 7.86456 6.50045 7.13332 7.03666 6.59422ZM5.18096 8.62735C5.18096 10.7763 6.91991 12.5254 9.05845 12.5254C11.197 12.5254 12.9359 10.7765 12.9359 8.62735C12.9359 6.47818 11.197 4.7293 9.05845 4.7293C6.92011 4.7293 5.18096 6.47839 5.18096 8.62735Z" fill="#525252" stroke="#525252" stroke-width="0.1"/>
</svg>
