<svg width="38" height="38" viewBox="0 0 38 38" fill="none" xmlns="http://www.w3.org/2000/svg">
<path d="M19 38C29.4934 38 38 29.4934 38 19C38 8.50659 29.4934 0 19 0C8.5066 0 0 8.50659 0 19C0 29.4934 8.5066 38 19 38Z" fill="white"/>
<circle cx="19.3958" cy="19.3958" r="4.14583" stroke="white" stroke-width="2"/>
<circle r="1.1875" transform="matrix(1 0 0 -1 25.729 13.0625)" fill="white"/>
<path d="M19.0001 7C15.1222 7 11.9673 10.1549 11.9673 14.0328C11.9673 15.0904 12.1964 16.1067 12.648 17.0544C12.6571 17.0747 12.6666 17.0946 12.6768 17.1145L17.9904 27.4028C18.1855 27.7804 18.575 28.0177 19 28.0177C19.425 28.0177 19.8146 27.7805 20.0096 27.4028L25.3217 17.1173C25.3309 17.0996 25.3395 17.0817 25.3476 17.0636C25.8023 16.1132 26.0327 15.0937 26.0327 14.0328C26.0329 10.1549 22.878 7 19.0001 7ZM19.0001 17.7139C16.9703 17.7139 15.319 16.0626 15.319 14.0328C15.319 12.0031 16.9703 10.3518 19.0001 10.3518C21.0298 10.3518 22.6812 12.0031 22.6812 14.0328C22.6812 16.0626 21.0298 17.7139 19.0001 17.7139Z" fill="#F38328"/>
<path d="M21.7091 29.6362H16.2911C15.9145 29.6362 15.6094 29.9414 15.6094 30.318C15.6094 30.6946 15.9145 30.9998 16.2911 30.9998H21.7091C22.0858 30.9998 22.3909 30.6946 22.3909 30.318C22.3909 29.9414 22.0857 29.6362 21.7091 29.6362Z" fill="#F38328"/>
</svg>
