<svg width="22" height="22" viewBox="0 0 22 22" fill="none" xmlns="http://www.w3.org/2000/svg">
<mask id="path-1-outside-1_4_10823" maskUnits="userSpaceOnUse" x="0" y="0" width="14" height="22" fill="black">
<rect fill="white" width="14" height="22"/>
<path d="M12.6304 14.5313V16.8884V19.7478V19.8335V19.8383V19.8549C12.628 19.9311 12.5988 19.8859 12.6352 19.843C12.6304 19.8478 12.6207 19.893 12.6182 19.9049C12.6012 20.0002 12.6595 19.8525 12.6255 19.8954C12.611 19.9144 12.5964 19.943 12.5867 19.9644C12.5454 20.043 12.6547 19.9049 12.5842 19.9668C12.5697 19.9811 12.5527 19.9954 12.5381 20.0097C12.4725 20.0763 12.5988 19.9906 12.5478 20.0025C12.5381 20.0049 12.4847 20.0478 12.4774 20.0406C12.4652 20.0287 12.5794 20.0121 12.5041 20.0287C12.4944 20.0311 12.4822 20.0335 12.4725 20.0382C12.4288 20.0478 12.4288 20.0478 12.4725 20.043C12.4822 20.043 12.4944 20.0406 12.5041 20.0406C12.4822 20.043 12.4604 20.043 12.4361 20.043H12.4337H12.39H11.7246H8.77141H5.09455H2.50814H2.23128H2.17057H2.16085C2.14142 20.043 2.10985 20.0359 2.09285 20.0406C2.18028 20.0263 2.16571 20.0525 2.10985 20.0359C2.09528 20.0311 2.07828 20.0263 2.06371 20.0216C2.12442 20.0478 2.13899 20.0525 2.10499 20.0382C2.09771 20.0311 2.03457 20.0073 2.037 19.9978C2.03943 19.9882 2.11228 20.0668 2.05885 20.0144C2.04185 19.9978 2.02243 19.9716 2.003 19.9597C1.95685 19.9311 2.054 20.0525 2.01028 19.9692C2.00057 19.9502 1.98843 19.9311 1.97871 19.9144C1.92528 19.8287 1.99571 19.9859 1.98357 19.9263C1.98114 19.9192 1.95928 19.8502 1.96171 19.8478C1.95928 19.8478 1.969 19.9692 1.96657 19.843V19.8287V19.7049V18.1693V15.3575V11.8672V8.21975V5.02464V2.80568V2.25095V2.13905V2.13191V2.12953V2.0962C1.96657 1.9962 1.935 2.18667 1.969 2.0962C1.96657 2.10096 1.986 2.03668 1.98843 2.03668C1.98114 2.05572 1.97143 2.07477 1.96414 2.09382C1.97386 2.07477 1.98357 2.0581 1.99328 2.03906C1.99814 2.03191 2.02486 1.98668 2.02728 1.98668C2.05157 1.9962 1.952 2.06049 2.01271 2.01287C2.02 2.00573 2.10014 1.94383 2.03457 1.98906C1.969 2.03668 2.054 1.97954 2.06371 1.97478C2.05886 1.97716 2.11714 1.94382 2.11957 1.9462C2.05157 1.97239 2.04428 1.97716 2.09286 1.96049C2.10257 1.95811 2.11471 1.95573 2.12443 1.95335C2.224 1.91763 2.01757 1.95097 2.12686 1.95097H2.16085H2.16328H2.18028H2.25071H2.54214H3.62769H6.99614H10.5248C11.1514 1.95097 11.778 1.94859 12.4021 1.95097H12.4361C12.5648 1.95335 12.4385 1.9462 12.4385 1.9462C12.441 1.94144 12.509 1.96525 12.5163 1.96525C12.5697 1.96287 12.4215 1.91049 12.5041 1.95811C12.5211 1.96763 12.5405 1.97954 12.56 1.98906C12.645 2.03192 12.5211 1.9343 12.5503 1.97954C12.5551 1.98668 12.6085 2.02953 12.6061 2.0343C12.5673 1.98192 12.5575 1.97001 12.5794 1.99858C12.5891 2.01049 12.5964 2.02477 12.6061 2.03668C12.6037 2.03191 12.6377 2.09144 12.6353 2.09144C12.6255 2.0962 12.6013 1.98192 12.6255 2.07953C12.6401 2.13905 12.6134 2.14143 12.6304 2.06287C12.628 2.07953 12.6328 2.11048 12.6328 2.12953V2.14381V2.24619V3.40806V6.78411V7.46265C12.6328 7.71264 12.8563 7.95073 13.1186 7.93884C13.3808 7.92694 13.6043 7.72933 13.6043 7.46265V5.05801V2.19625C13.6043 1.89151 13.5144 1.62246 13.3153 1.38676C13.0967 1.12963 12.7518 1.00344 12.4167 1.00106C12.2127 0.998677 12.0087 1.00106 11.8072 1.00106H8.84673H5.13346H2.5033C2.20945 1.00106 1.9423 0.991535 1.66301 1.11296C1.25258 1.29152 1.00728 1.70339 1 2.13434V2.22958V3.71762V6.53179V10.0816V13.7648V17.0123V19.217V19.7527V19.8408C1.00971 20.3431 1.32786 20.7741 1.80872 20.9407C2.02972 21.0169 2.28473 20.9979 2.51543 20.9979H3.59614H7.02285H10.5856C11.1976 20.9979 11.8096 21.0026 12.4216 20.9979C12.8247 20.9955 13.1842 20.8027 13.41 20.4765C13.5557 20.2646 13.6043 20.0169 13.6043 19.767V18.667V15.2314V14.5362C13.6043 14.2862 13.3809 14.0481 13.1186 14.06C12.8514 14.0672 12.6304 14.2648 12.6304 14.5314L12.6304 14.5313Z"/>
</mask>
<path d="M12.6304 14.5313V16.8884V19.7478V19.8335V19.8383V19.8549C12.628 19.9311 12.5988 19.8859 12.6352 19.843C12.6304 19.8478 12.6207 19.893 12.6182 19.9049C12.6012 20.0002 12.6595 19.8525 12.6255 19.8954C12.611 19.9144 12.5964 19.943 12.5867 19.9644C12.5454 20.043 12.6547 19.9049 12.5842 19.9668C12.5697 19.9811 12.5527 19.9954 12.5381 20.0097C12.4725 20.0763 12.5988 19.9906 12.5478 20.0025C12.5381 20.0049 12.4847 20.0478 12.4774 20.0406C12.4652 20.0287 12.5794 20.0121 12.5041 20.0287C12.4944 20.0311 12.4822 20.0335 12.4725 20.0382C12.4288 20.0478 12.4288 20.0478 12.4725 20.043C12.4822 20.043 12.4944 20.0406 12.5041 20.0406C12.4822 20.043 12.4604 20.043 12.4361 20.043H12.4337H12.39H11.7246H8.77141H5.09455H2.50814H2.23128H2.17057H2.16085C2.14142 20.043 2.10985 20.0359 2.09285 20.0406C2.18028 20.0263 2.16571 20.0525 2.10985 20.0359C2.09528 20.0311 2.07828 20.0263 2.06371 20.0216C2.12442 20.0478 2.13899 20.0525 2.10499 20.0382C2.09771 20.0311 2.03457 20.0073 2.037 19.9978C2.03943 19.9882 2.11228 20.0668 2.05885 20.0144C2.04185 19.9978 2.02243 19.9716 2.003 19.9597C1.95685 19.9311 2.054 20.0525 2.01028 19.9692C2.00057 19.9502 1.98843 19.9311 1.97871 19.9144C1.92528 19.8287 1.99571 19.9859 1.98357 19.9263C1.98114 19.9192 1.95928 19.8502 1.96171 19.8478C1.95928 19.8478 1.969 19.9692 1.96657 19.843V19.8287V19.7049V18.1693V15.3575V11.8672V8.21975V5.02464V2.80568V2.25095V2.13905V2.13191V2.12953V2.0962C1.96657 1.9962 1.935 2.18667 1.969 2.0962C1.96657 2.10096 1.986 2.03668 1.98843 2.03668C1.98114 2.05572 1.97143 2.07477 1.96414 2.09382C1.97386 2.07477 1.98357 2.0581 1.99328 2.03906C1.99814 2.03191 2.02486 1.98668 2.02728 1.98668C2.05157 1.9962 1.952 2.06049 2.01271 2.01287C2.02 2.00573 2.10014 1.94383 2.03457 1.98906C1.969 2.03668 2.054 1.97954 2.06371 1.97478C2.05886 1.97716 2.11714 1.94382 2.11957 1.9462C2.05157 1.97239 2.04428 1.97716 2.09286 1.96049C2.10257 1.95811 2.11471 1.95573 2.12443 1.95335C2.224 1.91763 2.01757 1.95097 2.12686 1.95097H2.16085H2.16328H2.18028H2.25071H2.54214H3.62769H6.99614H10.5248C11.1514 1.95097 11.778 1.94859 12.4021 1.95097H12.4361C12.5648 1.95335 12.4385 1.9462 12.4385 1.9462C12.441 1.94144 12.509 1.96525 12.5163 1.96525C12.5697 1.96287 12.4215 1.91049 12.5041 1.95811C12.5211 1.96763 12.5405 1.97954 12.56 1.98906C12.645 2.03192 12.5211 1.9343 12.5503 1.97954C12.5551 1.98668 12.6085 2.02953 12.6061 2.0343C12.5673 1.98192 12.5575 1.97001 12.5794 1.99858C12.5891 2.01049 12.5964 2.02477 12.6061 2.03668C12.6037 2.03191 12.6377 2.09144 12.6353 2.09144C12.6255 2.0962 12.6013 1.98192 12.6255 2.07953C12.6401 2.13905 12.6134 2.14143 12.6304 2.06287C12.628 2.07953 12.6328 2.11048 12.6328 2.12953V2.14381V2.24619V3.40806V6.78411V7.46265C12.6328 7.71264 12.8563 7.95073 13.1186 7.93884C13.3808 7.92694 13.6043 7.72933 13.6043 7.46265V5.05801V2.19625C13.6043 1.89151 13.5144 1.62246 13.3153 1.38676C13.0967 1.12963 12.7518 1.00344 12.4167 1.00106C12.2127 0.998677 12.0087 1.00106 11.8072 1.00106H8.84673H5.13346H2.5033C2.20945 1.00106 1.9423 0.991535 1.66301 1.11296C1.25258 1.29152 1.00728 1.70339 1 2.13434V2.22958V3.71762V6.53179V10.0816V13.7648V17.0123V19.217V19.7527V19.8408C1.00971 20.3431 1.32786 20.7741 1.80872 20.9407C2.02972 21.0169 2.28473 20.9979 2.51543 20.9979H3.59614H7.02285H10.5856C11.1976 20.9979 11.8096 21.0026 12.4216 20.9979C12.8247 20.9955 13.1842 20.8027 13.41 20.4765C13.5557 20.2646 13.6043 20.0169 13.6043 19.767V18.667V15.2314V14.5362C13.6043 14.2862 13.3809 14.0481 13.1186 14.06C12.8514 14.0672 12.6304 14.2648 12.6304 14.5314L12.6304 14.5313Z" fill="#525252"/>
<path d="M12.6304 14.5313V16.8884V19.7478V19.8335V19.8383V19.8549C12.628 19.9311 12.5988 19.8859 12.6352 19.843C12.6304 19.8478 12.6207 19.893 12.6182 19.9049C12.6012 20.0002 12.6595 19.8525 12.6255 19.8954C12.611 19.9144 12.5964 19.943 12.5867 19.9644C12.5454 20.043 12.6547 19.9049 12.5842 19.9668C12.5697 19.9811 12.5527 19.9954 12.5381 20.0097C12.4725 20.0763 12.5988 19.9906 12.5478 20.0025C12.5381 20.0049 12.4847 20.0478 12.4774 20.0406C12.4652 20.0287 12.5794 20.0121 12.5041 20.0287C12.4944 20.0311 12.4822 20.0335 12.4725 20.0382C12.4288 20.0478 12.4288 20.0478 12.4725 20.043C12.4822 20.043 12.4944 20.0406 12.5041 20.0406C12.4822 20.043 12.4604 20.043 12.4361 20.043H12.4337H12.39H11.7246H8.77141H5.09455H2.50814H2.23128H2.17057H2.16085C2.14142 20.043 2.10985 20.0359 2.09285 20.0406C2.18028 20.0263 2.16571 20.0525 2.10985 20.0359C2.09528 20.0311 2.07828 20.0263 2.06371 20.0216C2.12442 20.0478 2.13899 20.0525 2.10499 20.0382C2.09771 20.0311 2.03457 20.0073 2.037 19.9978C2.03943 19.9882 2.11228 20.0668 2.05885 20.0144C2.04185 19.9978 2.02243 19.9716 2.003 19.9597C1.95685 19.9311 2.054 20.0525 2.01028 19.9692C2.00057 19.9502 1.98843 19.9311 1.97871 19.9144C1.92528 19.8287 1.99571 19.9859 1.98357 19.9263C1.98114 19.9192 1.95928 19.8502 1.96171 19.8478C1.95928 19.8478 1.969 19.9692 1.96657 19.843V19.8287V19.7049V18.1693V15.3575V11.8672V8.21975V5.02464V2.80568V2.25095V2.13905V2.13191V2.12953V2.0962C1.96657 1.9962 1.935 2.18667 1.969 2.0962C1.96657 2.10096 1.986 2.03668 1.98843 2.03668C1.98114 2.05572 1.97143 2.07477 1.96414 2.09382C1.97386 2.07477 1.98357 2.0581 1.99328 2.03906C1.99814 2.03191 2.02486 1.98668 2.02728 1.98668C2.05157 1.9962 1.952 2.06049 2.01271 2.01287C2.02 2.00573 2.10014 1.94383 2.03457 1.98906C1.969 2.03668 2.054 1.97954 2.06371 1.97478C2.05886 1.97716 2.11714 1.94382 2.11957 1.9462C2.05157 1.97239 2.04428 1.97716 2.09286 1.96049C2.10257 1.95811 2.11471 1.95573 2.12443 1.95335C2.224 1.91763 2.01757 1.95097 2.12686 1.95097H2.16085H2.16328H2.18028H2.25071H2.54214H3.62769H6.99614H10.5248C11.1514 1.95097 11.778 1.94859 12.4021 1.95097H12.4361C12.5648 1.95335 12.4385 1.9462 12.4385 1.9462C12.441 1.94144 12.509 1.96525 12.5163 1.96525C12.5697 1.96287 12.4215 1.91049 12.5041 1.95811C12.5211 1.96763 12.5405 1.97954 12.56 1.98906C12.645 2.03192 12.5211 1.9343 12.5503 1.97954C12.5551 1.98668 12.6085 2.02953 12.6061 2.0343C12.5673 1.98192 12.5575 1.97001 12.5794 1.99858C12.5891 2.01049 12.5964 2.02477 12.6061 2.03668C12.6037 2.03191 12.6377 2.09144 12.6353 2.09144C12.6255 2.0962 12.6013 1.98192 12.6255 2.07953C12.6401 2.13905 12.6134 2.14143 12.6304 2.06287C12.628 2.07953 12.6328 2.11048 12.6328 2.12953V2.14381V2.24619V3.40806V6.78411V7.46265C12.6328 7.71264 12.8563 7.95073 13.1186 7.93884C13.3808 7.92694 13.6043 7.72933 13.6043 7.46265V5.05801V2.19625C13.6043 1.89151 13.5144 1.62246 13.3153 1.38676C13.0967 1.12963 12.7518 1.00344 12.4167 1.00106C12.2127 0.998677 12.0087 1.00106 11.8072 1.00106H8.84673H5.13346H2.5033C2.20945 1.00106 1.9423 0.991535 1.66301 1.11296C1.25258 1.29152 1.00728 1.70339 1 2.13434V2.22958V3.71762V6.53179V10.0816V13.7648V17.0123V19.217V19.7527V19.8408C1.00971 20.3431 1.32786 20.7741 1.80872 20.9407C2.02972 21.0169 2.28473 20.9979 2.51543 20.9979H3.59614H7.02285H10.5856C11.1976 20.9979 11.8096 21.0026 12.4216 20.9979C12.8247 20.9955 13.1842 20.8027 13.41 20.4765C13.5557 20.2646 13.6043 20.0169 13.6043 19.767V18.667V15.2314V14.5362C13.6043 14.2862 13.3809 14.0481 13.1186 14.06C12.8514 14.0672 12.6304 14.2648 12.6304 14.5314L12.6304 14.5313Z" stroke="#525252" stroke-width="0.4" mask="url(#path-1-outside-1_4_10823)"/>
<path d="M6.32992 11.5718H7.7409H11.1287H15.2258H18.769C18.9585 11.5718 19.149 11.5731 19.3399 11.5745C19.7233 11.5771 20.1087 11.5798 20.4919 11.5718H20.5151C20.8179 11.5718 21.116 11.314 21.1008 10.9909C21.0864 10.6859 20.8459 10.4195 20.5151 10.4195H19.1042H15.7163H11.6193H8.07604C7.88658 10.4195 7.69611 10.4181 7.50515 10.4168C7.12173 10.4142 6.73633 10.4115 6.35317 10.4195H6.32992C6.02712 10.4195 5.72907 10.6773 5.7443 11.0004L5.84419 10.9956L5.74426 10.9994C5.75583 11.3057 5.99721 11.5718 6.32992 11.5718Z" fill="#525252" stroke="#525252" stroke-width="0.2"/>
<path d="M16.5539 7.89561L16.5473 7.90196L16.6211 7.97433L17.7941 9.12428L19.6641 10.9575L19.6798 10.973L18.9233 11.7146L17.0534 13.5479L16.6211 13.9717C16.4054 14.1831 16.3817 14.5742 16.6244 14.7914C16.8528 14.9957 17.2141 15.0179 17.4484 14.7883L17.4484 14.7883L20.9237 11.3813C21.1479 11.1615 21.151 10.7875 20.9237 10.5647L20.8537 10.6361L20.9237 10.5647L19.7507 9.41472L17.8807 7.58148L17.4484 7.15769C17.2337 6.94715 16.8383 6.92427 16.6179 7.16096L16.6179 7.16097C16.4311 7.36164 16.3927 7.66791 16.5539 7.89561Z" fill="#525252" stroke="#525252" stroke-width="0.2"/>
</svg>
