<svg width="38" height="38" viewBox="0 0 38 38" fill="none" xmlns="http://www.w3.org/2000/svg">
<path d="M19 38C29.4934 38 38 29.4934 38 19C38 8.50659 29.4934 0 19 0C8.50659 0 0 8.50659 0 19C0 29.4934 8.50659 38 19 38Z" fill="white"/>
<path fill-rule="evenodd" clip-rule="evenodd" d="M15.9853 19.5171L9.97168 25.7207C10.1527 25.8098 10.3522 25.8574 10.5566 25.8574H26.8421C27.0466 25.8574 27.2461 25.8098 27.4271 25.7207L21.4135 19.5171L20.2988 20.6674C19.8744 21.1048 19.299 21.3507 18.6992 21.3507C18.0994 21.3507 17.524 21.1048 17.0996 20.6674L15.9853 19.5171Z" fill="#F38328"/>
<path fill-rule="evenodd" clip-rule="evenodd" d="M28.0678 12.6533C28.1541 12.84 28.2003 13.0458 28.2003 13.2568V24.4568C28.2003 24.6677 28.1541 24.8735 28.0678 25.0602L22.0542 18.8566L28.0678 12.6533Z" fill="#F38328"/>
<path fill-rule="evenodd" clip-rule="evenodd" d="M9.33273 12.6533L15.3463 18.8569L9.33273 25.0605C9.24639 24.8738 9.2002 24.668 9.2002 24.4571V13.2571C9.2002 13.0461 9.24639 12.8404 9.33273 12.6536V12.6533Z" fill="#F38328"/>
<path fill-rule="evenodd" clip-rule="evenodd" d="M27.4275 11.9941C27.2465 11.9051 27.0471 11.8574 26.8426 11.8574H10.5571C10.3527 11.8574 10.1532 11.9051 9.97217 11.9941L17.7403 20.0074C17.9946 20.2702 18.3398 20.4175 18.6999 20.4175C19.0599 20.4175 19.4051 20.2702 19.6594 20.0074L27.4275 11.9941Z" fill="#F38328"/>
</svg>
