<svg width="85" height="124" viewBox="0 0 85 124" fill="none" xmlns="http://www.w3.org/2000/svg">
<path fill-rule="evenodd" clip-rule="evenodd" d="M27.5356 79.1813C24.2248 75.3459 21.5208 71.0279 19.5173 66.377C11.2406 71.8973 11.4671 76.3615 20.1967 79.7696C22.7992 86.2383 25.2455 86.0422 27.5356 79.1813Z" fill="#F38328"/>
<g opacity="0.5">
<path fill-rule="evenodd" clip-rule="evenodd" d="M25.3198 77.0225C25.5226 76.8848 24.6815 74.4579 22.7295 73.4235C22.1249 73.132 21.4916 72.9039 20.8397 72.743C20.1626 72.5602 19.4712 72.4351 18.7729 72.3689C19.9742 72.7579 21.1114 73.3217 22.1478 74.0421C24.2938 75.5383 25.1456 77.1423 25.3198 77.0225Z" fill="white"/>
</g>
<g opacity="0.5">
<path fill-rule="evenodd" clip-rule="evenodd" d="M19.1426 66.6292C17.6858 67.6713 16.3232 68.8386 15.0701 70.1176C14.3988 70.7137 13.9097 71.4868 13.6593 72.3481C13.4952 73.0457 13.511 73.7734 13.7052 74.4632L14.1914 73.1649C14.6582 72.2864 15.223 71.4633 15.875 70.7114C16.9619 69.4635 18.2716 68.428 19.7375 67.6576C19.7666 67.4446 19.724 67.228 19.6163 67.0418C19.5086 66.8556 19.342 66.7105 19.1426 66.6292Z" fill="white"/>
</g>
<path d="M23.8047 84.9549C23.8464 84.9566 23.8885 84.9566 23.9306 84.9549C25.4331 84.9095 26.7219 83.1214 27.9906 79.3306C28.017 79.2514 28.0221 79.1665 28.0055 79.0847C27.9889 79.0028 27.951 78.9267 27.8958 78.8639C24.6214 75.0627 21.9452 70.7865 19.9591 66.1821C19.9077 66.0662 19.8123 65.9755 19.694 65.9297C19.5756 65.884 19.4439 65.887 19.3277 65.938C19.3024 65.9494 19.2781 65.9627 19.2549 65.978C14.7866 68.956 12.7474 71.617 13.0185 74.1163C13.2719 76.4455 15.5015 78.4164 19.8298 80.1378C21.1558 83.3685 22.4221 84.9067 23.8047 84.9549ZM26.994 79.2886C25.6035 83.3413 24.4634 83.9825 23.9019 83.9998C23.3526 84.0187 22.2038 83.4656 20.642 79.5905C20.6176 79.5299 20.581 79.4748 20.5345 79.4289C20.488 79.3829 20.4326 79.3469 20.3716 79.3231C16.3395 77.7477 14.1841 75.9612 13.972 74.0127C13.7537 72.0136 15.5504 69.6864 19.3149 67.0918C21.2742 71.5046 23.8604 75.6124 26.994 79.2886Z" fill="#000072"/>
<path d="M25.1471 75.4947C24.8175 74.9771 24.4455 74.4875 24.0349 74.0312C23.6199 73.562 23.1435 73.1506 22.6186 72.8082C22.0836 72.4547 21.4831 72.2117 20.8525 72.0937C20.2246 71.9866 19.5798 72.039 18.9775 72.2461C18.9329 72.2609 18.8953 72.2916 18.8719 72.3324C18.8486 72.3731 18.8411 72.421 18.8509 72.4669C18.8607 72.5129 18.8872 72.5535 18.9252 72.5812C18.9632 72.6089 19.0101 72.6216 19.0569 72.6169C19.6136 72.5618 20.1756 72.6014 20.7191 72.7339C21.2521 72.8689 21.7551 73.1024 22.202 73.4223C22.6563 73.7533 23.0708 74.1354 23.4373 74.5613C23.8104 74.9963 24.1577 75.4528 24.4774 75.9284V75.9333C24.5357 76.0218 24.627 76.0837 24.731 76.1051C24.835 76.1266 24.9433 76.1059 25.0321 76.0477C25.1209 75.9895 25.1828 75.8984 25.2043 75.7946C25.2258 75.6907 25.2051 75.5826 25.1468 75.4941L25.1471 75.4947Z" fill="#000072"/>
<g opacity="0.25">
<path fill-rule="evenodd" clip-rule="evenodd" d="M20.1965 79.7688C19.4902 78.9279 18.8112 79.0804 17.4421 78.4216C15.9446 77.78 14.7349 76.6127 14.0417 75.1407C13.7976 74.493 13.6981 73.7999 13.7503 73.1099C14.2607 74.2378 15.0626 75.2098 16.0737 75.9261C17.4116 76.8503 19.0263 77.2889 20.6489 77.1691C21.1486 77.1564 21.6434 77.2682 22.089 77.4942C22.5345 77.7202 22.9166 78.0533 23.2009 78.4636C23.2588 78.6296 23.3269 78.7919 23.4047 78.9496C24.091 80.3237 25.2532 80.388 26.8913 79.1427C26.5992 82.2722 25.2808 84.4235 24.0507 84.4651C22.7109 84.5106 21.2869 82.0612 20.9948 81.558C20.5289 80.7529 20.69 80.3522 20.1965 79.7688Z" fill="#000072"/>
</g>
<path fill-rule="evenodd" clip-rule="evenodd" d="M49.2623 87.0934C84.3826 59.5299 68.2055 25.111 42.7179 31.7025C-6.92453 21.9264 26.2601 105.143 49.2623 87.0934Z" fill="#F38328"/>
<g opacity="0.5">
<path fill-rule="evenodd" clip-rule="evenodd" d="M59.7897 33.9236C55.1851 31.0216 49.2601 30.0076 42.7191 31.698C24.846 28.1795 17.7074 36.7151 16.9731 48.2369C17.4546 48.1635 17.9489 48.0839 18.456 47.9981C18.6688 45.4868 19.4377 43.054 20.7071 40.8754C21.9765 38.6968 23.7148 36.8267 25.7964 35.4002C25.8864 35.3383 25.9764 35.2787 26.0678 35.2192C25.813 35.4835 25.6978 35.7258 25.7754 35.8986C25.9557 36.3 27.1124 36.1719 28.358 35.6116C29.6037 35.0512 30.4658 34.2729 30.2855 33.8706C30.1572 33.5876 29.5409 33.568 28.7495 33.7807C32.3749 32.2344 36.4253 31.99 40.2109 33.0892C40.951 32.7373 41.7545 32.5379 42.5735 32.503C43.3925 32.468 44.2102 32.5982 44.9776 32.8858C49.9198 31.902 55.036 32.2598 59.7925 33.9219" fill="white"/>
</g>
<path d="M42.2688 90.1415C41.8808 90.1417 41.4931 90.1218 41.1073 90.082C38.0332 89.6546 35.1453 88.3604 32.7827 86.3515C27.099 81.8769 21.9195 73.7881 18.9282 64.7101C15.77 55.1264 15.5969 46.0763 18.4533 39.8803C21.0398 34.2698 27.3483 28.2197 42.7043 31.2088C53.2267 28.5322 62.9421 32.6933 67.476 41.8302C70.5049 47.9329 70.7764 55.4675 68.2402 63.0459C65.3434 71.7053 58.8824 80.15 49.5595 87.4674C47.5083 89.1668 44.9343 90.1109 42.2688 90.1415ZM35.2053 31.3826C27.4652 31.3826 22.0382 34.3951 19.3248 40.2809C16.568 46.2598 16.7549 55.0545 19.839 64.4113C22.7738 73.3162 27.8339 81.2373 33.3762 85.6001C37.2503 88.6505 43.1012 91.3194 48.9666 86.7147C58.1431 79.5129 64.4961 71.2238 67.3312 62.7416C69.7831 55.4045 69.5331 48.1288 66.6177 42.2536C62.2776 33.5108 52.9446 29.548 42.8392 32.1615C42.7697 32.1795 42.6971 32.1817 42.6267 32.1681C40.1845 31.6673 37.6994 31.4043 35.2063 31.3826H35.2053Z" fill="#000072"/>
<path fill-rule="evenodd" clip-rule="evenodd" d="M34.579 25.5258C39.5181 26.2087 41.4445 28.5124 40.5658 31.3246C41.2656 31.429 41.9833 31.5535 42.7188 31.698C43.3145 31.5441 43.9046 31.4125 44.4893 31.3032C43.2575 27.3876 48.2179 26.0008 50.6068 22.6472C52.6549 18.9515 51.3134 14.2986 47.6106 12.2543C46.2625 11.5102 44.7209 11.1889 43.1871 11.3326C38.8912 -9.99842 15.2809 5.54443 29.4668 12.1834C35.1784 14.8558 37.998 16.1693 40.5589 21.9244C39.4311 19.7456 37.4862 18.1001 35.148 17.3465C34.3628 17.1623 33.5409 17.21 32.7824 17.4835C32.0238 17.7571 31.3612 18.2448 30.8752 18.8873C30.3893 19.5299 30.1009 20.2995 30.0452 21.1026C29.9895 21.9058 30.1688 22.7077 30.5614 23.411C31.3611 24.8501 32.9468 25.3007 34.579 25.5258Z" fill="#78C44A"/>
<g opacity="0.5">
<path fill-rule="evenodd" clip-rule="evenodd" d="M35.2855 17.3949L35.1455 17.3491C34.3603 17.165 33.5384 17.2126 32.7798 17.4862C32.0212 17.7597 31.3587 18.2474 30.8727 18.89C30.3868 19.5325 30.0984 20.3021 30.0427 21.1053C29.9869 21.9084 30.1663 22.7104 30.5589 23.4136C30.8791 23.9835 31.3553 24.4507 31.9318 24.7605C32.2476 24.7151 32.5582 24.6383 32.8587 24.5312C32.2922 24.0063 31.9019 23.3194 31.7415 22.5646C31.581 21.8098 31.6582 21.024 31.9624 20.3146C32.2665 19.6053 32.7829 19.007 33.4408 18.6018C34.0987 18.1966 34.866 18.0042 35.6376 18.0509C35.5357 17.8241 35.4164 17.6054 35.2807 17.3969" fill="white"/>
</g>
<g opacity="0.5">
<path fill-rule="evenodd" clip-rule="evenodd" d="M50.7843 22.3033C52.6417 18.5061 51.0633 13.9268 47.2619 12.0736C45.9968 11.4574 44.5861 11.2008 43.1846 11.3318C39.3349 -7.79142 19.9627 2.72467 26.2174 9.88858C26.394 9.89385 26.5718 9.89385 26.7509 9.88858C25.3846 1.70239 37.2882 -1.4185 42.519 11.791C42.7242 11.8687 42.9355 11.929 43.1508 11.9713C47.6685 12.772 50.6808 17.0766 49.8783 21.5856C49.7695 22.1985 49.5916 22.7972 49.3483 23.3703C49.8445 23.0396 50.3233 22.6835 50.7826 22.3033" fill="white"/>
</g>
<path d="M42.7182 32.177C42.687 32.1771 42.6558 32.1741 42.6251 32.168C41.8992 32.0252 41.1822 31.9006 40.4942 31.7987C40.4257 31.7886 40.3602 31.7639 40.3022 31.7261C40.2442 31.6883 40.1951 31.6383 40.1583 31.5798C40.1216 31.5212 40.098 31.4553 40.0892 31.3867C40.0805 31.3181 40.0868 31.2485 40.1076 31.1826C40.2696 30.7461 40.3303 30.2787 40.2853 29.8154C40.2402 29.3521 40.0906 28.905 39.8476 28.5078C39.0416 27.2383 37.197 26.3737 34.5129 26.0009C32.8742 25.7741 31.0729 25.3173 30.1401 23.6466C29.7021 22.8623 29.502 21.9678 29.5641 21.0721C29.6262 20.1763 29.9479 19.3179 30.49 18.6013C31.032 17.8847 31.7711 17.3409 32.6172 17.0359C33.4634 16.7309 34.3801 16.6781 35.2558 16.8837L35.2934 16.8943C36.1539 17.1712 36.9721 17.565 37.725 18.0646C35.7496 15.6552 33.2707 14.4949 29.2862 12.6307L29.2617 12.6193C25.6948 10.9493 24.0047 8.44759 24.6258 5.75455C25.3703 2.52661 29.2469 -0.05354 33.2542 0.000844178C35.6744 0.0352645 41.4702 1.16666 43.5683 10.8254C48.0611 10.6429 51.8519 14.1297 52.0346 18.615C52.0951 20.102 51.7455 21.577 51.0238 22.8794C51.0152 22.8945 51.0059 22.909 50.9959 22.9234C50.0876 24.09 49.0242 25.1277 47.8353 26.0078C45.8282 27.6393 44.239 28.9232 44.947 31.1609C44.9659 31.2208 44.9728 31.2838 44.9673 31.3463C44.9618 31.4089 44.944 31.4697 44.9149 31.5254C44.8858 31.5811 44.8461 31.6305 44.7978 31.6709C44.7496 31.7112 44.6939 31.7416 44.6339 31.7605C44.6157 31.7663 44.5972 31.7708 44.5784 31.7743C44.0063 31.882 43.421 32.0124 42.8399 32.1629C42.8001 32.1727 42.7592 32.1775 42.7182 32.177ZM41.1601 30.9337C41.6653 31.0153 42.182 31.1058 42.7034 31.2091C43.1024 31.1079 43.5021 31.0156 43.8983 30.9337C43.3883 28.3835 45.3392 26.8002 47.2297 25.2657C48.3421 24.4425 49.3403 23.4758 50.1982 22.3909C52.105 18.9196 50.8314 14.5627 47.3535 12.6593C46.0952 11.9709 44.6593 11.6745 43.2307 11.8081C43.1124 11.8198 42.9939 11.7872 42.8983 11.7167C42.8028 11.6461 42.7368 11.5427 42.7134 11.4263C40.8335 2.07019 35.4606 0.984233 33.239 0.956697C29.7132 0.911606 26.1959 3.20228 25.5559 5.96795C25.0386 8.21457 26.4966 10.2705 29.6649 11.7506L29.6894 11.7619C35.4637 14.4639 38.3619 15.8204 40.9911 21.7307C41.0229 21.7877 41.0426 21.8506 41.049 21.9154C41.0555 21.9803 41.0487 22.0458 41.0288 22.1079C41.009 22.17 40.9767 22.2274 40.9339 22.2766C40.891 22.3258 40.8386 22.3657 40.7797 22.3939C40.7208 22.4221 40.6568 22.438 40.5915 22.4406C40.5263 22.4432 40.4612 22.4325 40.4002 22.4091C40.3393 22.3856 40.2838 22.35 40.2372 22.3044C40.1905 22.2588 40.1537 22.2041 40.129 22.1438C39.0674 20.0792 37.2284 18.5194 35.0157 17.8068C34.3215 17.6463 33.5955 17.6905 32.9259 17.934C32.2564 18.1776 31.6721 18.61 31.2442 19.1788C30.8162 19.7475 30.563 20.4281 30.5154 21.1378C30.4677 21.8475 30.6276 22.5557 30.9757 23.1764C31.704 24.4816 33.2383 24.8544 34.6433 25.0527C37.616 25.4605 39.6952 26.4811 40.6563 27.9952C41.2047 28.8695 41.3862 29.9241 41.1615 30.931L41.1601 30.9337Z" fill="#000072"/>
<path fill-rule="evenodd" clip-rule="evenodd" d="M14.8722 52.8028C14.9243 53.6581 15.1907 54.4866 15.6471 55.2123C24.081 50.5519 33.5966 48.1924 43.2351 48.3714C52.8736 48.5504 62.2946 51.2616 70.549 56.2318C70.918 55.4959 71.1218 54.6886 71.1463 53.8661C62.7561 48.5802 53.0765 45.6871 43.1564 45.5001C33.2364 45.3132 23.4542 47.8396 14.8701 52.8056" fill="white"/>
<g opacity="0.5">
<path fill-rule="evenodd" clip-rule="evenodd" d="M62.3044 46.1454C47.4681 40.085 31.7983 40.2595 16.9596 48.3634C16.2673 48.8699 15.7134 49.5418 15.3488 50.3174C14.9842 51.093 14.8205 51.9476 14.8728 52.8027C14.925 53.6579 15.1915 54.4863 15.6478 55.212C16.1041 55.9376 16.7357 56.5373 17.4845 56.9561C19.9365 55.8962 22.455 54.997 25.0242 54.2641C18.6401 55.6581 14.2838 52.0956 18.6098 49.4394C30.4437 42.175 46.2166 42.3423 63.289 47.4C62.9705 46.9734 62.6436 46.5558 62.3082 46.1471" fill="white"/>
</g>
<path d="M67.977 58.608C67.9073 58.6075 67.8387 58.5908 67.7767 58.5591C60.2818 54.6926 52.0039 52.5785 43.5695 52.3767C35.1351 52.175 26.7652 53.8909 19.0933 57.3946C19.0292 57.4241 18.9589 57.4376 18.8885 57.434C18.818 57.4303 18.7495 57.4096 18.6888 57.3736C17.8964 56.8986 17.2336 56.2357 16.7593 55.4438C16.285 54.652 16.0137 53.7555 15.9696 52.8339C15.908 51.9095 16.0738 50.9841 16.4524 50.1382C16.8311 49.2923 17.4112 48.5517 18.1422 47.9807C18.1583 47.9681 18.1753 47.9566 18.1929 47.9463C25.829 43.4381 34.591 41.1876 43.4588 41.4567C51.8044 41.7496 60.2142 44.308 68.4416 49.0608C68.471 49.0787 68.4983 49.1 68.523 49.1241C69.1243 49.7031 69.6054 50.3946 69.939 51.1592C70.2725 51.9238 70.4519 52.7464 70.4669 53.5802C70.4819 54.414 70.3322 55.2425 70.0263 56.0186C69.7205 56.7946 69.2645 57.5029 68.6844 58.103C68.5485 58.2437 68.4062 58.3779 68.2574 58.5057C68.1787 58.5713 68.0796 58.6074 67.977 58.608ZM42.2311 51.4048C51.1564 51.4139 59.9536 53.524 67.9084 57.5636C68.9361 56.5763 69.5288 55.222 69.5563 53.7986C69.5838 52.3751 69.0438 50.9991 68.055 49.9729C68.0205 49.9385 67.986 49.9041 67.9515 49.8697C51.2496 40.2433 34.2065 39.8616 18.6554 48.7682C18.0565 49.2427 17.582 49.8553 17.2727 50.5532C16.9634 51.2511 16.8285 52.0136 16.8797 52.7751C16.9148 53.5014 17.1197 54.2095 17.4781 54.8427C17.8364 55.4759 18.3382 56.0166 18.9433 56.4216C26.263 53.122 34.2016 51.4125 42.2332 51.4062L42.2311 51.4048Z" fill="#000072"/>
<path fill-rule="evenodd" clip-rule="evenodd" d="M61.0411 90.8936C58.554 88.2921 58.2981 82.6038 57.8201 79.199C55.1925 82.0629 52.3299 84.7027 49.262 87.0909C48.4887 87.7044 47.6474 88.2274 46.7545 88.6494C46.7263 92.5603 47.6408 94.5083 49.4983 94.4937L59.7524 94.3398C60.1807 94.4074 60.6194 94.3251 60.9939 94.1068C61.3685 93.8885 61.6559 93.5477 61.8075 93.1421C61.9591 92.7365 61.9655 92.2911 61.8257 91.8813C61.6859 91.4715 61.4085 91.1226 61.0404 90.8936H61.0411Z" fill="#F38328"/>
<g opacity="0.5">
<path fill-rule="evenodd" clip-rule="evenodd" d="M61.042 90.8936C58.6359 88.3772 58.3176 82.9742 57.8692 79.5408C57.4123 79.8104 56.9883 80.1321 56.6057 80.4994C56.3663 84.1071 57.1733 87.7072 58.93 90.8692C60.4449 92.5698 60.4624 93.7304 58.9824 94.3512L59.7556 94.3398C60.1842 94.4078 60.6231 94.3257 60.9979 94.1075C61.3727 93.8893 61.6604 93.5484 61.8121 93.1426C61.9637 92.7368 61.9701 92.2912 61.83 91.8813C61.69 91.4713 61.4121 91.1224 61.0437 90.8936" fill="white"/>
</g>
<path d="M49.4823 94.9731C49.1444 94.9809 48.8085 94.9199 48.4951 94.7936C48.1817 94.6674 47.8974 94.4786 47.6597 94.2389C46.7075 93.2885 46.2547 91.4605 46.2751 88.6483C46.2755 88.5579 46.3017 88.4695 46.3506 88.3934C46.3994 88.3173 46.4689 88.2566 46.551 88.2184C47.4103 87.8112 48.2202 87.3073 48.965 86.7167C52.0112 84.3438 54.8544 81.7222 57.4651 78.8788C57.5264 78.8116 57.6055 78.7631 57.6933 78.7391C57.7811 78.7151 57.874 78.7166 57.961 78.7434C58.048 78.7701 58.1256 78.8211 58.1846 78.8902C58.2437 78.9594 58.2818 79.0439 58.2945 79.1339C58.3714 79.6805 58.4418 80.2825 58.517 80.9189C58.8898 84.0949 59.3998 88.437 61.3507 90.5253C61.7934 90.8218 62.1226 91.2591 62.2847 91.766C62.4469 92.2729 62.4324 92.8197 62.2438 93.3174C62.0551 93.8151 61.7033 94.2345 61.2456 94.5073C60.7878 94.7802 60.2511 94.8905 59.7226 94.8202L49.5061 94.9738L49.4823 94.9731ZM47.2331 88.9495C47.2462 91.2901 47.6166 92.839 48.3367 93.5601C48.4878 93.7114 48.6686 93.8301 48.8677 93.9085C49.0668 93.987 49.28 94.0236 49.494 94.0162L59.7457 93.8634C59.773 93.8631 59.8004 93.865 59.8274 93.8689C60.1461 93.9173 60.4716 93.8547 60.7495 93.6917C61.0274 93.5288 61.2406 93.2753 61.3532 92.9739C61.4659 92.6725 61.4712 92.3416 61.3683 92.0368C61.2653 91.732 61.0604 91.4718 60.7879 91.3001C60.7547 91.2792 60.7243 91.2543 60.6972 91.2261C58.4901 88.9223 57.9804 84.5485 57.5676 81.0287C57.5374 80.7708 57.5078 80.5197 57.4786 80.2756C55.0228 82.8664 52.3762 85.2702 49.5609 87.4667C48.8374 88.0385 48.0577 88.5356 47.2338 88.9505L47.2331 88.9495Z" fill="#000072"/>
<path fill-rule="evenodd" clip-rule="evenodd" d="M27.708 80.4739C27.2994 83.888 26.8459 88.595 24.6494 90.8936C24.2813 91.1226 24.0038 91.4716 23.864 91.8814C23.7242 92.2912 23.7307 92.7367 23.8823 93.1423C24.034 93.5479 24.3215 93.8887 24.6961 94.107C25.0707 94.3252 25.5094 94.4075 25.9378 94.3398L36.1926 94.494C37.9675 94.5075 38.8816 92.7291 38.935 89.1588C34.9608 87.9706 31.0794 84.7888 27.708 80.4739Z" fill="#F38328"/>
<g opacity="0.5">
<path fill-rule="evenodd" clip-rule="evenodd" d="M27.6231 81.1965C27.2306 84.5257 26.6954 88.7556 24.6487 90.8952C24.2802 91.1239 24.0024 91.4728 23.8623 91.8828C23.7223 92.2927 23.7286 92.7383 23.8803 93.1441C24.0319 93.5499 24.3196 93.8908 24.6944 94.109C25.0692 94.3273 25.5082 94.4093 25.9367 94.3413L26.3357 94.3468C25.3124 93.912 25.235 93.028 26.1036 91.6947C27.176 90.3892 27.9693 88.8783 28.4346 87.2552C28.8999 85.6321 29.0273 83.9311 28.8091 82.257C28.4717 81.8441 28.0718 81.4863 27.6238 81.1965" fill="white"/>
</g>
<path d="M36.2131 94.9725H36.1876L25.967 94.8186C25.4383 94.8896 24.9011 94.7798 24.443 94.5071C23.9848 94.2344 23.6326 93.815 23.4438 93.317C23.2551 92.819 23.2408 92.2719 23.4033 91.7648C23.5658 91.2577 23.8956 90.8205 24.3389 90.5244C26.2898 88.4361 26.7998 84.0936 27.1726 80.918L27.2316 80.4185C27.2427 80.3245 27.2816 80.2358 27.3434 80.1638C27.4051 80.0918 27.4868 80.0398 27.5783 80.0143C27.6697 79.9887 27.7666 79.9909 27.8568 80.0205C27.947 80.05 28.0263 80.1057 28.0848 80.1804C31.5837 84.655 35.3827 87.6041 39.0696 88.7011C39.1696 88.7311 39.2571 88.7929 39.3188 88.877C39.3804 88.9611 39.413 89.063 39.4114 89.1672C39.3555 93.0198 38.2799 94.9725 36.2131 94.9725ZM25.9384 93.859H25.9456L36.2007 94.0132H36.2156C37.5998 94.0132 38.3513 92.4987 38.4485 89.5041C34.9337 88.3548 31.3661 85.6584 28.0527 81.6597C27.644 85.0532 27.0719 89.0529 24.9983 91.2203C24.9712 91.2488 24.9408 91.2738 24.9076 91.2947C24.6351 91.4664 24.4301 91.7266 24.3272 92.0314C24.2242 92.3363 24.2295 92.6671 24.3422 92.9685C24.4549 93.2699 24.6681 93.5234 24.9459 93.6864C25.2238 93.8493 25.5494 93.9119 25.868 93.8635C25.8913 93.8603 25.9148 93.8588 25.9384 93.859Z" fill="#000072"/>
<path d="M29.2558 56.2554C29.6684 55.5348 30.2813 54.949 31.0204 54.5688C31.7719 54.1687 32.6103 53.9591 33.462 53.9583C34.3136 53.9574 35.1525 54.1654 35.9047 54.5639C36.6454 54.9426 37.2604 55.5273 37.6752 56.2474L37.7152 56.3204C37.7511 56.3842 37.7624 56.4588 37.747 56.5303C37.7316 56.6019 37.6906 56.6653 37.6316 56.7087C37.5727 56.7522 37.4999 56.7727 37.4269 56.7663C37.3539 56.76 37.2857 56.7272 37.2352 56.6743C36.263 55.6735 34.9324 55.0992 33.5359 55.0776C32.1395 55.056 30.7917 55.589 29.7889 56.5593C29.7524 56.5946 29.7163 56.6305 29.6807 56.667C29.6314 56.7165 29.5661 56.7466 29.4965 56.7519C29.4268 56.7573 29.3576 56.7375 29.3014 56.6961C29.2452 56.6547 29.2058 56.5946 29.1903 56.5266C29.1749 56.4587 29.1844 56.3874 29.2172 56.3259L29.2558 56.2554Z" fill="#000072"/>
<path d="M48.9443 56.5743C49.3569 55.8537 49.9699 55.2679 50.709 54.8877C51.4604 54.4876 52.2988 54.2779 53.1505 54.2771C54.0022 54.2763 54.841 54.4843 55.5933 54.8829C56.3339 55.2618 56.9488 55.8466 57.3638 56.5667L57.4038 56.6394C57.4396 56.7031 57.4509 56.7777 57.4355 56.8492C57.4202 56.9206 57.3792 56.984 57.3203 57.0275C57.2615 57.071 57.1887 57.0915 57.1158 57.0852C57.0428 57.079 56.9747 57.0464 56.9241 56.9935C55.9519 55.9927 54.6213 55.4183 53.2249 55.3967C51.8284 55.3751 50.4806 55.908 49.4778 56.8782C49.4409 56.9126 49.4051 56.9495 49.3695 56.986C49.3204 57.0355 49.2551 57.0658 49.1854 57.0713C49.1158 57.0767 49.0465 57.0569 48.9903 57.0155C48.9341 56.9742 48.8946 56.914 48.8792 56.846C48.8638 56.778 48.8735 56.7067 48.9064 56.6452L48.9443 56.5743Z" fill="#000072"/>
<path fill-rule="evenodd" clip-rule="evenodd" d="M38.6162 67.5698C38.8372 68.5247 39.3752 69.3769 40.1428 69.9881C40.9104 70.5993 41.8625 70.9334 42.8444 70.9364C43.8263 70.9393 44.7803 70.6107 45.5516 70.0041C46.3228 69.3975 46.8658 68.5485 47.0926 67.595C44.2823 68.0174 41.4239 68.0089 38.6162 67.5698Z" fill="white"/>
<path d="M42.8552 71.3324H42.8415C41.7686 71.3326 40.7275 70.9688 39.889 70.3009C39.0504 69.633 38.4641 68.7005 38.2262 67.6563C38.2118 67.5929 38.2132 67.5269 38.2302 67.4641C38.2472 67.4014 38.2794 67.3437 38.3238 67.2962C38.3683 67.2486 38.4238 67.2127 38.4854 67.1915C38.547 67.1703 38.6129 67.1644 38.6773 67.1744C41.4447 67.608 44.2623 67.6162 47.0322 67.1989C47.137 67.1832 47.2438 67.2096 47.3291 67.2724C47.4143 67.3352 47.4712 67.4292 47.4871 67.5338C47.495 67.5853 47.4926 67.6378 47.4798 67.6883C47.2353 68.7281 46.6449 69.6544 45.805 70.3163C44.9651 70.9781 43.9253 71.3363 42.8552 71.3324ZM39.1821 68.0522C39.4723 68.7848 39.9766 69.4134 40.6295 69.8562C41.2823 70.2991 42.0535 70.5357 42.8428 70.5353H42.8546C43.6419 70.5379 44.412 70.3047 45.0652 69.8659C45.7184 69.4272 46.2247 68.8029 46.5187 68.0739C44.0834 68.3845 41.618 68.3772 39.1845 68.0522H39.1821Z" fill="#000072"/>
<path d="M39.6105 33.9805C39.5321 33.9806 39.4554 33.9576 39.39 33.9144C39.3247 33.8713 39.2734 33.8099 39.2428 33.7378C39.2121 33.6658 39.2033 33.5864 39.2176 33.5095C39.2318 33.4325 39.2685 33.3615 39.3229 33.3052C40.0471 32.5548 41.53 31.81 43.8406 31.0283C43.8904 31.0115 43.943 31.0047 43.9955 31.0082C44.0479 31.0118 44.0992 31.0256 44.1463 31.0489C44.1934 31.0722 44.2354 31.1045 44.27 31.144C44.3046 31.1835 44.331 31.2295 44.3479 31.2792C44.3647 31.3289 44.3715 31.3815 44.3679 31.4338C44.3644 31.4862 44.3506 31.5373 44.3272 31.5843C44.3039 31.6313 44.2715 31.6733 44.2319 31.7078C44.1923 31.7424 44.1463 31.7688 44.0964 31.7855C41.9352 32.5149 40.5223 33.2133 39.8971 33.8607C39.8598 33.8989 39.8153 33.9292 39.766 33.9498C39.7168 33.9703 39.6639 33.9808 39.6105 33.9805Z" fill="#000072"/>
<path d="M46.3102 34.3156C46.2572 34.3156 46.2048 34.3051 46.1559 34.2847C46.1071 34.2642 46.0628 34.2342 46.0257 34.1965C44.7086 33.0461 43.1234 32.2439 41.4152 31.8635C41.3119 31.8397 41.2223 31.7758 41.1662 31.6861C41.11 31.5963 41.0919 31.488 41.1157 31.3849C41.1396 31.2818 41.2035 31.1923 41.2935 31.1363C41.3834 31.0802 41.492 31.0621 41.5953 31.0859C41.608 31.089 41.6204 31.0925 41.6325 31.0966C43.4749 31.5127 45.1821 32.3869 46.5954 33.6379C46.6505 33.6939 46.6877 33.7648 46.7025 33.8419C46.7174 33.919 46.7091 33.9987 46.6787 34.071C46.6483 34.1434 46.5972 34.2052 46.5318 34.2487C46.4663 34.2922 46.3895 34.3155 46.3109 34.3156H46.3102Z" fill="#000072"/>
<path d="M42.652 33.5435H42.6299C42.5774 33.5409 42.5259 33.5281 42.4784 33.5056C42.4308 33.4831 42.3882 33.4515 42.353 33.4125C42.3177 33.3736 42.2905 33.3281 42.273 33.2786C42.2554 33.2291 42.2478 33.1767 42.2506 33.1243L42.3195 31.8362C42.329 31.7335 42.378 31.6385 42.4561 31.571C42.5343 31.5036 42.6356 31.469 42.7388 31.4744C42.842 31.4799 42.939 31.5251 43.0096 31.6004C43.0801 31.6758 43.1187 31.7755 43.1172 31.8786L43.0482 33.1666C43.0426 33.2679 42.9985 33.3633 42.9249 33.4334C42.8513 33.5034 42.7537 33.5428 42.652 33.5435Z" fill="#000072"/>
<path d="M42.7178 32.176C42.5971 32.1758 42.4809 32.1302 42.3924 32.0483C42.3039 31.9663 42.2497 31.8541 42.2405 31.734C41.6866 24.2689 39.4109 18.9599 35.4788 15.9561C35.3779 15.8789 35.3119 15.7649 35.2952 15.6392C35.2785 15.5135 35.3125 15.3862 35.3898 15.2856C35.4671 15.1849 35.5813 15.1189 35.7073 15.1023C35.8333 15.0856 35.9607 15.1196 36.0616 15.1968C40.2203 18.3734 42.6209 23.914 43.1968 31.6631C43.2015 31.7257 43.1938 31.7886 43.1741 31.8482C43.1545 31.9078 43.1232 31.963 43.0822 32.0105C43.0412 32.0581 42.9912 32.0971 42.935 32.1254C42.8789 32.1537 42.8177 32.1706 42.755 32.1753L42.7178 32.176Z" fill="#000072"/>
<path d="M31.765 6.73313C33.6525 8.16786 35.3411 9.84615 36.7865 11.7241C38.2283 13.609 39.4234 15.6697 40.3427 17.8564C41.2578 20.0423 41.944 22.3169 42.3901 24.6438C42.836 26.9668 43.1058 29.3202 43.1971 31.6837C43.2026 31.8105 43.1573 31.9343 43.0713 32.0278C42.9853 32.1213 42.8657 32.1769 42.7386 32.1823C42.6116 32.1878 42.4876 32.1426 42.3939 32.0568C42.3002 31.971 42.2445 31.8515 42.2391 31.7247V31.713C42.1912 29.3938 41.968 27.0815 41.5714 24.7959C41.1769 22.5133 40.5468 20.2777 39.6913 18.1245C38.8314 15.9725 37.7001 13.9387 36.3247 12.0724C34.94 10.2076 33.3136 8.5343 31.488 7.09627C31.4637 7.07815 31.4432 7.05536 31.4277 7.02924C31.4123 7.00311 31.4022 6.97418 31.3981 6.94413C31.394 6.91408 31.3959 6.88351 31.4038 6.85421C31.4116 6.82491 31.4253 6.79747 31.4439 6.77349C31.4625 6.74952 31.4857 6.72948 31.5122 6.71457C31.5386 6.69965 31.5678 6.69015 31.598 6.68661C31.6282 6.68308 31.6588 6.68559 31.688 6.69399C31.7172 6.70239 31.7444 6.71652 31.7681 6.73554L31.765 6.73313Z" fill="#000072"/>
<path d="M46.236 15.5272C45.8197 21.1148 44.7939 26.6404 43.1768 32.0059C43.1394 32.1272 43.0552 32.2287 42.9429 32.288C42.8305 32.3474 42.6991 32.3598 42.5776 32.3224C42.4561 32.2851 42.3544 32.2011 42.2949 32.0889C42.2355 31.9768 42.2231 31.8456 42.2605 31.7244L42.2643 31.7106C44.0203 26.4448 45.1953 21.0034 45.7684 15.4831C45.7743 15.4212 45.8045 15.3642 45.8525 15.3246C45.9005 15.2849 45.9623 15.2659 46.0243 15.2718C46.0863 15.2776 46.1435 15.3078 46.1832 15.3557C46.2229 15.4036 46.2419 15.4653 46.236 15.5272Z" fill="#000072"/>
<path d="M33.8585 20.5747C35.039 21.0027 36.164 21.57 37.2095 22.2647C38.2618 22.9684 39.2081 23.8183 40.0198 24.7888C40.8306 25.765 41.5089 26.8437 42.0369 27.9971C42.5621 29.1492 42.9673 30.352 43.2463 31.5868C43.2622 31.6486 43.2655 31.7129 43.2561 31.776C43.2467 31.8391 43.2247 31.8997 43.1915 31.9542C43.1583 32.0087 43.1145 32.0561 43.0627 32.0934C43.0108 32.1308 42.9521 32.1574 42.8898 32.1718C42.8275 32.1861 42.7629 32.1879 42.7 32.177C42.637 32.1661 42.5768 32.1427 42.523 32.1082C42.4692 32.0738 42.4229 32.0289 42.3867 31.9763C42.3505 31.9237 42.3253 31.8644 42.3124 31.8019V31.7816C42.0929 30.5972 41.7522 29.4384 41.2958 28.3234C40.8381 27.2104 40.2352 26.1626 39.5025 25.2073C38.7638 24.2502 37.8919 23.4032 36.9133 22.6922C35.9252 21.9789 34.8552 21.3861 33.7261 20.9264C33.7029 20.9174 33.6818 20.9039 33.6639 20.8867C33.6461 20.8695 33.6317 20.849 33.6218 20.8263C33.6118 20.8036 33.6065 20.7792 33.606 20.7544C33.6055 20.7296 33.6099 20.705 33.619 20.6819C33.628 20.6588 33.6416 20.6377 33.6588 20.6199C33.676 20.602 33.6966 20.5877 33.7193 20.5778C33.7421 20.5679 33.7666 20.5625 33.7914 20.562C33.8162 20.5616 33.8409 20.566 33.864 20.575H33.8592L33.8585 20.5747Z" fill="#000072"/>
<g opacity="0.25">
<path d="M32.5668 85.5606C33.3781 86.1867 34.2348 86.7519 35.1298 87.2516C36.9237 88.1468 38.8505 88.7476 40.8359 89.0312L41.0114 89.0401C43.6061 88.616 46.113 87.7676 48.4311 86.5291L48.4956 86.4792C53.5565 82.6039 58.0006 77.9863 61.6769 72.7834C64.3575 67.9601 66.4542 62.8359 67.923 57.5186C68.8449 56.8143 69.5889 55.9044 70.0956 54.8617C70.5035 53.6356 70.4778 52.307 70.0228 51.0975C69.7062 50.4042 69.2986 49.756 68.8107 49.17C68.711 49.0667 68.6089 48.9635 68.5003 48.8664C68.5003 48.8406 68.4927 48.8144 68.4896 48.7852C68.4179 48.7036 68.3465 48.622 68.2706 48.5401C68.2816 48.1516 68.2789 47.7661 68.2623 47.3836C67.4661 42.8818 65.2585 38.7485 61.9576 35.5795C62.1548 35.7222 62.3485 35.8671 62.5387 36.0142C59.2654 33.586 55.4924 31.9141 51.4924 31.1196C57.7941 32.6155 62.6604 38.6312 63.0291 48.4792C62.8198 52.0536 57.3438 53.0295 46.6009 51.407C51.5793 52.5298 55.4303 53.4519 58.1538 54.1733C56.0924 53.7812 54.0071 53.5268 51.9118 53.412C58.8927 55.2966 62.0949 57.7069 61.5186 60.643C55.3773 84.0605 38.2829 93.3554 23.0493 73.1937C25.7799 78.3829 29.2258 82.9002 32.971 85.882C32.8321 85.7767 32.6974 85.6695 32.5668 85.5606Z" fill="#000072"/>
</g>
<path fill-rule="evenodd" clip-rule="evenodd" d="M57.8223 79.1996C61.2669 75.4805 64.1217 71.2577 66.2879 66.6775C74.3703 72.486 73.9873 76.9413 65.1388 80.0433C62.3094 86.4195 59.8705 86.1383 57.8223 79.1996Z" fill="#F38328"/>
<g opacity="0.5">
<path fill-rule="evenodd" clip-rule="evenodd" d="M60.1114 77.1183C59.9145 76.9724 60.8398 74.5764 62.8275 73.6106C63.4425 73.34 64.0839 73.1338 64.7415 72.9955C65.4249 72.8364 66.1205 72.7354 66.821 72.6936C65.6064 73.0405 64.4497 73.5644 63.3883 74.2484C61.1894 75.6696 60.2807 77.2433 60.1114 77.1183Z" fill="white"/>
</g>
<g opacity="0.5">
<path fill-rule="evenodd" clip-rule="evenodd" d="M66.6491 66.9429C68.0691 68.0355 69.3906 69.2502 70.5984 70.5729C71.2483 71.1924 71.7097 71.9825 71.9296 72.8522C72.0692 73.5552 72.0279 74.2821 71.8096 74.9649L71.3699 73.649C70.9339 72.7548 70.3982 71.9126 69.7728 71.1384C68.7301 69.8526 67.4571 68.7714 66.0187 67.9497C65.9968 67.7358 66.0469 67.5207 66.161 67.3382C66.275 67.1558 66.4466 67.0164 66.6487 66.9419L66.6491 66.9429Z" fill="white"/>
</g>
<path d="M61.3516 85.1012H61.2254C59.7235 85.0031 58.4965 83.1719 57.3629 79.3379C57.3392 79.2577 57.3369 79.1727 57.3564 79.0914C57.3759 79.0101 57.4164 78.9353 57.474 78.8746C60.882 75.1893 63.7089 71.0082 65.8576 66.4746C65.885 66.4181 65.9233 66.3676 65.9702 66.3259C66.0172 66.2842 66.072 66.2521 66.1314 66.2315C66.1908 66.2109 66.2537 66.2022 66.3165 66.2059C66.3793 66.2096 66.4407 66.2256 66.4973 66.253C66.5223 66.2649 66.5462 66.279 66.5687 66.2953C70.9281 69.4276 72.8734 72.1605 72.5148 74.6488C72.1796 76.9687 69.8828 78.8615 65.4937 80.4314C64.0563 83.6077 62.7317 85.1012 61.3516 85.1012ZM58.3617 79.3248C59.6097 83.4246 60.7271 84.1061 61.2878 84.1436C61.8361 84.1822 63.0042 83.669 64.7019 79.8497C64.7283 79.7899 64.7667 79.7362 64.8148 79.6918C64.8628 79.6475 64.9195 79.6134 64.9813 79.5919C69.0679 78.1576 71.2864 76.4469 71.5657 74.5073C71.8533 72.5161 70.1387 70.1263 66.4662 67.4012C64.3519 71.7442 61.6215 75.7603 58.3592 79.3258L58.3617 79.3248Z" fill="#000072"/>
<path d="M60.3387 75.5963C60.6863 75.09 61.0757 74.6135 61.5026 74.1717C61.9338 73.7173 62.4242 73.3228 62.9606 72.9986C63.5078 72.6635 64.1166 72.4412 64.7512 72.3446C65.3825 72.2587 66.0253 72.3324 66.6207 72.5591C66.6644 72.5758 66.7005 72.6078 66.7221 72.6493C66.7437 72.6907 66.7493 72.7386 66.738 72.784C66.7266 72.8293 66.699 72.8689 66.6603 72.8952C66.6217 72.9216 66.5747 72.9329 66.5282 72.927C65.9742 72.8527 65.4116 72.8726 64.8643 72.9859C64.3263 73.1024 63.8151 73.3188 63.3572 73.6237C62.891 73.9385 62.4628 74.3062 62.0812 74.7193C61.6933 75.1412 61.3306 75.5855 60.9949 76.05V76.0538C60.9335 76.1405 60.8401 76.1993 60.7352 76.2173C60.6304 76.2353 60.5226 76.2109 60.4357 76.1496C60.3488 76.0883 60.2899 75.9951 60.2719 75.8904C60.2539 75.7857 60.2783 75.6782 60.3397 75.5915L60.3387 75.5963Z" fill="#000072"/>
<g opacity="0.25">
<path fill-rule="evenodd" clip-rule="evenodd" d="M65.1377 80.042C65.8733 79.2262 66.5471 79.4018 67.9386 78.7915C69.4583 78.2025 70.7088 77.0778 71.4535 75.6303C71.7185 74.9908 71.8403 74.3013 71.8104 73.6099C71.2616 74.7193 70.4268 75.6631 69.3919 76.3442C68.0217 77.2209 66.3921 77.6027 64.7742 77.426C64.275 77.3957 63.776 77.49 63.3224 77.7003C62.8688 77.9106 62.4748 78.2304 62.176 78.6308C62.1124 78.7947 62.0387 78.9546 61.9553 79.1095C61.2207 80.4595 60.0566 80.4831 58.4629 79.1804C58.645 82.3196 59.8875 84.5156 61.1159 84.6013C62.454 84.6935 63.9634 82.2951 64.2735 81.8019C64.7683 81.0144 64.6252 80.611 65.1377 80.042Z" fill="#000072"/>
</g>
<g opacity="0.25">
<path fill-rule="evenodd" clip-rule="evenodd" d="M46.7614 89.4029C50.1131 87.0133 53.2997 84.4011 56.2996 81.584C51.8764 89.2521 52.4434 93.4012 58.0008 94.0311C49.4792 95.853 45.7328 94.3103 46.7614 89.4029Z" fill="#000072"/>
</g>
<g opacity="0.25">
<path fill-rule="evenodd" clip-rule="evenodd" d="M33.7821 94.4569C30.0806 94.8064 27.7616 94.5451 26.8252 93.6731C33.0596 92.7844 34.1589 89.698 30.1231 84.4141C33.5986 87.3813 36.2882 88.8809 38.1918 88.9128C39.2777 93.3952 37.8083 95.2444 33.7838 94.4603" fill="#000072"/>
</g>
<path d="M52.7671 40.2632C53.9364 39.8877 55.1488 39.6622 56.3751 39.592C56.9872 39.5463 57.601 39.5349 58.2163 39.5494C58.5229 39.5617 58.8308 39.5666 59.1374 39.5862L60.0568 39.6678L60.2865 39.6891L60.5148 39.7208L60.9724 39.7862C61.2773 39.8316 61.5821 39.8726 61.8828 39.9393L62.7884 40.1245C63.0885 40.1934 63.3844 40.2811 63.682 40.3586C64.28 40.5055 64.8586 40.72 65.4408 40.92C65.7342 41.0146 66.0129 41.1468 66.2984 41.2618C66.584 41.3767 66.8647 41.5027 67.1461 41.6246C67.2603 41.6741 67.3506 41.7661 67.398 41.881C67.4454 41.9959 67.4461 42.1247 67.4 42.2402C67.3539 42.3556 67.2645 42.4485 67.1509 42.4993C67.0372 42.5501 66.9082 42.5548 66.7913 42.5123L66.7626 42.5016C66.484 42.3983 66.2053 42.2985 65.9291 42.1918C65.6529 42.0851 65.3797 41.9698 65.0945 41.8882C64.5297 41.7137 63.9748 41.5058 63.4002 41.3636C62.2618 41.0398 61.1042 40.7878 59.934 40.6092C58.7599 40.4328 57.5761 40.3284 56.3892 40.2966C55.1944 40.2543 53.9981 40.2976 52.8095 40.4264H52.803C52.7834 40.4266 52.7644 40.4201 52.749 40.408C52.7336 40.3959 52.7229 40.3789 52.7185 40.3599C52.7141 40.3409 52.7164 40.3209 52.7249 40.3033C52.7334 40.2857 52.7477 40.2716 52.7654 40.2632H52.7671Z" fill="#000072"/>
<path d="M53.6386 62.8339C53.6824 60.8452 52.673 59.2101 51.3841 59.1818C50.0952 59.1535 49.0148 60.7427 48.971 62.7314C48.9271 64.7201 49.9365 66.3552 51.2254 66.3835C52.5143 66.4118 53.5947 64.8226 53.6386 62.8339Z" fill="#000072"/>
<path d="M51.2445 60.0276C51.6418 60.2117 51.7766 60.8881 51.5463 61.5383C51.3159 62.1885 50.8107 62.5654 50.411 62.3809C50.0113 62.1964 49.8778 61.5204 50.1086 60.8709C50.3393 60.2214 50.8486 59.8427 51.2445 60.0276Z" fill="white"/>
<path d="M52.363 64.3004C52.4537 64.42 52.5029 64.566 52.5029 64.716C52.5029 64.8661 52.4537 65.012 52.363 65.1317C52.1809 65.4377 51.8833 65.5605 51.6995 65.407C51.6087 65.2874 51.5596 65.1415 51.5596 64.9914C51.5596 64.8413 51.6087 64.6954 51.6995 64.5758C51.8857 64.2701 52.1792 64.1469 52.363 64.3004Z" fill="#B199C5"/>
<path d="M34.784 66.3848C36.0729 66.3563 37.082 64.721 37.0377 62.7323C36.9935 60.7436 35.9127 59.1546 34.6238 59.1831C33.3349 59.2115 32.3259 60.8468 32.3701 62.8355C32.4144 64.8242 33.4951 66.4132 34.784 66.3848Z" fill="#000072"/>
<path d="M34.7654 60.0276C34.3685 60.2117 34.2333 60.8881 34.463 61.5383C34.6926 62.1885 35.1985 62.5654 35.601 62.3809C36.0035 62.1964 36.1331 61.5204 35.9034 60.8709C35.6738 60.2214 35.1627 59.8427 34.7654 60.0276Z" fill="white"/>
<path d="M33.6482 64.3007C33.5574 64.4203 33.5083 64.5662 33.5083 64.7163C33.5083 64.8663 33.5574 65.0123 33.6482 65.1319C33.8303 65.4379 34.1279 65.5608 34.3117 65.4073C34.4025 65.2877 34.4516 65.1417 34.4516 64.9916C34.4516 64.8416 34.4025 64.6956 34.3117 64.576C34.1296 64.2704 33.8344 64.1471 33.6482 64.3007Z" fill="#B199C5"/>
<path d="M10.9407 110.741V103.508L7.80938 109.482C7.71059 109.671 7.56175 109.829 7.37904 109.94C7.19633 110.051 6.98674 110.109 6.77307 110.109C6.5594 110.109 6.34982 110.051 6.16711 109.94C5.9844 109.829 5.83556 109.671 5.73677 109.482L2.60715 103.508V110.741C2.60715 111.174 2.43493 111.589 2.12837 111.895C1.82182 112.201 1.40604 112.373 0.972509 112.373H0V98.9834H1.80466C2.10349 98.9838 2.39649 99.0659 2.65184 99.2208C2.90719 99.3757 3.11513 99.5975 3.25308 99.8621L6.76756 106.602L10.3141 99.8556C10.4528 99.592 10.6611 99.3714 10.9164 99.2175C11.1717 99.0637 11.4643 98.9824 11.7625 98.9827H13.5524V112.372H12.5788C12.1453 112.373 11.7291 112.202 11.4218 111.897C11.1145 111.592 10.9412 111.177 10.94 110.745L10.9407 110.741Z" fill="#F38328"/>
<path d="M22.1136 102.314V103.191C22.1173 103.549 22.0003 103.899 21.7815 104.183C21.5627 104.467 21.2546 104.67 20.9066 104.759C20.6129 104.83 20.327 104.929 20.0534 105.057C19.479 105.311 19.0158 105.763 18.7495 106.331V110.678C18.7495 111.111 18.5773 111.526 18.2707 111.832C17.9642 112.138 17.5484 112.31 17.1149 112.31H16.2158V102.428H16.9055C17.3391 102.428 17.7549 102.599 18.0614 102.905C18.368 103.211 18.5402 103.626 18.5402 104.059V104.541C18.71 104.212 18.9196 103.905 19.1644 103.626C19.396 103.363 19.6556 103.127 19.9386 102.92C20.1971 102.729 20.4799 102.574 20.7794 102.458C21.0419 102.354 21.3212 102.299 21.6036 102.296H21.914C21.981 102.295 22.0478 102.302 22.1136 102.314Z" fill="#F38328"/>
<path d="M22.3164 111.11C22.3163 110.86 22.3905 110.615 22.5297 110.407C22.6688 110.2 22.8665 110.037 23.0979 109.942C23.3293 109.846 23.5839 109.821 23.8296 109.87C24.0752 109.918 24.3009 110.039 24.478 110.216C24.6552 110.392 24.7758 110.617 24.8247 110.863C24.8736 111.108 24.8485 111.362 24.7527 111.593C24.6569 111.824 24.4946 112.021 24.2863 112.16C24.0781 112.299 23.8332 112.373 23.5827 112.373C23.4165 112.373 23.2518 112.341 23.0982 112.277C22.9445 112.214 22.8049 112.121 22.6873 112.003C22.5697 111.886 22.4764 111.747 22.4128 111.593C22.3492 111.44 22.3164 111.276 22.3164 111.11Z" fill="#F38328"/>
<path d="M26.2363 105.584C26.2384 104.756 26.3884 103.935 26.6795 103.16C26.9701 102.37 27.4092 101.644 27.973 101.019C28.5574 100.377 29.264 99.8584 30.0515 99.4922C30.9279 99.0895 31.8841 98.8895 32.8487 98.9071C33.9705 98.8781 35.0785 99.1587 36.0507 99.718C36.9105 100.215 37.6091 100.948 38.063 101.83L37.115 102.484C36.8536 102.655 36.5394 102.727 36.2294 102.687C35.9194 102.647 35.6341 102.497 35.4252 102.265L35.4162 102.256C35.1798 102.01 34.906 101.803 34.6051 101.642C34.3186 101.494 34.0137 101.384 33.6984 101.316C33.3944 101.248 33.084 101.213 32.7725 101.213C32.1785 101.198 31.5905 101.334 31.0634 101.608C30.5915 101.86 30.1791 102.211 29.8539 102.635C29.5281 103.066 29.2817 103.552 29.1263 104.069C28.9658 104.585 28.8833 105.122 28.8814 105.663C28.8794 106.243 28.9752 106.82 29.1649 107.369C29.3424 107.895 29.6147 108.384 29.9684 108.813C30.3126 109.226 30.7367 109.565 31.2154 109.811C31.7089 110.065 32.2572 110.195 32.8125 110.189C33.131 110.188 33.4483 110.149 33.7581 110.076C34.085 110.001 34.3998 109.881 34.6934 109.718C34.9859 109.527 35.2626 109.313 35.521 109.078C35.7297 108.846 36.0108 108.691 36.3189 108.637C36.627 108.584 36.9441 108.636 37.2188 108.785L38.2534 109.378C38.0408 109.879 37.7292 110.331 37.3374 110.709C36.9379 111.094 36.4861 111.421 35.9952 111.68C35.49 111.946 34.9535 112.148 34.3982 112.282C33.8542 112.417 33.2961 112.487 32.7356 112.489C31.8243 112.5 30.9236 112.293 30.1088 111.885C29.3311 111.496 28.6353 110.961 28.0589 110.311C27.4836 109.661 27.0291 108.914 26.7171 108.104C26.4004 107.301 26.2374 106.446 26.2363 105.584Z" fill="#F38328"/>
<path d="M48.7865 106.331V112.355H48.243C47.8141 112.355 47.4024 112.187 47.0966 111.886C46.7909 111.586 46.6155 111.178 46.6084 110.75C46.1897 111.301 45.646 111.746 45.022 112.046C44.3913 112.348 43.7002 112.503 43.0008 112.499C42.5427 112.502 42.0879 112.423 41.6586 112.263C41.2599 112.116 40.8942 111.892 40.5822 111.603C40.2825 111.324 40.0416 110.987 39.8736 110.613C39.7005 110.221 39.6135 109.797 39.6184 109.369C39.6139 108.919 39.7205 108.475 39.9287 108.077C40.1382 107.679 40.4356 107.334 40.7985 107.069C41.2011 106.775 41.6519 106.554 42.1307 106.415C42.6829 106.253 43.256 106.173 43.8315 106.179C44.2655 106.178 44.6987 106.216 45.1261 106.291C45.5116 106.356 45.8885 106.464 46.25 106.612V106.048C46.2678 105.771 46.2274 105.494 46.1314 105.234C46.0354 104.974 45.886 104.737 45.6927 104.538C45.2305 104.156 44.6379 103.967 44.0391 104.011C43.5102 104.012 42.9857 104.108 42.4911 104.295C42.4314 104.317 42.3728 104.34 42.3131 104.363C41.9269 104.529 41.492 104.539 41.0979 104.394C40.7039 104.248 40.3808 103.958 40.1953 103.581L40.166 103.521C41.3815 102.697 42.8174 102.259 44.2864 102.261C45.4837 102.186 46.6659 102.56 47.6022 103.308C48.0092 103.695 48.3262 104.166 48.5308 104.688C48.7354 105.211 48.8227 105.772 48.7865 106.331ZM46.2528 107.972C45.9341 107.853 45.6061 107.761 45.272 107.696C44.9361 107.629 44.5945 107.594 44.2519 107.593C43.6832 107.569 43.1213 107.724 42.6459 108.036C42.4556 108.156 42.2987 108.321 42.1896 108.517C42.0806 108.714 42.0231 108.934 42.0224 109.159C42.0183 109.362 42.0603 109.563 42.1453 109.748C42.2302 109.933 42.3558 110.096 42.5128 110.226C42.8483 110.512 43.2785 110.664 43.7198 110.651C44.1367 110.653 44.5503 110.576 44.9385 110.425C45.2837 110.301 45.5927 110.094 45.8376 109.822C45.9585 109.743 46.0591 109.638 46.1311 109.513C46.203 109.388 46.2442 109.248 46.2514 109.105L46.2528 107.972Z" fill="#F38328"/>
<path d="M57.159 102.314V103.191C57.1626 103.549 57.0456 103.899 56.8268 104.183C56.608 104.467 56.3 104.67 55.9519 104.759C55.6582 104.83 55.3723 104.929 55.0988 105.057C54.5229 105.31 54.0583 105.762 53.7911 106.331V110.678C53.7916 111.111 53.6199 111.526 53.3138 111.832C53.0076 112.139 52.592 112.311 52.1585 112.312H51.2598V102.427H51.9495C52.383 102.427 52.7988 102.599 53.1054 102.905C53.4119 103.211 53.5841 103.626 53.5841 104.059V104.541C53.754 104.212 53.9636 103.905 54.2083 103.626C54.44 103.364 54.6996 103.127 54.9825 102.92C55.2412 102.729 55.524 102.574 55.8237 102.458C56.0853 102.354 56.3636 102.299 56.6451 102.295H56.9555C57.0238 102.294 57.092 102.301 57.159 102.314Z" fill="#F38328"/>
<path d="M64.7545 102.314V103.191C64.7583 103.549 64.6417 103.898 64.4232 104.183C64.2047 104.467 63.897 104.67 63.5492 104.76C63.2554 104.83 62.9694 104.93 62.6957 105.057C62.1214 105.311 61.6584 105.763 61.3921 106.331V110.678C61.3921 111.111 61.2199 111.526 60.9133 111.832C60.6068 112.138 60.191 112.31 59.7575 112.31H58.8584V102.428H59.5481C59.9817 102.428 60.3974 102.6 60.704 102.906C61.0105 103.212 61.1828 103.627 61.1828 104.059V104.541C61.3526 104.212 61.5624 103.905 61.8073 103.627C62.0389 103.364 62.2985 103.127 62.5815 102.92C62.84 102.729 63.1227 102.574 63.4223 102.458C63.6839 102.355 63.9623 102.299 64.2437 102.295H64.5541C64.6214 102.295 64.6885 102.301 64.7545 102.314Z" fill="#F38328"/>
<path d="M75.956 107.388C75.9587 108.052 75.837 108.71 75.5973 109.33C75.3652 109.934 75.0186 110.488 74.5765 110.961C74.1195 111.445 73.5664 111.828 72.9526 112.086C71.5572 112.639 70.0027 112.639 68.6073 112.086C67.9912 111.827 67.4348 111.445 66.9727 110.963C66.5251 110.492 66.1751 109.938 65.9429 109.332C65.4656 108.075 65.4656 106.688 65.9429 105.431C66.1754 104.825 66.5253 104.271 66.9727 103.8C67.4347 103.318 67.9911 102.936 68.6073 102.677C69.2954 102.392 70.0349 102.25 70.78 102.262C71.5221 102.25 72.2587 102.391 72.9433 102.677C73.549 102.934 74.0965 103.31 74.5529 103.783C75.0092 104.256 75.365 104.817 75.5987 105.431C75.8394 106.055 75.9606 106.719 75.956 107.388ZM73.3695 107.369C73.3733 106.964 73.306 106.562 73.1709 106.18C73.0492 105.834 72.8631 105.515 72.6225 105.238C72.3949 104.978 72.1151 104.769 71.8011 104.625C71.4809 104.478 71.1324 104.404 70.7803 104.407C70.4274 104.404 70.0785 104.481 69.7602 104.634C69.4471 104.784 69.1677 104.995 68.9387 105.256C68.6979 105.533 68.5119 105.853 68.3904 106.199C68.1259 106.972 68.1259 107.811 68.3904 108.584C68.513 108.927 68.699 109.244 68.9387 109.518C69.1658 109.779 69.4459 109.987 69.7602 110.131C70.0816 110.274 70.4298 110.348 70.7819 110.348C71.1339 110.348 71.4821 110.274 71.8035 110.131C72.1176 109.987 72.3975 109.778 72.625 109.518C72.8654 109.241 73.0514 108.922 73.1733 108.576C73.3074 108.188 73.373 107.779 73.3675 107.369H73.3695Z" fill="#F38328"/>
<path d="M84.9999 111.724C84.2419 112.099 83.4087 112.299 82.5624 112.309C82.1034 112.329 81.6461 112.242 81.2265 112.055C80.8068 111.869 80.4364 111.588 80.1442 111.234C79.5126 110.394 79.1982 109.359 79.2566 108.311V104.339H77.0791V104.058C77.0791 103.626 77.2513 103.211 77.5579 102.905C77.8644 102.599 78.2802 102.427 78.7137 102.427H79.2573V99.9831C79.2573 99.7688 79.2995 99.5567 79.3817 99.3587C79.4638 99.1608 79.5842 98.9809 79.736 98.8294C79.8878 98.6779 80.068 98.5577 80.2663 98.4758C80.4647 98.3938 80.6772 98.3516 80.8919 98.3516H81.7909V102.425H84.2095V102.718C84.2095 103.151 84.0372 103.566 83.7307 103.872C83.4241 104.178 83.0083 104.35 82.5748 104.35H81.7903V108.403C81.7903 109.585 82.231 110.176 83.1125 110.176C83.4792 110.081 83.8687 110.134 84.1961 110.325C84.5234 110.515 84.7621 110.827 84.8599 111.192L84.9999 111.724Z" fill="#F38328"/>
<path d="M6.09528 116.585V122.109H5.70214C5.61369 122.109 5.52608 122.092 5.44431 122.058C5.36255 122.024 5.28823 121.975 5.22559 121.913C5.16295 121.85 5.11323 121.776 5.07925 121.695C5.04528 121.613 5.02772 121.526 5.02759 121.437V119.747H2.51459V121.433C2.51431 121.611 2.44358 121.781 2.31783 121.907C2.19208 122.033 2.02155 122.104 1.84349 122.105H1.43896V116.58H1.84004C2.01864 116.58 2.19 116.65 2.31649 116.776C2.44297 116.902 2.51422 117.073 2.51459 117.251V118.814H5.02448V117.253C5.02439 117.165 5.04173 117.077 5.07549 116.996C5.10925 116.914 5.15879 116.84 5.22126 116.777C5.28374 116.715 5.35794 116.665 5.43962 116.632C5.5213 116.598 5.60886 116.58 5.69731 116.58L6.09528 116.585Z" fill="#65A141"/>
<path d="M11.3311 120.029V120.223C11.3301 120.274 11.3235 120.325 11.3115 120.375H8.5181C8.51792 120.196 8.58869 120.025 8.71486 119.899C8.84103 119.773 9.01227 119.702 9.19093 119.701H10.26C10.2461 119.422 10.1245 119.159 9.92065 118.967C9.72316 118.784 9.46198 118.686 9.19265 118.692C9.05769 118.691 8.92386 118.716 8.79847 118.766C8.67733 118.814 8.56636 118.884 8.47154 118.973C8.37559 119.064 8.29747 119.172 8.24118 119.291C8.14472 119.532 8.10416 119.792 8.12254 120.05C8.1106 120.311 8.16047 120.57 8.26808 120.808C8.38667 121.049 8.59309 121.235 8.84503 121.329C8.96985 121.375 9.10196 121.398 9.23506 121.398C9.44096 121.398 9.64354 121.346 9.8234 121.246C9.99299 121.161 10.1269 121.019 10.201 120.845L11.1001 121.095C10.9403 121.415 10.6896 121.682 10.3793 121.861C10.021 122.068 9.61208 122.172 9.19817 122.16C8.89381 122.165 8.59172 122.108 8.3098 121.993C8.05785 121.891 7.82942 121.738 7.63844 121.545C7.44746 121.352 7.29794 121.122 7.19901 120.869C7.09755 120.614 7.04592 120.342 7.04692 120.068C7.04512 119.787 7.09528 119.509 7.19487 119.246C7.29049 118.994 7.43618 118.765 7.62318 118.57C7.81681 118.371 8.04902 118.213 8.30567 118.107C8.59054 117.989 8.89644 117.93 9.20472 117.935C9.51094 117.93 9.81485 117.988 10.0972 118.107C10.349 118.214 10.5769 118.37 10.7676 118.566C10.9523 118.758 11.0955 118.986 11.1884 119.235C11.2843 119.489 11.3327 119.758 11.3311 120.029Z" fill="#65A141"/>
<path d="M15.8001 119.616V122.101H15.5769C15.4 122.101 15.2302 122.032 15.1042 121.908C14.9782 121.784 14.906 121.615 14.9034 121.439C14.7306 121.666 14.506 121.85 14.2482 121.974C13.9882 122.099 13.7031 122.162 13.4147 122.161C13.2264 122.162 13.0394 122.129 12.8629 122.064C12.6985 122.003 12.5478 121.91 12.4194 121.791C12.2954 121.676 12.1958 121.537 12.1266 121.383C12.0551 121.222 12.0191 121.047 12.0211 120.87C12.0194 120.685 12.0634 120.502 12.1494 120.338C12.2359 120.173 12.3587 120.031 12.5084 119.921C12.6745 119.801 12.8604 119.71 13.0577 119.653C13.2853 119.586 13.5216 119.553 13.7588 119.556C13.9378 119.556 14.1164 119.571 14.2927 119.602C14.4514 119.629 14.6067 119.674 14.7558 119.735V119.501C14.7635 119.387 14.747 119.273 14.7074 119.166C14.6679 119.058 14.6061 118.961 14.5261 118.879C14.3355 118.721 14.0908 118.643 13.8437 118.661C13.6253 118.661 13.4088 118.701 13.2046 118.778L13.1312 118.806C12.9714 118.874 12.7915 118.878 12.6288 118.818C12.4661 118.757 12.3331 118.636 12.2573 118.48L12.2452 118.455C12.7462 118.115 13.3383 117.933 13.9444 117.934C14.4383 117.903 14.9259 118.057 15.3124 118.366C15.4805 118.526 15.6113 118.721 15.6956 118.937C15.7799 119.153 15.8155 119.385 15.8001 119.616ZM14.7555 120.292C14.6226 120.244 14.4859 120.206 14.3468 120.179C14.2083 120.151 14.0674 120.137 13.9261 120.137C13.6914 120.127 13.4595 120.191 13.2633 120.32C13.1848 120.369 13.12 120.437 13.075 120.518C13.0299 120.599 13.0061 120.69 13.0057 120.783C13.0041 120.867 13.0215 120.95 13.0566 121.026C13.0918 121.102 13.1436 121.169 13.2084 121.223C13.3468 121.341 13.5244 121.404 13.7068 121.399C13.8787 121.4 14.0493 121.369 14.2096 121.307C14.3518 121.255 14.4791 121.17 14.5799 121.058C14.6301 121.026 14.6719 120.982 14.7019 120.931C14.7318 120.879 14.7491 120.822 14.7524 120.762L14.7555 120.292Z" fill="#65A141"/>
<path d="M19.1474 121.707C19.0092 121.829 18.8477 121.923 18.6725 121.982C18.4914 122.042 18.3016 122.072 18.1107 122.071C17.9196 122.072 17.7301 122.035 17.5534 121.962C17.3831 121.892 17.2292 121.787 17.1013 121.655C16.9712 121.518 16.8693 121.357 16.8013 121.181C16.7271 120.989 16.69 120.784 16.692 120.578V116.471H17.063C17.2417 116.471 17.413 116.542 17.5393 116.668C17.6656 116.794 17.7366 116.965 17.7366 117.143V120.657C17.7345 120.724 17.7459 120.791 17.7701 120.853C17.7942 120.915 17.8306 120.972 17.8771 121.019C17.9236 121.067 17.9793 121.105 18.0408 121.131C18.1023 121.157 18.1684 121.171 18.2352 121.171C18.3657 121.122 18.509 121.12 18.6408 121.165C18.7727 121.209 18.8852 121.298 18.9594 121.415L19.1474 121.707Z" fill="#65A141"/>
<path d="M22.0918 121.841C21.7794 121.997 21.4358 122.08 21.0866 122.086C20.8971 122.094 20.7084 122.058 20.5352 121.981C20.3621 121.904 20.2092 121.788 20.0885 121.642C19.828 121.296 19.6983 120.869 19.7223 120.437V118.796H18.8232V118.68C18.8232 118.502 18.8943 118.33 19.0207 118.204C19.1471 118.078 19.3186 118.007 19.4974 118.007H19.7216V117C19.7215 116.911 19.7388 116.824 19.7725 116.742C19.8062 116.661 19.8557 116.587 19.9182 116.524C19.9806 116.462 20.0548 116.412 20.1364 116.378C20.2181 116.344 20.3057 116.327 20.3941 116.327H20.7662V118.007H21.7663V118.128C21.7663 118.216 21.7488 118.304 21.7149 118.385C21.681 118.467 21.6313 118.541 21.5687 118.604C21.5061 118.666 21.4317 118.716 21.3499 118.75C21.268 118.783 21.1803 118.801 21.0917 118.801H20.7648V120.473C20.7648 120.963 20.9466 121.207 21.31 121.207C21.4614 121.168 21.6223 121.19 21.7575 121.269C21.8927 121.347 21.9914 121.476 22.0318 121.627L22.0918 121.841Z" fill="#65A141"/>
<path d="M26.618 119.541V121.412C26.618 121.59 26.5471 121.761 26.4207 121.887C26.2944 122.013 26.1231 122.084 25.9445 122.084H25.5734V119.8C25.5928 119.549 25.53 119.299 25.3944 119.088C25.3346 119.012 25.2573 118.951 25.1692 118.911C25.081 118.871 24.9846 118.853 24.8878 118.858C24.7861 118.86 24.6856 118.881 24.592 118.92C24.4851 118.964 24.3854 119.023 24.2961 119.096C24.1994 119.175 24.1129 119.265 24.0384 119.364C23.9604 119.468 23.9019 119.584 23.866 119.709V121.417C23.866 121.505 23.8486 121.593 23.8147 121.674C23.7808 121.756 23.7312 121.83 23.6685 121.893C23.6059 121.955 23.5316 122.005 23.4498 122.039C23.368 122.072 23.2804 122.09 23.1918 122.09H22.8218V116.408H23.1918C23.2803 116.408 23.3679 116.426 23.4496 116.459C23.5314 116.493 23.6057 116.542 23.6683 116.605C23.7309 116.667 23.7806 116.741 23.8145 116.823C23.8484 116.904 23.8659 116.992 23.866 117.08V118.712C23.9909 118.455 24.1899 118.241 24.4375 118.097C24.6851 117.954 24.9701 117.887 25.2558 117.906C26.5863 117.897 26.618 119.337 26.618 119.541Z" fill="#65A141"/>
<path d="M31.3096 118.005L29.8319 122.346C29.7411 122.791 29.5699 123.216 29.3267 123.601C29.2318 123.737 29.102 123.846 28.951 123.915C28.7999 123.984 28.633 124.012 28.4676 123.995C28.1184 123.99 27.7747 123.906 27.4623 123.75L27.5213 123.532C27.5617 123.381 27.6601 123.252 27.7952 123.174C27.9302 123.095 28.0908 123.073 28.2421 123.112C28.6056 123.112 28.7873 122.868 28.7873 122.378L28.7759 122.076L27.1616 117.998H27.7582C27.8982 117.998 28.0348 118.041 28.1488 118.122C28.2629 118.203 28.3489 118.317 28.3948 118.45L29.3446 121.172L30.1798 118.472C30.2225 118.335 30.308 118.215 30.4239 118.13C30.5398 118.044 30.68 117.998 30.824 117.998L31.3096 118.005Z" fill="#65A141"/>
<path d="M37.545 116.567L37.486 116.785C37.4455 116.936 37.347 117.065 37.212 117.143C37.0771 117.222 36.9165 117.244 36.7653 117.205C36.4011 117.205 36.219 117.449 36.219 117.939V118.227H37.217V118.347C37.2171 118.436 37.1997 118.523 37.1658 118.605C37.132 118.687 37.0823 118.761 37.0197 118.824C36.9571 118.886 36.8827 118.936 36.8009 118.969C36.7191 119.003 36.6314 119.021 36.5428 119.021H36.2159V121.413C36.2158 121.592 36.1448 121.762 36.0185 121.889C35.8923 122.015 35.721 122.085 35.5424 122.086H35.1713V119.015H34.354V118.899C34.3538 118.721 34.4246 118.55 34.5507 118.423C34.6768 118.297 34.8479 118.226 35.0265 118.226H35.172V117.977C35.1481 117.545 35.2778 117.118 35.5383 116.772C35.6589 116.627 35.8117 116.511 35.9847 116.434C36.1577 116.357 36.3463 116.321 36.5356 116.329C36.8857 116.331 37.2308 116.412 37.545 116.567Z" fill="#65A141"/>
<path d="M41.7748 120.051C41.7758 120.325 41.7256 120.597 41.6269 120.853C41.5311 121.102 41.3882 121.33 41.2058 121.526C41.0172 121.725 40.789 121.883 40.5358 121.989C39.9599 122.217 39.3184 122.217 38.7425 121.989C38.4882 121.882 38.2587 121.725 38.0683 121.526C37.8835 121.332 37.739 121.103 37.6431 120.853C37.4458 120.334 37.4458 119.761 37.6431 119.243C37.739 118.993 37.8835 118.764 38.0683 118.57C38.2586 118.371 38.4882 118.213 38.7425 118.107C39.0271 117.988 39.3332 117.93 39.6415 117.935C39.9477 117.93 40.2516 117.989 40.534 118.107C40.7866 118.214 41.0145 118.372 41.2041 118.57C41.3887 118.764 41.5332 118.993 41.6293 119.243C41.7281 119.501 41.7774 119.775 41.7748 120.051ZM40.7058 120.044C40.7076 119.877 40.6799 119.711 40.624 119.554C40.5744 119.411 40.4978 119.279 40.3985 119.165C40.3046 119.058 40.1891 118.971 40.0595 118.912C39.9274 118.852 39.7837 118.821 39.6384 118.822C39.4929 118.821 39.3489 118.853 39.2177 118.916C39.0883 118.978 38.9729 119.065 38.8784 119.173C38.7794 119.287 38.7029 119.419 38.6528 119.562C38.5435 119.881 38.5435 120.227 38.6528 120.546C38.7032 120.688 38.7797 120.818 38.8784 120.932C38.9722 121.039 39.0879 121.125 39.2177 121.185C39.3501 121.244 39.4936 121.274 39.6386 121.274C39.7837 121.274 39.9271 121.244 40.0595 121.185C40.1891 121.125 40.3047 121.039 40.3985 120.932C40.4975 120.818 40.574 120.686 40.624 120.543C40.6809 120.383 40.709 120.214 40.7072 120.044H40.7058Z" fill="#65A141"/>
<path d="M45.0761 117.959V118.321C45.0779 118.469 45.0298 118.613 44.9397 118.731C44.8496 118.848 44.7227 118.932 44.5792 118.969C44.458 118.998 44.34 119.04 44.2271 119.093C43.9901 119.198 43.799 119.384 43.6891 119.618V121.413C43.6891 121.592 43.6181 121.763 43.4916 121.889C43.3652 122.015 43.1937 122.086 43.0149 122.086H42.6445V118.007H42.929C43.0175 118.007 43.1051 118.024 43.1868 118.058C43.2686 118.092 43.3429 118.141 43.4055 118.204C43.4681 118.266 43.5178 118.34 43.5517 118.422C43.5856 118.503 43.6031 118.59 43.6032 118.679V118.878C43.6734 118.743 43.7599 118.616 43.8608 118.502C43.9565 118.393 44.0637 118.296 44.1805 118.21C44.2873 118.132 44.4041 118.068 44.5278 118.02C44.6358 117.978 44.7507 117.955 44.8668 117.953H44.9951C45.0222 117.953 45.0494 117.955 45.0761 117.959Z" fill="#65A141"/>
<path d="M52.2495 118.005L50.7718 122.346C50.6808 122.791 50.5096 123.216 50.2665 123.601C50.1716 123.737 50.0419 123.846 49.8909 123.915C49.7398 123.984 49.5729 124.012 49.4075 123.995C49.0582 123.99 48.7146 123.906 48.4022 123.75L48.4612 123.532C48.5016 123.381 48.6 123.252 48.7351 123.174C48.8701 123.095 49.0307 123.073 49.182 123.112C49.5454 123.112 49.7272 122.868 49.7272 122.378L49.7165 122.076L48.1025 117.998H48.6992C48.8391 117.998 48.9756 118.041 49.0896 118.122C49.2037 118.203 49.2897 118.318 49.3358 118.45L50.2848 121.172L51.1208 118.472C51.1633 118.335 51.2489 118.215 51.3648 118.13C51.4807 118.044 51.621 117.998 51.765 117.998L52.2495 118.005Z" fill="#65A141"/>
<path d="M56.9201 120.051C56.9212 120.325 56.871 120.597 56.7722 120.853C56.6763 121.102 56.5331 121.331 56.3504 121.526C56.1619 121.725 55.9336 121.883 55.6803 121.989C55.1044 122.217 54.4629 122.217 53.887 121.989C53.6329 121.882 53.4034 121.725 53.2128 121.526C53.028 121.332 52.8835 121.103 52.7876 120.853C52.6887 120.597 52.6386 120.325 52.6397 120.051C52.6382 119.775 52.6884 119.501 52.7876 119.243C52.8835 118.993 53.028 118.764 53.2128 118.57C53.4032 118.371 53.6327 118.213 53.887 118.107C54.1717 117.988 54.4777 117.93 54.7861 117.935C55.0923 117.93 55.3962 117.988 55.6786 118.107C55.9314 118.214 56.1598 118.372 56.3497 118.57C56.5341 118.764 56.6784 118.993 56.7746 119.243C56.8733 119.501 56.9227 119.775 56.9201 120.051ZM55.8528 120.044C55.8542 119.877 55.8265 119.711 55.771 119.554C55.7211 119.411 55.6445 119.279 55.5455 119.165C55.4514 119.058 55.3358 118.971 55.2061 118.912C55.0742 118.852 54.9305 118.821 54.7854 118.822C54.6397 118.821 54.4957 118.853 54.3643 118.916C54.2351 118.978 54.1198 119.065 54.0253 119.173C53.9261 119.287 53.8495 119.419 53.7995 119.562C53.6905 119.881 53.6905 120.227 53.7995 120.546C53.85 120.688 53.9266 120.818 54.0253 120.932C54.1192 121.039 54.2347 121.125 54.3643 121.185C54.497 121.244 54.6405 121.274 54.7857 121.274C54.931 121.274 55.0745 121.244 55.2072 121.185C55.3368 121.125 55.4524 121.039 55.5462 120.932C55.6451 120.818 55.7217 120.686 55.7717 120.543C55.8276 120.383 55.8551 120.214 55.8528 120.044Z" fill="#65A141"/>
<path d="M61.5271 117.898V122.044H61.1567C61.0682 122.044 60.9806 122.027 60.8989 121.993C60.8171 121.96 60.7428 121.91 60.6802 121.848C60.6176 121.786 60.568 121.711 60.534 121.63C60.5001 121.548 60.4826 121.461 60.4825 121.373V121.276C60.3578 121.533 60.1588 121.747 59.9113 121.891C59.6637 122.034 59.3788 122.101 59.093 122.082C57.765 122.082 57.7329 120.643 57.7329 120.44V117.898H58.104C58.2826 117.898 58.4539 117.968 58.5802 118.095C58.7065 118.221 58.7775 118.392 58.7775 118.57V120.185C58.7582 120.436 58.821 120.686 58.9565 120.897C59.0164 120.973 59.0937 121.034 59.1819 121.074C59.2701 121.114 59.3667 121.132 59.4634 121.127C59.5651 121.126 59.6655 121.104 59.759 121.064C59.8658 121.021 59.9655 120.962 60.0549 120.889C60.1516 120.811 60.2381 120.72 60.3125 120.621C60.3903 120.518 60.4487 120.402 60.4849 120.278V118.57C60.4848 118.482 60.5021 118.394 60.5358 118.313C60.5695 118.231 60.619 118.157 60.6815 118.094C60.7439 118.032 60.8181 117.982 60.8997 117.948C60.9814 117.915 61.069 117.897 61.1574 117.897L61.5271 117.898Z" fill="#65A141"/>
<path d="M65.0298 117.96V118.322C65.0313 118.47 64.9831 118.614 64.8928 118.731C64.8025 118.849 64.6754 118.932 64.5318 118.969C64.4106 118.998 64.2927 119.039 64.1797 119.092C63.9427 119.197 63.7515 119.383 63.6417 119.617V121.412C63.6419 121.5 63.6246 121.588 63.5908 121.669C63.5571 121.751 63.5076 121.825 63.4452 121.888C63.3827 121.95 63.3085 122 63.2269 122.034C63.1452 122.067 63.0577 122.085 62.9692 122.085H62.5947V118.006H62.8792C62.9677 118.006 63.0553 118.023 63.137 118.057C63.2188 118.091 63.2931 118.14 63.3557 118.203C63.4183 118.265 63.468 118.339 63.5019 118.42C63.5358 118.502 63.5533 118.589 63.5534 118.678V118.877C63.6235 118.742 63.71 118.615 63.811 118.501C63.9066 118.392 64.0138 118.294 64.1307 118.209C64.2367 118.131 64.3527 118.067 64.4756 118.019C64.5837 117.977 64.6987 117.954 64.8149 117.952H64.9432C64.9722 117.952 65.0012 117.954 65.0298 117.96Z" fill="#65A141"/>
<path d="M72.2679 122.082H71.5127C71.4019 122.082 71.2929 122.055 71.1952 122.003C71.0975 121.951 71.0142 121.876 70.9526 121.784L69.9718 120.316L69.4104 120.866V121.407C69.4104 121.586 69.3394 121.757 69.2129 121.883C69.0865 122.009 68.915 122.08 68.7362 122.08H68.3672V116.401H68.7376C68.9161 116.401 69.0875 116.471 69.2139 116.597C69.3403 116.723 69.4115 116.894 69.4118 117.072V119.847L70.8478 118.236C70.9111 118.165 70.9886 118.109 71.0754 118.07C71.1622 118.031 71.2562 118.011 71.3513 118.011H72.1638L70.6433 119.74L72.2679 122.082Z" fill="#65A141"/>
<path d="M72.9883 117.144C72.9882 117.04 73.0188 116.94 73.0762 116.854C73.1335 116.768 73.2151 116.701 73.3106 116.662C73.406 116.622 73.5111 116.612 73.6125 116.632C73.7138 116.652 73.807 116.702 73.8801 116.774C73.9532 116.847 74.003 116.94 74.0231 117.041C74.0433 117.143 74.033 117.247 73.9935 117.343C73.9539 117.438 73.887 117.52 73.801 117.577C73.7151 117.634 73.6141 117.665 73.5107 117.665C73.4421 117.665 73.3742 117.651 73.3108 117.625C73.2474 117.599 73.1899 117.561 73.1413 117.512C73.0928 117.464 73.0543 117.406 73.0281 117.343C73.0018 117.28 72.9883 117.212 72.9883 117.144ZM72.9883 118.004H74.0329V121.408C74.033 121.497 74.0157 121.584 73.982 121.666C73.9483 121.747 73.8988 121.821 73.8363 121.884C73.7739 121.946 73.6997 121.996 73.618 122.03C73.5364 122.064 73.4488 122.081 73.3604 122.081H72.9883V118.004Z" fill="#65A141"/>
<path d="M79.1888 116.403V122.101H78.8129C78.6606 122.101 78.5129 122.049 78.394 121.954C78.275 121.859 78.1917 121.727 78.1577 121.579C78.0298 121.738 77.8699 121.869 77.6883 121.962C77.4394 122.093 77.1627 122.161 76.8817 122.161C76.613 122.163 76.347 122.108 76.102 121.998C75.8674 121.892 75.6578 121.738 75.4867 121.546C75.3118 121.349 75.1756 121.121 75.0853 120.873C74.9878 120.608 74.9391 120.328 74.9415 120.045C74.9392 119.764 74.9859 119.484 75.0794 119.219C75.1643 118.975 75.2922 118.748 75.4571 118.549C75.6152 118.36 75.812 118.206 76.0344 118.098C76.2635 117.988 76.5154 117.932 76.7699 117.935C77.0574 117.93 77.3405 118.006 77.5873 118.153C77.8216 118.292 78.0161 118.488 78.1518 118.724V117.078C78.1518 116.9 78.2228 116.729 78.3491 116.602C78.4754 116.476 78.6467 116.406 78.8253 116.406L79.1888 116.403ZM78.1425 120.589V119.616C78.1011 119.502 78.0419 119.396 77.967 119.3C77.8927 119.207 77.806 119.125 77.7093 119.056C77.6154 118.988 77.5131 118.934 77.4052 118.892C77.3051 118.852 77.1981 118.831 77.09 118.83C76.9398 118.829 76.7915 118.863 76.6575 118.931C76.5259 118.997 76.4102 119.091 76.3182 119.206C76.2227 119.326 76.1488 119.462 76.0999 119.607C76.0467 119.757 76.0192 119.915 76.0185 120.074C76.0154 120.236 76.043 120.397 76.0999 120.549C76.154 120.689 76.2333 120.818 76.3337 120.93C76.4329 121.039 76.5537 121.127 76.6886 121.187C76.8321 121.251 76.9876 121.282 77.1445 121.28C77.2479 121.279 77.3506 121.262 77.4486 121.23C77.5516 121.197 77.649 121.148 77.7373 121.086C77.8256 121.024 77.9055 120.951 77.9749 120.868C78.0451 120.788 78.1005 120.695 78.1384 120.596L78.1425 120.589Z" fill="#65A141"/>
<path d="M83.5623 120.87C83.5694 121.052 83.5326 121.233 83.4552 121.397C83.3778 121.562 83.262 121.705 83.1174 121.816C82.7654 122.063 82.3401 122.184 81.9104 122.16C81.5686 122.161 81.2289 122.105 80.9048 121.997C80.5959 121.899 80.3097 121.74 80.063 121.53L80.1095 121.449C80.1987 121.304 80.3389 121.197 80.5027 121.15C80.6665 121.103 80.8421 121.119 80.9948 121.194C81.0579 121.224 81.12 121.25 81.1814 121.276C81.4059 121.365 81.645 121.412 81.8866 121.414C82.058 121.422 82.2283 121.381 82.377 121.296C82.434 121.261 82.4806 121.212 82.5121 121.153C82.5436 121.094 82.5587 121.028 82.556 120.962C82.5577 120.893 82.5384 120.826 82.5007 120.769C82.463 120.712 82.4086 120.668 82.3449 120.643C82.1228 120.547 81.8936 120.469 81.6594 120.409C81.3938 120.336 81.1677 120.266 80.981 120.199C80.8199 120.145 80.6676 120.068 80.5289 119.97C80.4224 119.893 80.3367 119.791 80.2796 119.674C80.2234 119.548 80.1955 119.411 80.1978 119.273C80.1947 119.079 80.2361 118.888 80.3189 118.713C80.3985 118.547 80.5145 118.402 80.6582 118.288C80.8103 118.168 80.9835 118.076 81.169 118.019C81.3745 117.955 81.5887 117.924 81.8038 117.926C82.0965 117.924 82.3876 117.969 82.666 118.059C82.938 118.15 83.1884 118.295 83.4019 118.486L83.3357 118.585C83.2499 118.717 83.1198 118.814 82.9689 118.859C82.8179 118.904 82.6559 118.893 82.5118 118.83C82.4667 118.809 82.4208 118.79 82.377 118.774C82.1914 118.703 81.9946 118.666 81.7959 118.665C81.6404 118.66 81.4865 118.697 81.351 118.774C81.292 118.81 81.244 118.862 81.2125 118.924C81.1809 118.985 81.1669 119.054 81.1721 119.124C81.1694 119.186 81.1841 119.248 81.2145 119.302C81.2493 119.355 81.2968 119.398 81.3524 119.427C81.4305 119.47 81.5126 119.505 81.5976 119.532C81.699 119.567 81.8256 119.599 81.977 119.638C82.2211 119.698 82.4619 119.77 82.6984 119.855C82.8725 119.914 83.0376 119.996 83.1888 120.1C83.3077 120.184 83.404 120.296 83.4692 120.426C83.5343 120.565 83.5662 120.717 83.5623 120.87Z" fill="#65A141"/>
</svg>
