<svg width="26" height="29" viewBox="0 0 26 29" fill="none" xmlns="http://www.w3.org/2000/svg">
<path d="M12.9996 8.69199C10.8936 8.69199 9.17344 10.3762 9.17344 12.4459C9.17344 14.5158 10.8936 16.2001 12.9996 16.2001C15.1057 16.2001 16.8258 14.5158 16.8258 12.4461C16.8258 10.3762 15.1057 8.69199 12.9996 8.69199ZM12.9996 15.3807C11.3478 15.3807 10.0049 14.061 10.0049 12.4459C10.0049 10.8308 11.3478 9.51117 12.9996 9.51117C14.6515 9.51117 15.9944 10.8308 15.9944 12.4459C15.9944 14.0612 14.6515 15.3807 12.9996 15.3807Z" fill="#F38328" stroke="#F38328" stroke-width="0.2"/>
<path d="M19.9705 22.6294C19.6564 19.0093 16.5949 16.0625 13 16.0625C9.40482 16.0625 6.34377 19.0098 6.02948 22.6592C3.42034 20.6285 1.73164 17.4879 1.73164 13.9637C1.73164 7.85868 6.76922 2.91589 12.9999 2.91589C19.2306 2.91589 24.2681 7.85857 24.2681 13.9637C24.2681 17.4881 22.5792 20.6286 19.9705 22.6294ZM13 2.09629C6.31515 2.09629 0.9 7.40353 0.9 13.9636C0.9 20.5236 6.31504 25.8309 13 25.8309C19.685 25.8309 25.1 20.5236 25.1 13.9636C25.1 7.40353 19.685 2.09629 13 2.09629ZM12.9686 25.0114C10.6715 25.0114 8.5907 24.3477 6.8163 23.1993C6.84573 19.7759 9.6653 16.8813 13 16.8813C16.3341 16.8813 19.1232 19.7752 19.1523 23.1993C17.3776 24.3475 15.2656 25.0114 12.9686 25.0114Z" fill="#F38328" stroke="#F38328" stroke-width="0.2"/>
</svg>
