<svg width="26" height="26" viewBox="0 0 26 26" fill="none" xmlns="http://www.w3.org/2000/svg">
<path d="M16.6449 21.0797C16.4606 22.7239 15.1228 24 13.5 24C11.8772 24 10.5393 22.7239 10.3551 21.0797H4.93243C4.41685 21.0797 4 20.6451 4 20.1073V18.9381C4 17.7563 4.91839 16.7964 6.0498 16.7964C6.15115 16.7964 6.23535 16.7084 6.23535 16.6011V11.9289C6.23535 8.59849 8.30258 5.70068 11.2646 4.70248V4.33662C11.2646 3.04673 12.2666 2 13.5 2C14.7351 2 15.7354 3.04458 15.7354 4.33662V4.70248C18.6972 5.70089 20.7647 8.59898 20.7647 11.9289V16.6011C20.7647 16.7106 20.8468 16.7964 20.9502 16.7964C22.0798 16.7964 23 17.756 23 18.9381V20.1073C23 20.6427 22.5816 21.0797 22.0676 21.0797H16.6449ZM15.5153 21.0797H11.4847C11.6599 22.0765 12.4956 22.8318 13.5 22.8318C14.5044 22.8318 15.3401 22.0765 15.5153 21.0797ZM21.8823 18.938C21.8823 18.4018 21.4631 17.9646 20.9501 17.9646C20.2295 17.9646 19.6469 17.3559 19.6469 16.6011V11.9289C19.6469 8.98033 17.7306 6.43101 15.0371 5.70663L14.6177 5.59391V4.33663C14.6177 3.68993 14.1182 3.16815 13.4999 3.16815C12.8838 3.16815 12.3822 3.69209 12.3822 4.33663V5.59391L11.9628 5.70663C9.26931 6.43101 7.35302 8.9795 7.35302 11.9289V16.6011C7.35302 17.3534 6.76858 17.9646 6.04978 17.9646C5.5355 17.9646 5.11761 18.4016 5.11761 18.938V19.9115H21.8822L21.8823 18.938Z" fill="#525252"/>
</svg>
