<svg width="25" height="21" viewBox="0 0 25 21" fill="none" xmlns="http://www.w3.org/2000/svg">
<path d="M16.6736 14.8028L16.6734 14.8024C16.4304 14.9632 16.1899 15.0632 15.9278 15.0963C15.666 15.1293 15.3862 15.0951 15.0653 14.9927C14.4257 14.7885 13.6133 14.3102 12.4387 13.5351L12.4346 13.5325L12.4348 13.5323L8.44046 10.3047L8.43632 10.3013L8.43652 10.3011C7.78903 9.65303 7.35184 9.11414 7.18653 8.63001C7.10328 8.38621 7.08835 8.15468 7.1512 7.93001C7.2139 7.70585 7.35276 7.493 7.56951 7.28396L7.57499 7.27868L7.57532 7.27915L8.83199 6.38914L8.83378 6.38787L8.83381 6.38791L9.27973 6.10063C9.35177 6.03958 9.38336 5.96568 9.38212 5.89555C9.38087 5.82452 9.34583 5.75113 9.27264 5.6929L9.27232 5.69264L4.62689 1.93322L4.62656 1.93295L4.62656 1.93295C4.555 1.87401 4.46096 1.84397 4.36762 1.84234C4.27472 1.84072 4.18726 1.86728 4.12687 1.9155L3.78525 2.2413L2.72311 3.32487C2.1919 3.92609 1.90652 5.09335 2.26242 6.55488C2.78304 8.69302 4.56628 11.178 7.93032 13.9623L7.89844 14.0008L7.93032 13.9623C11.4282 16.8573 14.6047 18.43 17.3585 18.9196C18.3146 19.0896 19.1836 19.1152 19.8993 19.0399C20.6163 18.9645 21.1751 18.7885 21.5142 18.559L21.5148 18.5587L23.2128 17.4419C23.2862 17.3788 23.3186 17.3033 23.318 17.232C23.3174 17.16 23.2831 17.0864 23.2118 17.0282L16.6736 14.8028ZM16.6736 14.8028L16.6785 14.7986L16.7663 14.7227L16.7666 14.7231L16.771 14.718L18.0908 13.2259C18.1368 13.1921 18.2152 13.1713 18.3055 13.1759C18.3968 13.1805 18.4923 13.2109 18.5659 13.2705L18.5974 13.2316L18.5659 13.2705L23.2116 17.0281L16.6736 14.8028ZM17.285 12.6396L17.2846 12.6392L17.2796 12.6448L15.9599 14.1288C15.7844 14.2191 15.5406 14.2086 15.1073 14.0193C14.6695 13.828 14.0521 13.4606 13.1409 12.8605L9.22203 9.69416C8.74224 9.21189 8.43749 8.83799 8.29473 8.54554C8.22349 8.39959 8.19456 8.2778 8.20135 8.17532C8.20795 8.07566 8.24859 7.99 8.32559 7.91397L9.50939 7.08175L9.98569 6.77116L9.98587 6.77143L9.99023 6.76782C10.2963 6.51492 10.4472 6.1993 10.4476 5.88704C10.448 5.57491 10.2978 5.27282 10.0147 5.0474C10.0147 5.04736 10.0146 5.04732 10.0146 5.04728L5.37564 1.29315C5.37558 1.2931 5.37553 1.29306 5.37548 1.29302C4.81404 0.830799 3.9112 0.838198 3.3489 1.30016L3.34881 1.30006L3.34619 1.30255L2.96777 1.66229L2.96775 1.66227L2.96651 1.66353L1.87813 2.77416L1.87808 2.77412L1.8764 2.77602C0.863414 3.92076 0.63109 5.59029 1.42967 7.61348C2.22777 9.63543 4.05666 12.016 7.17573 14.5975C10.8058 17.602 14.1587 19.265 17.1343 19.7942C18.236 19.99 19.2593 20.0169 20.1262 19.9146C20.9921 19.8124 21.7054 19.5809 22.1842 19.257C22.1843 19.257 22.1844 19.2569 22.1844 19.2569L23.9245 18.1085L23.9247 18.1088L23.9291 18.1051C24.232 17.8507 24.382 17.5363 24.3833 17.2253C24.3847 16.9143 24.2374 16.6133 23.9586 16.3863L23.9585 16.3862L19.3118 12.6279C19.3118 12.6279 19.3118 12.6279 19.3118 12.6278C18.7439 12.1681 17.842 12.1749 17.285 12.6396Z" fill="#525252" stroke="#525252" stroke-width="0.1"/>
</svg>
