<svg width="26" height="26" viewBox="0 0 26 26" fill="none" xmlns="http://www.w3.org/2000/svg">
<path d="M13.0001 7.69199C10.8941 7.69199 9.17393 9.3762 9.17393 11.4459C9.17393 13.5158 10.8941 15.2001 13.0001 15.2001C15.1062 15.2001 16.8263 13.5158 16.8263 11.4461C16.8263 9.37621 15.1062 7.69199 13.0001 7.69199ZM13.0001 14.3807C11.3482 14.3807 10.0054 13.061 10.0054 11.4459C10.0054 9.83081 11.3482 8.51117 13.0001 8.51117C14.652 8.51117 15.9949 9.83081 15.9949 11.4459C15.9949 13.0612 14.652 14.3807 13.0001 14.3807Z" fill="#525252" stroke="#525252" stroke-width="0.2"/>
<path d="M19.9705 21.6294C19.6564 18.0093 16.5949 15.0625 13 15.0625C9.40482 15.0625 6.34377 18.0098 6.02948 21.6592C3.42034 19.6285 1.73164 16.4879 1.73164 12.9637C1.73164 6.85868 6.76922 1.91589 12.9999 1.91589C19.2306 1.91589 24.2681 6.85857 24.2681 12.9637C24.2681 16.4881 22.5792 19.6286 19.9705 21.6294ZM13 1.09629C6.31515 1.09629 0.9 6.40353 0.9 12.9636C0.9 19.5236 6.31504 24.8309 13 24.8309C19.685 24.8309 25.1 19.5236 25.1 12.9636C25.1 6.40353 19.685 1.09629 13 1.09629ZM12.9686 24.0114C10.6715 24.0114 8.5907 23.3477 6.8163 22.1993C6.84573 18.7759 9.6653 15.8813 13 15.8813C16.3341 15.8813 19.1232 18.7752 19.1523 22.1993C17.3776 23.3475 15.2656 24.0114 12.9686 24.0114Z" fill="#525252" stroke="#525252" stroke-width="0.2"/>
</svg>
