<svg width="38" height="38" viewBox="0 0 38 38" fill="none" xmlns="http://www.w3.org/2000/svg">
<path d="M19 38C29.4934 38 38 29.4934 38 19C38 8.50659 29.4934 0 19 0C8.50659 0 0 8.50659 0 19C0 29.4934 8.50659 38 19 38Z" fill="white"/>
<path d="M19.6322 29C19.5727 29 19.5159 28.9978 19.4727 28.9957C19.4384 28.9987 19.4031 29 19.3676 29C18.1172 29 17.2812 28.4003 16.5434 27.8709C16.0146 27.4919 15.5159 27.1342 14.9316 27.0356C14.6447 26.9873 14.3592 26.9628 14.0834 26.9628C13.5865 26.9628 13.1938 27.041 12.9071 27.0979C12.7306 27.1328 12.5785 27.1628 12.4609 27.1628C12.3378 27.1628 12.1881 27.1351 12.1258 26.9191C12.0763 26.7487 12.0409 26.5836 12.0067 26.4246C11.9211 26.0274 11.859 25.7849 11.7124 25.7619C10.1441 25.5164 9.21752 25.1548 9.03294 24.7169C9.01361 24.6709 9.00279 24.6246 9.0004 24.5788C8.99321 24.4483 9.08405 24.3338 9.21088 24.3125C10.4563 24.1044 11.5637 23.4366 12.5024 22.3271C13.2296 21.468 13.5867 20.6473 13.6251 20.5567C13.6268 20.5526 13.6287 20.5483 13.6307 20.5444C13.8117 20.1719 13.8477 19.8501 13.738 19.5881C13.536 19.1046 12.8667 18.8893 12.424 18.7467C12.3138 18.7114 12.2097 18.6779 12.1267 18.6445C11.7342 18.4872 11.0887 18.1549 11.1747 17.6963C11.2373 17.3618 11.6734 17.1289 12.0258 17.1289C12.1237 17.1289 12.2104 17.1463 12.2834 17.1811C12.6817 17.3704 13.0399 17.4663 13.3481 17.4663C13.7312 17.4663 13.9163 17.3183 13.9611 17.2762C13.95 17.0689 13.9365 16.8496 13.9235 16.6423L13.9232 16.6396C13.8333 15.1881 13.7211 13.3817 14.1766 12.3458C15.5398 9.24513 18.4308 9.00401 19.2841 9.00401C19.3069 9.00401 19.6561 9.00051 19.6561 9.00051C19.6718 9.00023 19.6889 9 19.7067 9C20.5623 9 23.4594 9.2414 24.8234 12.344C25.2789 13.3805 25.1666 15.1884 25.0764 16.6414L25.0721 16.711C25.0598 16.9083 25.0483 17.095 25.0387 17.276C25.0808 17.3154 25.2502 17.451 25.5948 17.4648C25.8885 17.4534 26.2261 17.3579 26.5978 17.1813C26.7127 17.1266 26.8399 17.1152 26.9263 17.1152C27.0569 17.1152 27.1897 17.141 27.3004 17.1879L27.3064 17.1902C27.6218 17.3038 27.8284 17.5307 27.8328 17.7692C27.8368 17.9915 27.6739 18.3237 26.873 18.6446C26.791 18.6776 26.6863 18.7113 26.5758 18.7468C26.1326 18.8895 25.4639 19.1048 25.2618 19.588C25.1521 19.85 25.1882 20.1717 25.3692 20.544C25.3712 20.5481 25.3729 20.5522 25.3749 20.5565C25.4306 20.6891 26.7795 23.8092 29.7891 24.3122C29.9158 24.3336 30.0068 24.4482 29.9996 24.5785C29.9969 24.6253 29.9858 24.6721 29.9663 24.7179C29.783 25.1533 28.8564 25.5144 27.2877 25.7602C27.1405 25.7833 27.0785 26.0247 26.9937 26.4199C26.9586 26.5831 26.9228 26.7431 26.8741 26.9112C26.8284 27.0693 26.7269 27.1466 26.5638 27.1466H26.5393C26.4331 27.1466 26.2827 27.127 26.093 27.0894C25.7614 27.0239 25.3895 26.963 24.9166 26.963C24.6409 26.963 24.3555 26.9875 24.0682 27.0357C23.4846 27.1343 22.9859 27.4915 22.458 27.8701C21.7188 28.4003 20.8825 29 19.6322 29Z" fill="#F38328"/>
</svg>
