<svg width="38" height="38" viewBox="0 0 38 38" fill="none" xmlns="http://www.w3.org/2000/svg">
<path d="M19 38C29.4934 38 38 29.4934 38 19C38 8.50659 29.4934 0 19 0C8.50659 0 0 8.50659 0 19C0 29.4934 8.50659 38 19 38Z" fill="white"/>
<path d="M21.9304 18.1093L21.9303 18.1094L21.9302 18.1095L21.93 18.1097L16.0973 23.9424C16.0123 24.0273 15.9239 24.1138 15.8341 24.2015C15.6504 24.3811 15.4611 24.5661 15.2845 24.7552L15.2751 24.7646C15.2751 24.7646 15.2751 24.7646 15.2751 24.7646C15.1775 24.8622 15.1324 24.987 15.1418 25.1127C15.1507 25.2317 15.2066 25.3344 15.2794 25.4075C15.3522 25.4805 15.4551 25.5371 15.5747 25.5458C15.7011 25.5551 15.8256 25.509 15.9226 25.4113C15.9227 25.4111 15.9229 25.4109 15.9231 25.4107L16.2531 25.0807L16.5841 24.7497L18.1725 23.1613L20.094 21.2399L21.7552 19.5786C21.8402 19.4937 21.9286 19.4072 22.0184 19.3195C22.2022 19.1399 22.3915 18.9549 22.568 18.7658L22.5765 18.7573C22.5767 18.7571 22.5769 18.7569 22.5771 18.7567C22.6749 18.6597 22.7201 18.535 22.7107 18.4093C22.7018 18.2904 22.6456 18.1879 22.5731 18.1151C22.5005 18.0423 22.3981 17.9857 22.2791 17.9764C22.153 17.9666 22.028 18.0117 21.9304 18.1093Z" fill="#F38328" stroke="#F38328" stroke-width="0.5"/>
<path d="M17.7067 20.4571C18.2013 19.9196 18.325 19.1399 18.0187 18.4755L18.0186 18.4753C17.7097 17.8065 16.9736 17.3834 16.2375 17.4614C15.5015 17.5384 14.8594 18.0626 14.6743 18.7981L14.6743 18.7983C14.4899 19.5332 14.7956 20.3036 15.4181 20.7234L17.7067 20.4571ZM17.7067 20.4571C17.6945 20.4724 17.6811 20.4871 17.6667 20.5013L17.6665 20.5015C17.0746 21.0789 16.1238 21.1995 15.4182 20.7234L17.7067 20.4571ZM16.05 20.031C15.7103 19.8741 15.508 19.5209 15.5405 19.1454C15.5723 18.7906 15.8478 18.4796 16.1994 18.3917L16.1997 18.3917C16.5454 18.3048 16.9298 18.4514 17.1267 18.7485C17.3534 19.0974 17.3081 19.5557 17.019 19.8527C16.7614 20.1036 16.3695 20.1797 16.0506 20.0313L16.05 20.031Z" fill="#F38328" stroke="#F38328" stroke-width="0.5"/>
<path d="M22.7529 25.5007C23.2473 24.9632 23.3708 24.1837 23.0646 23.5194L23.0645 23.5193C22.7556 22.8504 22.0195 22.4274 21.2834 22.5053C20.5474 22.5823 19.9053 23.1065 19.7202 23.842L19.7202 23.8422C19.5358 24.5771 19.8415 25.3475 20.464 25.7673L22.7529 25.5007ZM22.7529 25.5007C22.7406 25.5161 22.7272 25.531 22.7126 25.5452L22.7124 25.5454C22.1205 26.1228 21.1697 26.2435 20.4641 25.7674L22.7529 25.5007ZM22.0647 24.8968C22.0643 24.8972 22.0639 24.8977 22.0635 24.8981L22.5591 24.4119L22.0671 24.8945C22.0663 24.8953 22.0655 24.896 22.0647 24.8968ZM22.0647 24.8968C21.8071 25.1476 21.4153 25.2236 21.0965 25.0753L21.0959 25.075C20.7562 24.9181 20.5539 24.5649 20.5864 24.1893C20.6182 23.8346 20.8937 23.5236 21.2453 23.4357L21.2456 23.4356C21.5914 23.3487 21.976 23.4955 22.1729 23.7928C22.4005 24.1403 22.3551 24.5967 22.0647 24.8968Z" fill="#F38328" stroke="#F38328" stroke-width="0.5"/>
<mask id="path-5-outside-1_399_2850" maskUnits="userSpaceOnUse" x="10" y="9" width="18" height="21" fill="black">
<rect fill="white" x="10" y="9" width="18" height="21"/>
<path d="M26.8596 27.6004V27.0945V25.7581V23.8616V21.6717V19.4588V17.4915V16.0385C26.8596 15.8157 26.8679 15.5909 26.8596 15.3682C26.8554 15.2683 26.8055 15.212 26.743 15.1475C26.6389 15.0393 26.5348 14.9331 26.4287 14.8248C26.0248 14.4106 25.6189 13.9942 25.215 13.58C24.7008 13.0533 24.1866 12.5245 23.6725 11.9979C23.2311 11.5441 22.7877 11.0923 22.3464 10.6385C22.1611 10.447 21.9821 10.2388 21.7843 10.0619C21.699 9.98486 21.5907 10.0015 21.4866 10.0015H21.0328H19.4403H17.3148H15.1103H13.2825H12.2874C12.0564 10.0015 11.8336 10.0411 11.6275 10.1535C11.2403 10.3679 11.0051 10.7842 11.0009 11.2235C10.9988 11.3775 11.0009 11.5316 11.0009 11.6856V12.8035V14.4273V16.407V18.5907V20.8307V22.9748V24.8734V26.3764V27.3319C11.0009 27.615 11.0009 27.8773 11.1279 28.1459C11.3278 28.5622 11.767 28.8162 12.2208 28.8224H12.3811H13.3262H14.9208H16.9401H19.1592H21.3554H23.306H24.7861H25.573C25.7063 28.8224 25.8374 28.8141 25.9665 28.7787C26.4932 28.6288 26.8512 28.1417 26.8595 27.6004C26.8637 27.3319 26.4474 27.3319 26.4432 27.6004C26.4369 28.0564 26.0706 28.3998 25.6209 28.4019H25.2795H23.5745H20.9391H17.9539H15.1269H13.041C12.7662 28.4019 12.4914 28.4061 12.2166 28.4019C11.7649 28.3957 11.4173 28.0314 11.4152 27.5838V27.3028V25.8456V23.5036V20.6433V17.6332V14.8395V12.6308V11.3755C11.4152 11.286 11.4089 11.1902 11.4214 11.1028C11.4818 10.6822 11.8503 10.4179 12.2582 10.4179H13.7238H16.4696H19.384H21.3575H21.6364C21.5865 10.3971 21.5386 10.3762 21.4886 10.3575C21.6552 10.5282 21.8196 10.6968 21.9861 10.8675C22.3837 11.2755 22.7834 11.6856 23.1811 12.0937C23.6641 12.5891 24.1449 13.0825 24.6279 13.5779C25.0463 14.0088 25.4668 14.4377 25.8852 14.8686C26.0226 15.0101 26.16 15.1496 26.2974 15.2912C26.3619 15.3578 26.4223 15.4328 26.4931 15.491L26.5014 15.4994C26.4806 15.4494 26.4598 15.4015 26.4411 15.3516V16.5777V19.5004V23.0331V26.0954C26.4411 26.5908 26.4265 27.0883 26.4411 27.5817V27.6025C26.4431 27.869 26.8595 27.869 26.8595 27.6005L26.8596 27.6004Z"/>
</mask>
<path d="M26.8596 27.6004V27.0945V25.7581V23.8616V21.6717V19.4588V17.4915V16.0385C26.8596 15.8157 26.8679 15.5909 26.8596 15.3682C26.8554 15.2683 26.8055 15.212 26.743 15.1475C26.6389 15.0393 26.5348 14.9331 26.4287 14.8248C26.0248 14.4106 25.6189 13.9942 25.215 13.58C24.7008 13.0533 24.1866 12.5245 23.6725 11.9979C23.2311 11.5441 22.7877 11.0923 22.3464 10.6385C22.1611 10.447 21.9821 10.2388 21.7843 10.0619C21.699 9.98486 21.5907 10.0015 21.4866 10.0015H21.0328H19.4403H17.3148H15.1103H13.2825H12.2874C12.0564 10.0015 11.8336 10.0411 11.6275 10.1535C11.2403 10.3679 11.0051 10.7842 11.0009 11.2235C10.9988 11.3775 11.0009 11.5316 11.0009 11.6856V12.8035V14.4273V16.407V18.5907V20.8307V22.9748V24.8734V26.3764V27.3319C11.0009 27.615 11.0009 27.8773 11.1279 28.1459C11.3278 28.5622 11.767 28.8162 12.2208 28.8224H12.3811H13.3262H14.9208H16.9401H19.1592H21.3554H23.306H24.7861H25.573C25.7063 28.8224 25.8374 28.8141 25.9665 28.7787C26.4932 28.6288 26.8512 28.1417 26.8595 27.6004C26.8637 27.3319 26.4474 27.3319 26.4432 27.6004C26.4369 28.0564 26.0706 28.3998 25.6209 28.4019H25.2795H23.5745H20.9391H17.9539H15.1269H13.041C12.7662 28.4019 12.4914 28.4061 12.2166 28.4019C11.7649 28.3957 11.4173 28.0314 11.4152 27.5838V27.3028V25.8456V23.5036V20.6433V17.6332V14.8395V12.6308V11.3755C11.4152 11.286 11.4089 11.1902 11.4214 11.1028C11.4818 10.6822 11.8503 10.4179 12.2582 10.4179H13.7238H16.4696H19.384H21.3575H21.6364C21.5865 10.3971 21.5386 10.3762 21.4886 10.3575C21.6552 10.5282 21.8196 10.6968 21.9861 10.8675C22.3837 11.2755 22.7834 11.6856 23.1811 12.0937C23.6641 12.5891 24.1449 13.0825 24.6279 13.5779C25.0463 14.0088 25.4668 14.4377 25.8852 14.8686C26.0226 15.0101 26.16 15.1496 26.2974 15.2912C26.3619 15.3578 26.4223 15.4328 26.4931 15.491L26.5014 15.4994C26.4806 15.4494 26.4598 15.4015 26.4411 15.3516V16.5777V19.5004V23.0331V26.0954C26.4411 26.5908 26.4265 27.0883 26.4411 27.5817V27.6025C26.4431 27.869 26.8595 27.869 26.8595 27.6005L26.8596 27.6004Z" fill="#F38328"/>
<path d="M26.8596 27.6004L27.1271 28.0228L27.3596 27.8756V27.6004H26.8596ZM26.8596 15.3682L27.3592 15.3495L27.3591 15.3474L26.8596 15.3682ZM26.743 15.1475L26.3826 15.4941L26.3837 15.4952L26.743 15.1475ZM26.4287 14.8248L26.0706 15.1739L26.0717 15.1749L26.4287 14.8248ZM25.215 13.58L25.573 13.2309L25.5728 13.2307L25.215 13.58ZM23.6725 11.9979L23.314 12.3465L23.3147 12.3472L23.6725 11.9979ZM22.3464 10.6385L21.987 10.9862L21.988 10.9871L22.3464 10.6385ZM21.7843 10.0619L21.4493 10.4331L21.451 10.4345L21.7843 10.0619ZM11.6275 10.1535L11.3881 9.71453L11.3853 9.71607L11.6275 10.1535ZM11.0009 11.2235L11.5009 11.2302L11.5009 11.2282L11.0009 11.2235ZM11.1279 28.1459L10.6759 28.3596L10.6771 28.3622L11.1279 28.1459ZM12.2208 28.8224L12.2139 29.3224H12.2208V28.8224ZM25.9665 28.7787L26.0987 29.2609L26.1033 29.2596L25.9665 28.7787ZM26.8595 27.6004L26.3596 27.5927V27.5927L26.8595 27.6004ZM26.4432 27.6004L25.9432 27.5926L25.9432 27.5936L26.4432 27.6004ZM25.6209 28.4019V28.9019L25.6232 28.9019L25.6209 28.4019ZM12.2166 28.4019L12.2242 27.902L12.2235 27.902L12.2166 28.4019ZM11.4152 27.5838H10.9152L10.9152 27.5861L11.4152 27.5838ZM11.4214 11.1028L10.9265 11.0317L10.9264 11.0321L11.4214 11.1028ZM21.6364 10.4179V10.9179L21.8287 9.95634L21.6364 10.4179ZM21.4886 10.3575L21.6642 9.88934L21.1307 10.7067L21.4886 10.3575ZM21.9861 10.8675L22.3442 10.5186L22.344 10.5183L21.9861 10.8675ZM23.1811 12.0937L22.823 12.4426L22.823 12.4427L23.1811 12.0937ZM24.6279 13.5779L24.9866 13.2296L24.9859 13.2289L24.6279 13.5779ZM25.8852 14.8686L26.244 14.5203L26.2439 14.5203L25.8852 14.8686ZM26.2974 15.2912L26.6565 14.9433L26.6562 14.943L26.2974 15.2912ZM26.4931 15.491L26.8466 15.1375L26.8296 15.1204L26.8109 15.1051L26.4931 15.491ZM26.5014 15.4994L26.1479 15.8529L26.963 15.3071L26.5014 15.4994ZM26.4411 15.3516L26.9092 15.176L25.9411 15.3516H26.4411ZM26.4411 27.5817H26.9411V27.5743L26.9408 27.567L26.4411 27.5817ZM26.4411 27.6025H25.941L25.9411 27.6064L26.4411 27.6025ZM26.8595 27.6005L26.5919 27.178L26.3595 27.3253V27.6005H26.8595ZM27.3596 27.6004V27.0945H26.3596V27.6004H27.3596ZM27.3596 27.0945V25.7581H26.3596V27.0945H27.3596ZM27.3596 25.7581V23.8616H26.3596V25.7581H27.3596ZM27.3596 23.8616V21.6717H26.3596V23.8616H27.3596ZM27.3596 21.6717V19.4588H26.3596V21.6717H27.3596ZM27.3596 19.4588V17.4915H26.3596V19.4588H27.3596ZM27.3596 17.4915V16.0385H26.3596V17.4915H27.3596ZM27.3596 16.0385C27.3596 15.8421 27.368 15.5831 27.3592 15.3495L26.3599 15.3869C26.3678 15.5987 26.3596 15.7893 26.3596 16.0385H27.3596ZM27.3591 15.3474C27.3466 15.0455 27.1706 14.8704 27.1023 14.7998L26.3837 15.4952C26.3985 15.5105 26.4037 15.5163 26.4061 15.5191C26.4078 15.5211 26.4023 15.5149 26.3947 15.5023C26.3865 15.4887 26.3774 15.4701 26.3704 15.4474C26.3635 15.4247 26.3607 15.4045 26.36 15.389L27.3591 15.3474ZM27.1034 14.801C26.9974 14.6907 26.8916 14.5828 26.7856 14.4747L26.0717 15.1749C26.1781 15.2834 26.2805 15.3879 26.3826 15.4941L27.1034 14.801ZM26.7867 14.4758C26.3828 14.0615 25.9769 13.6452 25.573 13.2309L24.857 13.929C25.2609 14.3433 25.6668 14.7596 26.0706 15.1739L26.7867 14.4758ZM25.5728 13.2307C25.3159 12.9676 25.059 12.7039 24.8018 12.44C24.5448 12.1762 24.2875 11.9121 24.0302 11.6486L23.3147 12.3472C23.5716 12.6103 23.8285 12.874 24.0856 13.1378C24.3427 13.4017 24.5999 13.6657 24.8572 13.9293L25.5728 13.2307ZM24.0309 11.6493C23.8098 11.4219 23.5882 11.1951 23.3671 10.9688C23.1458 10.7423 22.925 10.5163 22.7049 10.2899L21.988 10.9871C22.2091 11.2145 22.4307 11.4413 22.6518 11.6676C22.873 11.8941 23.0938 12.12 23.314 12.3465L24.0309 11.6493ZM22.7058 10.2909C22.5493 10.1292 22.3324 9.88131 22.1177 9.68924L21.451 10.4345C21.6318 10.5963 21.7729 10.7648 21.987 10.9862L22.7058 10.2909ZM22.1193 9.69069C21.9749 9.56035 21.8148 9.51849 21.696 9.50569C21.6407 9.49973 21.5911 9.49972 21.5582 9.50017C21.5102 9.50082 21.5126 9.50152 21.4866 9.50152V10.5015C21.5058 10.5015 21.5237 10.5011 21.5375 10.5008C21.5528 10.5005 21.562 10.5002 21.5719 10.5001C21.5913 10.4998 21.5936 10.5004 21.589 10.4999C21.5829 10.4993 21.5624 10.4966 21.5348 10.4858C21.5053 10.4743 21.4754 10.4566 21.4493 10.4331L22.1193 9.69069ZM21.4866 9.50152H21.0328V10.5015H21.4866V9.50152ZM21.0328 9.50152H19.4403V10.5015H21.0328V9.50152ZM19.4403 9.50152H17.3148V10.5015H19.4403V9.50152ZM17.3148 9.50152H15.1103V10.5015H17.3148V9.50152ZM15.1103 9.50152H13.2825V10.5015H15.1103V9.50152ZM13.2825 9.50152H12.2874V10.5015H13.2825V9.50152ZM12.2874 9.50152C11.9992 9.50152 11.6878 9.55104 11.3881 9.71454L11.867 10.5924C11.9794 10.5311 12.1135 10.5015 12.2874 10.5015V9.50152ZM11.3853 9.71607C10.8326 10.0221 10.5067 10.6086 10.5009 11.2188L11.5009 11.2282C11.5034 10.9599 11.648 10.7137 11.8697 10.5909L11.3853 9.71607ZM10.501 11.2167C10.4988 11.3747 10.5009 11.5411 10.5009 11.6856H11.5009C11.5009 11.522 11.4989 11.3803 11.5009 11.2302L10.501 11.2167ZM10.5009 11.6856V12.8035H11.5009V11.6856H10.5009ZM10.5009 12.8035V14.4273H11.5009V12.8035H10.5009ZM10.5009 14.4273V16.407H11.5009V14.4273H10.5009ZM10.5009 16.407V18.5907H11.5009V16.407H10.5009ZM10.5009 18.5907V20.8307H11.5009V18.5907H10.5009ZM10.5009 20.8307V22.9748H11.5009V20.8307H10.5009ZM10.5009 22.9748V24.8734H11.5009V22.9748H10.5009ZM10.5009 24.8734V26.3764H11.5009V24.8734H10.5009ZM10.5009 26.3764V27.3319H11.5009V26.3764H10.5009ZM10.5009 27.3319C10.5009 27.6022 10.4941 27.9752 10.6759 28.3596L11.5799 27.9321C11.5077 27.7795 11.5009 27.6279 11.5009 27.3319H10.5009ZM10.6771 28.3622C10.9667 28.9655 11.5885 29.3138 12.2139 29.3224L12.2277 28.3225C11.9455 28.3186 11.6888 28.159 11.5787 27.9295L10.6771 28.3622ZM12.2208 29.3224H12.3811V28.3224H12.2208V29.3224ZM12.3811 29.3224H13.3262V28.3224H12.3811V29.3224ZM13.3262 29.3224H14.9208V28.3224H13.3262V29.3224ZM14.9208 29.3224H16.9401V28.3224H14.9208V29.3224ZM16.9401 29.3224H19.1592V28.3224H16.9401V29.3224ZM19.1592 29.3224H21.3554V28.3224H19.1592V29.3224ZM21.3554 29.3224H23.306V28.3224H21.3554V29.3224ZM23.306 29.3224H24.7861V28.3224H23.306V29.3224ZM24.7861 29.3224H25.573V28.3224H24.7861V29.3224ZM25.573 29.3224C25.7244 29.3224 25.9068 29.3135 26.0987 29.2609L25.8343 28.2965C25.768 28.3147 25.6881 28.3224 25.573 28.3224V29.3224ZM26.1033 29.2596C26.8503 29.047 27.3479 28.3615 27.3595 27.6081L26.3596 27.5927C26.3545 27.9219 26.1361 28.2106 25.8296 28.2978L26.1033 29.2596ZM27.3595 27.6082C27.3627 27.3994 27.279 27.2063 27.1254 27.0725C26.9826 26.948 26.8086 26.899 26.6545 26.899C26.5002 26.899 26.3286 26.948 26.1871 27.0682C26.0355 27.1968 25.9465 27.3842 25.9432 27.5926L26.9431 27.6082C26.942 27.6824 26.9065 27.7691 26.8341 27.8306C26.7717 27.8836 26.7047 27.899 26.6545 27.899C26.6045 27.899 26.5341 27.8836 26.4683 27.8263C26.3917 27.7596 26.3585 27.6672 26.3596 27.5927L27.3595 27.6082ZM25.9432 27.5936C25.9409 27.7638 25.809 27.901 25.6186 27.9019L25.6232 28.9019C26.3321 28.8986 26.933 28.3489 26.9431 27.6073L25.9432 27.5936ZM25.6209 27.9019H25.2795V28.9019H25.6209V27.9019ZM25.2795 27.9019H23.5745V28.9019H25.2795V27.9019ZM23.5745 27.9019H20.9391V28.9019H23.5745V27.9019ZM20.9391 27.9019H17.9539V28.9019H20.9391V27.9019ZM17.9539 27.9019H15.1269V28.9019H17.9539V27.9019ZM15.1269 27.9019H13.041V28.9019H15.1269V27.9019ZM13.041 27.9019C12.7555 27.9019 12.4946 27.9061 12.2242 27.902L12.2091 28.9019C12.4882 28.9061 12.7769 28.9019 13.041 28.9019V27.9019ZM12.2235 27.902C12.0533 27.8996 11.916 27.7656 11.9152 27.5815L10.9152 27.5861C10.9185 28.2971 11.4765 28.8917 12.2097 28.9019L12.2235 27.902ZM11.9152 27.5838V27.3028H10.9152V27.5838H11.9152ZM11.9152 27.3028V25.8456H10.9152V27.3028H11.9152ZM11.9152 25.8456V23.5036H10.9152V25.8456H11.9152ZM11.9152 23.5036V20.6433H10.9152V23.5036H11.9152ZM11.9152 20.6433V17.6332H10.9152V20.6433H11.9152ZM11.9152 17.6332V14.8395H10.9152V17.6332H11.9152ZM11.9152 14.8395V12.6308H10.9152V14.8395H11.9152ZM11.9152 12.6308V11.3755H10.9152V12.6308H11.9152ZM11.9152 11.3755C11.9152 11.2386 11.9106 11.214 11.9164 11.1735L10.9264 11.0321C10.9072 11.1664 10.9152 11.3333 10.9152 11.3755H11.9152ZM11.9163 11.1738C11.9356 11.0394 12.0564 10.9179 12.2582 10.9179V9.91788C11.6441 9.91788 11.0279 10.3251 10.9265 11.0317L11.9163 11.1738ZM12.2582 10.9179H13.7238V9.91788H12.2582V10.9179ZM13.7238 10.9179H16.4696V9.91788H13.7238V10.9179ZM16.4696 10.9179H19.384V9.91788H16.4696V10.9179ZM19.384 10.9179H21.3575V9.91788H19.384V10.9179ZM21.3575 10.9179H21.6364V9.91788H21.3575V10.9179ZM21.8287 9.95634C21.7881 9.93939 21.7253 9.91228 21.6642 9.88934L21.3131 10.8257C21.3518 10.8402 21.3849 10.8547 21.4441 10.8794L21.8287 9.95634ZM21.1307 10.7067C21.2971 10.8772 21.4618 11.0461 21.6283 11.2167L22.344 10.5183C22.1774 10.3476 22.0132 10.1792 21.8465 10.0083L21.1307 10.7067ZM21.628 11.2165C22.0257 11.6245 22.4254 12.0346 22.823 12.4426L23.5392 11.7447C23.1415 11.3366 22.7418 10.9266 22.3442 10.5186L21.628 11.2165ZM22.823 12.4427C23.306 12.9381 23.7869 13.4315 24.2699 13.9269L24.9859 13.2289C24.5029 12.7335 24.0222 12.2402 23.5391 11.7446L22.823 12.4427ZM24.2692 13.9262C24.4789 14.1422 24.689 14.3576 24.8987 14.5724C25.1085 14.7875 25.3178 15.002 25.5265 15.2169L26.2439 14.5203C26.0342 14.3043 25.8241 14.0889 25.6144 13.8741C25.4046 13.659 25.1953 13.4445 24.9866 13.2296L24.2692 13.9262ZM25.5264 15.2168C25.5959 15.2884 25.6652 15.3593 25.7338 15.4294C25.8026 15.4998 25.8707 15.5694 25.9386 15.6394L26.6562 14.943C26.5868 14.8714 26.5174 14.8005 26.4488 14.7303C26.38 14.66 26.312 14.5904 26.244 14.5203L25.5264 15.2168ZM25.9383 15.6391C25.9572 15.6586 26.0773 15.7963 26.1753 15.877L26.8109 15.1051C26.7674 15.0692 26.7667 15.057 26.6565 14.9433L25.9383 15.6391ZM26.1395 15.8446L26.1479 15.8529L26.855 15.1458L26.8466 15.1375L26.1395 15.8446ZM26.963 15.3071C26.9383 15.2478 26.9238 15.2148 26.9092 15.176L25.9729 15.5271C25.9958 15.5883 26.0229 15.651 26.0399 15.6917L26.963 15.3071ZM25.9411 15.3516V16.5777H26.9411V15.3516H25.9411ZM25.9411 16.5777V19.5004H26.9411V16.5777H25.9411ZM25.9411 19.5004V23.0331H26.9411V19.5004H25.9411ZM25.9411 23.0331V26.0954H26.9411V23.0331H25.9411ZM25.9411 26.0954C25.9411 26.57 25.9264 27.0945 25.9413 27.5965L26.9408 27.567C26.9265 27.0822 26.9411 26.6117 26.9411 26.0954H25.9411ZM25.9411 27.5817V27.6025H26.9411V27.5817H25.9411ZM25.9411 27.6064C25.9427 27.8159 26.0316 28.0048 26.1843 28.1341C26.3266 28.2545 26.4987 28.3025 26.6523 28.3021C26.8059 28.3017 26.9784 28.2528 27.1204 28.1306C27.273 27.9994 27.3595 27.8092 27.3595 27.6005H26.3595C26.3595 27.526 26.3939 27.4365 26.4683 27.3725C26.5323 27.3175 26.6005 27.3022 26.6498 27.3021C26.699 27.302 26.7666 27.3168 26.8303 27.3707C26.9044 27.4334 26.9404 27.5224 26.941 27.5986L25.9411 27.6064ZM27.127 28.0229L27.1271 28.0228L26.5921 27.178L26.5919 27.178L27.127 28.0229Z" fill="#F38328" mask="url(#path-5-outside-1_399_2850)"/>
<path d="M26.5912 15.8078C26.1699 15.8143 25.7456 15.812 25.3247 15.8098C25.1115 15.8086 24.8991 15.8075 24.6883 15.8075H22.6961C22.1519 15.8075 21.6117 15.5414 21.3435 15.0203L21.3432 15.0198C21.1794 14.6999 21.1763 14.3765 21.1763 14.0961V11.8187V10.3993L21.0474 10.2672L21.1763 10.2129V10.2074C21.1763 9.80531 21.6722 9.59901 21.9603 9.87796L21.9632 9.88077L21.9632 9.88079L21.9652 9.88279L22.0885 9.83087V10.0033C22.1943 10.109 22.2979 10.2181 22.3985 10.3242C22.4608 10.3899 22.522 10.4545 22.582 10.5162L26.5912 15.8078ZM26.5912 15.8078C26.6174 15.8106 26.6439 15.811 26.6703 15.809C26.6885 15.8077 26.7063 15.8052 26.7237 15.8018C26.8303 15.7854 26.9227 15.7336 26.9899 15.6554C27.0206 15.6198 27.0443 15.5807 27.0617 15.5402C27.086 15.4911 27.1024 15.4363 27.1074 15.3775C27.1182 15.2519 27.0747 15.1266 26.9789 15.0276L26.7737 14.8155L26.773 14.8165L26.4807 14.517L26.4806 14.5169L25.2858 13.2908L25.2858 13.2908C25.1259 13.1268 24.9661 12.9631 24.8064 12.7995C24.4834 12.4686 24.161 12.1383 23.8394 11.8069L23.8393 11.8069C23.6299 11.5912 23.42 11.3761 23.2103 11.1612L23.2102 11.1611C23.0005 10.9462 22.791 10.7315 22.5821 10.5163L26.5912 15.8078ZM25.0717 14.3957C25.2328 14.5609 25.3939 14.7259 25.5546 14.8911H25.0589H22.8502C22.5841 14.8911 22.4293 14.88 22.2925 14.7686C22.1653 14.6638 22.092 14.5083 22.0885 14.3373V14.196V12.0872V11.3347L22.9959 12.2658L22.9959 12.2658C23.1559 12.4299 23.3156 12.5936 23.4753 12.7571C23.7983 13.088 24.1207 13.4183 24.4424 13.7497L24.4424 13.7498C24.6519 13.9655 24.8618 14.1806 25.0715 14.3955L25.0717 14.3957Z" fill="#F38328" stroke="#F38328" stroke-width="0.5"/>
</svg>
