<svg width="38" height="38" viewBox="0 0 38 38" fill="none" xmlns="http://www.w3.org/2000/svg">
<path d="M19 38C29.4934 38 38 29.4934 38 19C38 8.50659 29.4934 0 19 0C8.50659 0 0 8.50659 0 19C0 29.4934 8.50659 38 19 38Z" fill="white"/>
<path d="M20.4425 9.01688C21.5331 9 22.6175 9.01 23.7006 9C23.7662 10.2756 24.225 11.575 25.1587 12.4769C26.0906 13.4012 27.4087 13.8244 28.6912 13.9675V17.3231C27.4893 17.2838 26.2818 17.0337 25.1912 16.5163C24.7162 16.3012 24.2737 16.0244 23.8406 15.7413C23.835 18.1763 23.8506 20.6081 23.825 23.0331C23.76 24.1981 23.3756 25.3575 22.6981 26.3175C21.6081 27.9156 19.7162 28.9575 17.7731 28.99C16.5812 29.0581 15.3906 28.7331 14.375 28.1344C12.6918 27.1419 11.5075 25.325 11.335 23.375C11.315 22.9581 11.3081 22.5419 11.325 22.135C11.475 20.5494 12.2593 19.0325 13.4768 18.0006C14.8568 16.7987 16.79 16.2263 18.6 16.565C18.6168 17.7994 18.5675 19.0325 18.5675 20.2669C17.7406 19.9994 16.7743 20.0744 16.0518 20.5763C15.5243 20.9181 15.1237 21.4419 14.915 22.0344C14.7425 22.4569 14.7918 22.9263 14.8018 23.375C15 24.7425 16.315 25.8919 17.7187 25.7675C18.6493 25.7575 19.5412 25.2175 20.0262 24.4269C20.1831 24.15 20.3587 23.8669 20.3681 23.5413C20.45 22.0506 20.4175 20.5662 20.4275 19.0756C20.4343 15.7163 20.4175 12.3662 20.4431 9.0175L20.4425 9.01688Z" fill="#F38328"/>
</svg>
