<svg width="22" height="22" viewBox="0 0 22 22" fill="none" xmlns="http://www.w3.org/2000/svg">
<path d="M10.8333 0.333252C5.04241 0.333252 0.333252 5.04222 0.333252 10.8333C0.333252 16.6241 5.04222 21.3333 10.8333 21.3333C16.6241 21.3333 21.3333 16.6243 21.3333 10.8333C21.3333 5.04241 16.6243 0.333252 10.8333 0.333252ZM10.8333 1.68797C15.8919 1.68797 19.9784 5.77438 19.9784 10.8331C19.9784 15.8919 15.892 19.9783 10.8333 19.9783C5.7745 19.9783 1.68809 15.8919 1.68809 10.8331C1.68809 5.77438 5.7745 1.68797 10.8333 1.68797ZM10.8333 4.05888C10.459 4.05888 10.1559 4.36224 10.1559 4.73624V10.833C10.1833 11.095 10.2915 11.2399 10.4522 11.3939L14.1884 15.1408C14.4531 15.4054 14.8764 15.4054 15.1411 15.1408C15.4057 14.8762 15.4057 14.4528 15.1411 14.1882L11.5106 10.5578V4.7362C11.5106 4.36196 11.2073 4.05884 10.8333 4.05884L10.8333 4.05888Z" fill="#525252"/>
</svg>
