<svg width="38" height="38" viewBox="0 0 38 38" fill="none" xmlns="http://www.w3.org/2000/svg">
<path d="M19 38C29.4934 38 38 29.4934 38 19C38 8.50659 29.4934 0 19 0C8.50659 0 0 8.50659 0 19C0 29.4934 8.50659 38 19 38Z" fill="white"/>
<path d="M15.3803 29.2917C24.3467 29.2917 29.2374 21.6715 29.2374 15.0615C29.2374 14.8439 29.2374 14.629 29.2374 14.4142C30.1902 13.7057 31.0127 12.829 31.6665 11.8248C30.7779 12.2287 29.8355 12.4939 28.8706 12.6117C29.8873 11.986 30.6482 11.0024 31.0117 9.84377C30.0524 10.4322 29.002 10.8474 27.9061 11.0715C27.1712 10.2716 26.2004 9.74233 25.1436 9.56532C24.0867 9.38831 23.0025 9.57341 22.0583 10.092C21.114 10.6107 20.3623 11.434 19.9189 12.435C19.4756 13.436 19.3654 14.559 19.6054 15.6307C17.6691 15.531 15.7748 15.0142 14.0457 14.1139C12.3165 13.2135 10.7911 11.9497 9.56849 10.4046C8.945 11.5056 8.75388 12.8093 9.03408 14.05C9.31428 15.2907 10.0447 16.3749 11.0765 17.0816C10.303 17.0573 9.54642 16.843 8.8702 16.4566C8.86885 16.478 8.86885 16.4994 8.8702 16.5208C8.87052 17.6754 9.25975 18.7944 9.97189 19.688C10.684 20.5815 11.6752 21.1946 12.7774 21.4232C12.0606 21.6231 11.3089 21.6527 10.5793 21.5097C10.8922 22.5021 11.4983 23.3698 12.3134 23.9923C13.1285 24.6148 14.1121 24.9613 15.1276 24.9835C13.4003 26.3705 11.2693 27.1212 9.0767 27.1153C8.68896 27.116 8.30152 27.0927 7.9165 27.0455C10.1431 28.5141 12.7341 29.2938 15.3803 29.2917Z" fill="#F38328"/>
</svg>
