<svg width="38" height="38" viewBox="0 0 38 38" fill="none" xmlns="http://www.w3.org/2000/svg">
<path d="M19 38C29.4934 38 38 29.4934 38 19C38 8.50659 29.4934 0 19 0C8.50659 0 0 8.50659 0 19C0 29.4934 8.50659 38 19 38Z" fill="white"/>
<path d="M10.6908 16.25H14.8922C14.799 17.1255 14.75 18.048 14.75 19C14.75 19.952 14.799 20.8745 14.8922 21.75H10.6908C10.4049 20.8855 10.25 19.9611 10.25 19C10.25 18.0389 10.4049 17.1145 10.6908 16.25ZM15.103 23.25C15.3947 24.9002 15.8595 26.3295 16.4664 27.3777C14.2739 26.7155 12.444 25.2157 11.3496 23.25H15.103ZM27.75 19C27.75 19.9611 27.5951 20.8855 27.3092 21.75H23.1078C23.201 20.8745 23.25 19.952 23.25 19C23.25 18.048 23.201 17.1255 23.1078 16.25H27.3092C27.5951 17.1145 27.75 18.0389 27.75 19ZM21.5336 27.3777C22.1405 26.3295 22.6053 24.9002 22.897 23.25H26.6504C25.556 25.2157 23.7261 26.7155 21.5336 27.3777ZM21.75 19C21.75 19.961 21.6945 20.8852 21.5941 21.75H16.4059C16.3055 20.8852 16.25 19.961 16.25 19C16.25 18.039 16.3055 17.1148 16.4059 16.25H21.5941C21.6945 17.1148 21.75 18.039 21.75 19ZM19 27.75C18.8119 27.75 18.6001 27.6621 18.369 27.4514C18.1378 27.2405 17.9034 26.9204 17.6785 26.4959C17.2593 25.7047 16.8923 24.588 16.6352 23.25H21.3648C21.1077 24.588 20.7407 25.7047 20.3215 26.4959C20.0966 26.9204 19.8622 27.2405 19.631 27.4514C19.3999 27.6621 19.1881 27.75 19 27.75ZM16.4664 10.6223C15.8595 11.6705 15.3947 13.0998 15.103 14.75H11.3496C12.444 12.7843 14.2738 11.2845 16.4664 10.6223ZM22.897 14.75C22.6053 13.0998 22.1405 11.6705 21.5336 10.6223C23.7261 11.2845 25.556 12.7843 26.6504 14.75H22.897ZM21.3648 14.75H16.6352C16.8923 13.412 17.2593 12.2953 17.6785 11.5041C17.9034 11.0796 18.1378 10.7595 18.369 10.5486C18.6001 10.3379 18.8119 10.25 19 10.25C19.1881 10.25 19.3999 10.3379 19.631 10.5486C19.8622 10.7595 20.0966 11.0796 20.3215 11.5041C20.7407 12.2953 21.1077 13.412 21.3648 14.75ZM8.75 19C8.75 24.6609 13.3391 29.25 19 29.25C24.6609 29.25 29.25 24.6609 29.25 19C29.25 13.3391 24.6609 8.75 19 8.75C13.3391 8.75 8.75 13.3391 8.75 19Z" fill="#F38328" stroke="#F38328" stroke-width="0.5"/>
</svg>
