<svg width="38" height="38" viewBox="0 0 38 38" fill="none" xmlns="http://www.w3.org/2000/svg">
<path d="M19 38C29.4934 38 38 29.4934 38 19C38 8.50659 29.4934 0 19 0C8.5066 0 0 8.50659 0 19C0 29.4934 8.5066 38 19 38Z" fill="white"/>
<circle cx="19.3958" cy="19.3958" r="4.14583" stroke="white" stroke-width="2"/>
<circle r="1.1875" transform="matrix(1 0 0 -1 25.729 13.0625)" fill="white"/>
<g clip-path="url(#clip0_399_2859)">
<path d="M31 18.717C31 24.6354 26.1648 29.4333 20.1991 29.4333C18.3059 29.4333 16.5275 28.949 14.9794 28.1011L9 30L10.9491 24.2487C9.96632 22.6346 9.4003 20.7393 9.4003 18.7163C9.40102 12.7979 14.2347 8 20.2005 8C26.1656 8.00143 31 12.7986 31 18.717ZM20.1984 9.70881C15.1917 9.70881 11.1192 13.7505 11.1192 18.7191C11.1192 20.6905 11.7619 22.5155 12.8488 24.0005L11.7153 27.3457L15.2032 26.2373C16.638 27.1785 18.3547 27.7266 20.1984 27.7266C25.205 27.7266 29.279 23.6856 29.279 18.717C29.2804 13.7505 25.2057 9.70881 20.1984 9.70881ZM25.6533 21.1855C25.5859 21.0772 25.4094 21.0112 25.1454 20.8792C24.8822 20.7472 23.5787 20.1123 23.3369 20.0262C23.093 19.938 22.9165 19.8935 22.74 20.1568C22.5657 20.4201 22.0578 21.0112 21.9021 21.1877C21.7479 21.3634 21.5937 21.3857 21.329 21.2558C21.0642 21.1224 20.2106 20.8469 19.199 19.9523C18.4121 19.255 17.8805 18.3963 17.727 18.133C17.5713 17.8705 17.7112 17.7284 17.8425 17.5979C17.9608 17.4795 18.1072 17.2908 18.2399 17.1366C18.3726 16.9838 18.4164 16.8755 18.5046 16.6997C18.5914 16.524 18.5477 16.3711 18.4824 16.2384C18.4164 16.1064 17.8877 14.8151 17.666 14.2893C17.4458 13.7642 17.2255 13.851 17.0706 13.851C16.9163 13.851 16.7399 13.8295 16.5634 13.8295C16.3869 13.8295 16.0999 13.8933 15.8582 14.1566C15.6164 14.4199 14.932 15.0547 14.932 16.3475C14.932 17.6416 15.8797 18.8892 16.0124 19.0642C16.1459 19.2385 17.8446 21.9782 20.5355 23.0299C23.2279 24.0809 23.2279 23.7301 23.7128 23.6856C24.1992 23.6411 25.2796 23.0507 25.4991 22.4381C25.7201 21.8225 25.7201 21.2953 25.6533 21.1855Z" fill="#F38328"/>
</g>
<defs>
<clipPath id="clip0_399_2859">
<rect width="22" height="22" fill="white" transform="translate(9 8)"/>
</clipPath>
</defs>
</svg>
