<svg width="61" height="95" viewBox="0 0 61 95" fill="none" xmlns="http://www.w3.org/2000/svg">
<path fill-rule="evenodd" clip-rule="evenodd" d="M15.5356 79.1813C12.2248 75.3459 9.52081 71.0279 7.51728 66.377C-0.759389 71.8973 -0.532932 76.3615 8.19665 79.7696C10.7992 86.2383 13.2455 86.0422 15.5356 79.1813Z" fill="#F38328"/>
<g opacity="0.5">
<path fill-rule="evenodd" clip-rule="evenodd" d="M13.3198 77.0225C13.5226 76.8848 12.6815 74.4579 10.7295 73.4235C10.1249 73.132 9.49156 72.9039 8.8397 72.743C8.16262 72.5602 7.47123 72.4351 6.77295 72.3689C7.97423 72.7579 9.11142 73.3217 10.1478 74.0421C12.2938 75.5383 13.1456 77.1423 13.3198 77.0225Z" fill="white"/>
</g>
<g opacity="0.5">
<path fill-rule="evenodd" clip-rule="evenodd" d="M7.1426 66.6292C5.68585 67.6713 4.32317 68.8386 3.07013 70.1176C2.39878 70.7137 1.90973 71.4868 1.65931 72.3481C1.49519 73.0457 1.51097 73.7734 1.70517 74.4632V74.4632L2.19143 73.1649C2.65823 72.2864 3.22302 71.4633 3.87504 70.7114C4.96189 69.4635 6.2716 68.428 7.73748 67.6576C7.76664 67.4446 7.72402 67.228 7.61633 67.0418C7.50864 66.8556 7.34199 66.7105 7.1426 66.6292Z" fill="white"/>
</g>
<path d="M11.8047 84.9549C11.8464 84.9566 11.8885 84.9566 11.9306 84.9549C13.4331 84.9095 14.7219 83.1214 15.9906 79.3306C16.017 79.2514 16.0221 79.1665 16.0055 79.0847C15.9889 79.0028 15.951 78.9267 15.8958 78.8639C12.6214 75.0627 9.94523 70.7865 7.95913 66.1821C7.90771 66.0662 7.81234 65.9755 7.69397 65.9297C7.57559 65.884 7.44387 65.887 7.32769 65.938C7.30239 65.9494 7.27806 65.9627 7.25492 65.978C2.78656 68.956 0.747397 71.617 1.01846 74.1163C1.27193 76.4455 3.50146 78.4164 7.82981 80.1378C9.1558 83.3685 10.4221 84.9067 11.8047 84.9549ZM14.994 79.2886C13.6035 83.3413 12.4634 83.9825 11.9019 83.9998C11.3526 84.0187 10.2038 83.4656 8.64196 79.5905C8.61758 79.5299 8.58101 79.4748 8.53451 79.4289C8.48801 79.3829 8.43256 79.3469 8.37159 79.3231C4.33947 77.7477 2.18409 75.9612 1.972 74.0127C1.7537 72.0136 3.55043 69.6864 7.31493 67.0918C9.27416 71.5046 11.8604 75.6124 14.994 79.2886V79.2886Z" fill="#000072"/>
<path d="M13.1471 75.4947C12.8175 74.9771 12.4455 74.4875 12.0349 74.0312C11.6199 73.562 11.1435 73.1506 10.6186 72.8082C10.0836 72.4547 9.48314 72.2117 8.85254 72.0937C8.22463 71.9866 7.5798 72.039 6.97753 72.2461C6.9329 72.2609 6.89529 72.2916 6.87193 72.3324C6.84856 72.3731 6.84107 72.421 6.85089 72.4669C6.86072 72.5129 6.88716 72.5535 6.92517 72.5812C6.96317 72.6089 7.01006 72.6216 7.05685 72.6169V72.6169C7.61358 72.5618 8.17562 72.6014 8.71908 72.7339C9.25214 72.8689 9.75512 73.1024 10.202 73.4223C10.6563 73.7533 11.0708 74.1354 11.4373 74.5613C11.8104 74.9963 12.1577 75.4528 12.4774 75.9284V75.9333C12.5357 76.0218 12.627 76.0837 12.731 76.1051C12.835 76.1266 12.9433 76.1059 13.0321 76.0477C13.1209 75.9895 13.1828 75.8984 13.2043 75.7946C13.2258 75.6907 13.2051 75.5826 13.1468 75.4941V75.4941L13.1471 75.4947Z" fill="#000072"/>
<g opacity="0.25">
<path fill-rule="evenodd" clip-rule="evenodd" d="M8.19648 79.7688C7.49021 78.9279 6.81118 79.0804 5.44208 78.4216C3.94464 77.78 2.73486 76.6127 2.04175 75.1407C1.79756 74.493 1.69811 73.7999 1.75034 73.1099C2.26066 74.2378 3.06255 75.2098 4.07367 75.9261C5.41157 76.8503 7.02634 77.2889 8.64895 77.1691V77.1691C9.14855 77.1564 9.64345 77.2682 10.089 77.4942C10.5345 77.7202 10.9166 78.0533 11.2009 78.4636C11.2588 78.6296 11.3269 78.7919 11.4047 78.9496V78.9496C12.091 80.3237 13.2532 80.388 14.8913 79.1427C14.5992 82.2722 13.2808 84.4235 12.0507 84.4651C10.7109 84.5106 9.28694 82.0612 8.99484 81.558C8.52893 80.7529 8.68998 80.3522 8.19648 79.7688Z" fill="#000072"/>
</g>
<path fill-rule="evenodd" clip-rule="evenodd" d="M37.2623 87.0934C72.3826 59.5299 56.2055 25.111 30.7179 31.7025C-18.9245 21.9264 14.2601 105.143 37.2623 87.0934Z" fill="#F38328"/>
<g opacity="0.5">
<path fill-rule="evenodd" clip-rule="evenodd" d="M47.7897 33.9236C43.1851 31.0216 37.2601 30.0076 30.7191 31.698C12.846 28.1795 5.70735 36.7151 4.97314 48.2369C5.45457 48.1635 5.94887 48.0839 6.45605 47.9981C6.66883 45.4868 7.43768 43.054 8.70709 40.8754C9.9765 38.6968 11.7148 36.8267 13.7964 35.4002C13.8864 35.3383 13.9764 35.2787 14.0678 35.2192C13.813 35.4835 13.6978 35.7258 13.7754 35.8986C13.9557 36.3 15.1124 36.1719 16.358 35.6116C17.6037 35.0512 18.4658 34.2729 18.2855 33.8706C18.1572 33.5876 17.5409 33.568 16.7495 33.7807C20.3749 32.2344 24.4253 31.99 28.2109 33.0892C28.951 32.7373 29.7545 32.5379 30.5735 32.503C31.3925 32.468 32.2102 32.5982 32.9776 32.8858C37.9198 31.902 43.036 32.2598 47.7925 33.9219" fill="white"/>
</g>
<path d="M30.2688 90.1415C29.8808 90.1417 29.4931 90.1218 29.1073 90.082C26.0332 89.6546 23.1453 88.3604 20.7827 86.3515C15.099 81.8769 9.91954 73.7881 6.92821 64.7101C3.76998 55.1264 3.59685 46.0763 6.45334 39.8803C9.0398 34.2698 15.3483 28.2197 30.7043 31.2088C41.2267 28.5322 50.9421 32.6933 55.476 41.8302C58.5049 47.9329 58.7764 55.4675 56.2402 63.0459C53.3434 71.7053 46.8824 80.15 37.5595 87.4674C35.5083 89.1668 32.9343 90.1109 30.2688 90.1415ZM23.2053 31.3826C15.4652 31.3826 10.0382 34.3951 7.3248 40.2809C4.56798 46.2598 4.7549 55.0545 7.83899 64.4113C10.7738 73.3162 15.8339 81.2373 21.3762 85.6001C25.2503 88.6505 31.1012 91.3194 36.9666 86.7147C46.1431 79.5129 52.4961 71.2238 55.3312 62.7416C57.7831 55.4045 57.5331 48.1288 54.6177 42.2536C50.2776 33.5108 40.9446 29.548 30.8392 32.1615C30.7697 32.1795 30.6971 32.1817 30.6267 32.1681C28.1845 31.6673 25.6994 31.4043 23.2063 31.3826H23.2053Z" fill="#000072"/>
<path fill-rule="evenodd" clip-rule="evenodd" d="M22.579 25.5258C27.5181 26.2087 29.4445 28.5124 28.5658 31.3246C29.2656 31.429 29.9833 31.5535 30.7188 31.698C31.3145 31.5441 31.9046 31.4125 32.4893 31.3032C31.2575 27.3876 36.2179 26.0008 38.6068 22.6472C40.6549 18.9515 39.3134 14.2986 35.6106 12.2543C34.2625 11.5102 32.7209 11.1889 31.1871 11.3326C26.8912 -9.99842 3.28093 5.54443 17.4668 12.1834C23.1784 14.8558 25.998 16.1693 28.5589 21.9244C27.4311 19.7456 25.4862 18.1001 23.148 17.3465C22.3628 17.1623 21.5409 17.21 20.7824 17.4835C20.0238 17.7571 19.3612 18.2448 18.8752 18.8873C18.3893 19.5299 18.1009 20.2995 18.0452 21.1026C17.9895 21.9058 18.1688 22.7077 18.5614 23.411C19.3611 24.8501 20.9468 25.3007 22.579 25.5258Z" fill="#78C44A"/>
<g opacity="0.5">
<path fill-rule="evenodd" clip-rule="evenodd" d="M23.2855 17.3949L23.1455 17.3491C22.3603 17.165 21.5384 17.2126 20.7798 17.4862C20.0212 17.7597 19.3587 18.2474 18.8727 18.89C18.3868 19.5325 18.0984 20.3021 18.0427 21.1053C17.9869 21.9084 18.1663 22.7104 18.5589 23.4136C18.8791 23.9835 19.3553 24.4507 19.9318 24.7605C20.2476 24.7151 20.5582 24.6383 20.8587 24.5312C20.2922 24.0063 19.9019 23.3194 19.7415 22.5646C19.581 21.8098 19.6582 21.024 19.9624 20.3146C20.2665 19.6053 20.7829 19.007 21.4408 18.6018C22.0987 18.1966 22.866 18.0042 23.6376 18.0509C23.5357 17.8241 23.4164 17.6054 23.2807 17.3969" fill="white"/>
</g>
<g opacity="0.5">
<path fill-rule="evenodd" clip-rule="evenodd" d="M38.7843 22.3033C40.6417 18.5061 39.0633 13.9268 35.2619 12.0736C33.9968 11.4574 32.5861 11.2008 31.1846 11.3318C27.3349 -7.79142 7.96267 2.72467 14.2174 9.88858C14.394 9.89385 14.5718 9.89385 14.7509 9.88858C13.3846 1.70239 25.2882 -1.4185 30.519 11.791C30.7242 11.8687 30.9355 11.929 31.1508 11.9713C35.6685 12.772 38.6808 17.0766 37.8783 21.5856C37.7695 22.1985 37.5916 22.7972 37.3483 23.3703C37.8445 23.0396 38.3233 22.6835 38.7826 22.3033" fill="white"/>
</g>
<path d="M30.7182 32.177C30.687 32.1771 30.6558 32.1741 30.6251 32.168C29.8992 32.0252 29.1822 31.9006 28.4942 31.7987C28.4257 31.7886 28.3602 31.7639 28.3022 31.7261C28.2442 31.6883 28.1951 31.6383 28.1583 31.5798C28.1216 31.5212 28.098 31.4553 28.0892 31.3867C28.0805 31.3181 28.0868 31.2485 28.1076 31.1826C28.2696 30.7461 28.3303 30.2787 28.2853 29.8154C28.2402 29.3521 28.0906 28.905 27.8476 28.5078C27.0416 27.2383 25.197 26.3737 22.5129 26.0009C20.8742 25.7741 19.0729 25.3173 18.1401 23.6466C17.7021 22.8623 17.502 21.9678 17.5641 21.0721C17.6262 20.1763 17.9479 19.3179 18.49 18.6013C19.032 17.8847 19.7711 17.3409 20.6172 17.0359C21.4634 16.7309 22.3801 16.6781 23.2558 16.8837L23.2934 16.8943C24.1539 17.1712 24.9721 17.565 25.725 18.0646C23.7496 15.6552 21.2707 14.4949 17.2862 12.6307L17.2617 12.6193C13.6948 10.9493 12.0047 8.44759 12.6258 5.75455C13.3703 2.52661 17.2469 -0.05354 21.2542 0.000844178C23.6744 0.0352645 29.4702 1.16666 31.5683 10.8254C36.0611 10.6429 39.8519 14.1297 40.0346 18.615C40.0951 20.102 39.7455 21.577 39.0239 22.8794C39.0152 22.8945 39.0059 22.909 38.9959 22.9234C38.0876 24.09 37.0242 25.1277 35.8353 26.0078C33.8282 27.6393 32.239 28.9232 32.947 31.1609C32.9659 31.2208 32.9728 31.2838 32.9673 31.3463C32.9618 31.4089 32.944 31.4697 32.9149 31.5254C32.8858 31.5811 32.846 31.6305 32.7978 31.6709C32.7496 31.7112 32.6939 31.7416 32.6339 31.7605C32.6157 31.7663 32.5972 31.7708 32.5784 31.7743C32.0063 31.882 31.421 32.0124 30.8399 32.1629C30.8001 32.1727 30.7592 32.1775 30.7182 32.177V32.177ZM29.1601 30.9337C29.6654 31.0153 30.182 31.1058 30.7034 31.2091C31.1024 31.1079 31.5021 31.0156 31.8983 30.9337C31.3883 28.3835 33.3392 26.8002 35.2297 25.2657C36.3421 24.4425 37.3403 23.4758 38.1982 22.3909C40.105 18.9196 38.8314 14.5627 35.3535 12.6593C34.0952 11.9709 32.6593 11.6745 31.2307 11.8081C31.1124 11.8198 30.9939 11.7872 30.8983 11.7167C30.8028 11.6461 30.7368 11.5427 30.7134 11.4263C28.8336 2.0702 23.4606 0.984233 21.239 0.956697C17.7132 0.911606 14.1959 3.20228 13.5559 5.96795C13.0386 8.21457 14.4966 10.2705 17.6649 11.7506L17.6894 11.7619C23.4637 14.4639 26.3619 15.8204 28.9912 21.7307C29.0229 21.7877 29.0426 21.8506 29.049 21.9154C29.0555 21.9803 29.0487 22.0458 29.0288 22.1079C29.009 22.17 28.9767 22.2274 28.9339 22.2766C28.891 22.3258 28.8386 22.3657 28.7797 22.3939C28.7208 22.4221 28.6568 22.438 28.5915 22.4406C28.5263 22.4432 28.4612 22.4325 28.4002 22.4091C28.3393 22.3856 28.2838 22.35 28.2372 22.3044C28.1905 22.2588 28.1537 22.2041 28.129 22.1438V22.1438C27.0674 20.0792 25.2284 18.5194 23.0157 17.8068C22.3215 17.6463 21.5955 17.6905 20.9259 17.934C20.2564 18.1776 19.6721 18.61 19.2442 19.1788C18.8162 19.7475 18.563 20.4281 18.5154 21.1378C18.4677 21.8475 18.6276 22.5557 18.9757 23.1764C19.704 24.4816 21.2383 24.8544 22.6433 25.0527C25.616 25.4605 27.6952 26.4811 28.6563 27.9952C29.2047 28.8695 29.3862 29.9241 29.1615 30.931L29.1601 30.9337Z" fill="#000072"/>
<path fill-rule="evenodd" clip-rule="evenodd" d="M2.87219 52.8028C2.92428 53.6581 3.19073 54.4866 3.64709 55.2123C12.081 50.5519 21.5966 48.1924 31.2351 48.3714C40.8736 48.5504 50.2946 51.2616 58.549 56.2318V56.2318C58.918 55.4959 59.1218 54.6886 59.1463 53.8661C50.7561 48.5802 41.0765 45.6871 31.1564 45.5001C21.2364 45.3132 11.4542 47.8396 2.87012 52.8056" fill="white"/>
<g opacity="0.5">
<path fill-rule="evenodd" clip-rule="evenodd" d="M50.3044 46.1454C35.4681 40.085 19.7983 40.2595 4.95962 48.3634C4.2673 48.8699 3.71344 49.5418 3.34884 50.3174C2.98423 51.093 2.82055 51.9476 2.87279 52.8027C2.92502 53.6579 3.19151 54.4863 3.64782 55.212C4.10413 55.9376 4.73566 56.5373 5.4845 56.9561C7.93646 55.8962 10.455 54.997 13.0242 54.2641V54.2641C6.64013 55.6581 2.28385 52.0956 6.60979 49.4394C18.4437 42.175 34.2166 42.3423 51.289 47.4C50.9705 46.9734 50.6436 46.5558 50.3082 46.1471" fill="white"/>
</g>
<path d="M55.977 58.608C55.9073 58.6075 55.8387 58.5908 55.7767 58.5591C48.2818 54.6926 40.0039 52.5785 31.5695 52.3767C23.1351 52.175 14.7652 53.8909 7.09333 57.3946C7.02925 57.4241 6.95895 57.4376 6.88848 57.434C6.818 57.4303 6.74948 57.4096 6.68881 57.3736C5.89639 56.8986 5.23365 56.2357 4.75932 55.4438C4.28499 54.652 4.01372 53.7555 3.96958 52.8339C3.90799 51.9095 4.07375 50.9841 4.45242 50.1382C4.83109 49.2923 5.41119 48.5516 6.1422 47.9807C6.15833 47.9681 6.17526 47.9566 6.1929 47.9463C13.829 43.4381 22.591 41.1876 31.4588 41.4567C39.8044 41.7496 48.2142 44.308 56.4416 49.0608C56.471 49.0787 56.4983 49.1 56.523 49.1241C57.1243 49.7031 57.6054 50.3946 57.939 51.1592C58.2725 51.9238 58.4519 52.7464 58.4669 53.5802C58.4819 54.414 58.3322 55.2425 58.0263 56.0186C57.7205 56.7946 57.2645 57.5029 56.6844 58.103C56.5485 58.2437 56.4062 58.3779 56.2574 58.5057C56.1787 58.5713 56.0796 58.6074 55.977 58.608V58.608ZM30.2311 51.4048C39.1564 51.4139 47.9536 53.524 55.9084 57.5636C56.9361 56.5763 57.5288 55.222 57.5563 53.7986C57.5838 52.3751 57.0438 50.9991 56.055 49.9729C56.0205 49.9385 55.986 49.9041 55.9515 49.8697C39.2496 40.2433 22.2065 39.8616 6.65536 48.7682C6.05647 49.2427 5.58198 49.8553 5.27268 50.5532C4.96338 51.2511 4.82851 52.0136 4.87967 52.7751C4.91481 53.5014 5.11974 54.2095 5.47807 54.8427C5.8364 55.4759 6.33819 56.0166 6.94332 56.4216C14.263 53.122 22.2016 51.4125 30.2332 51.4062L30.2311 51.4048Z" fill="#000072"/>
<path fill-rule="evenodd" clip-rule="evenodd" d="M49.0411 90.8936C46.554 88.2921 46.2981 82.6038 45.8201 79.199C43.1925 82.0629 40.3299 84.7027 37.262 87.0909C36.4887 87.7044 35.6474 88.2274 34.7545 88.6494C34.7263 92.5603 35.6408 94.5083 37.4983 94.4937L47.7524 94.3398C48.1808 94.4074 48.6194 94.3251 48.9939 94.1068C49.3685 93.8885 49.6559 93.5477 49.8075 93.1421C49.9591 92.7365 49.9655 92.2911 49.8257 91.8813C49.6859 91.4715 49.4085 91.1226 49.0404 90.8936H49.0411Z" fill="#F38328"/>
<g opacity="0.5">
<path fill-rule="evenodd" clip-rule="evenodd" d="M49.042 90.8936C46.6359 88.3772 46.3176 82.9742 45.8692 79.5408C45.4123 79.8104 44.9883 80.1321 44.6057 80.4994C44.3663 84.1071 45.1733 87.7072 46.93 90.8692C48.4449 92.5698 48.4624 93.7304 46.9824 94.3512L47.7556 94.3398C48.1842 94.4078 48.6231 94.3257 48.9979 94.1075C49.3727 93.8893 49.6604 93.5484 49.8121 93.1426C49.9637 92.7368 49.9701 92.2912 49.83 91.8813C49.69 91.4713 49.4121 91.1224 49.0437 90.8936" fill="white"/>
</g>
<path d="M37.4823 94.9731C37.1444 94.9809 36.8085 94.9199 36.4951 94.7936C36.1817 94.6674 35.8974 94.4786 35.6597 94.2389C34.7075 93.2885 34.2547 91.4605 34.2751 88.6483C34.2755 88.5579 34.3017 88.4695 34.3506 88.3934C34.3994 88.3173 34.4689 88.2566 34.551 88.2184C35.4103 87.8112 36.2202 87.3073 36.965 86.7167C40.0112 84.3438 42.8544 81.7222 45.4651 78.8788C45.5264 78.8116 45.6055 78.7631 45.6933 78.7391C45.7811 78.7151 45.874 78.7166 45.961 78.7434C46.048 78.7701 46.1256 78.8211 46.1846 78.8902C46.2437 78.9594 46.2818 79.0439 46.2945 79.1339C46.3714 79.6805 46.4418 80.2825 46.517 80.9189C46.8898 84.0949 47.3998 88.437 49.3507 90.5253C49.7934 90.8218 50.1226 91.2591 50.2847 91.766C50.4469 92.2729 50.4324 92.8197 50.2438 93.3174C50.0551 93.8151 49.7033 94.2345 49.2456 94.5073C48.7878 94.7802 48.2511 94.8905 47.7226 94.8202L37.5061 94.9738L37.4823 94.9731ZM35.2331 88.9495C35.2462 91.2901 35.6166 92.839 36.3367 93.5601C36.4878 93.7114 36.6686 93.8301 36.8677 93.9085C37.0668 93.987 37.28 94.0236 37.494 94.0162L47.7457 93.8634C47.773 93.8631 47.8004 93.865 47.8274 93.8689C48.1461 93.9173 48.4716 93.8547 48.7495 93.6917C49.0274 93.5288 49.2406 93.2753 49.3532 92.9739C49.4659 92.6725 49.4712 92.3416 49.3683 92.0368C49.2653 91.732 49.0604 91.4718 48.7879 91.3001C48.7547 91.2792 48.7243 91.2543 48.6972 91.2261C46.4901 88.9223 45.9804 84.5485 45.5676 81.0287C45.5374 80.7708 45.5078 80.5197 45.4786 80.2756C43.0228 82.8664 40.3762 85.2702 37.5609 87.4667C36.8374 88.0385 36.0577 88.5356 35.2338 88.9505L35.2331 88.9495Z" fill="#000072"/>
<path fill-rule="evenodd" clip-rule="evenodd" d="M15.708 80.4739C15.2994 83.888 14.8459 88.595 12.6494 90.8936C12.2813 91.1226 12.0038 91.4716 11.864 91.8814C11.7242 92.2912 11.7307 92.7367 11.8823 93.1423C12.034 93.5479 12.3215 93.8887 12.6961 94.107C13.0707 94.3252 13.5094 94.4075 13.9378 94.3398L24.1926 94.494C25.9675 94.5075 26.8816 92.7291 26.935 89.1588C22.9608 87.9706 19.0794 84.7888 15.708 80.4739Z" fill="#F38328"/>
<g opacity="0.5">
<path fill-rule="evenodd" clip-rule="evenodd" d="M15.6231 81.1965C15.2306 84.5257 14.6954 88.7556 12.6487 90.8952C12.2802 91.1239 12.0024 91.4728 11.8623 91.8828C11.7223 92.2927 11.7286 92.7383 11.8803 93.1441C12.0319 93.5499 12.3196 93.8908 12.6944 94.109C13.0692 94.3273 13.5082 94.4093 13.9367 94.3413L14.3357 94.3468C13.3124 93.912 13.235 93.028 14.1036 91.6947C15.176 90.3892 15.9693 88.8783 16.4346 87.2552C16.8999 85.6321 17.0273 83.9311 16.8091 82.257C16.4717 81.8441 16.0718 81.4863 15.6238 81.1965" fill="white"/>
</g>
<path d="M24.2131 94.9725H24.1876L13.967 94.8186C13.4383 94.8896 12.9011 94.7798 12.443 94.5071C11.9848 94.2344 11.6326 93.815 11.4438 93.317C11.2551 92.819 11.2408 92.2719 11.4033 91.7648C11.5658 91.2577 11.8956 90.8205 12.3389 90.5244C14.2898 88.4361 14.7998 84.0936 15.1726 80.918L15.2316 80.4185C15.2427 80.3245 15.2816 80.2358 15.3434 80.1638C15.4051 80.0918 15.4868 80.0398 15.5783 80.0143C15.6697 79.9887 15.7666 79.9909 15.8568 80.0205C15.947 80.05 16.0263 80.1057 16.0848 80.1804C19.5837 84.655 23.3827 87.6041 27.0696 88.7011C27.1696 88.7311 27.2571 88.7929 27.3188 88.877C27.3804 88.9611 27.413 89.063 27.4114 89.1672C27.3555 93.0198 26.2799 94.9725 24.2131 94.9725ZM13.9384 93.859H13.9456L24.2007 94.0132H24.2156C25.5998 94.0132 26.3513 92.4987 26.4485 89.5041C22.9337 88.3548 19.3661 85.6584 16.0527 81.6597C15.644 85.0532 15.0719 89.0529 12.9983 91.2203C12.9712 91.2488 12.9408 91.2738 12.9076 91.2947C12.6351 91.4664 12.4301 91.7266 12.3272 92.0314C12.2242 92.3363 12.2295 92.6671 12.3422 92.9685C12.4549 93.2699 12.6681 93.5234 12.9459 93.6864C13.2238 93.8493 13.5494 93.9119 13.868 93.8635C13.8913 93.8603 13.9148 93.8588 13.9384 93.859V93.859Z" fill="#000072"/>
<path d="M17.2558 56.2554C17.6684 55.5348 18.2813 54.949 19.0204 54.5688C19.7719 54.1687 20.6103 53.9591 21.462 53.9583C22.3136 53.9574 23.1525 54.1654 23.9047 54.5639C24.6454 54.9426 25.2604 55.5273 25.6752 56.2474L25.7152 56.3204C25.7511 56.3842 25.7624 56.4588 25.747 56.5303C25.7316 56.6018 25.6906 56.6653 25.6316 56.7087C25.5727 56.7522 25.4999 56.7727 25.4269 56.7663C25.3539 56.76 25.2857 56.7272 25.2352 56.6743C24.263 55.6735 22.9324 55.0992 21.5359 55.0776C20.1395 55.056 18.7917 55.589 17.7889 56.5593C17.7524 56.5946 17.7163 56.6305 17.6807 56.667C17.6314 56.7165 17.5661 56.7466 17.4965 56.7519C17.4268 56.7573 17.3576 56.7375 17.3014 56.6961C17.2452 56.6547 17.2058 56.5946 17.1903 56.5266C17.1749 56.4587 17.1844 56.3874 17.2172 56.3259L17.2558 56.2554Z" fill="#000072"/>
<path d="M36.9443 56.5743C37.3569 55.8537 37.9699 55.2679 38.709 54.8877C39.4604 54.4876 40.2988 54.2779 41.1505 54.2771C42.0022 54.2763 42.841 54.4843 43.5933 54.8829C44.3339 55.2618 44.9488 55.8466 45.3638 56.5667L45.4038 56.6394C45.4396 56.7031 45.4509 56.7777 45.4355 56.8492C45.4202 56.9206 45.3792 56.984 45.3203 57.0275C45.2615 57.071 45.1887 57.0915 45.1158 57.0852C45.0428 57.079 44.9747 57.0464 44.9241 56.9935C43.9519 55.9927 42.6213 55.4183 41.2249 55.3967C39.8284 55.3751 38.4806 55.908 37.4778 56.8782C37.4409 56.9126 37.4051 56.9495 37.3695 56.986C37.3204 57.0355 37.2551 57.0658 37.1854 57.0713C37.1158 57.0767 37.0465 57.0569 36.9903 57.0155C36.9341 56.9742 36.8946 56.914 36.8792 56.846C36.8638 56.778 36.8735 56.7067 36.9064 56.6452L36.9443 56.5743Z" fill="#000072"/>
<path fill-rule="evenodd" clip-rule="evenodd" d="M26.6162 67.5698C26.8372 68.5247 27.3752 69.3769 28.1428 69.9881C28.9104 70.5993 29.8625 70.9334 30.8444 70.9364C31.8263 70.9393 32.7803 70.6107 33.5516 70.0041C34.3228 69.3975 34.8658 68.5485 35.0926 67.595C32.2823 68.0174 29.4239 68.0089 26.6162 67.5698Z" fill="white"/>
<path d="M30.8552 71.3324H30.8415C29.7686 71.3326 28.7275 70.9688 27.889 70.3009C27.0504 69.633 26.4641 68.7005 26.2262 67.6563C26.2118 67.5929 26.2132 67.5269 26.2302 67.4641C26.2472 67.4014 26.2794 67.3437 26.3238 67.2962C26.3683 67.2486 26.4238 67.2127 26.4854 67.1915C26.547 67.1703 26.6129 67.1644 26.6773 67.1744C29.4447 67.608 32.2623 67.6162 35.0322 67.1989C35.137 67.1832 35.2438 67.2096 35.3291 67.2724C35.4143 67.3352 35.4712 67.4292 35.4871 67.5338C35.495 67.5853 35.4926 67.6378 35.4798 67.6883C35.2353 68.7281 34.6449 69.6544 33.805 70.3163C32.9651 70.9781 31.9253 71.3363 30.8552 71.3324V71.3324ZM27.1821 68.0522C27.4723 68.7848 27.9766 69.4134 28.6295 69.8562C29.2823 70.2991 30.0535 70.5357 30.8428 70.5353H30.8546C31.6419 70.5379 32.412 70.3047 33.0652 69.8659C33.7184 69.4272 34.2247 68.8029 34.5187 68.0739C32.0834 68.3845 29.618 68.3772 27.1845 68.0522H27.1821Z" fill="#000072"/>
<path d="M27.6105 33.9805C27.5321 33.9806 27.4554 33.9576 27.39 33.9144C27.3247 33.8713 27.2734 33.8099 27.2428 33.7378C27.2121 33.6658 27.2033 33.5864 27.2176 33.5095C27.2318 33.4325 27.2685 33.3615 27.3229 33.3052C28.0471 32.5548 29.53 31.81 31.8406 31.0283C31.8904 31.0115 31.943 31.0047 31.9955 31.0082C32.0479 31.0118 32.0992 31.0256 32.1463 31.0489C32.1934 31.0722 32.2354 31.1045 32.27 31.144C32.3046 31.1835 32.331 31.2295 32.3479 31.2792C32.3647 31.3289 32.3715 31.3815 32.3679 31.4338C32.3644 31.4862 32.3506 31.5373 32.3272 31.5843C32.3039 31.6313 32.2715 31.6733 32.2319 31.7078C32.1923 31.7424 32.1463 31.7688 32.0964 31.7855C29.9352 32.5149 28.5223 33.2133 27.8971 33.8607C27.8598 33.8989 27.8153 33.9292 27.766 33.9498C27.7168 33.9703 27.6639 33.9808 27.6105 33.9805V33.9805Z" fill="#000072"/>
<path d="M34.3102 34.3156C34.2572 34.3156 34.2048 34.3051 34.1559 34.2847C34.1071 34.2642 34.0628 34.2342 34.0257 34.1965C32.7086 33.0461 31.1234 32.2439 29.4152 31.8635C29.3119 31.8397 29.2223 31.7758 29.1662 31.6861C29.11 31.5963 29.0919 31.488 29.1157 31.3849C29.1396 31.2818 29.2035 31.1923 29.2935 31.1363C29.3834 31.0802 29.492 31.0621 29.5953 31.0859C29.608 31.089 29.6204 31.0925 29.6325 31.0966C31.4749 31.5127 33.1821 32.3869 34.5954 33.6379C34.6505 33.6939 34.6877 33.7648 34.7025 33.8419C34.7174 33.919 34.7091 33.9987 34.6787 34.071C34.6483 34.1434 34.5972 34.2052 34.5318 34.2487C34.4663 34.2922 34.3895 34.3155 34.3109 34.3156H34.3102Z" fill="#000072"/>
<path d="M30.652 33.5435H30.6299C30.5774 33.5409 30.5259 33.5281 30.4784 33.5056C30.4308 33.4831 30.3882 33.4515 30.353 33.4125C30.3177 33.3736 30.2905 33.3281 30.273 33.2786C30.2554 33.2291 30.2478 33.1767 30.2506 33.1243L30.3195 31.8362C30.329 31.7335 30.378 31.6385 30.4561 31.571C30.5343 31.5036 30.6356 31.469 30.7388 31.4744C30.842 31.4799 30.939 31.5251 31.0096 31.6004C31.0801 31.6758 31.1187 31.7755 31.1172 31.8786L31.0482 33.1666C31.0426 33.2679 30.9985 33.3633 30.9249 33.4334C30.8513 33.5034 30.7537 33.5428 30.652 33.5435V33.5435Z" fill="#000072"/>
<path d="M30.7178 32.176C30.5971 32.1758 30.4809 32.1302 30.3924 32.0483C30.3039 31.9663 30.2497 31.8541 30.2405 31.734C29.6866 24.2689 27.4109 18.9599 23.4788 15.9561C23.3779 15.8789 23.3119 15.7649 23.2952 15.6392C23.2785 15.5135 23.3125 15.3862 23.3898 15.2856C23.4671 15.1849 23.5813 15.1189 23.7073 15.1023C23.8333 15.0856 23.9607 15.1196 24.0616 15.1968C28.2203 18.3734 30.6209 23.914 31.1968 31.6631C31.2015 31.7257 31.1938 31.7886 31.1741 31.8482C31.1545 31.9078 31.1232 31.963 31.0822 32.0105C31.0412 32.0581 30.9912 32.0971 30.935 32.1254C30.8789 32.1537 30.8177 32.1706 30.755 32.1753L30.7178 32.176Z" fill="#000072"/>
<path d="M19.765 6.73313C21.6525 8.16786 23.3411 9.84615 24.7865 11.7241C26.2283 13.609 27.4234 15.6697 28.3427 17.8564C29.2578 20.0423 29.944 22.3169 30.3901 24.6438C30.836 26.9668 31.1058 29.3202 31.1971 31.6837C31.2026 31.8105 31.1573 31.9343 31.0713 32.0278C30.9853 32.1213 30.8657 32.1769 30.7386 32.1823C30.6116 32.1878 30.4876 32.1426 30.3939 32.0568C30.3002 31.971 30.2445 31.8515 30.2391 31.7247V31.7247V31.713C30.1912 29.3938 29.968 27.0815 29.5714 24.7959C29.1769 22.5133 28.5468 20.2777 27.6913 18.1245C26.8314 15.9725 25.7001 13.9387 24.3247 12.0724C22.94 10.2076 21.3136 8.5343 19.488 7.09627C19.4637 7.07815 19.4432 7.05536 19.4277 7.02924C19.4123 7.00312 19.4022 6.97418 19.3981 6.94413C19.394 6.91408 19.3959 6.88351 19.4038 6.85421C19.4116 6.82491 19.4253 6.79747 19.4439 6.77349C19.4625 6.74952 19.4857 6.72948 19.5122 6.71457C19.5386 6.69965 19.5678 6.69015 19.598 6.68661C19.6282 6.68308 19.6588 6.68559 19.688 6.69399C19.7172 6.70239 19.7444 6.71652 19.7681 6.73554L19.765 6.73313Z" fill="#000072"/>
<path d="M34.236 15.5272C33.8197 21.1148 32.7939 26.6404 31.1768 32.0059C31.1394 32.1272 31.0552 32.2287 30.9429 32.288C30.8305 32.3474 30.6991 32.3598 30.5776 32.3224C30.4561 32.2851 30.3544 32.2011 30.2949 32.0889C30.2355 31.9768 30.2231 31.8456 30.2605 31.7244V31.7244L30.2643 31.7106C32.0203 26.4448 33.1953 21.0034 33.7684 15.4831C33.7743 15.4212 33.8045 15.3642 33.8525 15.3246C33.9005 15.2849 33.9623 15.2659 34.0243 15.2718C34.0863 15.2776 34.1435 15.3078 34.1832 15.3557C34.2229 15.4036 34.2419 15.4653 34.236 15.5272V15.5272Z" fill="#000072"/>
<path d="M21.8585 20.5747C23.039 21.0027 24.164 21.57 25.2095 22.2647C26.2618 22.9684 27.2081 23.8183 28.0198 24.7888C28.8306 25.765 29.5089 26.8437 30.0369 27.9971C30.5621 29.1492 30.9673 30.352 31.2463 31.5868C31.2622 31.6486 31.2655 31.7129 31.2561 31.776C31.2467 31.8391 31.2247 31.8997 31.1915 31.9542C31.1583 32.0088 31.1145 32.0561 31.0627 32.0934C31.0108 32.1308 30.9521 32.1574 30.8898 32.1718C30.8275 32.1861 30.7629 32.1879 30.7 32.177C30.637 32.1661 30.5768 32.1427 30.523 32.1082C30.4692 32.0738 30.4229 32.0289 30.3867 31.9763C30.3505 31.9237 30.3253 31.8644 30.3124 31.8019V31.7816C30.0929 30.5972 29.7522 29.4384 29.2958 28.3234C28.8381 27.2104 28.2352 26.1626 27.5025 25.2073C26.7638 24.2502 25.8919 23.4032 24.9133 22.6922C23.9252 21.9789 22.8552 21.3861 21.7261 20.9264C21.7029 20.9174 21.6818 20.9039 21.6639 20.8867C21.6461 20.8695 21.6317 20.849 21.6218 20.8263C21.6118 20.8036 21.6065 20.7792 21.606 20.7544C21.6055 20.7296 21.6099 20.705 21.619 20.6819C21.628 20.6588 21.6416 20.6377 21.6588 20.6199C21.676 20.602 21.6966 20.5877 21.7193 20.5778C21.7421 20.5679 21.7666 20.5625 21.7914 20.562C21.8162 20.5616 21.8409 20.566 21.864 20.575H21.8592L21.8585 20.5747Z" fill="#000072"/>
<g opacity="0.25">
<path d="M20.5668 85.5606C21.3781 86.1867 22.2348 86.7519 23.1298 87.2516C24.9237 88.1468 26.8505 88.7476 28.8359 89.0312L29.0114 89.0401C31.6061 88.616 34.113 87.7676 36.4311 86.5291L36.4956 86.4792C41.5565 82.6039 46.0006 77.9863 49.6769 72.7834C52.3575 67.9601 54.4542 62.8359 55.923 57.5186C56.8449 56.8143 57.5889 55.9044 58.0956 54.8617C58.5035 53.6356 58.4778 52.307 58.0228 51.0975C57.7062 50.4042 57.2986 49.756 56.8107 49.17C56.711 49.0667 56.6089 48.9635 56.5003 48.8664C56.5003 48.8406 56.4927 48.8144 56.4896 48.7852C56.4179 48.7036 56.3465 48.622 56.2706 48.5401C56.2816 48.1516 56.2789 47.7661 56.2623 47.3836C55.4662 42.8818 53.2585 38.7485 49.9576 35.5795C50.1548 35.7222 50.3485 35.8671 50.5387 36.0142C47.2654 33.586 43.4924 31.9141 39.4924 31.1196C45.7941 32.6155 50.6604 38.6312 51.0291 48.4792C50.8198 52.0536 45.3438 53.0295 34.6009 51.407C39.5793 52.5298 43.4303 53.4519 46.1538 54.1733C44.0924 53.7812 42.0071 53.5268 39.9118 53.412C46.8927 55.2966 50.0949 57.7069 49.5186 60.643C43.3773 84.0605 26.2829 93.3554 11.0493 73.1937C13.7799 78.3829 17.2258 82.9002 20.971 85.882C20.8321 85.7767 20.6974 85.6695 20.5668 85.5606Z" fill="#000072"/>
</g>
<path fill-rule="evenodd" clip-rule="evenodd" d="M45.8223 79.1996C49.2669 75.4805 52.1217 71.2577 54.2879 66.6775C62.3703 72.486 61.9873 76.9413 53.1388 80.0433C50.3094 86.4195 47.8705 86.1383 45.8223 79.1996Z" fill="#F38328"/>
<g opacity="0.5">
<path fill-rule="evenodd" clip-rule="evenodd" d="M48.1114 77.1183C47.9145 76.9724 48.8398 74.5764 50.8275 73.6106C51.4425 73.34 52.0839 73.1338 52.7415 72.9955C53.4249 72.8364 54.1205 72.7354 54.821 72.6936C53.6064 73.0405 52.4497 73.5644 51.3883 74.2484C49.1894 75.6696 48.2807 77.2433 48.1114 77.1183Z" fill="white"/>
</g>
<g opacity="0.5">
<path fill-rule="evenodd" clip-rule="evenodd" d="M54.6491 66.9429C56.0691 68.0355 57.3906 69.2502 58.5984 70.5729C59.2483 71.1924 59.7097 71.9825 59.9296 72.8522C60.0692 73.5552 60.0279 74.2821 59.8096 74.9649V74.9649L59.3699 73.649C58.9339 72.7548 58.3982 71.9126 57.7728 71.1384C56.7301 69.8526 55.4571 68.7714 54.0187 67.9497C53.9968 67.7358 54.0469 67.5207 54.161 67.3382C54.275 67.1558 54.4466 67.0164 54.6487 66.9419L54.6491 66.9429Z" fill="white"/>
</g>
<path d="M49.3516 85.1012H49.2254C47.7235 85.0031 46.4965 83.1719 45.3629 79.3379C45.3392 79.2577 45.3369 79.1727 45.3564 79.0914C45.3759 79.0101 45.4164 78.9353 45.474 78.8746C48.882 75.1893 51.7089 71.0082 53.8576 66.4746C53.885 66.4181 53.9233 66.3676 53.9702 66.3259C54.0172 66.2842 54.072 66.2521 54.1314 66.2315C54.1908 66.2109 54.2537 66.2022 54.3165 66.2059C54.3793 66.2096 54.4407 66.2256 54.4973 66.253C54.5223 66.2649 54.5462 66.279 54.5687 66.2953C58.9281 69.4276 60.8734 72.1605 60.5148 74.6488C60.1796 76.9687 57.8828 78.8615 53.4937 80.4314C52.0563 83.6077 50.7317 85.1012 49.3516 85.1012ZM46.3617 79.3248C47.6097 83.4246 48.7271 84.1061 49.2878 84.1436C49.8361 84.1822 51.0042 83.669 52.7019 79.8497C52.7283 79.7899 52.7667 79.7362 52.8148 79.6918C52.8628 79.6475 52.9195 79.6134 52.9813 79.5919C57.0679 78.1576 59.2864 76.4469 59.5657 74.5073C59.8533 72.5161 58.1387 70.1263 54.4662 67.4012C52.3519 71.7442 49.6215 75.7603 46.3592 79.3258L46.3617 79.3248Z" fill="#000072"/>
<path d="M48.3387 75.5963C48.6863 75.09 49.0757 74.6135 49.5026 74.1717C49.9338 73.7173 50.4242 73.3228 50.9606 72.9986C51.5078 72.6635 52.1166 72.4412 52.7512 72.3446C53.3825 72.2587 54.0253 72.3324 54.6207 72.5591C54.6644 72.5758 54.7005 72.6078 54.7221 72.6493C54.7437 72.6907 54.7493 72.7386 54.738 72.784C54.7266 72.8293 54.699 72.8689 54.6603 72.8952C54.6217 72.9216 54.5747 72.9329 54.5282 72.927V72.927C53.9742 72.8527 53.4116 72.8726 52.8643 72.9859C52.3263 73.1024 51.8151 73.3188 51.3572 73.6237C50.891 73.9385 50.4628 74.3062 50.0812 74.7193C49.6933 75.1412 49.3306 75.5855 48.9949 76.05V76.0538C48.9335 76.1405 48.8401 76.1993 48.7352 76.2173C48.6304 76.2353 48.5226 76.2109 48.4357 76.1496C48.3488 76.0883 48.2899 75.9951 48.2719 75.8904C48.2539 75.7857 48.2783 75.6782 48.3397 75.5915L48.3387 75.5963Z" fill="#000072"/>
<g opacity="0.25">
<path fill-rule="evenodd" clip-rule="evenodd" d="M53.1377 80.042C53.8733 79.2262 54.5471 79.4018 55.9386 78.7915C57.4583 78.2025 58.7088 77.0778 59.4535 75.6303C59.7185 74.9908 59.8403 74.3013 59.8104 73.6099C59.2616 74.7193 58.4268 75.6631 57.3919 76.3442C56.0217 77.2209 54.3921 77.6027 52.7742 77.426C52.275 77.3957 51.776 77.49 51.3224 77.7003C50.8688 77.9106 50.4748 78.2304 50.176 78.6308C50.1124 78.7947 50.0387 78.9546 49.9553 79.1095V79.1095C49.2207 80.4595 48.0566 80.4831 46.4629 79.1804C46.645 82.3196 47.8875 84.5156 49.1159 84.6013C50.454 84.6935 51.9634 82.2951 52.2735 81.8019C52.7683 81.0144 52.6252 80.611 53.1377 80.042Z" fill="#000072"/>
</g>
<g opacity="0.25">
<path fill-rule="evenodd" clip-rule="evenodd" d="M34.7614 89.4029C38.1131 87.0133 41.2997 84.4011 44.2996 81.584C39.8764 89.2521 40.4434 93.4012 46.0008 94.0311C37.4792 95.853 33.7328 94.3103 34.7614 89.4029Z" fill="#000072"/>
</g>
<g opacity="0.25">
<path fill-rule="evenodd" clip-rule="evenodd" d="M21.7821 94.4569C18.0806 94.8064 15.7616 94.5451 14.8252 93.6731C21.0596 92.7844 22.1589 89.698 18.1231 84.4141C21.5986 87.3813 24.2882 88.8809 26.1918 88.9128C27.2777 93.3952 25.8083 95.2444 21.7838 94.4603" fill="#000072"/>
</g>
<path d="M40.7671 40.2632C41.9364 39.8877 43.1488 39.6622 44.3751 39.592C44.9872 39.5463 45.601 39.5349 46.2163 39.5494C46.5229 39.5617 46.8308 39.5666 47.1374 39.5862L48.0568 39.6678L48.2865 39.6891L48.5148 39.7208L48.9724 39.7862C49.2773 39.8316 49.5821 39.8726 49.8828 39.9393L50.7884 40.1245C51.0885 40.1934 51.3844 40.2811 51.682 40.3586C52.28 40.5055 52.8586 40.72 53.4408 40.92C53.7342 41.0146 54.0129 41.1468 54.2984 41.2618C54.584 41.3767 54.8647 41.5027 55.1461 41.6246C55.2603 41.6741 55.3506 41.7661 55.398 41.881C55.4454 41.9959 55.4461 42.1247 55.4 42.2402C55.3539 42.3556 55.2645 42.4485 55.1509 42.4993C55.0372 42.5501 54.9082 42.5548 54.7913 42.5123L54.7626 42.5016C54.484 42.3983 54.2053 42.2985 53.9291 42.1918C53.6529 42.0851 53.3797 41.9698 53.0945 41.8882C52.5297 41.7137 51.9748 41.5058 51.4002 41.3636C50.2618 41.0398 49.1042 40.7878 47.934 40.6092C46.7599 40.4328 45.5761 40.3284 44.3892 40.2966C43.1944 40.2543 41.9981 40.2976 40.8095 40.4264H40.803C40.7834 40.4266 40.7644 40.4201 40.749 40.408C40.7336 40.3959 40.7229 40.3789 40.7185 40.3599C40.7141 40.3409 40.7164 40.3209 40.7249 40.3033C40.7334 40.2857 40.7477 40.2716 40.7654 40.2632H40.7671Z" fill="#000072"/>
<path d="M41.6386 62.8339C41.6824 60.8452 40.673 59.2101 39.3841 59.1818C38.0952 59.1535 37.0148 60.7427 36.971 62.7314C36.9271 64.7201 37.9365 66.3552 39.2254 66.3835C40.5143 66.4118 41.5947 64.8226 41.6386 62.8339Z" fill="#000072"/>
<path d="M39.2445 60.0276C39.6418 60.2117 39.7766 60.8881 39.5463 61.5383C39.3159 62.1885 38.8107 62.5654 38.411 62.3809C38.0113 62.1964 37.8778 61.5204 38.1086 60.8709C38.3393 60.2214 38.8486 59.8427 39.2445 60.0276Z" fill="white"/>
<path d="M40.363 64.3004C40.4537 64.42 40.5029 64.566 40.5029 64.716C40.5029 64.8661 40.4537 65.012 40.363 65.1317C40.1809 65.4377 39.8833 65.5605 39.6995 65.407C39.6087 65.2874 39.5596 65.1415 39.5596 64.9914C39.5596 64.8413 39.6087 64.6954 39.6995 64.5758C39.8857 64.2701 40.1792 64.1469 40.363 64.3004Z" fill="#B199C5"/>
<path d="M22.784 66.3848C24.0729 66.3563 25.082 64.721 25.0377 62.7323C24.9935 60.7436 23.9127 59.1546 22.6238 59.1831C21.3349 59.2115 20.3259 60.8468 20.3701 62.8355C20.4144 64.8242 21.4951 66.4132 22.784 66.3848Z" fill="#000072"/>
<path d="M22.7654 60.0276C22.3685 60.2117 22.2333 60.8881 22.463 61.5383C22.6926 62.1885 23.1985 62.5654 23.601 62.3809C24.0035 62.1964 24.1331 61.5204 23.9034 60.8709C23.6738 60.2214 23.1627 59.8427 22.7654 60.0276Z" fill="white"/>
<path d="M21.6482 64.3007C21.5574 64.4203 21.5083 64.5662 21.5083 64.7163C21.5083 64.8663 21.5574 65.0123 21.6482 65.1319C21.8303 65.4379 22.1279 65.5608 22.3117 65.4073C22.4025 65.2877 22.4516 65.1417 22.4516 64.9916C22.4516 64.8416 22.4025 64.6956 22.3117 64.576C22.1296 64.2704 21.8344 64.1471 21.6482 64.3007Z" fill="#B199C5"/>
</svg>
